<?xml version="1.0" encoding="UTF-8" standalone="no"?>
<!DOCTYPE svg PUBLIC "-//W3C//DTD SVG 1.1//EN" "http://www.w3.org/Graphics/SVG/1.1/DTD/svg11.dtd">
<svg width="100%" height="100%" viewBox="0 0 100 100" version="1.1" xmlns="http://www.w3.org/2000/svg" xmlns:xlink="http://www.w3.org/1999/xlink" xml:space="preserve" xmlns:serif="http://www.serif.com/" style="fill-rule:evenodd;clip-rule:evenodd;stroke-linecap:round;stroke-linejoin:round;stroke-miterlimit:1.5;">
    <g transform="matrix(0.196423,0,0,0.196423,-60.943195,-426.492171)">
        <g transform="matrix(1,0,0,1,-3.224906,-2.578388)">
            <path d="M319.541,2578.842C319.541,2578.842 616.905,2560.227 655.177,2558.804C693.45,2557.381 697.311,2547.677 706.577,2535.541C715.844,2523.404 721.499,2511.436 721.499,2511.436C721.499,2511.436 733.376,2510.137 744.687,2516.192C744.687,2516.192 737.486,2533.772 725.506,2549.823C725.506,2549.823 746.15,2556.805 814.2,2549.564C814.2,2549.564 815.562,2568.963 819.37,2581.318C819.37,2581.318 710.052,2587.11 602.332,2599.465C494.612,2611.82 355.646,2634.986 336.907,2640.777C336.907,2640.777 307.788,2625.014 319.541,2578.842Z" style="fill:rgb(186,104,62);"/>
            <path d="M817.144,2572.134C817.768,2575.352 818.506,2578.516 819.37,2581.318C819.37,2581.318 710.052,2587.11 602.332,2599.465C494.612,2611.82 355.646,2634.986 336.907,2640.777C336.907,2640.777 307.788,2625.014 319.541,2578.842C319.541,2578.842 324.527,2578.53 333.291,2577.984C335.673,2595.254 340.146,2615.144 348.314,2619.567C363.368,2627.72 498.442,2600.349 633.212,2585.501C715.397,2576.447 779.574,2573.25 817.144,2572.134Z" style="fill:rgb(176,96,53);"/>
            <path d="M319.34,2575.624C319.34,2575.624 616.775,2557.005 655.058,2555.581C673.378,2554.9 683.489,2552.365 690.103,2548.42C696.62,2544.532 699.642,2539.309 704.014,2533.584C713.059,2521.738 718.583,2510.058 718.583,2510.058C719.063,2509.044 720.034,2508.352 721.149,2508.23C721.149,2508.23 733.986,2506.806 746.208,2513.349C747.666,2514.129 748.297,2515.884 747.671,2517.414C747.671,2517.414 741.466,2532.57 730.97,2547.743C739.99,2549.299 764,2551.663 813.859,2546.357C814.729,2546.265 815.6,2546.53 816.271,2547.092C816.942,2547.654 817.356,2548.465 817.417,2549.338C817.417,2549.338 818.731,2568.296 822.452,2580.369C822.744,2581.318 822.583,2582.35 822.014,2583.164C821.445,2583.979 820.533,2584.486 819.54,2584.539C819.54,2584.539 710.322,2590.325 602.699,2602.669C495.219,2614.996 356.557,2638.079 337.859,2643.858C337.031,2644.114 336.134,2644.026 335.371,2643.613C335.371,2643.613 303.945,2627.038 316.416,2578.047C316.761,2576.69 317.942,2575.711 319.34,2575.624ZM322.116,2581.912C313.732,2618.455 332.671,2634.029 337.404,2637.278C360.988,2630.851 496.435,2608.365 601.965,2596.261C697.65,2585.286 794.594,2579.486 815.201,2578.319C812.984,2569.352 811.771,2558.477 811.267,2553.112C744.773,2559.895 724.473,2552.878 724.473,2552.878C723.495,2552.547 722.734,2551.768 722.427,2550.782C722.12,2549.796 722.304,2548.722 722.922,2547.894C731.801,2535.997 738,2523.242 740.488,2517.748C733.454,2514.726 726.633,2514.474 723.554,2514.549C721.613,2518.357 716.486,2527.877 709.14,2537.498C704.246,2543.908 700.704,2549.606 693.407,2553.959C686.205,2558.256 675.249,2561.285 655.297,2562.027C619.041,2563.375 350.215,2580.156 322.116,2581.912Z" style="fill:rgb(138,76,44);"/>
            <path d="M358.335,2594.949C356.566,2595.14 354.974,2593.858 354.783,2592.088C354.592,2590.319 355.874,2588.727 357.643,2588.536C357.643,2588.536 478.833,2575.463 545.928,2572.828C612.837,2570.2 666.292,2564.833 666.292,2564.833C668.063,2564.656 669.645,2565.949 669.823,2567.72C670.001,2569.491 668.708,2571.073 666.937,2571.251C666.937,2571.251 613.307,2576.637 546.181,2579.273C479.243,2581.901 358.335,2594.949 358.335,2594.949Z" style="fill:rgb(195,123,86);"/>
            <g>
                <path d="M420.801,2505.047C417.976,2505.303 367.885,2530.725 348.314,2543.693C328.743,2556.661 341.934,2571.426 361.787,2566.547C361.787,2566.547 354.935,2576.819 360.713,2584.394C366.491,2591.969 378.419,2587.09 378.419,2587.09C378.419,2587.09 377.019,2611.1 394.095,2609.944C411.172,2608.789 475.955,2518.271 479.128,2507.743C482.302,2497.215 423.626,2504.79 420.801,2505.047Z" style="fill:rgb(157,231,251);"/>
                <path d="M426.806,2504.373L428.548,2506.469C428.548,2506.469 367.243,2538.731 359.834,2549.04C352.425,2559.349 367.098,2560.802 367.098,2560.802L408.869,2531.311C408.869,2531.311 372.182,2563.236 370.439,2572.406C368.696,2581.576 381.77,2583.088 381.77,2583.088L418.005,2546.562C418.005,2546.562 413.83,2564.869 398.672,2580.559C387.235,2592.396 393.056,2604.207 396.604,2609.293C395.682,2609.672 394.843,2609.894 394.095,2609.944C377.019,2611.1 378.419,2587.09 378.419,2587.09C378.419,2587.09 366.491,2591.969 360.713,2584.394C354.935,2576.819 361.787,2566.547 361.787,2566.547C341.934,2571.426 328.743,2556.661 348.314,2543.693C367.885,2530.725 417.976,2505.303 420.801,2505.047C421.297,2505.002 423.51,2504.732 426.806,2504.373Z" style="fill:rgb(122,226,253);"/>
                <path d="M420.509,2501.835C422.815,2501.625 461.591,2496.758 475.35,2500.27C481.146,2501.75 483.307,2505.054 482.216,2508.674C481.515,2510.998 478.031,2517.075 472.681,2525.168C460.738,2543.236 439.458,2572.031 421.782,2591.516C414.012,2600.081 406.893,2606.862 401.525,2610.3C398.716,2612.099 396.249,2613.031 394.313,2613.162C383.873,2613.868 378.951,2607.053 376.769,2599.89C375.836,2596.829 375.436,2593.732 375.273,2591.33C373.542,2591.682 371.448,2591.944 369.283,2591.837C365.285,2591.639 361.107,2590.229 358.149,2586.35C355.239,2582.535 354.801,2578.193 355.41,2574.337C355.616,2573.03 355.944,2571.787 356.322,2570.654C350.838,2571.008 346.081,2569.939 342.587,2567.998C338.897,2565.948 336.516,2562.92 335.737,2559.451C334.552,2554.169 337.113,2547.247 346.533,2541.005C362.286,2530.567 397.689,2512.103 412.676,2505.005C416.969,2502.972 419.858,2501.894 420.509,2501.835ZM381.614,2588.613C381.625,2590.549 381.812,2594.312 382.939,2598.011C384.326,2602.565 387.24,2607.176 393.877,2606.727C395.511,2606.616 397.604,2605.308 400.183,2603.378C404.909,2599.842 410.716,2594.115 417.005,2587.182C434.473,2567.927 455.498,2539.467 467.3,2521.612C471.749,2514.881 474.886,2509.766 475.844,2507.364C475.104,2507.057 473.36,2506.378 471.82,2506.12C470.717,2505.935 469.5,2505.792 468.194,2505.683C452.538,2504.372 424.805,2507.857 421.346,2508.232C420.919,2508.407 418.254,2509.5 415.437,2510.834C400.633,2517.845 365.656,2536.071 350.095,2546.382C343.848,2550.521 341.244,2554.536 342.031,2558.039C342.434,2559.839 343.806,2561.297 345.72,2562.36C349.231,2564.311 354.426,2564.896 360.345,2563.574C364.275,2560.449 387.745,2541.883 407.145,2528.586C408.613,2527.58 410.622,2527.955 411.628,2529.423C412.635,2530.891 412.26,2532.9 410.792,2533.906C391.308,2547.26 367.688,2565.973 364.231,2568.724C363.667,2569.674 362.265,2572.272 361.78,2575.343C361.422,2577.612 361.564,2580.193 363.277,2582.438C364.941,2584.62 367.353,2585.284 369.6,2585.395C372.753,2585.55 375.697,2584.643 376.77,2584.265C380.061,2581.493 402.467,2562.334 417.947,2541.753C419.017,2540.331 421.041,2540.045 422.463,2541.114C423.886,2542.184 424.172,2544.208 423.102,2545.63C408.092,2565.586 386.738,2584.244 381.614,2588.613Z" style="fill:rgb(10,153,191);"/>
                <g>
                    <path d="M593.688,2532.337L598.823,2552.291C598.823,2552.291 583.534,2560.79 588.851,2569.068C594.167,2577.345 605.893,2562.17 612.102,2564.067C618.31,2565.964 626.587,2578.725 633.313,2574.931C640.038,2571.137 634.863,2557.895 627.19,2553.997C619.517,2550.099 612.984,2549.297 610.042,2531.246C607.101,2513.195 593.688,2532.337 593.688,2532.337Z" style="fill:rgb(255,143,41);"/>
                    <path d="M595.6,2529.897L599.965,2531.681C599.965,2531.681 608.176,2548.2 606.817,2553.085C605.661,2557.245 595.989,2562.699 593.964,2571.498C591.975,2571.763 590.205,2571.176 588.851,2569.068C583.534,2560.79 598.823,2552.291 598.823,2552.291L593.688,2532.337C593.688,2532.337 594.429,2531.28 595.6,2529.897Z" style="fill:rgb(242,116,2);"/>
                    <path d="M591.047,2530.486C591.047,2530.486 595.881,2523.735 600.668,2521.338C603.749,2519.795 606.815,2519.786 609.341,2522.005C610.938,2523.409 612.464,2526.058 613.225,2530.727C614.29,2537.26 615.791,2541.324 617.753,2544.041C620.669,2548.078 624.525,2549.026 628.65,2551.122C634.106,2553.893 638.542,2560.619 639.46,2566.553C640.2,2571.342 638.756,2575.563 634.897,2577.74C631.165,2579.845 627.006,2578.762 622.906,2575.952C620.61,2574.379 618.297,2572.291 616.083,2570.443C614.324,2568.974 612.692,2567.619 611.159,2567.151C610.786,2567.037 610.372,2567.175 609.915,2567.314C608.971,2567.601 607.964,2568.109 606.914,2568.693C604.318,2570.138 601.537,2572.027 598.912,2573.257C596.096,2574.577 593.375,2575.127 591.045,2574.53C589.214,2574.061 587.516,2572.957 586.137,2570.811C583.187,2566.218 584.497,2561.539 587.507,2557.622C589.77,2554.677 593.001,2552.236 595.114,2550.816L590.565,2533.14C590.33,2532.228 590.506,2531.258 591.047,2530.486ZM597.198,2533.034L601.946,2551.487C602.312,2552.908 601.672,2554.397 600.39,2555.11C600.39,2555.11 595.503,2557.801 592.621,2561.552C591.289,2563.286 590.258,2565.292 591.564,2567.325C592.239,2568.376 593.19,2568.435 594.217,2568.163C595.59,2567.798 597.046,2567.023 598.53,2566.167C601.277,2564.583 604.075,2562.717 606.569,2561.677C608.956,2560.681 611.177,2560.412 613.044,2560.983C616.438,2562.02 620.499,2565.887 624.53,2569.116C626.09,2570.366 627.642,2571.501 629.182,2572.087C630.059,2572.421 630.917,2572.58 631.728,2572.122C633.255,2571.261 633.379,2569.434 633.086,2567.539C632.454,2563.458 629.481,2558.778 625.729,2556.872C620.646,2554.29 616.117,2552.791 612.525,2547.818C610.149,2544.529 608.148,2539.673 606.859,2531.765C606.575,2530.018 606.199,2528.694 605.704,2527.732C605.467,2527.269 605.259,2526.916 604.952,2526.756C604.607,2526.575 604.238,2526.8 603.844,2526.97C602.788,2527.427 601.74,2528.253 600.771,2529.137C599.286,2530.49 597.999,2532.017 597.198,2533.034Z" style="fill:none;"/>
                    <path d="M591.047,2530.486C591.047,2530.486 595.881,2523.735 600.668,2521.338C603.749,2519.795 606.815,2519.786 609.341,2522.005C610.938,2523.409 612.464,2526.058 613.225,2530.727C614.29,2537.26 615.791,2541.324 617.753,2544.041C620.669,2548.078 624.525,2549.026 628.65,2551.122C634.106,2553.893 638.542,2560.619 639.46,2566.553C640.2,2571.342 638.756,2575.563 634.897,2577.74C631.165,2579.845 627.006,2578.762 622.906,2575.952C620.61,2574.379 618.297,2572.291 616.083,2570.443C614.324,2568.974 612.692,2567.619 611.159,2567.151C610.786,2567.037 610.372,2567.175 609.915,2567.314C608.971,2567.601 607.964,2568.109 606.914,2568.693C604.318,2570.138 601.537,2572.027 598.912,2573.257C596.096,2574.577 593.375,2575.127 591.045,2574.53C589.214,2574.061 587.516,2572.957 586.137,2570.811C583.187,2566.218 584.497,2561.539 587.507,2557.622C589.77,2554.677 593.001,2552.236 595.114,2550.816L590.565,2533.14C590.33,2532.228 590.506,2531.258 591.047,2530.486ZM597.198,2533.034L601.946,2551.487C602.312,2552.908 601.672,2554.397 600.39,2555.11C600.39,2555.11 595.503,2557.801 592.621,2561.552C591.289,2563.286 590.258,2565.292 591.564,2567.325C592.239,2568.376 593.19,2568.435 594.217,2568.163C595.59,2567.798 597.046,2567.023 598.53,2566.167C601.277,2564.583 604.075,2562.717 606.569,2561.677C608.956,2560.681 611.177,2560.412 613.044,2560.983C616.438,2562.02 620.499,2565.887 624.53,2569.116C626.09,2570.366 627.642,2571.501 629.182,2572.087C630.059,2572.421 630.917,2572.58 631.728,2572.122C633.255,2571.261 633.379,2569.434 633.086,2567.539C632.454,2563.458 629.481,2558.778 625.729,2556.872C620.646,2554.29 616.117,2552.791 612.525,2547.818C610.149,2544.529 608.148,2539.673 606.859,2531.765C606.575,2530.018 606.199,2528.694 605.704,2527.732C605.467,2527.269 605.259,2526.916 604.952,2526.756C604.607,2526.575 604.238,2526.8 603.844,2526.97C602.788,2527.427 601.74,2528.253 600.771,2529.137C599.286,2530.49 597.999,2532.017 597.198,2533.034Z" style="fill:rgb(161,78,3);"/>
                </g>
                <g>
                    <path d="M517.055,2530.037L517.055,2555.553C517.055,2555.553 505.603,2554.774 501.938,2561.989C498.273,2569.204 509.972,2568.202 517.98,2568.531C525.987,2568.86 535.956,2587.298 542.825,2586.267C549.693,2585.237 546.179,2565.539 534.022,2559.928L534.022,2539.543L517.055,2530.037Z" style="fill:rgb(255,143,41);"/>
                    <path d="M523.769,2533.799L523.769,2538.001C523.769,2538.001 525.394,2554.297 522.573,2559.314C519.972,2563.941 509.009,2562.166 506.783,2568.042C502.605,2567.468 499.903,2565.995 501.938,2561.989C505.603,2554.774 517.055,2555.553 517.055,2555.553L517.055,2530.037L523.769,2533.799Z" style="fill:rgb(242,116,2);"/>
                    <path d="M518.631,2527.224L535.598,2536.729C536.616,2537.3 537.247,2538.376 537.247,2539.543L537.246,2557.993C545.795,2563.141 550.062,2574.472 549.463,2581.459C549.07,2586.046 546.697,2588.947 543.303,2589.457C541.579,2589.715 539.702,2589.313 537.76,2588.249C535.684,2587.111 533.433,2585.137 531.139,2582.846C528.152,2579.861 525.041,2576.305 522.012,2573.906C520.552,2572.75 519.198,2571.809 517.847,2571.753C512.69,2571.542 506.118,2571.717 502.526,2570.319C500.443,2569.509 499.077,2568.212 498.435,2566.603C497.828,2565.08 497.768,2563.077 499.063,2560.528C500.942,2556.829 504.347,2554.681 507.842,2553.541C509.98,2552.843 512.126,2552.531 513.83,2552.398L513.83,2530.037C513.83,2528.893 514.437,2527.834 515.424,2527.255C516.412,2526.676 517.632,2526.665 518.631,2527.224ZM504.551,2564.127C504.92,2564.28 505.653,2564.568 506.213,2564.68C509.541,2565.345 514.27,2565.151 518.112,2565.309C520.253,2565.397 522.543,2566.344 524.84,2567.967C527.563,2569.892 530.394,2572.806 533.153,2575.673C535.218,2577.818 537.239,2579.932 539.161,2581.44C539.931,2582.043 540.668,2582.543 541.386,2582.852C541.726,2582.997 542.038,2583.125 542.346,2583.078C542.476,2583.059 542.511,2582.916 542.575,2582.796C542.702,2582.56 542.794,2582.285 542.868,2581.985C543.108,2581.004 543.129,2579.812 542.988,2578.513C542.393,2573.011 538.908,2565.735 532.67,2562.856C531.528,2562.328 530.797,2561.185 530.797,2559.928L530.797,2541.433L520.28,2535.541L520.28,2555.553C520.28,2556.446 519.909,2557.299 519.256,2557.909C518.604,2558.519 517.727,2558.831 516.836,2558.77C516.836,2558.77 513.325,2558.536 509.842,2559.672C507.884,2560.311 505.866,2561.376 504.813,2563.449C504.708,2563.656 504.614,2563.927 504.551,2564.127Z" style="fill:none;"/>
                    <path d="M518.631,2527.224L535.598,2536.729C536.616,2537.3 537.247,2538.376 537.247,2539.543L537.246,2557.993C545.795,2563.141 550.062,2574.472 549.463,2581.459C549.07,2586.046 546.697,2588.947 543.303,2589.457C541.579,2589.715 539.702,2589.313 537.76,2588.249C535.684,2587.111 533.433,2585.137 531.139,2582.846C528.152,2579.861 525.041,2576.305 522.012,2573.906C520.552,2572.75 519.198,2571.809 517.847,2571.753C512.69,2571.542 506.118,2571.717 502.526,2570.319C500.443,2569.509 499.077,2568.212 498.435,2566.603C497.828,2565.08 497.768,2563.077 499.063,2560.528C500.942,2556.829 504.347,2554.681 507.842,2553.541C509.98,2552.843 512.126,2552.531 513.83,2552.398L513.83,2530.037C513.83,2528.893 514.437,2527.834 515.424,2527.255C516.412,2526.676 517.632,2526.665 518.631,2527.224ZM504.551,2564.127C504.92,2564.28 505.653,2564.568 506.213,2564.68C509.541,2565.345 514.27,2565.151 518.112,2565.309C520.253,2565.397 522.543,2566.344 524.84,2567.967C527.563,2569.892 530.394,2572.806 533.153,2575.673C535.218,2577.818 537.239,2579.932 539.161,2581.44C539.931,2582.043 540.668,2582.543 541.386,2582.852C541.726,2582.997 542.038,2583.125 542.346,2583.078C542.476,2583.059 542.511,2582.916 542.575,2582.796C542.702,2582.56 542.794,2582.285 542.868,2581.985C543.108,2581.004 543.129,2579.812 542.988,2578.513C542.393,2573.011 538.908,2565.735 532.67,2562.856C531.528,2562.328 530.797,2561.185 530.797,2559.928L530.797,2541.433L520.28,2535.541L520.28,2555.553C520.28,2556.446 519.909,2557.299 519.256,2557.909C518.604,2558.519 517.727,2558.831 516.836,2558.77C516.836,2558.77 513.325,2558.536 509.842,2559.672C507.884,2560.311 505.866,2561.376 504.813,2563.449C504.708,2563.656 504.614,2563.927 504.551,2564.127Z" style="fill:rgb(161,78,3);"/>
                </g>
                <g>
                    <path d="M470.901,2396.723C470.901,2396.723 435.112,2406.972 417.338,2453.028C399.564,2499.084 412.7,2512.716 412.7,2512.716C412.7,2512.716 437.489,2529.569 473.797,2517.177C473.797,2517.177 509.89,2569.643 599.965,2541.551C690.041,2513.459 702.176,2428.943 666.615,2396.475C666.615,2396.475 692.314,2370.231 675.315,2326.348C675.315,2326.348 680.161,2261.646 599.965,2245.041C599.965,2245.041 595.288,2210.838 568.187,2216.786C568.187,2216.786 572.558,2241.819 540.34,2246.528C508.121,2251.237 424.758,2324.848 470.901,2396.723Z" style="fill:rgb(157,231,251);"/>
                    <g transform="matrix(0.93844,0,0,0.72649,29.827762,616.340773)">
                        <path d="M608.844,2277.434C603.849,2277.875 599.436,2274.179 598.994,2269.184C598.553,2264.19 602.249,2259.776 607.244,2259.335C607.244,2259.335 642.462,2255.538 663.191,2295.652C682.219,2332.475 666.757,2385.565 666.757,2385.565C665.322,2390.369 660.257,2393.105 655.453,2391.671C650.648,2390.236 647.912,2385.171 649.347,2380.366C649.347,2380.366 663.206,2335.261 647.049,2303.993C632.589,2276.01 608.844,2277.434 608.844,2277.434Z" style="fill:rgb(210,244,253);"/>
                    </g>
                    <g transform="matrix(0.619379,0.641801,-0.588244,0.567693,1608.759064,733.275851)">
                        <path d="M608.844,2277.434C603.849,2277.875 599.436,2274.179 598.994,2269.184C598.553,2264.19 602.249,2259.776 607.244,2259.335C607.244,2259.335 642.462,2255.538 663.191,2295.652C682.219,2332.475 666.757,2385.565 666.757,2385.565C665.322,2390.369 660.257,2393.105 655.453,2391.671C650.648,2390.236 647.912,2385.171 649.347,2380.366C649.347,2380.366 663.206,2335.261 647.049,2303.993C632.589,2276.01 608.844,2277.434 608.844,2277.434Z" style="fill:rgb(210,244,253);"/>
                    </g>
                    <path d="M580.167,2216.873C580.844,2225.268 578.943,2237.172 568.187,2250.509C547.351,2276.346 502.788,2272.686 485.13,2318.332C467.471,2363.977 487.189,2381.085 486.588,2395.246C485.988,2409.408 437.239,2414.79 438.037,2448.594C438.037,2448.594 422.256,2454.615 425.701,2463.877C429.146,2473.139 459.418,2463.284 467.105,2454.324C474.791,2445.364 466.737,2469.479 438.037,2473.785L423.493,2475.508C423.493,2475.508 409.553,2496.177 441.203,2506.512C472.854,2516.847 532.196,2492.086 550.754,2464.957L558.116,2442.781C558.116,2442.781 564.137,2472.063 546.055,2502.637C530.597,2528.773 573.67,2553.022 638.017,2523.729C627.327,2530.861 614.687,2536.96 599.965,2541.551C509.89,2569.643 473.797,2517.177 473.797,2517.177C437.489,2529.569 412.7,2512.716 412.7,2512.716C412.7,2512.716 399.564,2499.084 417.338,2453.028C435.112,2406.972 470.901,2396.723 470.901,2396.723C424.758,2324.848 508.121,2251.237 540.34,2246.528C572.558,2241.819 568.187,2216.786 568.187,2216.786C572.801,2215.773 576.765,2215.925 580.167,2216.873Z" style="fill:rgb(122,226,253);"/>
                    <path d="M466.091,2395.054C440.566,2351.601 459.581,2307.881 486.306,2278.558C504.615,2258.47 526.536,2245.286 539.873,2243.337C551.529,2241.633 557.972,2237.148 561.409,2232.188C566.322,2225.097 565.01,2217.341 565.01,2217.341C564.713,2215.64 565.808,2214.006 567.495,2213.636C582.842,2210.268 591.863,2218.215 597.024,2227.057C600.425,2232.884 602.064,2239.098 602.747,2242.339C634.576,2249.389 653.022,2263.983 663.754,2278.956C678.685,2299.788 678.723,2321.536 678.569,2325.827C692.863,2363.472 677.026,2388.601 671.027,2396.262C680.927,2406.434 686.897,2420.686 688.14,2436.569C691.183,2475.445 665.852,2524.381 600.926,2544.63C518.837,2570.231 480.379,2530.426 472.633,2520.952C435.827,2532.516 410.887,2515.383 410.887,2515.383C410.703,2515.258 410.532,2515.114 410.378,2514.953C410.378,2514.953 395.563,2500.494 414.329,2451.867C429.122,2413.537 456.041,2399.215 466.091,2395.054ZM420.498,2453.798C420.448,2453.928 420.397,2454.058 420.347,2454.189C417.661,2461.149 415.698,2467.323 414.296,2472.784C423.179,2473.66 453.156,2474.491 471.16,2448.938C472.186,2447.483 474.199,2447.134 475.654,2448.159C477.109,2449.184 477.458,2451.198 476.433,2452.653C456.051,2481.579 421.852,2480.064 412.851,2479.104C408.587,2500.553 413.823,2508.88 414.855,2510.267C417.87,2512.134 440.569,2525.11 472.755,2514.125C472.982,2514.047 473.216,2513.996 473.455,2513.97C473.455,2513.97 541.496,2506.742 554.591,2440.189C554.934,2438.443 556.631,2437.304 558.377,2437.648C560.124,2437.991 561.263,2439.688 560.919,2441.435C549.312,2500.426 497.364,2515.861 479.892,2519.42C490.623,2530.832 527.152,2560.881 599.005,2538.472C660.185,2519.392 684.577,2473.705 681.71,2437.072C680.511,2421.757 674.538,2408.076 664.44,2398.857C663.794,2398.267 663.415,2397.44 663.391,2396.566C663.366,2395.691 663.698,2394.844 664.31,2394.219C664.31,2394.219 688.469,2369.234 672.308,2327.513C672.135,2327.066 672.064,2326.586 672.099,2326.108C672.099,2326.108 673.703,2303.909 658.512,2282.713C648.245,2268.389 630.329,2254.621 599.311,2248.199C597.974,2247.922 596.955,2246.831 596.77,2245.478C596.77,2245.478 595.68,2237.549 591.454,2230.308C587.817,2224.077 581.711,2218.347 571.602,2219.481C571.634,2223.257 570.944,2229.752 566.711,2235.861C562.547,2241.87 554.926,2247.655 540.806,2249.719C528.368,2251.537 508.148,2264.169 491.073,2282.903C465.421,2311.048 446.853,2353.296 473.614,2394.981C474.165,2395.839 474.278,2396.907 473.918,2397.861C473.558,2398.815 472.769,2399.543 471.788,2399.823C471.788,2399.823 440.895,2408.831 423.109,2447.632C429.181,2448.276 442.603,2447.97 457.46,2436.494C458.869,2435.406 460.896,2435.666 461.984,2437.075C463.072,2438.483 462.812,2440.51 461.403,2441.598C443.179,2455.675 426.746,2454.823 420.498,2453.798ZM416.651,2499.6C414.912,2499.221 413.808,2497.501 414.187,2495.762C414.567,2494.023 416.287,2492.919 418.026,2493.299C418.026,2493.299 466.267,2503.783 503.93,2467.43C505.211,2466.194 507.254,2466.23 508.49,2467.511C509.727,2468.791 509.69,2470.834 508.41,2472.071C468.192,2510.889 416.651,2499.6 416.651,2499.6Z" style="fill:rgb(10,153,191);"/>
                    <g>
                        <path d="M621.315,2324.304C621.315,2324.304 684.562,2297.802 694.105,2308.403C703.648,2319.003 643.4,2359.993 636.509,2361.23C629.619,2362.467 614.223,2348.021 621.315,2324.304Z" style="fill:rgb(255,143,41);"/>
                        <path d="M695.05,2312.127C692.822,2326.338 642.754,2360.109 636.509,2361.23C629.619,2362.467 614.223,2348.021 621.315,2324.304C621.315,2324.304 623.887,2323.226 628.071,2321.592C628.104,2329.769 629.41,2340.588 635.678,2344.007C644.927,2349.051 681.996,2322.097 695.05,2312.127Z" style="fill:rgb(242,116,2);"/>
                        <path d="M620.069,2321.329C620.069,2321.329 651.439,2308.2 673.572,2303.994C679.587,2302.851 684.96,2302.377 688.955,2302.88C692.372,2303.31 694.93,2304.499 696.502,2306.245C698.375,2308.326 698.875,2311.084 697.808,2314.398C696.725,2317.764 693.756,2321.978 689.521,2326.468C678.941,2337.682 660.357,2351.191 648.472,2358.58C642.937,2362.02 638.677,2364.117 637.079,2364.404C634.333,2364.897 630.465,2363.797 626.796,2360.769C619.694,2354.909 612.753,2341.678 618.225,2323.38C618.502,2322.455 619.178,2321.703 620.069,2321.329ZM623.995,2326.687C620.817,2338.824 624.047,2348.151 628.599,2353.509C630.046,2355.212 631.608,2356.498 633.108,2357.29C634.165,2357.847 635.135,2358.2 635.94,2358.056C637.236,2357.823 640.575,2355.895 645.067,2353.102C656.573,2345.948 674.586,2332.898 684.829,2322.041C687.74,2318.956 690.01,2316.088 691.192,2313.603C691.545,2312.859 691.795,2312.171 691.878,2311.535C691.927,2311.16 691.939,2310.817 691.708,2310.56C690.989,2309.761 689.714,2309.476 688.149,2309.279C684.674,2308.841 680.008,2309.336 674.776,2310.33C655.951,2313.908 630.284,2324.12 623.995,2326.687Z" style="fill:rgb(161,78,3);"/>
                        <path d="M641.712,2331.173C640.19,2332.096 638.205,2331.609 637.282,2330.087C636.359,2328.565 636.846,2326.581 638.368,2325.658C638.368,2325.658 654.109,2316.066 679.343,2312.359C681.104,2312.101 682.744,2313.32 683.003,2315.081C683.261,2316.842 682.042,2318.482 680.281,2318.74C656.543,2322.227 641.712,2331.173 641.712,2331.173Z" style="fill:rgb(254,188,128);"/>
                    </g>
                    <path d="M564.935,2348.694C564.935,2348.694 581.012,2352.29 582.429,2335.776" style="fill:none;stroke:black;stroke-width:7.88px;"/>
                    <path d="M647.528,2300.495C647.528,2300.495 660.105,2303.805 666.615,2295.751" style="fill:none;stroke:black;stroke-width:7.88px;"/>
                    <path d="M594.397,2419.442C594.675,2417.684 596.327,2416.482 598.085,2416.759C599.843,2417.037 601.045,2418.69 600.768,2420.448C600.768,2420.448 599.401,2428.974 600.526,2435.626C600.781,2437.135 601.156,2438.539 601.771,2439.653C602.299,2440.609 603.043,2441.293 604.232,2441.202C607.377,2440.961 609.095,2438.081 610.35,2435.049C612.752,2429.246 613.035,2422.198 613.035,2422.198C613.104,2420.538 614.423,2419.203 616.082,2419.112C617.741,2419.022 619.197,2420.207 619.446,2421.849C619.446,2421.849 620.559,2429.32 623.502,2434.745C624.173,2435.982 624.935,2437.11 625.837,2437.945C626.724,2438.765 627.765,2439.257 629.033,2438.916C632.015,2438.114 633.443,2435.296 634.332,2432.413C635.988,2427.046 635.551,2421.009 635.551,2421.009C635.432,2419.328 636.627,2417.839 638.293,2417.591C639.96,2417.343 641.537,2418.419 641.912,2420.062C641.912,2420.062 642.748,2423.716 644.745,2426.926C646.263,2429.368 648.529,2431.772 652.062,2430.422C654.815,2429.371 655.555,2427.066 655.579,2424.757C655.625,2420.13 653.172,2415.301 653.172,2415.301C652.374,2413.71 653.018,2411.771 654.609,2410.973C656.2,2410.175 658.14,2410.819 658.937,2412.41C658.937,2412.41 662.089,2418.756 662.028,2424.822C661.98,2429.642 660.112,2434.251 654.364,2436.447C648.547,2438.67 644.195,2436.432 641.097,2432.84L640.948,2432.667C640.814,2433.219 640.663,2433.77 640.495,2434.315C638.947,2439.331 635.897,2443.749 630.708,2445.144C626.299,2446.33 622.681,2444.483 619.904,2440.995C618.749,2439.543 617.759,2437.773 616.921,2435.912C616.731,2436.452 616.528,2436.989 616.309,2437.516C614.085,2442.89 610.299,2447.205 604.726,2447.633C599.862,2448.006 596.784,2445.151 595.15,2440.587C592.38,2432.85 594.397,2419.442 594.397,2419.442Z" style="fill:rgb(10,153,191);"/>
                    <path d="M628.469,2476.07C626.836,2480.769 623.797,2484.53 619.202,2485.103C615.224,2485.598 612.287,2483.55 610.312,2480.116C606.982,2474.328 606.818,2464.019 606.818,2464.019C606.805,2462.239 608.239,2460.784 610.019,2460.771C611.799,2460.758 613.254,2462.193 613.267,2463.972C613.267,2463.972 613.293,2470.197 615.025,2474.962C615.405,2476.009 615.862,2476.982 616.465,2477.738C616.957,2478.355 617.561,2478.807 618.404,2478.702C620.652,2478.422 621.646,2476.121 622.425,2473.81C624.054,2468.98 623.965,2463.203 623.965,2463.203C623.943,2461.53 625.204,2460.117 626.869,2459.951C628.534,2459.785 630.05,2460.92 630.359,2462.565C630.359,2462.565 631.435,2468.379 633.921,2472.651C634.476,2473.604 635.096,2474.478 635.821,2475.131C636.453,2475.701 637.168,2476.098 638.04,2475.896C638.951,2475.685 639.631,2475.002 640.233,2474.174C641.135,2472.932 641.804,2471.341 642.338,2469.669C644.136,2464.031 644.304,2457.463 644.304,2457.463C644.352,2455.684 645.835,2454.278 647.614,2454.325C649.393,2454.373 650.799,2455.856 650.752,2457.635C650.752,2457.635 650.435,2467.988 647.218,2474.913C645.479,2478.655 642.863,2481.398 639.497,2482.179C635.772,2483.043 632.616,2481.468 630.156,2478.513C629.546,2477.78 628.983,2476.951 628.469,2476.07Z" style="fill:rgb(10,153,191);"/>
                </g>
                <path d="M450.851,2529.697C451.857,2528.228 453.866,2527.853 455.334,2528.859C456.802,2529.866 457.177,2531.875 456.171,2533.343C456.171,2533.343 431.441,2569.407 408.836,2590.858C407.545,2592.083 405.502,2592.029 404.277,2590.738C403.051,2589.447 403.105,2587.404 404.396,2586.179C426.589,2565.119 450.851,2529.697 450.851,2529.697Z" style="fill:rgb(210,244,253);"/>
            </g>
        </g>
        <g transform="matrix(0.944003,-0.329935,0.329935,0.944003,-720.807721,363.252454)">
            <path d="M717.368,2401.215C715.616,2411.614 711.644,2428.168 711.637,2428.195C709.936,2435.791 705.873,2439.392 698.773,2439.392C691.674,2439.392 685.909,2434.375 685.909,2428.195C685.909,2422.015 691.674,2416.998 698.773,2416.998C701.927,2416.998 704.816,2417.987 707.055,2419.629C708.489,2413.464 710.225,2405.398 711.381,2397.981C711.394,2397.806 711.421,2397.634 711.461,2397.467C712.076,2393.443 712.514,2389.628 712.631,2386.435C712.686,2384.938 713.764,2383.676 715.235,2383.388L750.883,2376.417C751.808,2376.237 752.766,2376.47 753.505,2377.055C754.244,2377.641 754.69,2378.521 754.724,2379.463C754.724,2379.463 754.896,2384.359 754.82,2391.166C754.843,2391.401 754.839,2391.635 754.811,2391.864C754.681,2401.498 754.044,2414.628 751.773,2423.249C749.971,2430.092 745.864,2434.048 738.917,2434.048C731.817,2434.048 726.053,2429.031 726.053,2422.851C726.053,2416.671 731.817,2411.653 738.917,2411.653C741.97,2411.653 744.776,2412.581 746.983,2414.13C747.794,2408.329 748.167,2401.76 748.322,2395.928C737.231,2399.124 723.064,2400.683 717.368,2401.215ZM748.417,2389.162C748.422,2386.956 748.401,2385.018 748.375,2383.48L718.928,2389.238C718.798,2390.936 718.602,2392.755 718.357,2394.648C724.973,2393.996 738.471,2392.362 748.417,2389.162Z"/>
        </g>
        <path d="M747.453,2281.538C747.453,2287.256 741.11,2291.897 733.298,2291.897C725.485,2291.897 719.142,2287.256 719.142,2281.538C719.142,2275.821 725.485,2271.18 733.298,2271.18C736.023,2271.18 738.57,2271.745 740.731,2272.723C740.308,2252.17 736.022,2238.528 736.022,2238.528C735.486,2236.831 736.429,2235.018 738.126,2234.482C739.823,2233.945 741.636,2234.888 742.172,2236.585C742.172,2236.585 748.265,2255.262 747.453,2281.538Z"/>
        <path d="M423.258,2302.493C423.07,2312.825 415.944,2317.825 406.645,2317.825C397.347,2317.825 389.798,2311.94 389.798,2304.691C389.798,2297.443 397.347,2291.558 406.645,2291.558C410.222,2291.558 413.54,2292.429 416.269,2293.913C413.32,2273.038 399.603,2251.929 399.603,2251.929C398.638,2250.433 399.07,2248.436 400.566,2247.471C400.574,2247.466 400.583,2247.46 400.591,2247.455C400.625,2247.434 400.66,2247.413 400.694,2247.392C412.053,2240.55 425.348,2247.554 427.043,2258.753C428.743,2269.986 437.168,2266.661 437.315,2267.991C437.463,2269.321 434.951,2273.238 429.334,2271.095C423.717,2268.952 423.865,2261.561 418.758,2255.649C415.554,2251.941 410.977,2252.548 408.01,2253.517C413.268,2262.957 423.594,2283.928 423.258,2302.493Z"/>
    </g>
</svg>
