<?xml version="1.0" encoding="utf-8"?>
<!-- Generator: Adobe Illustrator 18.0.0, SVG Export Plug-In . SVG Version: 6.00 Build 0)  -->
<!DOCTYPE svg PUBLIC "-//W3C//DTD SVG 1.1//EN" "http://www.w3.org/Graphics/SVG/1.1/DTD/svg11.dtd">
<svg version="1.1" id="Layer_1" xmlns="http://www.w3.org/2000/svg" xmlns:xlink="http://www.w3.org/1999/xlink" x="0px" y="0px"
	 viewBox="0 131.9 595.3 757.4" enable-background="new 0 131.9 595.3 757.4" xml:space="preserve">
<g>
	<rect x="-7.3" y="131.9" fill="#C95B5E" width="609.9" height="757.4"/>
	<g opacity="0.7">
		<g>
			<path fill="#C14D56" d="M640.4,772.2c-1.4-11.4-11.1-20.2-22.8-20.2c-11.9,0-21.6,9-22.9,20.6c-1.2-11.6-11.1-20.6-22.9-20.6
				c-11.5,0-21.1,8.4-22.7,19.5c-1.7-11.1-11.3-19.5-22.7-19.5c-11.9,0-21.6,9-22.9,20.6c-1.2-11.6-11.1-20.6-22.8-20.6
				c-12.7,0-23,10.3-23,23c0,12.2,10.3,22.1,23,22.1c11.9,0,21.6-8.6,22.9-19.7c1.2,11.1,11.1,19.7,22.9,19.7
				c11.5,0,21.1-8.1,22.7-18.7c1.7,10.5,11.3,18.7,22.7,18.7c11.9,0,21.6-8.6,22.9-19.7c1.2,11.1,11.1,19.7,22.9,19.7
				c11.8,0,21.4-8.4,22.8-19.3c1.4,11,11.1,19.3,22.8,19.3V752C651.5,752,641.8,760.8,640.4,772.2z"/>
			<path fill="#C14D56" d="M68.5,752c-11.9,0-21.6,9-22.9,20.6C44.5,761,34.6,752,22.8,752c-11.5,0-21.1,8.4-22.7,19.5
				C-1.5,760.4-11.1,752-22.5,752c-11.9,0-21.6,9-22.9,20.6c-1.2-11.6-11.1-20.5-22.8-20.6v45.1c11.9,0,21.6-8.6,22.8-19.7
				c1.2,11.1,11.1,19.7,22.9,19.7c11.5,0,21.1-8.1,22.7-18.7c1.7,10.5,11.3,18.7,22.7,18.7c11.9,0,21.6-8.6,22.9-19.7
				c1.2,11.1,11.1,19.7,22.9,19.7c12.7,0,23-9.9,23-22.1C91.5,762.4,81.3,752,68.5,752z"/>
			<path fill="#C14D56" d="M434.5,752c-11.9,0-21.6,9-22.8,20.6c-1.2-11.6-11.1-20.6-22.9-20.6c-11.5,0-21.1,8.4-22.7,19.5
				c-1.7-11.1-11.3-19.5-22.7-19.5c-11.9,0-21.6,9-22.9,20.6c-1.2-11.6-11.1-20.6-22.8-20.6l0,0l0,0c-11.8,0-21.4,8.8-22.8,20.2
				c-1.4-11.4-11.1-20.2-22.8-20.2c-11.9,0-21.6,9-22.9,20.6C228,761,218.1,752,206.3,752c-11.5,0-21.1,8.4-22.7,19.5
				c-1.7-11.1-11.3-19.5-22.7-19.5c-11.9,0-21.6,9-22.9,20.6c-1.2-11.6-11.1-20.6-22.9-20.6c-12.7,0-23,10.3-23,23
				c0,12.2,10.3,22.1,23,22.1c11.9,0,21.6-8.6,22.9-19.7c1.2,11.1,11.1,19.7,22.9,19.7c11.5,0,21.1-8.1,22.7-18.7
				c1.7,10.5,11.3,18.7,22.7,18.7c11.9,0,21.6-8.6,22.9-19.7c1.2,11.1,11.1,19.7,22.9,19.7c11.8,0,21.4-8.4,22.8-19.3
				c1.4,11,11.1,19.3,22.8,19.3l0,0l0,0c11.9,0,21.6-8.6,22.8-19.7c1.2,11.1,11.1,19.7,22.9,19.7c11.5,0,21.1-8.1,22.7-18.7
				c1.7,10.5,11.3,18.7,22.7,18.7c11.9,0,21.6-8.6,22.9-19.7c1.2,11.1,11.1,19.7,22.9,19.7c12.7,0,23-9.9,23-22.1
				C457.5,762.4,447.2,752,434.5,752z"/>
		</g>
		<g>
			<path fill="#C13E54" d="M45.6,774.7c-11.9,0-21.6,9-22.9,20.6c-1.2-11.6-11.1-20.6-22.9-20.6c-11.5,0-21.1,8.4-22.7,19.5
				c-1.7-11.1-11.3-19.5-22.7-19.5s-21,8.4-22.7,19.5v7.1c1.7,10.5,11.3,18.6,22.7,18.6s21.1-8.1,22.7-18.7
				c1.7,10.5,11.3,18.7,22.7,18.7c11.9,0,21.6-8.6,22.9-19.7c1.2,11.1,11.1,19.7,22.9,19.7c12.7,0,23-9.9,23-22.1
				C68.5,785,58.2,774.7,45.6,774.7z"/>
			<path fill="#C13E54" d="M274.4,774.7c-11.8,0-21.4,8.8-22.8,20.2c-1.4-11.4-11.1-20.2-22.8-20.2c-11.9,0-21.6,9-22.9,20.6
				c-1.2-11.6-11.1-20.6-22.9-20.6c-11.5,0-21.1,8.4-22.7,19.5c-1.7-11.1-11.3-19.5-22.7-19.5c-11.9,0-21.6,9-22.9,20.6
				c-1.2-11.6-11.1-20.6-22.9-20.6c-12.7,0-23,10.3-23,23c0,12.2,10.3,22.1,23,22.1c11.9,0,21.6-8.6,22.9-19.7
				c1.2,11.1,11.1,19.7,22.9,19.7c11.5,0,21.1-8.1,22.7-18.7c1.7,10.5,11.3,18.7,22.7,18.7c11.9,0,21.6-8.6,22.9-19.7
				c1.2,11.1,11.1,19.7,22.9,19.7c11.8,0,21.4-8.4,22.8-19.3c1.4,11,11.1,19.3,22.8,19.3c12.7,0,23-9.9,23-22.1
				C297.4,785,287,774.7,274.4,774.7z"/>
			<path fill="#C13E54" d="M411.4,774.7c-11.9,0-21.6,9-22.9,20.6c-1.2-11.6-11.1-20.6-22.9-20.6c-11.5,0-21.1,8.4-22.7,19.5
				c-1.7-11.1-11.3-19.5-22.7-19.5c-11.5,0-21,8.4-22.7,19.5v7.1c1.7,10.5,11.3,18.6,22.7,18.6c11.5,0,21.1-8.1,22.7-18.7
				c1.7,10.5,11.3,18.7,22.7,18.7c11.9,0,21.6-8.6,22.9-19.7c1.2,11.1,11.1,19.7,22.9,19.7c12.7,0,23-9.9,23-22.1
				C434.5,785,424.1,774.7,411.4,774.7z"/>
			<path fill="#C13E54" d="M640.2,774.7c-11.8,0-21.4,8.8-22.8,20.2c-1.4-11.4-11.1-20.2-22.8-20.2c-11.9,0-21.6,9-22.9,20.6
				c-1.2-11.6-11.1-20.6-22.9-20.6c-11.5,0-21.1,8.4-22.7,19.5c-1.7-11.1-11.3-19.5-22.7-19.5c-11.9,0-21.6,9-22.9,20.6
				c-1.2-11.6-11.1-20.6-22.9-20.6c-12.7,0-23,10.3-23,23c0,12.2,10.3,22.1,23,22.1c11.9,0,21.6-8.6,22.9-19.7
				c1.2,11.1,11.1,19.7,22.9,19.7c11.5,0,21.1-8.1,22.7-18.7c1.7,10.5,11.3,18.7,22.7,18.7c11.9,0,21.6-8.6,22.9-19.7
				c1.2,11.1,11.1,19.7,22.9,19.7s21.4-8.4,22.8-19.3c1.4,11,11.1,19.3,22.8,19.3c12.7,0,23-9.9,23-22.1
				C663.3,785,652.9,774.7,640.2,774.7z"/>
		</g>
		<g>
			<path fill="#B2344F" d="M640.4,815.4c-1.4-11.4-11.1-20.2-22.8-20.2c-11.9,0-21.6,9-22.9,20.6c-1.2-11.6-11.1-20.6-22.9-20.6
				c-11.5,0-21.1,8.4-22.7,19.5c-1.7-11.1-11.3-19.5-22.7-19.5c-11.9,0-21.6,9-22.9,20.6c-1.2-11.6-11.1-20.6-22.9-20.6
				c-12.7,0-23,10.3-23,23c0,12.2,10.3,22.1,23,22.1c11.9,0,21.6-8.6,22.9-19.7c1.2,11.1,11.1,19.7,22.9,19.7
				c11.5,0,21.1-8.1,22.7-18.7c1.7,10.5,11.3,18.7,22.7,18.7c11.9,0,21.6-8.6,22.9-19.7c1.2,11.1,11.1,19.7,22.9,19.7
				c11.8,0,21.4-8.4,22.8-19.3c1.4,11,11.1,19.3,22.8,19.3v-45.1C651.5,795.2,641.8,803.9,640.4,815.4z"/>
			<path fill="#B2344F" d="M68.5,795.2c-11.9,0-21.6,9-22.9,20.6c-1.2-11.6-11.1-20.6-22.9-20.6c-11.5,0-21.1,8.4-22.7,19.5
				c-1.7-11.1-11.3-19.5-22.7-19.5c-11.9,0-21.6,9-22.9,20.6c-1.2-11.6-11.1-20.5-22.8-20.6v45.1c11.9,0,21.6-8.6,22.8-19.7
				c1.2,11.1,11.1,19.7,22.9,19.7c11.5,0,21.1-8.1,22.7-18.7c1.7,10.5,11.3,18.7,22.7,18.7c11.9,0,21.6-8.6,22.9-19.7
				c1.2,11.1,11.1,19.7,22.9,19.7c12.7,0,23-9.9,23-22.1C91.5,805.5,81.3,795.2,68.5,795.2z"/>
			<path fill="#B2344F" d="M434.5,795.2c-11.9,0-21.6,9-22.9,20.6c-1.2-11.6-11.1-20.6-22.9-20.6c-11.5,0-21.1,8.4-22.7,19.5
				c-1.7-11.1-11.3-19.5-22.7-19.5c-11.9,0-21.6,9-22.9,20.6c-1.2-11.6-11.1-20.5-22.9-20.6l0,0l0,0c-11.8,0-21.4,8.8-22.8,20.2
				c-1.4-11.4-11.1-20.2-22.8-20.2c-11.9,0-21.6,9-22.9,20.6c-1.2-11.6-11.1-20.6-22.9-20.6c-11.5,0-21.1,8.4-22.7,19.5
				c-1.7-11.1-11.3-19.5-22.7-19.5c-11.9,0-21.6,9-22.9,20.6c-1.2-11.6-11.1-20.6-22.9-20.6c-12.7,0-23,10.3-23,23
				c0,12.2,10.3,22.1,23,22.1c11.9,0,21.6-8.6,22.9-19.7c1.2,11.1,11.1,19.7,22.9,19.7c11.5,0,21.1-8.1,22.7-18.7
				c1.7,10.5,11.3,18.7,22.7,18.7c11.9,0,21.6-8.6,22.9-19.7c1.2,11.1,11.1,19.7,22.9,19.7c11.8,0,21.4-8.4,22.8-19.3
				c1.4,11,11.1,19.3,22.8,19.3l0,0l0,0c11.9,0,21.6-8.6,22.8-19.7c1.2,11.1,11.1,19.7,22.9,19.7c11.5,0,21.1-8.1,22.7-18.7
				c1.7,10.5,11.3,18.7,22.7,18.7c11.9,0,21.6-8.6,22.9-19.7c1.2,11.1,11.1,19.7,22.9,19.7c12.7,0,23-9.9,23-22.1
				C457.5,805.5,447.2,795.2,434.5,795.2z"/>
		</g>
		<g>
			<path fill="#A82C4C" d="M411.3,818.1c-11.9,0-21.6,9-22.9,20.6c-1.2-11.6-11.1-20.6-22.9-20.6c-11.5,0-21.1,8.4-22.7,19.5
				c-1.7-11.1-11.3-19.5-22.7-19.5c-11.4,0-21,8.4-22.7,19.5v7.1c1.7,10.5,11.3,18.6,22.7,18.6c11.4,0,21.1-8.1,22.7-18.7
				c1.7,10.5,11.3,18.7,22.7,18.7c11.9,0,21.6-8.6,22.9-19.7c1.2,11.1,11.1,19.7,22.9,19.7c12.7,0,23-9.9,23-22.1
				C434.5,828.3,424.1,818.1,411.3,818.1z"/>
			<path fill="#A82C4C" d="M640.2,818.1c-11.8,0-21.4,8.8-22.8,20.2c-1.4-11.4-11.1-20.2-22.8-20.2c-11.9,0-21.6,9-22.9,20.6
				c-1.2-11.6-11.1-20.6-22.9-20.6c-11.5,0-21.1,8.4-22.7,19.5c-1.7-11.1-11.3-19.5-22.7-19.5c-11.9,0-21.6,9-22.9,20.6
				c-1.2-11.6-11.1-20.6-22.9-20.6c-12.7,0-23,10.3-23,23c0,12.2,10.3,22.1,23,22.1c11.9,0,21.6-8.6,22.9-19.7
				c1.2,11.1,11.1,19.7,22.9,19.7c11.5,0,21.1-8.1,22.7-18.7c1.7,10.5,11.3,18.7,22.7,18.7c11.9,0,21.6-8.6,22.9-19.7
				c1.2,11.1,11.1,19.7,22.9,19.7s21.4-8.4,22.8-19.3c1.4,11,11.1,19.3,22.8,19.3c12.7,0,23-9.9,23-22.1
				C663.3,828.3,652.9,818.1,640.2,818.1z"/>
			<path fill="#A82C4C" d="M45.4,818.1c-11.9,0-21.6,9-22.9,20.6c-1.2-11.6-11.1-20.6-22.9-20.6c-11.5,0-21.1,8.4-22.7,19.5
				c-1.7-11.1-11.3-19.5-22.7-19.5s-21,8.4-22.7,19.5v7.1c1.7,10.5,11.3,18.6,22.7,18.6s21.1-8.1,22.7-18.7
				c1.7,10.5,11.3,18.7,22.7,18.7c11.9,0,21.6-8.6,22.9-19.7c1.2,11.1,11.1,19.7,22.9,19.7c12.7,0,23-9.9,23-22.1
				C68.5,828.3,58.2,818.1,45.4,818.1z"/>
			<path fill="#A82C4C" d="M274.4,818.1c-11.8,0-21.4,8.8-22.8,20.2c-1.4-11.4-11.1-20.2-22.8-20.2c-11.9,0-21.6,9-22.9,20.6
				c-1.2-11.6-11.1-20.6-22.9-20.6c-11.5,0-21.1,8.4-22.7,19.5c-1.7-11.1-11.3-19.5-22.7-19.5c-11.9,0-21.6,9-22.9,20.6
				c-1.2-11.6-11.1-20.6-22.9-20.6c-12.7,0-23,10.3-23,23c0,12.2,10.3,22.1,23,22.1c11.9,0,21.6-8.6,22.9-19.7
				c1.2,11.1,11.1,19.7,22.9,19.7c11.5,0,21.1-8.1,22.7-18.7c1.7,10.5,11.3,18.7,22.7,18.7c11.9,0,21.6-8.6,22.9-19.7
				c1.2,11.1,11.1,19.7,22.9,19.7c11.8,0,21.4-8.4,22.8-19.3c1.4,11,11.1,19.3,22.8,19.3c12.7,0,23-9.9,23-22.1
				C297.4,828.3,287,818.1,274.4,818.1z"/>
		</g>
		<g>
			<path fill="#962344" d="M640.3,858.7c-1.4-11.4-11.1-20.2-22.8-20.2c-11.9,0-21.6,9-22.9,20.6c-1.3-11.6-11.1-20.6-23-20.6
				c-11.5,0-21.1,8.4-22.7,19.5c-1.7-11.1-11.3-19.5-22.7-19.5c-11.9,0-21.6,9-22.9,20.6c-1.2-11.6-11.1-20.6-22.9-20.6
				c-12.7,0-23,10.3-23,23c0,12.2,10.3,22.1,23,22.1c11.9,0,21.6-8.6,22.9-19.7c1.2,11.1,11.1,19.7,22.9,19.7
				c11.5,0,21.1-8.1,22.7-18.7c1.7,10.5,11.3,18.7,22.7,18.7c11.9,0,21.6-8.6,22.9-19.7c1.2,11.1,11.1,19.7,22.9,19.7
				c11.8,0,21.4-8.4,22.8-19.3c1.4,11,11.1,19.3,22.8,19.3v-45.1C651.5,838.5,641.8,847.3,640.3,858.7z"/>
			<path fill="#962344" d="M68.5,838.5c-11.9,0-21.6,9-22.9,20.6c-1.3-11.6-11.1-20.6-23-20.6c-11.5,0-21.1,8.4-22.7,19.5
				c-1.7-11.1-11.3-19.5-22.7-19.5c-11.9,0-21.6,9-22.9,20.6c-1.2-11.6-11.1-20.5-22.8-20.6v45.1c11.9,0,21.6-8.6,22.8-19.7
				c1.2,11.1,11.1,19.7,22.9,19.7c11.5,0,21.1-8.1,22.7-18.7c1.7,10.5,11.3,18.7,22.7,18.7c11.9,0,21.6-8.6,22.9-19.7
				c1.2,11.1,11.1,19.7,22.9,19.7c12.7,0,23-9.9,23-22.1C91.5,848.9,81.3,838.5,68.5,838.5z"/>
			<path fill="#962344" d="M434.5,838.5c-11.9,0-21.6,9-22.9,20.6c-1.3-11.6-11.1-20.6-23-20.6c-11.5,0-21.1,8.4-22.7,19.5
				c-1.7-11.1-11.3-19.5-22.7-19.5c-11.9,0-21.6,9-22.9,20.6c-1.2-11.6-11.1-20.5-22.8-20.6l0,0l0,0c-11.8,0-21.4,8.8-22.8,20.2
				c-1.4-11.4-11.1-20.2-22.8-20.2c-11.9,0-21.7,9-22.9,20.6c-1.2-11.6-11.1-20.6-22.9-20.6c-11.5,0-21.1,8.4-22.7,19.5
				c-1.7-11.1-11.3-19.5-22.7-19.5c-11.9,0-21.6,9-22.9,20.6c-1.5-11.6-11.4-20.6-23.3-20.6c-12.7,0-23,10.3-23,23
				c0,12.2,10.3,22.1,23,22.1c11.9,0,21.6-8.6,22.9-19.7c1.2,11.1,11.1,19.7,22.9,19.7c11.5,0,21.1-8.1,22.7-18.7
				c1.7,10.5,11.3,18.7,22.7,18.7c11.9,0,21.6-8.6,22.9-19.7c1.2,11.1,11.1,19.7,22.9,19.7c11.8,0,21.4-8.4,22.8-19.3
				c1.4,11,11.1,19.3,22.8,19.3l0,0l0,0c11.9,0,21.6-8.6,22.8-19.7c1.2,11.1,11.1,19.7,22.9,19.7c11.5,0,21.1-8.1,22.7-18.7
				c1.7,10.5,11.3,18.7,22.7,18.7c11.9,0,21.6-8.6,22.9-19.7c1.2,11.1,11.1,19.7,22.9,19.7c12.7,0,23-9.9,23-22.1
				C457.4,848.9,447.2,838.5,434.5,838.5z"/>
		</g>
		<g>
			<path fill="#89193E" d="M457.4,860.7c-11.9,0-21.6,9-22.9,20.5c-1.2-11.6-11.1-20.5-22.8-20.5c-11.5,0-21.1,8.4-22.7,19.5
				c-1.7-11.1-11.3-19.5-22.7-19.5c-11.9,0-21.6,9-22.9,20.5c-1.2-11.6-11.1-20.5-22.9-20.5s-21.4,8.8-22.8,20.2
				c-1.4-11.4-11.2-20.2-22.8-20.2c-11.9,0-21.6,9-22.9,20.5c-1.2-11.6-11.1-20.5-22.9-20.5c-11.5,0-21.1,8.4-22.7,19.5
				c-1.7-11.1-11.3-19.5-22.7-19.5c-11.9,0-21.6,9-22.9,20.5c-1.2-11.6-11.1-20.5-22.9-20.5c-12.7,0-23,10.3-23,23h45.8h0.3h45.2
				h0.5h44.8h0.3h45.5h0.3h45.5h0.3h45.2h0.5h45.2h0.3h45.8C480.4,871.1,470.2,860.7,457.4,860.7z"/>
			<path fill="#89193E" d="M640.5,860.7c-11.9,0-21.6,9-22.9,20.5c-1.2-11.6-11.1-20.5-22.9-20.5c-11.5,0-21.1,8.4-22.7,19.5
				c-1.7-11.1-11.3-19.5-22.7-19.5c-11.9,0-21.6,9-22.9,20.5c-1.2-11.6-11.1-20.5-22.9-20.5c-12.7,0-23,10.3-23,23h45.8h0.3h45.2
				h0.5h45.2h0.3h45.7C663.6,871.1,653.2,860.7,640.5,860.7z"/>
			<path fill="#89193E" d="M91.5,860.7c-11.9,0-21.6,9-22.9,20.5c-1.2-11.6-11.1-20.5-22.9-20.5c-11.5,0-21.1,8.4-22.7,19.5
				c-1.7-11.1-11.3-19.5-22.7-19.5c-11.9,0-21.6,9-22.9,20.5c-1.2-11.6-11.1-20.5-22.9-20.5c-12.7,0-23,10.3-23,23h45.8h0.3h45.2
				h0.5h45.2h0.3h45.8C114.5,871.1,104.3,860.7,91.5,860.7z"/>
		</g>
		<rect x="-68.4" y="883.8" fill="#89193E" width="732.2" height="5.5"/>
	</g>
</g>
</svg>
