<?xml version="1.0" encoding="utf-8"?>
<!-- Generator: Adobe Illustrator 18.0.0, SVG Export Plug-In . SVG Version: 6.00 Build 0)  -->
<!DOCTYPE svg PUBLIC "-//W3C//DTD SVG 1.1//EN" "http://www.w3.org/Graphics/SVG/1.1/DTD/svg11.dtd">
<svg version="1.1" id="Layer_1" xmlns="http://www.w3.org/2000/svg" xmlns:xlink="http://www.w3.org/1999/xlink" x="0px" y="0px"
	 viewBox="1.4 32.2 576.5 713.5" enable-background="new 1.4 32.2 576.5 713.5" xml:space="preserve">
<g>
	<rect x="-7.3" y="12.2" fill="#C95B5E" width="609.9" height="746.4"/>
	<g opacity="0.9">
		<g>
			<path fill="#C14D56" d="M843,574.9c-2.3-18.9-18.4-33.5-37.8-33.5c-19.7,0-35.8,14.9-37.9,34.1c-2-19.2-18.4-34.1-37.9-34.1
				c-19.1,0-35,13.9-37.6,32.3c-2.8-18.4-18.7-32.3-37.6-32.3c-19.7,0-35.8,14.9-37.9,34.1c-2-19.2-18.4-34.1-37.8-34.1
				c-21,0-38.1,17.1-38.1,38.1c0,20.2,17.1,36.6,38.1,36.6c19.7,0,35.8-14.2,37.9-32.6c2,18.4,18.4,32.6,37.9,32.6
				c19.1,0,35-13.4,37.6-31c2.8,17.4,18.7,31,37.6,31c19.7,0,35.8-14.2,37.9-32.6c2,18.4,18.4,32.6,37.9,32.6
				c19.5,0,35.5-13.9,37.8-32c2.3,18.2,18.4,32,37.8,32v-74.7C861.3,541.5,845.3,556,843,574.9z"/>
			<path fill="#C14D56" d="M-104.6,541.5c-19.7,0-35.8,14.9-37.9,34.1c-1.8-19.2-18.2-34.1-37.8-34.1c-19.1,0-35,13.9-37.6,32.3
				c-2.7-18.4-18.6-32.3-37.4-32.3c-19.7,0-35.8,14.9-37.9,34.1c-2-19.2-18.4-34-37.8-34.1v74.7c19.7,0,35.8-14.2,37.8-32.6
				c2,18.4,18.4,32.6,37.9,32.6c19.1,0,35-13.4,37.6-31c2.8,17.4,18.7,31,37.6,31c19.7,0,35.8-14.2,37.9-32.6
				c2,18.4,18.4,32.6,37.9,32.6c21,0,38.1-16.4,38.1-36.6C-66.4,558.7-83.3,541.5-104.6,541.5z"/>
			<path fill="#C14D56" d="M501.8,541.5c-19.7,0-35.8,14.9-37.8,34.1c-2-19.2-18.4-34.1-37.9-34.1c-19.1,0-35,13.9-37.6,32.3
				c-2.8-18.4-18.7-32.3-37.6-32.3c-19.7,0-35.8,14.9-37.9,34.1c-2-19.2-18.4-34.1-37.8-34.1l0,0l0,0c-19.5,0-35.5,14.6-37.8,33.5
				c-2.3-18.9-18.4-33.5-37.8-33.5c-19.7,0-35.8,14.9-37.9,34.1c-2-19.2-18.4-34.1-37.9-34.1c-19.1,0-35,13.9-37.6,32.3
				c-2.8-18.4-18.7-32.3-37.6-32.3c-19.7,0-35.8,14.9-37.9,34.1c-2-19.2-18.4-34.1-37.9-34.1c-21,0-38.1,17.1-38.1,38.1
				c0,20.2,17.1,36.6,38.1,36.6c19.7,0,35.8-14.2,37.9-32.6c2,18.4,18.4,32.6,37.9,32.6c19.1,0,35-13.4,37.6-31
				c2.8,17.4,18.7,31,37.6,31c19.7,0,35.8-14.2,37.9-32.6c2,18.4,18.4,32.6,37.9,32.6c19.5,0,35.5-13.9,37.8-32
				c2.3,18.2,18.4,32,37.8,32l0,0l0,0c19.7,0,35.8-14.2,37.8-32.6c2,18.4,18.4,32.6,37.9,32.6c19.1,0,35-13.4,37.6-31
				c2.8,17.4,18.7,31,37.6,31c19.7,0,35.8-14.2,37.9-32.6c2,18.4,18.4,32.6,37.9,32.6c21,0,38.1-16.4,38.1-36.6
				C539.9,558.7,522.9,541.5,501.8,541.5z"/>
		</g>
		<g>
			<path fill="#C13E54" d="M-142.5,579.1c-19.7,0-35.8,14.9-37.9,34.1c-2-19.2-18.4-34.1-37.9-34.1c-19.1,0-35,13.9-37.6,32.3
				c-2.8-18.4-18.7-32.3-37.6-32.3s-34.8,13.9-37.6,32.3v11.8c2.8,17.4,18.7,30.8,37.6,30.8s35-13.4,37.6-31
				c2.8,17.4,18.7,31,37.6,31c19.7,0,35.8-14.2,37.9-32.6c2,18.4,18.4,32.6,37.9,32.6c21,0,38.1-16.4,38.1-36.6
				C-104.6,596.1-121.6,579.1-142.5,579.1z"/>
			<path fill="#C13E54" d="M236.6,579.1c-19.5,0-35.5,14.6-37.8,33.5c-2.3-18.9-18.4-33.5-37.8-33.5c-19.7,0-35.8,14.9-37.9,34.1
				c-2-19.2-18.4-34.1-37.9-34.1c-19.1,0-35,13.9-37.6,32.3c-2.8-18.4-18.7-32.3-37.6-32.3c-19.7,0-35.8,14.9-37.9,34.1
				c-2-19.2-18.4-34.1-37.9-34.1c-21,0-38.1,17.1-38.1,38.1c0,20.2,17.1,36.6,38.1,36.6c19.7,0,35.8-14.2,37.9-32.6
				c2,18.4,18.4,32.6,37.9,32.6c19.1,0,35-13.4,37.6-31c2.8,17.4,18.7,31,37.6,31c19.7,0,35.8-14.2,37.9-32.6
				c2,18.4,18.4,32.6,37.9,32.6c19.5,0,35.5-13.9,37.8-32c2.3,18.2,18.4,32,37.8,32c21,0,38.1-16.4,38.1-36.6
				C274.7,596.1,257.5,579.1,236.6,579.1z"/>
			<path fill="#C13E54" d="M463.6,579.1c-19.7,0-35.8,14.9-37.9,34.1c-2-19.2-18.4-34.1-37.9-34.1c-19.1,0-35,13.9-37.6,32.3
				c-2.8-18.4-18.7-32.3-37.6-32.3c-19.1,0-34.8,13.9-37.6,32.3v11.8c2.8,17.4,18.7,30.8,37.6,30.8c19.1,0,35-13.4,37.6-31
				c2.8,17.4,18.7,31,37.6,31c19.7,0,35.8-14.2,37.9-32.6c2,18.4,18.4,32.6,37.9,32.6c21,0,38.1-16.4,38.1-36.6
				C501.8,596.1,484.6,579.1,463.6,579.1z"/>
			<path fill="#C13E54" d="M842.6,579.1c-19.5,0-35.5,14.6-37.8,33.5c-2.3-18.9-18.4-33.5-37.8-33.5c-19.7,0-35.8,14.9-37.9,34.1
				c-2-19.2-18.4-34.1-37.9-34.1c-19.1,0-35,13.9-37.6,32.3c-2.8-18.4-18.7-32.3-37.6-32.3c-19.7,0-35.8,14.9-37.9,34.1
				c-2-19.2-18.4-34.1-37.9-34.1c-21,0-38.1,17.1-38.1,38.1c0,20.2,17.1,36.6,38.1,36.6c19.7,0,35.8-14.2,37.9-32.6
				c2,18.4,18.4,32.6,37.9,32.6c19.1,0,35-13.4,37.6-31c2.8,17.4,18.7,31,37.6,31c19.7,0,35.8-14.2,37.9-32.6
				c2,18.4,18.4,32.6,37.9,32.6c19.6,0,35.5-13.9,37.8-32c2.3,18.2,18.4,32,37.8,32c21,0,38.1-16.4,38.1-36.6
				C880.9,596.1,863.7,579.1,842.6,579.1z"/>
		</g>
		<g>
			<path fill="#B2344F" d="M843,646.5c-2.3-18.9-18.4-33.5-37.8-33.5c-19.7,0-35.8,14.9-37.9,34.1c-2-19.2-18.4-34.1-37.9-34.1
				c-19.1,0-35,13.9-37.6,32.3c-2.8-18.4-18.7-32.3-37.6-32.3c-19.7,0-35.8,14.9-37.9,34.1c-2-19.2-18.4-34.1-37.9-34.1
				c-21,0-38.1,17.1-38.1,38.1c0,20.2,17.1,36.6,38.1,36.6c19.7,0,35.8-14.2,37.9-32.6c2,18.4,18.4,32.6,37.9,32.6
				c19.1,0,35-13.4,37.6-31c2.8,17.4,18.7,31,37.6,31c19.7,0,35.8-14.2,37.9-32.6c2,18.4,18.4,32.6,37.9,32.6
				c19.5,0,35.5-13.9,37.8-32c2.3,18.2,18.4,32,37.8,32V613C861.3,613,845.3,627.4,843,646.5z"/>
			<path fill="#B2344F" d="M-104.6,613c-19.7,0-35.8,14.9-37.9,34.1c-2-19.2-18.4-34.1-37.9-34.1c-19.1,0-35,13.9-37.6,32.3
				c-2.8-18.4-18.7-32.3-37.6-32.3c-19.7,0-35.8,14.9-37.9,34.1c-2-19.2-18.4-34-37.8-34.1v74.7c19.7,0,35.8-14.2,37.8-32.6
				c2,18.4,18.4,32.6,37.9,32.6c19.1,0,35-13.4,37.6-31c2.8,17.4,18.7,31,37.6,31c19.7,0,35.8-14.2,37.9-32.6
				c2,18.4,18.4,32.6,37.9,32.6c21,0,38.1-16.4,38.1-36.6C-66.4,630.1-83.3,613-104.6,613z"/>
			<path fill="#B2344F" d="M501.8,613c-19.7,0-35.8,14.9-37.9,34.1c-2-19.2-18.4-34.1-37.9-34.1c-19.1,0-35,13.9-37.6,32.3
				c-2.8-18.4-18.7-32.3-37.6-32.3c-19.7,0-35.8,14.9-37.9,34.1c-2-19.2-18.4-34-37.9-34.1l0,0l0,0c-19.5,0-35.5,14.6-37.8,33.5
				c-2.3-18.9-18.4-33.5-37.8-33.5c-19.7,0-35.8,14.9-37.9,34.1c-2-19.2-18.4-34.1-37.9-34.1c-19.1,0-35,13.9-37.6,32.3
				C83,626.9,67.1,613,48.2,613c-19.7,0-35.8,14.9-37.9,34.1C8.3,627.9-8.1,613-27.7,613c-21,0-38.1,17.1-38.1,38.1
				c0,20.2,17.1,36.6,38.1,36.6c19.7,0,35.8-14.2,37.9-32.6c2,18.4,18.4,32.6,37.9,32.6c19.1,0,35-13.4,37.6-31
				c2.8,17.4,18.7,31,37.6,31c19.7,0,35.8-14.2,37.9-32.6c2,18.4,18.4,32.6,37.9,32.6c19.5,0,35.5-13.9,37.8-32
				c2.3,18.2,18.4,32,37.8,32l0,0l0,0c19.7,0,35.8-14.2,37.8-32.6c2,18.4,18.4,32.6,37.9,32.6c19.1,0,35-13.4,37.6-31
				c2.8,17.4,18.7,31,37.6,31c19.7,0,35.8-14.2,37.9-32.6c2,18.4,18.4,32.6,37.9,32.6c21,0,38.1-16.4,38.1-36.6
				C539.9,630.1,522.9,613,501.8,613z"/>
		</g>
		<g>
			<path fill="#A82C4C" d="M463.4,651c-19.7,0-35.8,14.9-37.9,34.1c-2-19.2-18.4-34.1-37.9-34.1c-19.1,0-35,13.9-37.6,32.3
				c-2.8-18.4-18.7-32.3-37.6-32.3c-18.9,0-34.8,13.9-37.6,32.3V695c2.8,17.4,18.7,30.8,37.6,30.8c18.9,0,35-13.4,37.6-31
				c2.8,17.4,18.7,31,37.6,31c19.7,0,35.8-14.2,37.9-32.6c2,18.4,18.4,32.6,37.9,32.6c21,0,38.1-16.4,38.1-36.6
				C501.8,667.9,484.6,651,463.4,651z"/>
			<path fill="#A82C4C" d="M842.6,651c-19.5,0-35.5,14.6-37.8,33.5c-2.3-18.9-18.4-33.5-37.8-33.5c-19.7,0-35.8,14.9-37.9,34.1
				c-2-19.2-18.4-34.1-37.9-34.1c-19.1,0-35,13.9-37.6,32.3c-2.8-18.4-18.7-32.3-37.6-32.3c-19.7,0-35.8,14.9-37.9,34.1
				c-2-19.2-18.4-34.1-37.9-34.1c-21,0-38.1,17.1-38.1,38.1c0,20.2,17.1,36.6,38.1,36.6c19.7,0,35.8-14.2,37.9-32.6
				c2,18.4,18.4,32.6,37.9,32.6c19.1,0,35-13.4,37.6-31c2.8,17.4,18.7,31,37.6,31c19.7,0,35.8-14.2,37.9-32.6
				c2,18.4,18.4,32.6,37.9,32.6c19.6,0,35.5-13.9,37.8-32c2.3,18.2,18.4,32,37.8,32c21,0,38.1-16.4,38.1-36.6
				C880.9,667.9,863.7,651,842.6,651z"/>
			<path fill="#A82C4C" d="M-142.8,651c-19.7,0-35.8,14.9-37.9,34.1c-2-19.2-18.4-34.1-37.9-34.1c-19.1,0-35,13.9-37.6,32.3
				c-2.8-18.4-18.7-32.3-37.6-32.3c-18.9,0-34.8,13.9-37.6,32.3V695c2.8,17.4,18.7,30.8,37.6,30.8c18.9,0,35-13.4,37.6-31
				c2.8,17.4,18.7,31,37.6,31c19.7,0,35.8-14.2,37.9-32.6c2,18.4,18.4,32.6,37.9,32.6c21,0,38.1-16.4,38.1-36.6
				C-104.6,667.9-121.6,651-142.8,651z"/>
			<path fill="#A82C4C" d="M236.6,651c-19.5,0-35.5,14.6-37.8,33.5c-2.3-18.9-18.4-33.5-37.8-33.5c-19.7,0-35.8,14.9-37.9,34.1
				c-2-19.2-18.4-34.1-37.9-34.1c-19.1,0-35,13.9-37.6,32.3C44.7,664.9,28.8,651,9.9,651c-19.7,0-35.8,14.9-37.9,34.1
				c-2-19.2-18.4-34.1-37.9-34.1c-21,0-38.1,17.1-38.1,38.1c0,20.2,17.1,36.6,38.1,36.6c19.7,0,35.8-14.2,37.9-32.6
				c2,18.4,18.4,32.6,37.9,32.6c19.1,0,35-13.4,37.6-31c2.8,17.4,18.7,31,37.6,31c19.7,0,35.8-14.2,37.9-32.6
				c2,18.4,18.4,32.6,37.9,32.6c19.5,0,35.5-13.9,37.8-32c2.3,18.2,18.4,32,37.8,32c21,0,38.1-16.4,38.1-36.6
				C274.7,667.9,257.5,651,236.6,651z"/>
		</g>
		<g>
			<path fill="#962344" d="M842.8,718.2c-2.3-18.9-18.4-33.5-37.8-33.5c-19.7,0-35.8,14.9-37.9,34.1c-2.2-19.2-18.4-34.1-38.1-34.1
				c-19.1,0-35,13.9-37.6,32.3c-2.8-18.4-18.7-32.3-37.6-32.3c-19.7,0-35.8,14.9-37.9,34.1c-2-19.2-18.4-34.1-37.9-34.1
				c-21,0-38.1,17.1-38.1,38.1c0,20.2,17.1,36.6,38.1,36.6c19.7,0,35.8-14.2,37.9-32.6c2,18.4,18.4,32.6,37.9,32.6
				c19.1,0,35-13.4,37.6-31c2.8,17.4,18.7,31,37.6,31c19.7,0,35.8-14.2,37.9-32.6c2,18.4,18.4,32.6,37.9,32.6
				c19.5,0,35.5-13.9,37.8-32c2.3,18.2,18.4,32,37.8,32v-74.7C861.3,684.8,845.3,699.3,842.8,718.2z"/>
			<path fill="#962344" d="M-104.6,684.8c-19.7,0-35.8,14.9-37.9,34.1c-2.2-19.2-18.4-34.1-38.1-34.1c-19.1,0-35,13.9-37.6,32.3
				c-2.8-18.4-18.7-32.3-37.6-32.3c-19.7,0-35.8,14.9-37.9,34.1c-2-19.2-18.4-34-37.8-34.1v74.7c19.7,0,35.8-14.2,37.8-32.6
				c2,18.4,18.4,32.6,37.9,32.6c19.1,0,35-13.4,37.6-31c2.8,17.4,18.7,31,37.6,31c19.7,0,35.8-14.2,37.9-32.6
				c2,18.4,18.4,32.6,37.9,32.6c21,0,38.1-16.4,38.1-36.6C-66.4,702-83.3,684.8-104.6,684.8z"/>
			<path fill="#962344" d="M501.8,684.8c-19.7,0-35.8,14.9-37.9,34.1c-2.2-19.2-18.4-34.1-38.1-34.1c-19.1,0-35,13.9-37.6,32.3
				c-2.8-18.4-18.7-32.3-37.6-32.3c-19.7,0-35.8,14.9-37.9,34.1c-2-19.2-18.4-34-37.8-34.1l0,0l0,0c-19.5,0-35.5,14.6-37.8,33.5
				c-2.3-18.9-18.4-33.5-37.8-33.5c-19.7,0-36,14.9-37.9,34.1c-2-19.2-18.4-34.1-37.9-34.1c-19.1,0-35,13.9-37.6,32.3
				c-2.8-18.4-18.7-32.3-37.6-32.3c-19.7,0-35.8,14.9-37.9,34.1c-2.5-19.2-18.9-34.1-38.6-34.1c-21,0-38.1,17.1-38.1,38.1
				c0,20.2,17.1,36.6,38.1,36.6c19.7,0,35.8-14.2,37.9-32.6c2,18.4,18.4,32.6,37.9,32.6c19.1,0,35-13.4,37.6-31
				c2.8,17.4,18.7,31,37.6,31c19.7,0,35.8-14.2,37.9-32.6c2,18.4,18.4,32.6,37.9,32.6s35.5-13.9,37.8-32c2.3,18.2,18.4,32,37.8,32
				l0,0l0,0c19.7,0,35.8-14.2,37.8-32.6c2,18.4,18.4,32.6,37.9,32.6c19.1,0,35-13.4,37.6-31c2.8,17.4,18.7,31,37.6,31
				c19.7,0,35.8-14.2,37.9-32.6c2,18.4,18.4,32.6,37.9,32.6c21,0,38.1-16.4,38.1-36.6C539.8,702,522.9,684.8,501.8,684.8z"/>
		</g>
		<g>
			<path fill="#89193E" d="M48.7,759.7h74.9h0.8h74.2h0.5h75.4h0.5h75.4h0.5h74.9h0.8h74.9h0.5h75.9c0-20.9-16.9-38.1-38.1-38.1
				c-19.7,0-35.8,14.9-37.9,34c-2-19.2-18.4-34-37.8-34c-19.1,0-35,13.9-37.6,32.3c-2.8-18.4-18.7-32.3-37.6-32.3
				c-19.7,0-35.8,14.9-37.9,34c-2-19.2-18.4-34-37.9-34s-35.5,14.6-37.8,33.5c-2.3-18.9-18.6-33.5-37.8-33.5
				c-19.7,0-35.8,14.9-37.9,34c-2-19.2-18.4-34-37.9-34c-19.1,0-35,13.9-37.6,32.3c-2.8-18.4-18.7-32.3-37.6-32.3
				c-19.7,0-35.8,14.9-37.9,34c-2-19.2-18.4-34-37.9-34c-21,0-38.1,17.1-38.1,38.1h75.9H48.7z"/>
			<path fill="#89193E" d="M654.4,759.7h74.9h0.8H805h0.5h75.7c0.2-20.9-17.1-38.1-38.1-38.1c-19.7,0-35.8,14.9-37.9,34
				c-2-19.2-18.4-34-37.9-34c-19.1,0-35,13.9-37.6,32.3c-2.8-18.4-18.7-32.3-37.6-32.3c-19.7,0-35.8,14.9-37.9,34
				c-2-19.2-18.4-34-37.9-34c-21,0-38.1,17.1-38.1,38.1h75.9H654.4z"/>
			<g>
				<path fill="#89193E" d="M-255.2,759.7h74.9h0.8h74.9h0.5h75.9c-0.2-20.9-17.1-38.1-38.3-38.1c-19.7,0-35.8,14.9-37.9,34
					c-2-19.2-18.4-34-37.9-34c-19.1,0-35,13.9-37.6,32.3c-2.8-18.4-18.7-32.3-37.6-32.3c-19.7,0-35.8,14.9-37.9,34
					c-2-19.2-18.4-34-37.9-34c-21,0-38.1,17.1-38.1,38.1h75.9H-255.2z"/>
			</g>
		</g>
	</g>
</g>
</svg>
