<?xml version="1.0" encoding="utf-8"?>
<!-- Generator: Adobe Illustrator 18.0.0, SVG Export Plug-In . SVG Version: 6.00 Build 0)  -->
<!DOCTYPE svg PUBLIC "-//W3C//DTD SVG 1.1//EN" "http://www.w3.org/Graphics/SVG/1.1/DTD/svg11.dtd">
<svg version="1.1" id="Layer_1" xmlns="http://www.w3.org/2000/svg" xmlns:xlink="http://www.w3.org/1999/xlink" x="0px" y="0px"
	 viewBox="0 530.9 595.3 93.7" enable-background="new 0 530.9 595.3 93.7" xml:space="preserve">
<polygon fill="#CF433B" points="14.8,554.5 14.5,605.6 568.2,595.1 564.7,530.9 "/>
<g>
	<path fill="#FFAA00" d="M44.2,581.9l-8.9-14.3l6.8-0.2l4.7,8.7l0.5,2.5h0.2l0.4-2.6l4.1-8.8l6.1-0.2l-8.2,14.8l0.2,8.6l-5.7,0.2
		L44.2,581.9z"/>
	<path fill="#FFAA00" d="M57.7,578.5c-0.1-3.9,0.7-6.9,2.5-9.1c1.8-2.1,4.6-3.2,8.4-3.3c2-0.1,3.7,0.2,5.1,0.7
		c1.4,0.5,2.6,1.3,3.6,2.3c0.9,1,1.6,2.3,2.1,3.8c0.5,1.5,0.7,3.1,0.8,5c0.1,3.9-0.7,6.9-2.6,9.1c-1.8,2.1-4.6,3.2-8.3,3.3
		c-2,0.1-3.7-0.2-5.1-0.7c-1.4-0.5-2.6-1.3-3.5-2.3c-0.9-1-1.6-2.3-2.1-3.8C58,582,57.7,580.3,57.7,578.5z M63.7,578.3
		c0,1.2,0.2,2.3,0.4,3.3c0.2,1,0.5,1.9,1,2.6s1,1.3,1.7,1.7s1.5,0.6,2.4,0.6c1.8,0,3.1-0.7,3.9-2.1c0.8-1.3,1.2-3.4,1.1-6.3
		c0-1.1-0.2-2.2-0.4-3.2c-0.2-1-0.5-1.9-1-2.6c-0.4-0.7-1-1.3-1.7-1.7c-0.7-0.4-1.5-0.6-2.5-0.6C65.2,570,63.5,572.8,63.7,578.3z"/>
	<path fill="#FFAA00" d="M97.2,565.8l5.4-0.2l0.4,15c0.1,3-0.7,5.2-2.3,6.6c-1.6,1.4-3.9,2.1-6.9,2.2c-3.5,0.1-6-0.5-7.7-1.8
		s-2.5-3.2-2.6-5.9L83,566.2l5.7-0.2l0.4,14.9c0.1,1.8,0.4,3.1,1.1,3.8c0.7,0.7,1.8,1,3.3,1c1.5,0,2.5-0.5,3.1-1.2
		c0.6-0.8,0.9-2,0.8-3.8L97.2,565.8z"/>
	<path fill="#FFAA00" d="M106.6,565.7c1.2-0.2,2.6-0.4,4-0.5c1.4-0.1,2.6-0.2,3.7-0.2c1.3,0,2.6,0,3.8,0.2s2.4,0.5,3.3,0.9
		c1,0.5,1.8,1.1,2.4,2c0.6,0.8,0.9,1.9,1,3.2c0.1,1.9-0.4,3.4-1.3,4.6c-0.9,1.2-2.2,2.1-3.9,2.5l1.8,1l6.1,8.7l-6.6,0.2l-5.8-9
		l-2.5-0.4l0.3,9.6l-5.7,0.2L106.6,565.7z M112.6,576.1l2-0.1c1.4,0,2.5-0.4,3.2-1s1-1.6,1-3c0-1-0.4-1.8-1-2.4
		c-0.6-0.6-1.6-0.9-2.9-0.9c-0.5,0-1,0-1.4,0.1c-0.5,0-0.8,0.1-1.1,0.2L112.6,576.1z"/>
	<path fill="#FFAA00" d="M148,564.5c1.1-0.2,2.3-0.4,3.6-0.5s2.6-0.2,3.9-0.3c1.4,0,2.8,0,4.1,0.2c1.4,0.1,2.6,0.5,3.6,1
		c1.1,0.5,2,1.3,2.7,2.3c0.7,1,1.1,2.3,1.1,3.9c0,1.5-0.2,2.7-0.7,3.7c-0.5,1-1.3,1.9-2.2,2.5c-0.9,0.7-2,1.2-3.2,1.5
		c-1.2,0.3-2.5,0.5-3.8,0.5c-0.1,0-0.3,0-0.6,0c-0.3,0-0.6,0-0.9,0s-0.6,0-0.9,0s-0.5,0-0.6,0l0.2,8l-5.7,0.2L148,564.5z M154,575.6
		c0.2,0,0.5,0.1,1,0.1s0.8,0,1,0c0.7,0,1.3-0.1,1.9-0.3c0.6-0.2,1.1-0.4,1.6-0.7s0.8-0.8,1.1-1.4c0.3-0.6,0.4-1.3,0.3-2.1
		c0-0.7-0.2-1.3-0.4-1.8c-0.3-0.5-0.6-0.9-1.1-1.2s-1-0.5-1.5-0.6c-0.6-0.1-1.2-0.2-1.8-0.1c-0.9,0-1.7,0.1-2.3,0.2L154,575.6z"/>
	<path fill="#FFAA00" d="M168.9,575.3c-0.1-3.9,0.7-6.9,2.5-9.1c1.8-2.1,4.6-3.2,8.4-3.3c2-0.1,3.7,0.2,5.1,0.7
		c1.4,0.5,2.6,1.3,3.6,2.3c0.9,1,1.6,2.3,2.1,3.8c0.5,1.5,0.7,3.1,0.8,5c0.1,3.9-0.7,6.9-2.6,9.1c-1.8,2.1-4.6,3.2-8.3,3.3
		c-2,0.1-3.7-0.2-5.1-0.7c-1.4-0.5-2.6-1.3-3.5-2.3s-1.6-2.3-2.1-3.8C169.2,578.8,168.9,577.2,168.9,575.3z M174.9,575.2
		c0,1.2,0.2,2.3,0.4,3.3c0.2,1,0.5,1.9,1,2.6c0.4,0.7,1,1.3,1.7,1.7c0.7,0.4,1.5,0.6,2.4,0.6c1.8,0,3.1-0.7,3.9-2.1
		c0.8-1.3,1.2-3.4,1.1-6.3c0-1.1-0.2-2.2-0.4-3.2c-0.2-1-0.5-1.9-1-2.6c-0.4-0.7-1-1.3-1.7-1.7c-0.7-0.4-1.5-0.6-2.5-0.6
		C176.4,566.9,174.7,569.7,174.9,575.2z"/>
	<path fill="#FFAA00" d="M215,573.6l0.5-4.5h-0.2l-1.6,4l-4.9,8.3l-1.9,0.1l-5.7-8l-1.8-4h-0.3l1,4.4l0.3,12l-5.4,0.2l-0.7-23.2
		l5.5-0.2l6.9,9.8l1.2,2.9h0.2l1-3l5.9-10.1l5.4-0.2l0.7,23.2l-5.7,0.2L215,573.6z"/>
	<path fill="#FFAA00" d="M224.1,573.8c-0.1-3.9,0.7-6.9,2.5-9.1c1.8-2.1,4.6-3.2,8.4-3.3c2-0.1,3.7,0.2,5.1,0.7
		c1.4,0.5,2.6,1.3,3.6,2.3c0.9,1,1.6,2.3,2.1,3.8s0.7,3.1,0.8,5c0.1,3.9-0.7,6.9-2.6,9.1c-1.8,2.1-4.6,3.2-8.3,3.3
		c-2,0.1-3.7-0.2-5.1-0.7c-1.4-0.5-2.6-1.3-3.5-2.3c-0.9-1-1.6-2.3-2.1-3.8C224.4,577.2,224.1,575.6,224.1,573.8z M230.1,573.6
		c0,1.2,0.2,2.3,0.4,3.3c0.2,1,0.5,1.9,1,2.6c0.4,0.7,1,1.3,1.7,1.7c0.7,0.4,1.5,0.6,2.4,0.6c1.8,0,3.1-0.7,3.9-2.1
		c0.8-1.3,1.2-3.4,1.1-6.3c0-1.1-0.2-2.2-0.4-3.2c-0.2-1-0.5-1.9-1-2.6c-0.4-0.7-1-1.3-1.7-1.7c-0.7-0.4-1.5-0.6-2.5-0.6
		C231.6,565.3,229.9,568.1,230.1,573.6z"/>
	<path fill="#FFAA00" d="M249.6,561.4c0.5-0.1,1.2-0.1,1.8-0.2c0.7-0.1,1.4-0.1,2.1-0.2c0.7-0.1,1.4-0.1,2.1-0.1
		c0.7,0,1.3-0.1,1.8-0.1c2.5-0.1,4.6,0.2,6.3,0.7c1.7,0.5,3.1,1.3,4.1,2.3c1,1,1.8,2.2,2.3,3.6c0.5,1.4,0.7,3,0.8,4.8
		c0,1.6-0.1,3.2-0.5,4.6c-0.4,1.5-1,2.8-2,3.9c-1,1.1-2.4,2.1-4.1,2.8c-1.7,0.7-3.9,1.1-6.6,1.2c-0.4,0-0.9,0-1.6,0s-1.4,0-2.1,0
		c-0.7,0-1.4,0-2.1,0c-0.7,0-1.2,0-1.5-0.1L249.6,561.4z M258,564.7c-0.5,0-1,0-1.5,0.1c-0.5,0-0.9,0.1-1.2,0.1l0.5,16
		c0.1,0,0.3,0,0.5,0s0.5,0,0.7,0c0.3,0,0.5,0,0.7,0s0.4,0,0.5,0c1.4,0,2.5-0.3,3.3-0.8c0.9-0.5,1.5-1.1,2-1.9c0.5-0.8,0.8-1.7,1-2.7
		c0.2-1,0.2-2.1,0.2-3.2c0-1-0.1-2-0.3-2.9c-0.2-0.9-0.5-1.8-1-2.5c-0.5-0.7-1.2-1.3-2-1.7C260.5,564.8,259.4,564.7,258,564.7z"/>
	<path fill="#FFAA00" d="M273.5,572.4c-0.1-3.9,0.7-6.9,2.5-9.1c1.8-2.1,4.6-3.2,8.4-3.3c2-0.1,3.7,0.2,5.1,0.7
		c1.4,0.5,2.6,1.3,3.6,2.3c0.9,1,1.6,2.3,2.1,3.8c0.5,1.5,0.7,3.1,0.8,5c0.1,3.9-0.7,6.9-2.6,9.1c-1.8,2.1-4.6,3.2-8.3,3.3
		c-2,0.1-3.7-0.2-5.1-0.7c-1.4-0.5-2.6-1.3-3.5-2.3c-0.9-1-1.6-2.3-2.1-3.8C273.8,575.8,273.5,574.2,273.5,572.4z M279.5,572.2
		c0,1.2,0.2,2.3,0.4,3.3c0.2,1,0.5,1.9,1,2.6c0.4,0.7,1,1.3,1.7,1.7c0.7,0.4,1.5,0.6,2.4,0.6c1.8,0,3.1-0.7,3.9-2.1
		c0.8-1.3,1.2-3.4,1.1-6.3c0-1.1-0.2-2.2-0.4-3.2c-0.2-1-0.5-1.9-1-2.6c-0.4-0.7-1-1.3-1.7-1.7s-1.5-0.6-2.5-0.6
		C281,563.9,279.3,566.7,279.5,572.2z"/>
	<path fill="#FFAA00" d="M299,560.3c1.2-0.2,2.6-0.4,4-0.5c1.4-0.1,2.6-0.2,3.7-0.2c1.3,0,2.6,0,3.8,0.2c1.2,0.2,2.4,0.5,3.3,0.9
		c1,0.5,1.8,1.1,2.4,2c0.6,0.8,0.9,1.9,1,3.2c0.1,1.9-0.4,3.4-1.3,4.6c-0.9,1.2-2.2,2.1-3.9,2.5l1.8,1l6.1,8.7l-6.6,0.2l-5.8-9
		l-2.5-0.4l0.3,9.6l-5.7,0.2L299,560.3z M305,570.6l2-0.1c1.4,0,2.5-0.4,3.2-1c0.7-0.6,1-1.6,1-3c0-1-0.4-1.8-1-2.4
		c-0.6-0.6-1.6-0.9-2.9-0.9c-0.5,0-1,0-1.4,0.1c-0.5,0-0.8,0.1-1.1,0.2L305,570.6z"/>
	<path fill="#FFAA00" d="M320.2,571c-0.1-3.9,0.7-6.9,2.5-9.1c1.8-2.1,4.6-3.2,8.4-3.3c2-0.1,3.7,0.2,5.1,0.7
		c1.4,0.5,2.6,1.3,3.6,2.3c0.9,1,1.6,2.3,2.1,3.8c0.5,1.5,0.7,3.1,0.8,5c0.1,3.9-0.7,6.9-2.6,9.1c-1.8,2.1-4.6,3.2-8.3,3.3
		c-2,0.1-3.7-0.2-5.1-0.7c-1.4-0.5-2.6-1.3-3.5-2.3c-0.9-1-1.6-2.3-2.1-3.8C320.5,574.5,320.3,572.9,320.2,571z M326.2,570.9
		c0,1.2,0.2,2.3,0.4,3.3c0.2,1,0.5,1.9,1,2.6c0.5,0.7,1,1.3,1.7,1.7c0.7,0.4,1.5,0.6,2.4,0.6c1.8,0,3.1-0.7,3.9-2.1
		c0.8-1.3,1.2-3.4,1.1-6.3c0-1.1-0.2-2.2-0.4-3.2c-0.2-1-0.5-1.9-1-2.6c-0.4-0.7-1-1.3-1.7-1.7c-0.7-0.4-1.5-0.6-2.5-0.6
		C327.7,562.6,326,565.4,326.2,570.9z"/>
	<path fill="#FFAA00" d="M372.6,580.2c-0.8,0.5-1.8,0.9-3.1,1.1c-1.3,0.3-2.6,0.4-3.9,0.4c-1.6,0-3.2-0.1-4.6-0.5
		c-1.4-0.4-2.7-1-3.8-1.9c-1.1-0.9-2-2.1-2.6-3.7c-0.6-1.5-1-3.4-1.1-5.7s0.2-4.3,0.9-5.9c0.6-1.6,1.5-2.8,2.6-3.8
		c1.1-0.9,2.3-1.6,3.7-2s2.8-0.6,4.3-0.7c1.5,0,2.8,0,3.9,0.2c1.1,0.1,2,0.3,2.7,0.5l-1,3.7c-0.6-0.2-1.3-0.4-2-0.5
		c-0.8-0.1-1.7-0.1-2.8-0.1c-2.1,0.1-3.7,0.8-4.8,2.1c-1.1,1.4-1.6,3.4-1.5,6.3c0,1.2,0.2,2.3,0.5,3.3c0.3,1,0.7,1.9,1.3,2.6
		c0.6,0.7,1.3,1.3,2.2,1.6c0.9,0.4,1.9,0.5,3.1,0.5c1.1,0,2-0.2,2.7-0.4c0.7-0.2,1.4-0.5,2-0.8L372.6,580.2z"/>
	<path fill="#FFAA00" d="M389.4,570.8l-8.7,0.2l0.3,9.8l-5.7,0.2l-0.7-23.2l5.7-0.2l0.3,9.5l8.7-0.2l-0.3-9.5l5.7-0.2l0.7,23.2
		l-5.7,0.2L389.4,570.8z"/>
	<path fill="#FFAA00" d="M398.8,557.2l15.9-0.5l0.1,3.8l-10.2,0.3l0.2,5.7l9.2-0.3l0.1,3.8l-9.2,0.3l0.2,6l10.3-0.3l0.1,3.8
		l-16.1,0.5L398.8,557.2z"/>
	<path fill="#FFAA00" d="M437,578.4c-0.8,0.5-1.8,0.9-3.1,1.1c-1.3,0.3-2.6,0.4-3.9,0.4c-1.6,0-3.2-0.1-4.6-0.5
		c-1.4-0.4-2.7-1-3.8-1.9c-1.1-0.9-2-2.1-2.6-3.7c-0.6-1.5-1-3.4-1.1-5.7s0.2-4.3,0.9-5.9c0.6-1.6,1.5-2.8,2.6-3.8
		c1.1-0.9,2.3-1.6,3.7-2s2.8-0.6,4.3-0.7c1.5,0,2.8,0,3.9,0.2c1.1,0.1,2,0.3,2.7,0.5l-1,3.7c-0.6-0.2-1.3-0.4-2-0.5
		c-0.8-0.1-1.7-0.1-2.8-0.1c-2.1,0.1-3.7,0.8-4.8,2.1c-1.1,1.4-1.6,3.4-1.5,6.3c0,1.2,0.2,2.3,0.5,3.3c0.3,1,0.7,1.9,1.3,2.6
		s1.3,1.3,2.2,1.6c0.9,0.4,1.9,0.5,3.1,0.5c1.1,0,2-0.2,2.7-0.4s1.4-0.5,2-0.8L437,578.4z"/>
	<path fill="#FFAA00" d="M446.4,569.1h-1.2l0.3,9.9l-5.7,0.2l-0.7-23.2l5.7-0.2l0.3,10.3l1.1-0.4l6.4-10.1l6.4-0.2l-7,10l-2.1,1.3
		l2.2,1.2l8.7,10.7l-7,0.2L446.4,569.1z"/>
	<path fill="#FFAA00" d="M480.2,578.1l-16.9,0.5l-0.7-23.2l5.7-0.2l0.5,19.3l11.2-0.3L480.2,578.1z"/>
	<path fill="#FFAA00" d="M482.4,554.8l5.7-0.2l0.7,23.2l-5.7,0.2L482.4,554.8z"/>
	<path fill="#FFAA00" d="M504.3,571.4c0-0.7-0.3-1.3-0.9-1.8c-0.6-0.5-1.3-0.9-2.2-1.3c-0.9-0.4-1.8-0.8-2.9-1.3
		c-1-0.4-2-0.9-2.9-1.5c-0.9-0.6-1.6-1.3-2.2-2.1c-0.6-0.8-0.9-1.8-0.9-3.1c0-1.1,0.2-2.1,0.6-2.9s1.1-1.5,1.9-2
		c0.8-0.5,1.8-0.9,2.9-1.2c1.1-0.3,2.3-0.4,3.6-0.4c1.5,0,3,0,4.3,0.2c1.3,0.2,2.4,0.5,3.3,0.8l-1.7,3.7c-0.5-0.3-1.3-0.5-2.3-0.7
		c-1-0.2-2.1-0.3-3.3-0.2c-1.2,0-2.1,0.2-2.7,0.6c-0.6,0.4-0.9,0.9-0.9,1.6c0,0.6,0.3,1.2,0.9,1.6c0.6,0.5,1.3,0.9,2.2,1.3
		s1.8,0.8,2.9,1.3s2,1,2.9,1.6s1.6,1.3,2.2,2.2c0.6,0.8,0.9,1.8,0.9,3c0,1.2-0.2,2.2-0.6,3.1c-0.4,0.9-1.1,1.6-1.9,2.2
		s-1.9,1-3.1,1.4c-1.2,0.3-2.5,0.5-4,0.5c-1.9,0.1-3.5,0-4.9-0.3c-1.4-0.2-2.5-0.5-3.3-0.8l1.8-3.8c0.6,0.2,1.5,0.5,2.5,0.7
		c1.1,0.2,2.2,0.3,3.4,0.3C502.9,574.1,504.4,573.2,504.3,571.4z"/>
	<path fill="#FFAA00" d="M531.8,557.3l-7.5,0.2l0.5,19.3l-5.7,0.2l-0.5-19.3l-7.5,0.2l-0.1-3.8l20.7-0.6L531.8,557.3z"/>
</g>
<g>
	<path d="M375.9,619.2c-0.4,0.3-1,0.5-1.6,0.6c-0.7,0.1-1.3,0.2-2,0.2c-0.8,0-1.6-0.1-2.4-0.4c-0.7-0.3-1.4-0.7-2-1.2
		c-0.6-0.6-1-1.3-1.4-2.2c-0.3-0.9-0.5-2-0.5-3.3c0-1.4,0.2-2.5,0.6-3.4c0.4-0.9,0.9-1.7,1.5-2.2c0.6-0.6,1.3-1,2-1.2
		c0.7-0.2,1.5-0.4,2.2-0.4c0.8,0,1.5,0.1,2,0.2c0.5,0.1,1,0.2,1.4,0.4l-0.5,2.3c-0.3-0.1-0.7-0.3-1.1-0.3c-0.4-0.1-0.9-0.1-1.5-0.1
		c-1.1,0-2,0.4-2.6,1.2c-0.7,0.8-1,2-1,3.6c0,0.7,0.1,1.4,0.2,2c0.2,0.6,0.4,1.1,0.7,1.5c0.3,0.4,0.7,0.7,1.2,1
		c0.5,0.2,1,0.3,1.7,0.3c0.6,0,1.1-0.1,1.5-0.2c0.4-0.1,0.8-0.3,1.1-0.5L375.9,619.2z"/>
	<path d="M386.4,619.7h-8.8v-13.9h2.7v11.5h6.1V619.7z"/>
	<path d="M388,605.9h2.7v13.9H388V605.9z"/>
	<path d="M402.8,619.2c-0.4,0.3-1,0.5-1.6,0.6c-0.7,0.1-1.3,0.2-2,0.2c-0.8,0-1.6-0.1-2.4-0.4c-0.7-0.3-1.4-0.7-2-1.2
		c-0.6-0.6-1-1.3-1.4-2.2c-0.3-0.9-0.5-2-0.5-3.3c0-1.4,0.2-2.5,0.6-3.4c0.4-0.9,0.9-1.7,1.5-2.2c0.6-0.6,1.3-1,2-1.2
		c0.7-0.2,1.5-0.4,2.2-0.4c0.8,0,1.5,0.1,2,0.2c0.5,0.1,1,0.2,1.4,0.4l-0.5,2.3c-0.3-0.1-0.7-0.3-1.1-0.3c-0.4-0.1-0.9-0.1-1.5-0.1
		c-1.1,0-2,0.4-2.6,1.2c-0.7,0.8-1,2-1,3.6c0,0.7,0.1,1.4,0.2,2c0.2,0.6,0.4,1.1,0.7,1.5c0.3,0.4,0.7,0.7,1.2,1
		c0.5,0.2,1,0.3,1.7,0.3c0.6,0,1.1-0.1,1.5-0.2c0.4-0.1,0.8-0.3,1.1-0.5L402.8,619.2z"/>
	<path d="M407.9,613.8h-0.7v5.9h-2.7v-13.9h2.7v6.1l0.6-0.3l3.8-5.9h3.1l-4,5.8l-1.1,0.8l1.1,0.8l4.6,6.5H412L407.9,613.8z"/>
	<path d="M430,619.7h-8.8v-13.9h2.7v11.5h6.1V619.7z"/>
	<path d="M431.6,605.9h2.7v13.9h-2.7V605.9z"/>
	<path d="M443,616c0-0.4-0.2-0.8-0.5-1c-0.3-0.3-0.7-0.5-1.2-0.7c-0.5-0.2-1-0.4-1.5-0.7c-0.5-0.2-1.1-0.5-1.5-0.9
		c-0.5-0.3-0.9-0.8-1.2-1.3c-0.3-0.5-0.5-1.1-0.5-1.9c0-0.7,0.1-1.3,0.3-1.8c0.2-0.5,0.5-0.9,1-1.2c0.4-0.3,0.9-0.6,1.5-0.7
		c0.6-0.2,1.2-0.2,1.9-0.2c0.8,0,1.6,0.1,2.3,0.2c0.7,0.1,1.3,0.3,1.8,0.6l-0.9,2.3c-0.3-0.2-0.7-0.4-1.3-0.5
		c-0.6-0.2-1.2-0.2-1.9-0.2c-0.6,0-1.1,0.1-1.5,0.4c-0.3,0.3-0.5,0.6-0.5,1c0,0.4,0.2,0.7,0.5,1c0.3,0.3,0.7,0.5,1.2,0.7
		c0.5,0.2,1,0.5,1.5,0.7c0.5,0.2,1.1,0.5,1.5,0.9c0.5,0.3,0.9,0.8,1.2,1.2c0.3,0.5,0.5,1.1,0.5,1.9c0,0.7-0.1,1.4-0.4,1.9
		c-0.2,0.5-0.6,1-1,1.3c-0.4,0.4-1,0.6-1.6,0.8c-0.6,0.2-1.3,0.3-2.1,0.3c-1,0-1.9-0.1-2.6-0.3c-0.8-0.2-1.3-0.4-1.7-0.6l0.9-2.3
		c0.1,0.1,0.3,0.2,0.6,0.3c0.2,0.1,0.5,0.2,0.8,0.3c0.3,0.1,0.6,0.1,0.9,0.2c0.3,0.1,0.7,0.1,1,0.1c0.8,0,1.4-0.1,1.9-0.4
		C442.8,617,443,616.6,443,616z"/>
	<path d="M457.3,608.3h-4v11.4h-2.7v-11.4h-4.1v-2.4h10.8V608.3z"/>
	<path d="M472.1,608.3h-4v11.4h-2.7v-11.4h-4.1v-2.4h10.8V608.3z"/>
	<path d="M472.3,612.8c0-2.3,0.5-4.1,1.5-5.3c1-1.2,2.5-1.9,4.4-1.9c1,0,1.9,0.2,2.6,0.5c0.7,0.3,1.4,0.8,1.8,1.5
		c0.5,0.6,0.9,1.4,1.1,2.3c0.2,0.9,0.4,1.9,0.4,3c0,2.3-0.5,4.1-1.5,5.3c-1,1.2-2.5,1.9-4.3,1.9c-1,0-1.9-0.2-2.6-0.5
		c-0.7-0.3-1.4-0.8-1.8-1.5c-0.5-0.6-0.8-1.4-1.1-2.3C472.4,614.9,472.3,613.9,472.3,612.8z M475.2,612.8c0,0.7,0.1,1.3,0.2,1.9
		c0.1,0.6,0.3,1.1,0.5,1.5c0.2,0.4,0.6,0.8,0.9,1c0.4,0.2,0.8,0.4,1.4,0.4c1,0,1.7-0.4,2.2-1.1c0.5-0.8,0.8-2,0.8-3.7
		c0-0.7-0.1-1.3-0.2-1.9c-0.1-0.6-0.3-1.1-0.5-1.5c-0.2-0.4-0.5-0.8-0.9-1c-0.4-0.2-0.9-0.4-1.4-0.4c-1,0-1.7,0.4-2.2,1.2
		C475.4,609.9,475.2,611.1,475.2,612.8z"/>
	<path d="M490.8,606c0.3-0.1,0.6-0.1,1-0.1c0.3,0,0.7-0.1,1.1-0.1c0.3,0,0.7,0,1-0.1c0.3,0,0.6,0,0.9,0c0.6,0,1.3,0.1,1.9,0.2
		c0.6,0.1,1.2,0.3,1.7,0.6c0.5,0.3,0.9,0.7,1.2,1.2c0.3,0.5,0.4,1.1,0.4,1.9c0,1.1-0.3,2.1-0.8,2.8c-0.5,0.7-1.2,1.2-2.1,1.5l1,0.6
		l3.2,5.3h-3.1l-3.1-5.4l-1.4-0.3v5.7h-2.7V606z M494.9,608.1c-0.3,0-0.6,0-0.8,0c-0.3,0-0.5,0-0.6,0.1v4h1.1c0.8,0,1.4-0.2,1.8-0.5
		c0.4-0.3,0.7-0.9,0.7-1.7c0-0.6-0.2-1.1-0.6-1.4C496.2,608.3,495.6,608.1,494.9,608.1z"/>
	<path d="M502.7,605.9h8.2v2.4h-5.5v3.2h5v2.4h-5v3.4h5.6v2.4h-8.3V605.9z"/>
	<path d="M523.8,612.5l0.3-2.8H524l-0.9,2.2l-3,5.2h-0.9l-3.1-5.2l-0.9-2.2h-0.1l0.4,2.7v7.2H513v-13.9h2.5l3.7,6.3l0.7,1.6h0.1
		l0.6-1.6l3.5-6.3h2.5v13.9h-2.7V612.5z"/>
	<path d="M528.4,612.8c0-2.3,0.5-4.1,1.5-5.3c1-1.2,2.5-1.9,4.4-1.9c1,0,1.9,0.2,2.6,0.5c0.7,0.3,1.4,0.8,1.8,1.5s0.9,1.4,1.1,2.3
		c0.2,0.9,0.4,1.9,0.4,3c0,2.3-0.5,4.1-1.5,5.3c-1,1.2-2.5,1.9-4.3,1.9c-1,0-1.9-0.2-2.6-0.5c-0.7-0.3-1.4-0.8-1.8-1.5
		c-0.5-0.6-0.8-1.4-1.1-2.3C528.6,614.9,528.4,613.9,528.4,612.8z M531.3,612.8c0,0.7,0.1,1.3,0.2,1.9c0.1,0.6,0.3,1.1,0.5,1.5
		c0.2,0.4,0.6,0.8,0.9,1c0.4,0.2,0.8,0.4,1.4,0.4c1,0,1.7-0.4,2.2-1.1c0.5-0.8,0.8-2,0.8-3.7c0-0.7-0.1-1.3-0.2-1.9
		c-0.1-0.6-0.3-1.1-0.5-1.5c-0.2-0.4-0.5-0.8-0.9-1c-0.4-0.2-0.9-0.4-1.4-0.4c-1,0-1.7,0.4-2.2,1.2
		C531.6,609.9,531.3,611.1,531.3,612.8z"/>
	<path d="M546,614l0.4,2.4h0.1l0.4-2.4l2.7-8.1h2.9l-5.2,14h-1.9l-5.2-14h3.1L546,614z"/>
	<path d="M553.3,605.9h8.2v2.4h-5.5v3.2h5v2.4h-5v3.4h5.6v2.4h-8.3V605.9z"/>
</g>
</svg>
