<?xml version="1.0" encoding="utf-8"?>
<!-- Generator: Adobe Illustrator 18.0.0, SVG Export Plug-In . SVG Version: 6.00 Build 0)  -->
<!DOCTYPE svg PUBLIC "-//W3C//DTD SVG 1.1//EN" "http://www.w3.org/Graphics/SVG/1.1/DTD/svg11.dtd">
<svg version="1.1" id="Layer_1" xmlns="http://www.w3.org/2000/svg" xmlns:xlink="http://www.w3.org/1999/xlink" x="0px" y="0px"
	 viewBox="14.5 585 595.3 80.3" enable-background="new 14.5 585 595.3 80.3" xml:space="preserve">
<polygon fill="#CF433B" points="14.8,610.4 14.5,665.3 609.8,654 606,585 "/>
<g>
	<path fill="#FFAA00" d="M86,642.4l-15.3-22.2l10.1-0.4l8.6,12.9l1.1,3.8l0.3,0l0.8-4l7.2-13.4l9.1-0.4L94.5,642l0.5,13.3l-8.5,0.3
		L86,642.4z"/>
	<path fill="#FFAA00" d="M107.9,636.8c-0.1-3,0.2-5.6,0.9-8c0.7-2.4,1.9-4.4,3.4-6c1.5-1.7,3.4-3,5.7-3.9c2.3-0.9,4.9-1.5,7.8-1.6
		c3.1-0.1,5.8,0.2,8.2,1c2.4,0.8,4.3,2,6,3.6c1.6,1.6,2.9,3.5,3.7,5.8c0.9,2.3,1.4,4.8,1.5,7.6c0.1,3-0.2,5.6-1,8
		c-0.8,2.4-1.9,4.4-3.5,6c-1.5,1.7-3.5,3-5.7,3.9c-2.3,0.9-4.8,1.5-7.7,1.6c-3.1,0.1-5.8-0.2-8.2-1c-2.4-0.8-4.3-2-6-3.6
		c-1.6-1.6-2.9-3.5-3.7-5.8C108.5,642.1,108,639.5,107.9,636.8z M116.9,636.4c0.1,1.8,0.3,3.4,0.8,4.9c0.4,1.5,1.1,2.7,1.9,3.7
		c0.8,1,1.8,1.8,3.1,2.4c1.2,0.5,2.7,0.8,4.3,0.7c3-0.1,5.3-1.1,7-3.1c1.6-1.9,2.3-5,2.2-9.4c-0.1-1.7-0.3-3.3-0.7-4.8
		c-0.4-1.5-1-2.7-1.8-3.8c-0.8-1-1.9-1.9-3.1-2.4c-1.2-0.6-2.7-0.8-4.4-0.7c-3,0.1-5.3,1.2-6.9,3.2
		C117.5,629.1,116.8,632.2,116.9,636.4z"/>
	<path fill="#FFAA00" d="M174.1,616.1l8-0.3l0.9,23.1c0.1,2.3-0.2,4.4-0.9,6.1c-0.7,1.7-1.7,3.2-3,4.3c-1.3,1.2-2.9,2-4.8,2.6
		c-1.9,0.6-3.9,1-6.2,1c-5.4,0.2-9.6-0.7-12.5-2.7c-2.9-2-4.5-5.1-4.6-9.3l-1-24l8.5-0.3l0.9,22.6c0.1,2.7,0.9,4.6,2.2,5.7
		c1.4,1,3.4,1.5,6,1.4c2.5-0.1,4.4-0.7,5.6-1.9c1.2-1.2,1.7-3.1,1.6-5.7L174.1,616.1z"/>
	<path fill="#FFAA00" d="M189.4,615.8c0.9-0.2,1.9-0.3,3-0.5c1.1-0.2,2.2-0.3,3.3-0.4c1.1-0.1,2.2-0.2,3.2-0.3
		c1.1-0.1,2-0.1,2.9-0.2c2-0.1,4,0,6,0.2c2,0.2,3.8,0.7,5.4,1.4c1.6,0.7,2.9,1.7,3.9,3c1,1.3,1.6,2.9,1.6,4.9c0.1,3-0.6,5.4-2.2,7.4
		c-1.6,2-3.8,3.4-6.6,4.2l3.1,1.5l10.6,13.2l-9.9,0.4L203.3,637l-4.5-0.4l0.6,14.6l-8.5,0.3L189.4,615.8z M202.7,621.1
		c-0.9,0-1.7,0.1-2.6,0.1c-0.8,0.1-1.5,0.1-2,0.3l0.4,9.9l3.6-0.1c2.4-0.1,4.3-0.6,5.7-1.5c1.4-0.9,2-2.3,1.9-4.4
		c-0.1-1.5-0.7-2.6-1.9-3.4C206.7,621.4,204.9,621,202.7,621.1z"/>
	<path fill="#FFAA00" d="M271.8,618.9l-12.8,0.5l1.2,29.3l-8.5,0.3l-1.2-29.3l-12.8,0.5l-0.3-6.7l34-1.4L271.8,618.9z"/>
	<path fill="#FFAA00" d="M272.7,630.2c-0.1-3,0.2-5.6,0.9-8c0.7-2.4,1.9-4.4,3.4-6c1.5-1.7,3.4-3,5.7-3.9c2.3-0.9,4.9-1.5,7.8-1.6
		c3.1-0.1,5.8,0.2,8.2,1c2.4,0.8,4.3,2,6,3.6c1.6,1.6,2.9,3.5,3.7,5.8c0.9,2.3,1.4,4.8,1.5,7.6c0.1,3-0.2,5.6-1,8
		c-0.8,2.4-1.9,4.4-3.5,6c-1.5,1.7-3.4,3-5.7,3.9c-2.3,0.9-4.8,1.5-7.7,1.6c-3.1,0.1-5.8-0.2-8.2-1c-2.4-0.8-4.3-2-6-3.6
		c-1.6-1.6-2.9-3.5-3.7-5.8C273.3,635.5,272.8,633,272.7,630.2z M281.8,629.9c0.1,1.8,0.3,3.4,0.8,4.9c0.4,1.5,1.1,2.7,1.9,3.7
		c0.8,1,1.8,1.8,3.1,2.4c1.2,0.5,2.7,0.8,4.3,0.7c3-0.1,5.3-1.1,7-3.1c1.6-1.9,2.3-5,2.2-9.4c-0.1-1.7-0.3-3.3-0.7-4.8
		c-0.4-1.5-1-2.7-1.8-3.8c-0.8-1-1.9-1.9-3.1-2.4c-1.2-0.6-2.7-0.8-4.4-0.7c-3,0.1-5.3,1.2-6.9,3.2
		C282.3,622.6,281.6,625.7,281.8,629.9z"/>
	<path fill="#FFAA00" d="M315.6,628.5l15.7-0.6l0.3,6.4l-15.7,0.6L315.6,628.5z"/>
	<path fill="#FFAA00" d="M337.7,609.6c0.8-0.1,1.8-0.3,2.9-0.4c1.1-0.1,2.2-0.2,3.4-0.3c1.2-0.1,2.3-0.2,3.4-0.2
		c1.1-0.1,2.1-0.1,3-0.1c3.8-0.2,7.1,0.2,9.9,1c2.8,0.8,5.1,2,6.9,3.5c1.8,1.5,3.2,3.4,4,5.6c0.9,2.2,1.4,4.6,1.5,7.3
		c0.1,2.4-0.2,4.7-0.9,7c-0.7,2.3-1.9,4.4-3.6,6.2c-1.7,1.8-3.9,3.3-6.7,4.5c-2.8,1.2-6.3,1.8-10.4,2c-0.7,0-1.5,0-2.7,0.1
		c-1.1,0-2.3,0-3.5,0c-1.2,0-2.3,0-3.4,0c-1.1,0-1.9,0-2.4-0.1L337.7,609.6z M351.3,615.2c-0.9,0-1.8,0.1-2.7,0.1
		c-0.9,0.1-1.6,0.1-2.1,0.2l0.9,23.4c0.2,0,0.5,0,0.9,0c0.4,0,0.8,0,1.3,0c0.4,0,0.9,0,1.3,0c0.4,0,0.7,0,0.9,0
		c2.5-0.1,4.5-0.5,6.1-1.3c1.6-0.8,2.8-1.7,3.7-2.9c0.9-1.2,1.5-2.5,1.8-3.9c0.3-1.5,0.5-3,0.4-4.5c-0.1-1.3-0.3-2.6-0.7-3.9
		c-0.4-1.4-1.1-2.6-2-3.7c-0.9-1.1-2.2-2-3.8-2.7C355.7,615.4,353.7,615.1,351.3,615.2z"/>
	<path fill="#FFAA00" d="M377.3,626.1c-0.1-3,0.2-5.6,0.9-8c0.7-2.4,1.9-4.4,3.4-6c1.5-1.7,3.4-3,5.7-3.9c2.3-0.9,4.9-1.5,7.8-1.6
		c3.1-0.1,5.8,0.2,8.2,1c2.4,0.8,4.3,2,6,3.6c1.6,1.6,2.9,3.5,3.7,5.8c0.9,2.3,1.4,4.8,1.5,7.6c0.1,3-0.2,5.6-1,8
		c-0.8,2.4-1.9,4.4-3.5,6c-1.5,1.7-3.5,3-5.7,3.9c-2.3,0.9-4.8,1.5-7.7,1.6c-3.1,0.1-5.8-0.2-8.2-1s-4.3-2-6-3.6
		c-1.6-1.6-2.9-3.5-3.7-5.8C377.9,631.4,377.4,628.8,377.3,626.1z M386.3,625.7c0.1,1.8,0.3,3.4,0.8,4.9c0.4,1.5,1.1,2.7,1.9,3.7
		c0.8,1,1.8,1.8,3.1,2.4c1.2,0.5,2.7,0.8,4.3,0.7c3-0.1,5.3-1.1,7-3.1c1.6-1.9,2.3-5,2.2-9.4c-0.1-1.7-0.3-3.3-0.7-4.8
		c-0.4-1.5-1-2.7-1.8-3.8c-0.8-1-1.9-1.9-3.1-2.4c-1.2-0.6-2.7-0.8-4.4-0.7c-3,0.1-5.3,1.2-6.9,3.2
		C386.9,618.4,386.2,621.5,386.3,625.7z"/>
	<path fill="#FFAA00" d="M464,640.6l-27.7,1.1l-1.4-36l8.5-0.3l1.2,29.3l19.2-0.8L464,640.6z"/>
	<path fill="#FFAA00" d="M470.2,608.5l-4.6,0.2l-0.2-4.1l17.7-0.7l0.2,4.1l-4.6,0.2l1.1,27.8l4.6-0.2l0.2,4.1l-17.7,0.7l-0.2-4.1
		l4.6-0.2L470.2,608.5z"/>
	<path fill="#FFAA00" d="M509,629c0-1.1-0.6-1.9-1.6-2.5c-1-0.6-2.3-1.1-3.8-1.6c-1.5-0.5-3.1-0.9-4.9-1.4c-1.7-0.4-3.4-1.1-4.9-1.9
		c-1.5-0.8-2.8-1.8-3.8-3.1s-1.6-2.9-1.7-5c-0.1-1.8,0.2-3.4,0.9-4.8c0.7-1.4,1.6-2.5,2.9-3.5c1.2-0.9,2.8-1.6,4.6-2.2
		c1.8-0.5,3.8-0.8,6-0.9c2.5-0.1,4.9,0,7.2,0.3c2.3,0.3,4.2,0.8,5.7,1.5l-2.4,6.5c-0.5-0.2-1.1-0.4-1.8-0.7
		c-0.7-0.2-1.5-0.4-2.5-0.6c-0.9-0.2-1.9-0.3-3-0.3c-1-0.1-2.1-0.1-3.2-0.1c-1.9,0.1-3.4,0.4-4.4,1.1c-1,0.6-1.5,1.5-1.5,2.6
		c0,1.1,0.6,1.9,1.6,2.5c1,0.6,2.3,1.1,3.8,1.6c1.5,0.5,3.1,0.9,4.9,1.4c1.7,0.5,3.4,1.1,4.9,1.9c1.5,0.8,2.8,1.8,3.8,3
		c1,1.2,1.6,2.8,1.7,4.8s-0.2,3.7-0.9,5.2c-0.7,1.5-1.7,2.7-3.1,3.7c-1.4,1-3,1.8-4.9,2.3c-1.9,0.5-4.1,0.8-6.4,0.9
		c-1.6,0.1-3.1,0-4.5-0.1c-1.4-0.1-2.7-0.2-3.9-0.4c-1.2-0.2-2.3-0.4-3.2-0.6c-0.9-0.2-1.6-0.4-2.2-0.7l2.6-6.5
		c0.4,0.2,1,0.4,1.8,0.6c0.8,0.2,1.6,0.4,2.5,0.6c0.9,0.2,1.9,0.3,3,0.4c1.1,0.1,2.1,0.1,3.2,0.1c2.5-0.1,4.4-0.5,5.7-1.2
		C508.5,631.4,509.1,630.3,509,629z"/>
	<path fill="#FFAA00" d="M553.4,607.7l-12.8,0.5l1.2,29.3l-8.5,0.3l-1.2-29.3l-12.8,0.5l-0.3-6.7l34-1.4L553.4,607.7z"/>
</g>
</svg>
