<?xml version="1.0" encoding="utf-8"?>
<!-- Generator: Adobe Illustrator 18.0.0, SVG Export Plug-In . SVG Version: 6.00 Build 0)  -->
<!DOCTYPE svg PUBLIC "-//W3C//DTD SVG 1.1//EN" "http://www.w3.org/Graphics/SVG/1.1/DTD/svg11.dtd">
<svg version="1.1" id="Layer_1" xmlns="http://www.w3.org/2000/svg" xmlns:xlink="http://www.w3.org/1999/xlink" x="0px" y="0px"
	 viewBox="14.5 204.2 553.7 74.7" enable-background="new 14.5 204.2 553.7 74.7" xml:space="preserve">
<polygon fill="#CF433B" points="14.8,227.8 14.5,278.9 568.2,268.4 564.7,204.2 "/>
<g>
	<path fill="#FFAA00" d="M44.2,255.2l-8.9-14.3l6.8-0.2l4.7,8.7l0.5,2.5h0.2l0.4-2.6l4.1-8.8l6.1-0.2l-8.2,14.8l0.2,8.6l-5.7,0.2
		L44.2,255.2z"/>
	<path fill="#FFAA00" d="M57.7,251.8c-0.1-3.9,0.7-6.9,2.5-9.1c1.8-2.1,4.6-3.2,8.4-3.3c2-0.1,3.7,0.2,5.1,0.7
		c1.4,0.5,2.6,1.3,3.6,2.3c0.9,1,1.6,2.3,2.1,3.8c0.5,1.5,0.7,3.1,0.8,5c0.1,3.9-0.7,6.9-2.6,9.1c-1.8,2.1-4.6,3.2-8.3,3.3
		c-2,0.1-3.7-0.2-5.1-0.7c-1.4-0.5-2.6-1.3-3.5-2.3s-1.6-2.3-2.1-3.8C58,255.3,57.7,253.6,57.7,251.8z M63.7,251.6
		c0,1.2,0.2,2.3,0.4,3.3c0.2,1,0.5,1.9,1,2.6c0.5,0.7,1,1.3,1.7,1.7c0.7,0.4,1.5,0.6,2.4,0.6c1.8,0,3.1-0.7,3.9-2.1
		c0.8-1.3,1.2-3.4,1.1-6.3c0-1.1-0.2-2.2-0.4-3.2c-0.2-1-0.5-1.9-1-2.6c-0.4-0.7-1-1.3-1.7-1.7s-1.5-0.6-2.5-0.6
		C65.2,243.3,63.5,246.1,63.7,251.6z"/>
	<path fill="#FFAA00" d="M97.2,239.1l5.4-0.2l0.4,15c0.1,3-0.7,5.2-2.3,6.6c-1.6,1.4-3.9,2.1-6.9,2.2c-3.5,0.1-6-0.5-7.7-1.8
		s-2.5-3.2-2.6-5.9L83,239.5l5.7-0.2l0.4,14.9c0.1,1.8,0.4,3.1,1.1,3.8s1.8,1,3.3,1c1.5,0,2.5-0.5,3.1-1.2c0.6-0.8,0.9-2,0.8-3.8
		L97.2,239.1z"/>
	<path fill="#FFAA00" d="M106.6,239c1.2-0.2,2.6-0.4,4-0.5c1.4-0.1,2.6-0.2,3.7-0.2c1.3,0,2.6,0,3.8,0.2c1.2,0.2,2.4,0.5,3.3,0.9
		c1,0.5,1.8,1.1,2.4,2c0.6,0.8,0.9,1.9,1,3.2c0.1,1.9-0.4,3.4-1.3,4.6c-0.9,1.2-2.2,2.1-3.9,2.5l1.8,1l6.1,8.7l-6.6,0.2l-5.8-9
		l-2.5-0.4l0.3,9.6l-5.7,0.2L106.6,239z M112.6,249.4l2-0.1c1.4,0,2.5-0.4,3.2-1c0.7-0.6,1-1.6,1-3c0-1-0.4-1.8-1-2.4
		c-0.6-0.6-1.6-0.9-2.9-0.9c-0.5,0-1,0-1.4,0.1c-0.5,0-0.8,0.1-1.1,0.2L112.6,249.4z"/>
	<path fill="#FFAA00" d="M148,237.8c1.1-0.2,2.3-0.4,3.6-0.5c1.3-0.1,2.6-0.2,3.9-0.3c1.4,0,2.8,0,4.1,0.2c1.4,0.1,2.6,0.5,3.6,1
		c1.1,0.5,2,1.3,2.7,2.3c0.7,1,1.1,2.3,1.1,3.9c0,1.5-0.2,2.7-0.7,3.7s-1.3,1.9-2.2,2.5c-0.9,0.7-2,1.2-3.2,1.5
		c-1.2,0.3-2.5,0.5-3.8,0.5c-0.1,0-0.3,0-0.6,0c-0.3,0-0.6,0-0.9,0c-0.3,0-0.6,0-0.9,0c-0.3,0-0.5,0-0.6,0l0.2,8l-5.7,0.2L148,237.8
		z M154,248.9c0.2,0,0.5,0.1,1,0.1s0.8,0,1,0c0.7,0,1.3-0.1,1.9-0.3c0.6-0.2,1.1-0.4,1.6-0.7c0.5-0.3,0.8-0.8,1.1-1.4
		c0.3-0.6,0.4-1.3,0.3-2.1c0-0.7-0.2-1.3-0.4-1.8c-0.3-0.5-0.6-0.9-1.1-1.2c-0.5-0.3-1-0.5-1.5-0.6c-0.6-0.1-1.2-0.2-1.8-0.1
		c-0.9,0-1.7,0.1-2.3,0.2L154,248.9z"/>
	<path fill="#FFAA00" d="M168.9,248.6c-0.1-3.9,0.7-6.9,2.5-9.1c1.8-2.1,4.6-3.2,8.4-3.3c2-0.1,3.7,0.2,5.1,0.7
		c1.4,0.5,2.6,1.3,3.6,2.3c0.9,1,1.6,2.3,2.1,3.8c0.5,1.5,0.7,3.1,0.8,5c0.1,3.9-0.7,6.9-2.6,9.1c-1.8,2.1-4.6,3.2-8.3,3.3
		c-2,0.1-3.7-0.2-5.1-0.7c-1.4-0.5-2.6-1.3-3.5-2.3s-1.6-2.3-2.1-3.8C169.2,252.1,168.9,250.5,168.9,248.6z M174.9,248.5
		c0,1.2,0.2,2.3,0.4,3.3c0.2,1,0.5,1.9,1,2.6c0.4,0.7,1,1.3,1.7,1.7c0.7,0.4,1.5,0.6,2.4,0.6c1.8,0,3.1-0.7,3.9-2.1
		c0.8-1.3,1.2-3.4,1.1-6.3c0-1.1-0.2-2.2-0.4-3.2c-0.2-1-0.5-1.9-1-2.6c-0.4-0.7-1-1.3-1.7-1.7c-0.7-0.4-1.5-0.6-2.5-0.6
		C176.4,240.2,174.7,243,174.9,248.5z"/>
	<path fill="#FFAA00" d="M215,246.9l0.5-4.5h-0.2l-1.6,4l-4.9,8.3l-1.9,0.1l-5.7-8l-1.8-4h-0.3l1,4.4l0.3,12l-5.4,0.2l-0.7-23.2
		l5.5-0.2l6.9,9.8l1.2,2.9h0.2l1-3l5.9-10.1l5.4-0.2l0.7,23.2l-5.7,0.2L215,246.9z"/>
	<path fill="#FFAA00" d="M224.1,247.1c-0.1-3.9,0.7-6.9,2.5-9.1c1.8-2.1,4.6-3.2,8.4-3.3c2-0.1,3.7,0.2,5.1,0.7
		c1.4,0.5,2.6,1.3,3.6,2.3c0.9,1,1.6,2.3,2.1,3.8c0.5,1.5,0.7,3.1,0.8,5c0.1,3.9-0.7,6.9-2.6,9.1c-1.8,2.1-4.6,3.2-8.3,3.3
		c-2,0.1-3.7-0.2-5.1-0.7c-1.4-0.5-2.6-1.3-3.5-2.3c-0.9-1-1.6-2.3-2.1-3.8C224.4,250.5,224.1,248.9,224.1,247.1z M230.1,246.9
		c0,1.2,0.2,2.3,0.4,3.3c0.2,1,0.5,1.9,1,2.6c0.4,0.7,1,1.3,1.7,1.7c0.7,0.4,1.5,0.6,2.4,0.6c1.8,0,3.1-0.7,3.9-2.1
		c0.8-1.3,1.2-3.4,1.1-6.3c0-1.1-0.2-2.2-0.4-3.2c-0.2-1-0.5-1.9-1-2.6c-0.4-0.7-1-1.3-1.7-1.7c-0.7-0.4-1.5-0.6-2.5-0.6
		C231.6,238.6,229.9,241.4,230.1,246.9z"/>
	<path fill="#FFAA00" d="M249.6,234.7c0.5-0.1,1.2-0.1,1.8-0.2c0.7-0.1,1.4-0.1,2.1-0.2c0.7-0.1,1.4-0.1,2.1-0.1
		c0.7,0,1.3-0.1,1.8-0.1c2.5-0.1,4.6,0.2,6.3,0.7s3.1,1.3,4.1,2.3s1.8,2.2,2.3,3.6c0.5,1.4,0.7,3,0.8,4.8c0,1.6-0.1,3.2-0.5,4.6
		c-0.4,1.5-1,2.8-2,3.9c-1,1.1-2.4,2.1-4.1,2.8c-1.7,0.7-3.9,1.1-6.6,1.2c-0.4,0-0.9,0-1.6,0c-0.7,0-1.4,0-2.1,0c-0.7,0-1.4,0-2.1,0
		c-0.7,0-1.2,0-1.5-0.1L249.6,234.7z M258,238c-0.5,0-1,0-1.5,0.1c-0.5,0-0.9,0.1-1.2,0.1l0.5,16c0.1,0,0.3,0,0.5,0
		c0.2,0,0.5,0,0.7,0c0.3,0,0.5,0,0.7,0s0.4,0,0.5,0c1.4,0,2.5-0.3,3.3-0.8c0.9-0.5,1.5-1.1,2-1.9c0.5-0.8,0.8-1.7,1-2.7
		c0.2-1,0.2-2.1,0.2-3.2c0-1-0.1-2-0.3-2.9c-0.2-0.9-0.5-1.8-1-2.5c-0.5-0.7-1.2-1.3-2-1.7C260.5,238.1,259.4,238,258,238z"/>
	<path fill="#FFAA00" d="M273.5,245.7c-0.1-3.9,0.7-6.9,2.5-9.1c1.8-2.1,4.6-3.2,8.4-3.3c2-0.1,3.7,0.2,5.1,0.7
		c1.4,0.5,2.6,1.3,3.6,2.3c0.9,1,1.6,2.3,2.1,3.8c0.5,1.5,0.7,3.1,0.8,5c0.1,3.9-0.7,6.9-2.6,9.1c-1.8,2.1-4.6,3.2-8.3,3.3
		c-2,0.1-3.7-0.2-5.1-0.7c-1.4-0.5-2.6-1.3-3.5-2.3c-0.9-1-1.6-2.3-2.1-3.8C273.8,249.1,273.5,247.5,273.5,245.7z M279.5,245.5
		c0,1.2,0.2,2.3,0.4,3.3c0.2,1,0.5,1.9,1,2.6c0.4,0.7,1,1.3,1.7,1.7s1.5,0.6,2.4,0.6c1.8,0,3.1-0.7,3.9-2.1c0.8-1.3,1.2-3.4,1.1-6.3
		c0-1.1-0.2-2.2-0.4-3.2c-0.2-1-0.5-1.9-1-2.6c-0.4-0.7-1-1.3-1.7-1.7c-0.7-0.4-1.5-0.6-2.5-0.6C281,237.2,279.3,240,279.5,245.5z"
		/>
	<path fill="#FFAA00" d="M299,233.6c1.2-0.2,2.6-0.4,4-0.5c1.4-0.1,2.6-0.2,3.7-0.2c1.3,0,2.6,0,3.8,0.2c1.2,0.2,2.4,0.5,3.3,0.9
		c1,0.5,1.8,1.1,2.4,2c0.6,0.8,0.9,1.9,1,3.2c0.1,1.9-0.4,3.4-1.3,4.6c-0.9,1.2-2.2,2.1-3.9,2.5l1.8,1l6.1,8.7l-6.6,0.2l-5.8-9
		l-2.5-0.4l0.3,9.6l-5.7,0.2L299,233.6z M305,243.9l2-0.1c1.4,0,2.5-0.4,3.2-1c0.7-0.6,1-1.6,1-3c0-1-0.4-1.8-1-2.4
		c-0.6-0.6-1.6-0.9-2.9-0.9c-0.5,0-1,0-1.4,0.1c-0.5,0-0.8,0.1-1.1,0.2L305,243.9z"/>
	<path fill="#FFAA00" d="M320.2,244.3c-0.1-3.9,0.7-6.9,2.5-9.1c1.8-2.1,4.6-3.2,8.4-3.3c2-0.1,3.7,0.2,5.1,0.7s2.6,1.3,3.6,2.3
		c0.9,1,1.6,2.3,2.1,3.8c0.5,1.5,0.7,3.1,0.8,5c0.1,3.9-0.7,6.9-2.6,9.1c-1.8,2.1-4.6,3.2-8.3,3.3c-2,0.1-3.7-0.2-5.1-0.7
		c-1.4-0.5-2.6-1.3-3.5-2.3s-1.6-2.3-2.1-3.8C320.5,247.8,320.3,246.2,320.2,244.3z M326.2,244.2c0,1.2,0.2,2.3,0.4,3.3
		c0.2,1,0.5,1.9,1,2.6c0.5,0.7,1,1.3,1.7,1.7c0.7,0.4,1.5,0.6,2.4,0.6c1.8,0,3.1-0.7,3.9-2.1c0.8-1.3,1.2-3.4,1.1-6.3
		c0-1.1-0.2-2.2-0.4-3.2c-0.2-1-0.5-1.9-1-2.6c-0.4-0.7-1-1.3-1.7-1.7c-0.7-0.4-1.5-0.6-2.5-0.6C327.7,235.9,326,238.7,326.2,244.2z
		"/>
	<path fill="#FFAA00" d="M372.6,253.5c-0.8,0.5-1.8,0.9-3.1,1.1c-1.3,0.3-2.6,0.4-3.9,0.4c-1.6,0-3.2-0.1-4.6-0.5
		c-1.4-0.4-2.7-1-3.8-1.9c-1.1-0.9-2-2.1-2.6-3.7c-0.6-1.5-1-3.4-1.1-5.7s0.2-4.3,0.9-5.9c0.6-1.6,1.5-2.8,2.6-3.8
		c1.1-0.9,2.3-1.6,3.7-2c1.4-0.4,2.8-0.6,4.3-0.7c1.5,0,2.8,0,3.9,0.2c1.1,0.1,2,0.3,2.7,0.5l-1,3.7c-0.6-0.2-1.3-0.4-2-0.5
		c-0.8-0.1-1.7-0.1-2.8-0.1c-2.1,0.1-3.7,0.8-4.8,2.1c-1.1,1.4-1.6,3.4-1.5,6.3c0,1.2,0.2,2.3,0.5,3.3s0.7,1.9,1.3,2.6
		c0.6,0.7,1.3,1.3,2.2,1.6c0.9,0.4,1.9,0.5,3.1,0.5c1.1,0,2-0.2,2.7-0.4c0.7-0.2,1.4-0.5,2-0.8L372.6,253.5z"/>
	<path fill="#FFAA00" d="M389.4,244.1l-8.7,0.2l0.3,9.8l-5.7,0.2l-0.7-23.2l5.7-0.2l0.3,9.5l8.7-0.2l-0.3-9.5l5.7-0.2l0.7,23.2
		l-5.7,0.2L389.4,244.1z"/>
	<path fill="#FFAA00" d="M398.8,230.5l15.9-0.5l0.1,3.8l-10.2,0.3l0.2,5.7l9.2-0.3l0.1,3.8l-9.2,0.3l0.2,6l10.3-0.3l0.1,3.8
		l-16.1,0.5L398.8,230.5z"/>
	<path fill="#FFAA00" d="M437,251.7c-0.8,0.5-1.8,0.9-3.1,1.1c-1.3,0.3-2.6,0.4-3.9,0.4c-1.6,0-3.2-0.1-4.6-0.5
		c-1.4-0.4-2.7-1-3.8-1.9c-1.1-0.9-2-2.1-2.6-3.7c-0.6-1.5-1-3.4-1.1-5.7s0.2-4.3,0.9-5.9c0.6-1.6,1.5-2.8,2.6-3.8
		c1.1-0.9,2.3-1.6,3.7-2c1.4-0.4,2.8-0.6,4.3-0.7c1.5,0,2.8,0,3.9,0.2c1.1,0.1,2,0.3,2.7,0.5l-1,3.7c-0.6-0.2-1.3-0.4-2-0.5
		c-0.8-0.1-1.7-0.1-2.8-0.1c-2.1,0.1-3.7,0.8-4.8,2.1c-1.1,1.4-1.6,3.4-1.5,6.3c0,1.2,0.2,2.3,0.5,3.3s0.7,1.9,1.3,2.6
		c0.6,0.7,1.3,1.3,2.2,1.6c0.9,0.4,1.9,0.5,3.1,0.5c1.1,0,2-0.2,2.7-0.4c0.7-0.2,1.4-0.5,2-0.8L437,251.7z"/>
	<path fill="#FFAA00" d="M446.4,242.4h-1.2l0.3,9.9l-5.7,0.2l-0.7-23.2l5.7-0.2l0.3,10.3l1.1-0.4l6.4-10.1l6.4-0.2l-7,10l-2.1,1.3
		l2.2,1.2l8.7,10.7l-7,0.2L446.4,242.4z"/>
	<path fill="#FFAA00" d="M480.2,251.4l-16.9,0.5l-0.7-23.2l5.7-0.2l0.5,19.3l11.2-0.3L480.2,251.4z"/>
	<path fill="#FFAA00" d="M482.4,228.1l5.7-0.2l0.7,23.2l-5.7,0.2L482.4,228.1z"/>
	<path fill="#FFAA00" d="M504.3,244.7c0-0.7-0.3-1.3-0.9-1.8c-0.6-0.5-1.3-0.9-2.2-1.3c-0.9-0.4-1.8-0.8-2.9-1.3
		c-1-0.4-2-0.9-2.9-1.5c-0.9-0.6-1.6-1.3-2.2-2.1c-0.6-0.8-0.9-1.8-0.9-3.1c0-1.1,0.2-2.1,0.6-2.9s1.1-1.5,1.9-2s1.8-0.9,2.9-1.2
		c1.1-0.3,2.3-0.4,3.6-0.4c1.5,0,3,0,4.3,0.2c1.3,0.2,2.4,0.5,3.3,0.8l-1.7,3.7c-0.5-0.3-1.3-0.5-2.3-0.7c-1-0.2-2.1-0.3-3.3-0.2
		c-1.2,0-2.1,0.2-2.7,0.6c-0.6,0.4-0.9,0.9-0.9,1.6c0,0.6,0.3,1.2,0.9,1.6c0.6,0.5,1.3,0.9,2.2,1.3c0.9,0.4,1.8,0.8,2.9,1.3
		s2,1,2.9,1.6c0.9,0.6,1.6,1.3,2.2,2.2c0.6,0.8,0.9,1.8,0.9,3c0,1.2-0.2,2.2-0.6,3.1c-0.4,0.9-1.1,1.6-1.9,2.2s-1.9,1-3.1,1.4
		c-1.2,0.3-2.5,0.5-4,0.5c-1.9,0.1-3.5,0-4.9-0.3c-1.4-0.2-2.5-0.5-3.3-0.8l1.8-3.8c0.6,0.2,1.5,0.5,2.5,0.7
		c1.1,0.2,2.2,0.3,3.4,0.3C502.9,247.4,504.4,246.5,504.3,244.7z"/>
	<path fill="#FFAA00" d="M531.8,230.6l-7.5,0.2l0.5,19.3l-5.7,0.2l-0.5-19.3l-7.5,0.2l-0.1-3.8l20.7-0.6L531.8,230.6z"/>
</g>
</svg>
