<?xml version="1.0" encoding="utf-8"?>
<!-- Generator: Adobe Illustrator 18.0.0, SVG Export Plug-In . SVG Version: 6.00 Build 0)  -->
<!DOCTYPE svg PUBLIC "-//W3C//DTD SVG 1.1//EN" "http://www.w3.org/Graphics/SVG/1.1/DTD/svg11.dtd">
<svg version="1.1" id="Layer_2" xmlns="http://www.w3.org/2000/svg" xmlns:xlink="http://www.w3.org/1999/xlink" x="0px" y="0px"
	 viewBox="0 0 153.3 62.5" enable-background="new 0 0 153.3 62.5" xml:space="preserve">
<g>
	<path fill="#FFEDE5" d="M143.3,61.5H10c-5.5,0-10-4.5-10-10V10C0,4.5,4.5,0,10,0h133.3c5.5,0,10,4.5,10,10v41.5
		C153.3,57,148.8,61.5,143.3,61.5z"/>
	<g>
		<g>
			<path fill="#C95B5E" d="M27.3,16.2c0-0.9-0.1-1.9-0.1-2.9c0.2,0,0.4,0.1,0.6,0.1c0.2,0,0.4,0,0.5,0s0.4,0,0.5,0
				c0.2,0,0.4,0,0.6-0.1c0,1-0.1,1.9-0.1,2.9c0,0.9-0.1,1.9-0.1,2.9c0,1.9,0,3.5,0,4.9c0,1.4,0,2.6,0,3.7c1.1,0,2.1,0,3,0
				c1,0,2-0.1,3.1-0.3c-0.1,0.3-0.1,0.5-0.1,0.7c0,0.2,0,0.4,0.1,0.6c-0.7,0-1.4,0-2,0c-0.7,0-1.4,0-2,0c-0.7,0-1.4,0-2.1,0
				c-0.7,0-1.3,0-2.1,0c0-0.9,0.1-1.9,0.1-2.8c0-0.9,0.1-1.9,0.1-2.9v-3.8C27.3,18.1,27.3,17.1,27.3,16.2z"/>
			<path fill="#C95B5E" d="M37.2,21c0-1.3,0.2-2.4,0.6-3.4c0.4-1,1-1.8,1.7-2.5c0.7-0.7,1.6-1.2,2.6-1.6c1-0.4,2.1-0.5,3.4-0.5
				c1.2,0,2.4,0.2,3.4,0.5c1,0.4,1.9,0.9,2.6,1.6c0.7,0.7,1.3,1.5,1.7,2.5c0.4,1,0.6,2.1,0.6,3.4c0,1.3-0.2,2.4-0.6,3.4
				c-0.4,1-1,1.8-1.7,2.5c-0.7,0.7-1.6,1.2-2.6,1.5c-1,0.3-2.1,0.5-3.4,0.5c-1.2,0-2.3-0.2-3.4-0.5c-1-0.3-1.9-0.8-2.6-1.5
				c-0.7-0.7-1.3-1.5-1.7-2.5C37.4,23.4,37.2,22.2,37.2,21z M51.7,21c0-1.2-0.2-2.3-0.5-3.2c-0.3-0.9-0.7-1.6-1.3-2.2
				c-0.6-0.6-1.2-1-2-1.3c-0.7-0.3-1.6-0.4-2.4-0.4c-0.9,0-1.7,0.1-2.4,0.4c-0.7,0.3-1.4,0.7-2,1.3c-0.6,0.6-1,1.3-1.3,2.2
				s-0.5,2-0.5,3.2c0,1.2,0.2,2.3,0.5,3.2c0.3,0.9,0.7,1.6,1.3,2.2c0.6,0.6,1.2,1,2,1.3c0.7,0.3,1.6,0.4,2.4,0.4
				c0.9,0,1.7-0.1,2.4-0.4c0.7-0.3,1.4-0.7,2-1.3c0.6-0.6,1-1.3,1.3-2.2C51.5,23.3,51.7,22.2,51.7,21z"/>
			<path fill="#C95B5E" d="M64,22.8c-1.9-2.1-3.9-4.1-5.8-6.2c0,0.4,0,1,0,1.7c0,0.7,0,1.6,0,2.8c0,0.3,0,0.7,0,1.2
				c0,0.5,0,0.9,0,1.4c0,0.5,0,1,0,1.5c0,0.5,0,1,0,1.4c0,0.4,0,0.8,0,1.2c0,0.3,0,0.6,0,0.7c-0.2,0-0.5,0-0.8,0c-0.3,0-0.6,0-0.8,0
				c0-0.1,0.1-0.4,0.1-0.8c0-0.4,0.1-0.9,0.1-1.4c0-0.6,0.1-1.2,0.1-1.8c0-0.7,0.1-1.3,0.1-2c0-0.7,0-1.3,0.1-1.9c0-0.6,0-1.2,0-1.7
				c0-1.4,0-2.6,0-3.7c0-1,0-1.8-0.1-2.3h0.4c0.9,1,1.9,2,2.9,3.1c1,1.1,2.1,2.2,3.1,3.3c1,1.1,2,2.1,2.9,3.1c0.9,1,1.7,1.8,2.4,2.5
				v-3c0-1.6,0-3.1,0-4.5c0-1.5-0.1-2.9-0.1-4.2c0.3,0.1,0.5,0.1,0.8,0.1c0.2,0,0.4,0,0.7-0.1c0,0.3-0.1,0.8-0.1,1.5
				c0,0.7-0.1,1.3-0.1,2.1c0,0.7-0.1,1.5-0.1,2.2c0,0.7,0,1.3,0,1.7c0,0.4,0,0.8,0,1.3c0,0.5,0,1,0,1.6c0,0.5,0,1.1,0,1.7
				c0,0.6,0,1.1,0,1.6c0,0.5,0,0.9,0,1.3c0,0.3,0,0.6,0,0.7h-0.3C67.8,26.9,65.9,24.9,64,22.8z"/>
			<path fill="#C95B5E" d="M86.1,15.2c-0.3-0.3-0.7-0.5-1.1-0.7c-0.4-0.2-0.9-0.4-1.4-0.5c-0.5-0.1-1-0.2-1.6-0.2
				c-0.9,0-1.8,0.1-2.6,0.4S78,15,77.4,15.6c-0.6,0.6-1,1.3-1.4,2.2c-0.3,0.9-0.5,2-0.5,3.2c0,1.1,0.1,2.1,0.4,2.9
				c0.3,0.9,0.7,1.6,1.3,2.2c0.6,0.6,1.3,1.1,2.1,1.4c0.8,0.3,1.8,0.5,2.8,0.5c0.3,0,0.6,0,1,0c0.3,0,0.7-0.1,1-0.1
				c0.3-0.1,0.6-0.1,0.9-0.2c0.3-0.1,0.5-0.2,0.7-0.3c0-0.4,0-0.9,0-1.3c0-0.4,0-0.9,0-1.4c0-0.5,0-1,0-1.6c0-0.5,0-1-0.1-1.5
				c0.4,0.1,0.7,0.1,1.1,0.1c0.2,0,0.3,0,0.5,0c0.2,0,0.3,0,0.5-0.1c0,0.3-0.1,0.9-0.1,1.6c0,0.7,0,1.7,0,2.9c0,0.3,0,0.6,0,0.9
				c0,0.3,0,0.6,0,0.9c-0.3,0.1-0.7,0.2-1.2,0.4c-0.5,0.1-1,0.2-1.5,0.3c-0.5,0.1-1.1,0.2-1.6,0.2c-0.5,0.1-1,0.1-1.4,0.1
				c-1.3,0-2.5-0.2-3.6-0.5c-1.1-0.3-2-0.8-2.7-1.5c-0.7-0.7-1.3-1.5-1.7-2.5c-0.4-1-0.6-2.1-0.6-3.4c0-1.3,0.2-2.4,0.6-3.4
				c0.4-1,1-1.8,1.8-2.5c0.8-0.7,1.7-1.2,2.7-1.6c1.1-0.4,2.3-0.5,3.6-0.5c0.8,0,1.4,0,2,0.1c0.6,0.1,1.1,0.2,1.6,0.3
				c0.5,0.1,0.8,0.3,1.2,0.4c0.3,0.1,0.6,0.3,0.9,0.4c-0.1,0.2-0.2,0.5-0.3,0.8c-0.1,0.3-0.2,0.6-0.2,0.9H87
				C86.7,15.8,86.5,15.5,86.1,15.2z"/>
		</g>
		<g>
			<path fill="#C95B5E" d="M61.9,38.9c0-1,0-1.9-0.1-2.9s-0.1-1.9-0.1-2.8c0.4,0,0.8,0.1,1.2,0.1c0.4,0,0.8,0,1.2,0
				c0.4,0,0.8,0,1.2-0.1c0.4,0,0.8-0.1,1.2-0.1c0.6,0,1.2,0,1.8,0.1c0.6,0.1,1.1,0.3,1.5,0.5c0.4,0.2,0.8,0.6,1,1
				c0.3,0.4,0.4,0.9,0.4,1.6c0,1.1-0.3,2-1,2.6c-0.7,0.6-1.6,1.1-2.7,1.3v0c1.3,0.1,2.4,0.4,3.1,1c0.8,0.6,1.1,1.5,1.1,2.8
				c0,0.8-0.2,1.5-0.5,2.1c-0.3,0.6-0.8,1-1.3,1.4c-0.5,0.3-1.2,0.6-1.8,0.7c-0.7,0.1-1.3,0.2-2,0.2c-0.4,0-0.7,0-1.1,0
				c-0.4,0-0.7,0-1.1,0c-0.4,0-0.7,0-1.1,0c-0.4,0-0.7,0-1.1,0c0-0.9,0.1-1.9,0.1-2.8c0-0.9,0.1-1.9,0.1-2.9V38.9z M64.9,40
				c0.5,0,1-0.1,1.5-0.2s1-0.3,1.4-0.5c0.4-0.2,0.7-0.6,1-1c0.2-0.4,0.4-0.9,0.4-1.5c0-0.6-0.1-1.1-0.3-1.5
				c-0.2-0.4-0.5-0.6-0.8-0.8c-0.3-0.2-0.7-0.3-1.2-0.4C66.4,34.1,66,34,65.5,34c-0.4,0-0.7,0-1,0c-0.3,0-0.5,0-0.7,0.1
				c0,0.7-0.1,1.4-0.1,2.1c0,0.7,0,1.4,0,2.1V40H64.9z M63.7,43.1c0,0.8,0,1.5,0,2.2c0,0.7,0.1,1.5,0.1,2.2c0.3,0,0.6,0.1,1,0.1
				c0.4,0,0.8,0,1.2,0c0.5,0,0.9-0.1,1.4-0.2c0.4-0.2,0.8-0.4,1.1-0.7c0.3-0.3,0.6-0.7,0.8-1.2c0.2-0.5,0.3-1,0.3-1.6
				c0-0.6-0.1-1.2-0.3-1.6c-0.2-0.4-0.6-0.7-1-1c-0.4-0.2-0.9-0.4-1.5-0.5c-0.6-0.1-1.3-0.1-2-0.1h-1V43.1z"/>
			<path fill="#C95B5E" d="M75.5,39c0-1,0-1.9-0.1-2.9c0-0.9-0.1-1.9-0.1-2.9c0.4,0,0.9,0.1,1.3,0.1c0.4,0,0.8,0,1.3,0
				c0.4,0,0.9,0,1.3-0.1c0.4,0,0.8-0.1,1.3-0.1c0.6,0,1.2,0.1,1.8,0.2c0.6,0.1,1.1,0.3,1.5,0.6c0.4,0.3,0.8,0.6,1,1.1
				c0.2,0.4,0.4,1,0.4,1.7c0,0.7-0.2,1.3-0.5,1.8c-0.3,0.5-0.7,0.9-1.2,1.3c-0.5,0.3-1,0.6-1.5,0.8c-0.5,0.2-1,0.3-1.4,0.4
				c0.2,0.2,0.4,0.5,0.7,0.9c0.3,0.4,0.7,0.8,1,1.3c0.4,0.5,0.8,1,1.2,1.5c0.4,0.5,0.8,1,1.2,1.5c0.4,0.5,0.7,0.9,1.1,1.3
				c0.3,0.4,0.6,0.7,0.8,0.9c-0.2,0-0.4,0-0.7,0c-0.2,0-0.4,0-0.7,0c-0.2,0-0.4,0-0.6,0c-0.2,0-0.4,0-0.6,0c-0.2-0.3-0.6-0.8-1-1.4
				c-0.5-0.6-1-1.3-1.5-2c-0.5-0.7-1.1-1.4-1.7-2.1c-0.6-0.7-1.1-1.3-1.6-1.8h-0.8v1.6c0,1,0,1.9,0.1,2.9c0,0.9,0.1,1.9,0.1,2.8
				c-0.3,0-0.7,0-1.1,0c-0.4,0-0.7,0-1.1,0c0-0.9,0.1-1.9,0.1-2.8c0-0.9,0.1-1.9,0.1-2.9V39z M77.3,40.2c0.2,0,0.4,0.1,0.7,0.1
				c0.2,0,0.5,0,0.8,0c0.5,0,0.9-0.1,1.4-0.2c0.5-0.1,1-0.3,1.4-0.5c0.4-0.3,0.8-0.6,1-1c0.3-0.4,0.4-1,0.4-1.7
				c0-0.6-0.1-1.1-0.3-1.4c-0.2-0.4-0.5-0.7-0.8-0.9c-0.3-0.2-0.7-0.4-1.1-0.5C80.4,34.1,80,34,79.6,34c-0.5,0-0.9,0-1.3,0
				c-0.3,0-0.6,0-0.9,0.1c0,0.8-0.1,1.6-0.1,2.4c0,0.8,0,1.6,0,2.4V40.2z"/>
			<path fill="#C95B5E" d="M89,36c0-0.9-0.1-1.9-0.1-2.8c0.7,0,1.3,0.1,2,0.1c0.7,0,1.3,0,2,0c0.7,0,1.3,0,2,0c0.7,0,1.3,0,2-0.1
				c0,0.2-0.1,0.4-0.1,0.7c0,0.2,0,0.4,0.1,0.7c-0.5,0-0.9-0.1-1.3-0.1c-0.4,0-0.8-0.1-1.2-0.1c-0.4,0-0.9-0.1-1.4-0.1
				c-0.5,0-1.1,0-1.9,0c0,0.5,0,0.9-0.1,1.4c0,0.4,0,0.9,0,1.5c0,0.6,0,1.1,0,1.7c0,0.5,0,1,0,1.2c0.7,0,1.2,0,1.8,0
				c0.5,0,1,0,1.4-0.1c0.4,0,0.8,0,1.2-0.1c0.4,0,0.7,0,1-0.1c0,0.2-0.1,0.5-0.1,0.7c0,0.2,0,0.4,0.1,0.7c-0.4,0-0.8-0.1-1.3-0.1
				c-0.5,0-1,0-1.5-0.1c-0.5,0-1,0-1.4,0c-0.5,0-0.8,0-1.1,0c0,0.1,0,0.3,0,0.4c0,0.2,0,0.4,0,0.6v0.9v1.3c0,0.8,0,1.5,0,2.1
				c0,0.5,0,1,0,1.2c0.5,0,1,0,1.6,0c0.6,0,1.1,0,1.7,0c0.5,0,1.1-0.1,1.5-0.1c0.5,0,0.9-0.1,1.3-0.2c0,0.1,0,0.2-0.1,0.3
				c0,0.1,0,0.2,0,0.3c0,0.2,0,0.4,0.1,0.6c-0.7,0-1.3,0-2,0c-0.7,0-1.3,0-2,0c-0.7,0-1.4,0-2,0c-0.7,0-1.3,0-2,0
				c0-0.9,0.1-1.9,0.1-2.8c0-0.9,0.1-1.9,0.1-2.9v-3.8C89.1,38,89,37,89,36z"/>
			<path fill="#C95B5E" d="M112.4,48.5c-0.2,0-0.4,0-0.6,0c-0.2,0-0.4,0-0.6,0c-0.2,0-0.4,0-0.6,0s-0.4,0-0.6,0
				c-0.1-0.3-0.2-0.8-0.4-1.2c-0.2-0.5-0.4-1-0.6-1.5c-0.2-0.5-0.4-1.1-0.7-1.6c-0.2-0.5-0.4-1.1-0.6-1.5c-0.5,0-1,0-1.4,0
				c-0.5,0-1,0-1.5,0c-0.5,0-0.9,0-1.4,0c-0.4,0-0.9,0-1.4,0c-0.5,1.2-0.9,2.3-1.3,3.3c-0.4,1-0.7,1.9-0.9,2.6c-0.3,0-0.5,0-0.8,0
				c-0.3,0-0.6,0-0.8,0c1.2-2.6,2.4-5.2,3.5-7.7c1.1-2.6,2.3-5.2,3.4-7.8h0.4c0.4,0.9,0.7,1.8,1.2,2.8c0.4,1,0.8,2,1.3,3
				c0.4,1,0.9,2,1.3,3c0.4,1,0.8,1.9,1.2,2.8c0.4,0.9,0.7,1.6,1,2.3C112,47.6,112.2,48.1,112.4,48.5z M102.6,41.6c0.4,0,0.8,0,1.2,0
				c0.4,0,0.8,0,1.2,0c0.4,0,0.8,0,1.2,0c0.4,0,0.8,0,1.2,0l-2.5-5.6L102.6,41.6z"/>
			<path fill="#C95B5E" d="M114.8,48.5c0-0.9,0.1-1.9,0.1-2.8c0-0.9,0.1-1.9,0.1-2.9V39c0-1,0-1.9-0.1-2.9c0-0.9-0.1-1.9-0.1-2.9
				c0.2,0,0.4,0.1,0.6,0.1c0.2,0,0.4,0,0.5,0c0.2,0,0.4,0,0.5,0c0.2,0,0.4,0,0.6-0.1c0,1-0.1,1.9-0.1,2.9c0,0.9-0.1,1.9-0.1,2.9v1.2
				c0,0.1,0,0.2,0.1,0.2c0.1,0,0.2-0.1,0.3-0.2c0.5-0.4,1.1-0.9,1.6-1.5c0.6-0.6,1.1-1.1,1.7-1.8c0.6-0.6,1.1-1.2,1.7-1.9
				c0.6-0.6,1.1-1.2,1.6-1.8c0.2,0,0.3,0.1,0.5,0.1c0.1,0,0.3,0,0.4,0c0.2,0,0.4,0,0.5,0c0.2,0,0.4,0,0.5-0.1
				c-0.5,0.4-1.1,1-1.8,1.6c-0.7,0.6-1.3,1.2-2,1.9c-0.7,0.6-1.3,1.3-1.9,1.9c-0.6,0.6-1.1,1.2-1.5,1.6c1.2,1.3,2.4,2.7,3.6,4.1
				s2.5,2.8,3.7,4.2c-0.2,0-0.4,0-0.7,0c-0.2,0-0.4,0-0.7,0c-0.2,0-0.4,0-0.6,0s-0.4,0-0.6,0c-0.5-0.6-1.1-1.3-1.8-2.1
				c-0.6-0.8-1.3-1.5-1.9-2.3c-0.6-0.7-1.2-1.4-1.7-2c-0.5-0.6-0.9-1-1.1-1.2c-0.1-0.1-0.2-0.2-0.3-0.2c-0.1,0-0.1,0-0.1,0.1v1.9
				c0,1,0,1.9,0.1,2.9c0,0.9,0.1,1.9,0.1,2.8c-0.3,0-0.7,0-1.1,0C115.5,48.4,115.2,48.4,114.8,48.5z"/>
		</g>
	</g>
</g>
</svg>
