<?xml version="1.0" encoding="utf-8"?>
<!-- Generator: Adobe Illustrator 18.0.0, SVG Export Plug-In . SVG Version: 6.00 Build 0)  -->
<!DOCTYPE svg PUBLIC "-//W3C//DTD SVG 1.1//EN" "http://www.w3.org/Graphics/SVG/1.1/DTD/svg11.dtd">
<svg version="1.1" id="Layer_1" xmlns="http://www.w3.org/2000/svg" xmlns:xlink="http://www.w3.org/1999/xlink" x="0px" y="0px"
	 viewBox="0 0 779.3 302" enable-background="new 0 0 779.3 302" xml:space="preserve">
<g>
	<g>
		<g>
			<g>
				<g>
					<g>
						<path d="M84.8,65.2c0,1.4-0.4,2.7-1.4,3.6c-1,1-2.2,1.5-3.6,1.5c-0.8,0-2.3-0.3-4.6-1c-2.2-0.7-4.1-1-5.6-1c-4,0-7.2,0-9.5,0
							c-1.3,0-2.1,0.1-2.3,0.3c-0.2,0.2-0.3,1-0.4,2.4c-0.3,2-0.9,5.1-1.7,9.2c-1.8,11.2-2.7,23.7-2.7,37.7c0,9.5,1.2,16,3.8,19.5
							v3.3c-1.8,0.8-3.1,1.2-4.2,1.2c-5.9,0-9.7-2.5-11.5-7.6c-0.8-2.4-1.2-7.2-1.2-14.2c0-8.1,0.2-14.4,0.6-18.9
							c0.1-2,0.6-6.6,1.5-14.2c0.8-5.9,1.1-10.5,1.1-14.2v-3.5c-1.3,0.1-3.8,0.3-7.5,0.9c-3.1,0.4-5.5,0.7-7.5,0.7
							c-6.4,0-9.6-1.7-9.6-5c0-1.4,0.4-2.2,1.4-2.4c1.3-1.8,8.6-3.3,21.7-4.6c10.2-1,18.4-1.4,24.7-1.4c4.4,0,8.3,0.4,11.6,1.4
							C82.4,60.2,84.8,62.3,84.8,65.2z"/>
						<path d="M255.3,60.5c0,1.1-0.4,2.1-1.2,2.9c-1.4,1.4-2.1,2.1-2.2,2.2c-0.6,0.8-1.1,3-1.7,6.4c-2.3,16.7-3.4,33.2-3.4,49.4
							c0,9.2,1.9,14.3,5.5,15.5v3.3c-1.1,2-2.8,3.1-5.1,3.1c-4.6,0-8.3-3.6-10.6-10.9c-1.8-5.2-2.7-10.5-2.7-16.1
							c0-12.4,0.3-22.7,1.1-31c-2.8,9.6-5.5,19.1-8.4,28.9c-5.2,14.9-10.1,22.3-14.9,22.3c-5.4,0-10.2-4.4-14.4-13.2
							c-3.9-8-8.6-21.2-14.2-40c-0.6,5.5-0.8,11.3-0.8,17c0,12.1,0.3,20.8,1.1,26.1c0.1,1,0.6,2.5,1.5,4.8c0.9,2.2,1.4,3.9,1.4,5.1
							c0,2.7-2.5,4.1-7.6,4.1c-6,0-9-7.2-9-21.5c0-5.9,0.3-14.5,1.1-26c0.8-11.5,1.1-20.1,1.1-25.9c0-0.7-0.3-1.3-1.1-2.1
							c-0.8-0.8-1.1-1.4-1.1-2.1c0-4.5,4.6-6.9,13.8-6.9c2.1,0,4.6,1.2,7.6,3.5c0.3,2.5,0.8,6.4,1.4,11.5c0.9,7.2,3.1,16.7,6.5,28.6
							c4.5,15.3,8.4,23,11.7,23c0.8,0,1.7-1.2,2.9-3.8c2.3-4.9,4.5-11.8,6.7-20.7c1.7-7.1,3.3-14.3,5-21.3c0.8-3.3,2.1-8.2,4-14.5
							c2-4.6,6-7,12.2-7c2.2,0,4.9,0.4,8,1.3C253.4,57.5,255.3,58.9,255.3,60.5z"/>
						<path d="M337.6,118.1c0,4-2,6-6,6c0.4,1.9,1.4,4.4,3.1,7.6c-0.1,1.8-0.9,3.3-2.5,4.4c-1.5,1.1-3.4,1.8-5.5,1.8
							c-1.7,0-3.5-0.4-5.9-1.3c-1.2-2.1-1.8-4.6-1.8-7.6c0-0.8,0-1.8,0.1-3.2c0.1-1.4,0.1-2.4,0.1-3.1c0,0.6-1.5,0.9-4.5,0.9
							c-5.2,0-11.3,0.2-18.4,0.7c-10.2,0.4-15.6,1.2-16.5,2.1c-0.9,0.9-1.4,5.3-1.8,13.2c-1.2,1.5-2.8,2.3-4.5,2.3
							c-2,0-3.9-0.8-6-2.1c-2-1.4-3.1-3-3.1-4.6c0-0.6,0.9-2.9,2.5-6.9c1.9-5.9,4.9-14.5,9-26.1c12.4-30,22.7-45,30.8-45
							c8,0,14.2,8,18.6,23.8c2,7.1,3.8,18,5.4,32.7c2.4,0.4,3.9,0.9,4.5,1.2C336.8,115.4,337.6,116.5,337.6,118.1z M318.2,113.4
							c-4.1-28.5-7.7-42.8-10.9-42.8c-2.5,0-7.1,6.7-13.6,20.1c-4.6,9.6-8.3,18-10.9,25.1c3-0.6,7.3-1.2,13.2-2.1
							C301.2,113.2,308.6,113.1,318.2,113.4z"/>
						<path d="M403.8,65.2c0,1.4-0.4,2.7-1.4,3.6c-1,1-2.2,1.5-3.6,1.5c-0.8,0-2.3-0.3-4.6-1c-2.2-0.7-4.1-1-5.6-1c-4,0-7.2,0-9.5,0
							c-1.3,0-2.1,0.1-2.3,0.3s-0.3,1-0.4,2.4c-0.3,2-0.9,5.1-1.7,9.2c-1.8,11.2-2.7,23.7-2.7,37.7c0,9.5,1.2,16,3.8,19.5v3.3
							c-1.8,0.8-3.1,1.2-4.2,1.2c-5.9,0-9.7-2.5-11.5-7.6c-0.8-2.4-1.2-7.2-1.2-14.2c0-8.1,0.2-14.4,0.6-18.9
							c0.1-2,0.6-6.6,1.5-14.2c0.8-5.9,1.1-10.5,1.1-14.2v-3.5c-1.3,0.1-3.8,0.3-7.5,0.9c-3.1,0.4-5.5,0.7-7.5,0.7
							c-6.4,0-9.6-1.7-9.6-5c0-1.4,0.4-2.2,1.4-2.4c1.3-1.8,8.6-3.3,21.7-4.6c10.2-1,18.4-1.4,24.7-1.4c4.4,0,8.3,0.4,11.6,1.4
							C401.4,60.2,403.8,62.3,403.8,65.2z"/>
						<path d="M478,98.4c0,11.8-3.3,21.8-9.8,30c-7.3,9.3-17.2,13.8-30,13.8c-3.5,0-7.4-0.7-11.6-1.9c-9.2-2.7-15.8-7.2-19.8-13.6
							c-3.4-5.5-5.1-13-5.1-22.3c0-12.1,3.3-22.8,9.8-32.1c7.5-10.8,17.8-16.4,30.7-16.4c11.3,0,20.3,4.8,27.1,14.2
							C475.1,78.3,478,87.7,478,98.4z M464.7,97.3c0-17-6.2-27.2-18.6-30.5c-1.3-0.3-2.8-0.4-4.4-0.4c-5.2,0-10.3,2-15.5,6.1
							C418.1,79,414,90.9,414,107.9c0,1.5,0.3,3.8,1.1,6.5c1.5,6.3,3.9,10.8,7.1,13.6c3.5,3.3,8.8,4.9,15.8,4.9
							c9.4,0,16.5-4.1,21.3-12.2C462.8,114.3,464.7,106.5,464.7,97.3z"/>
					</g>
					<path d="M436.6,100.9L436.6,100.9c-2.4-0.3-4.1-2.5-3.8-5l1.8-12.8c0.3-2.4,2.5-4.1,5-3.8l0,0c2.4,0.3,4.1,2.5,3.8,5l-1.8,12.8
						C441.3,99.5,439.1,101.3,436.6,100.9z"/>
					<path d="M454.5,117.8L454.5,117.8c-1.9,1.5-4.6,1.2-6.2-0.7l-14.5-17.8c-1.5-1.9-1.2-4.6,0.7-6.2l0,0c1.9-1.5,4.6-1.2,6.2,0.7
						l14.5,17.8C456.6,113.5,456.4,116.4,454.5,117.8z"/>
					<g>
						<path d="M352.5,157c-0.7,0-1.4,0-2.2,0s-1.5,0-2.3,0.1c-0.8,0-1.5,0.1-2.2,0.1c-0.8,0.1-1.3,0.1-2,0.2
							c0.1-0.4,0.2-0.9,0.2-1.3c0-0.3-0.1-0.8-0.2-1.3c1.8,0,3.5,0.1,5.3,0.1c1.8,0,3.5,0.1,5.3,0.1s3.5,0,5.3-0.1
							c1.8,0,3.5-0.1,5.3-0.1c-0.1,0.6-0.2,1-0.2,1.3s0.1,0.8,0.2,1.3c-0.6-0.1-1.2-0.1-2-0.2c-0.8,0-1.4-0.1-2.2-0.1
							c-0.8,0-1.5-0.1-2.3-0.1s-1.5,0-2.2,0c-0.1,2.9-0.1,5.6-0.1,8.5v7.1c0,1.8,0,3.5,0.1,5.3c0.1,1.8,0.1,3.4,0.2,5.2
							c-0.7-0.1-1.3-0.1-2-0.1c-0.7,0-1.4,0-2,0.1c0.1-1.7,0.1-3.4,0.2-5.2c0.1-1.8,0.1-3.5,0.1-5.3v-7.1
							C352.6,162.7,352.6,159.9,352.5,157z"/>
						<path d="M369.6,160.2c-0.1-1.8-0.1-3.5-0.2-5.3c0.3,0,0.7,0.1,1,0.1s0.7,0.1,1,0.1s0.7,0,1-0.1c0.3,0,0.7-0.1,1-0.1
							c-0.1,1.8-0.1,3.5-0.2,5.3c-0.1,1.8-0.1,3.5-0.1,5.3v7.1c0,1.8,0,3.5,0.1,5.3c0.1,1.8,0.1,3.4,0.2,5.2c-0.7-0.1-1.3-0.1-2-0.1
							s-1.4,0-2,0.1c0.1-1.7,0.1-3.4,0.2-5.2c0.1-1.8,0.1-3.5,0.1-5.3v-7.1C369.7,163.7,369.7,162,369.6,160.2z"/>
						<path d="M389.5,165.7c1.9,3.6,4,7.4,6.1,11.3c0.2-0.6,0.7-1.2,1.2-2.2c0.6-1,1.1-2.1,1.8-3.3c0.7-1.2,1.4-2.7,2.2-4.1
							c0.8-1.4,1.5-3,2.4-4.4c0.8-1.5,1.7-3,2.4-4.4c0.8-1.4,1.5-2.8,2.2-4.1h0.6c0.3,2.7,0.6,5.2,0.9,7.6c0.2,2.4,0.6,4.9,0.8,7.2
							s0.6,4.8,0.8,7.1c0.2,2.3,0.6,4.6,0.9,6.9c-0.3-0.1-0.7-0.1-1-0.1s-0.7,0-1,0s-0.7,0-1,0c-0.3,0-0.7,0-1,0.1
							c-0.3-3.6-0.6-7.2-0.9-10.6s-0.7-7-1.1-10.5h-0.1c-1.9,3.4-3.8,6.9-5.5,10.3c-1.8,3.4-3.5,7-5.2,10.7h-0.3
							c-1.7-3.4-3.3-6.9-5.2-10.4c-1.8-3.4-3.5-7-5.4-10.6h0c-0.2,1.7-0.4,3.5-0.7,5.5c-0.2,2-0.4,4-0.7,5.9
							c-0.2,1.9-0.3,3.8-0.4,5.4c-0.1,1.7-0.2,3.1-0.2,4.2c-0.4-0.1-0.9-0.1-1.4-0.1s-1,0-1.4,0.1c0.3-2.2,0.8-4.5,1.1-7.1
							c0.3-2.4,0.8-5,1.1-7.4c0.3-2.5,0.7-5,1-7.4c0.3-2.4,0.6-4.8,0.8-7h0.7C385.7,158.2,387.7,162.1,389.5,165.7z"/>
						<path d="M417.6,160.2c-0.1-1.8-0.1-3.5-0.2-5.3c1.2,0,2.4,0.1,3.6,0.1c1.2,0,2.4,0.1,3.6,0.1c1.2,0,2.4,0,3.6-0.1
							c1.2,0,2.4-0.1,3.6-0.1c-0.1,0.4-0.1,0.8-0.1,1.2s0,0.8,0.1,1.2c-0.9,0-1.7-0.1-2.4-0.1s-1.5-0.1-2.3-0.1
							c-0.8-0.1-1.7-0.1-2.7-0.1c-1,0-2.1-0.1-3.4-0.1c0,0.9-0.1,1.7-0.1,2.5c0,0.8-0.1,1.7-0.1,2.8s0,2.1,0,3.1c0,1,0,1.8,0,2.3
							c1.2,0,2.3,0,3.2,0c1,0,1.9-0.1,2.7-0.1c0.8,0,1.5-0.1,2.2-0.1s1.3-0.1,1.9-0.1c-0.1,0.4-0.1,0.9-0.1,1.3c0,0.4,0,0.8,0.1,1.2
							c-0.7-0.1-1.5-0.1-2.4-0.2c-1,0-1.9-0.1-2.9-0.1c-1,0-1.9,0-2.7,0c-0.8,0-1.5,0-2,0c0,0.2,0,0.6,0,0.8c0,0.3,0,0.7,0,1.1v1.5
							v2.4c0,1.5,0,2.9,0,3.9c0,1,0,1.8,0.1,2.3c0.9,0,1.9,0,2.9,0c1,0,2.1,0,3.1-0.1c1,0,2-0.1,2.9-0.1c0.9-0.1,1.7-0.2,2.3-0.3
							c0,0.2-0.1,0.4-0.1,0.7c0,0.2,0,0.4,0,0.7c0,0.4,0,0.8,0.1,1.1c-1.2-0.1-2.4-0.1-3.6-0.1c-1.2,0-2.4,0-3.8,0
							c-1.3,0-2.5,0-3.8,0s-2.4,0-3.8,0.1c0.1-1.8,0.1-3.5,0.2-5.2c0.1-1.8,0.1-3.5,0.1-5.3v-7.1
							C417.7,163.7,417.6,161.9,417.6,160.2z"/>
						<path d="M438.2,165.5c0-1.8,0-3.5-0.1-5.3c-0.1-1.8-0.1-3.5-0.2-5.3c0.8,0,1.5,0.1,2.3,0.1c0.8,0,1.5,0.1,2.3,0.1
							c0.8,0,1.5,0,2.3-0.1c0.8-0.1,1.5-0.1,2.3-0.1c1.1,0,2.2,0.1,3.3,0.3c1,0.2,2,0.6,2.8,1.1c0.8,0.6,1.4,1.2,1.9,2
							c0.4,0.8,0.7,1.9,0.7,3.1c0,1.3-0.3,2.4-0.9,3.4c-0.6,1-1.3,1.8-2.1,2.3c-0.9,0.7-1.8,1.1-2.8,1.4c-1,0.3-1.9,0.6-2.7,0.7
							c0.3,0.4,0.8,1,1.3,1.8c0.6,0.8,1.2,1.5,1.9,2.4c0.7,0.9,1.4,1.8,2.2,2.8s1.5,1.9,2.2,2.8c0.7,0.9,1.3,1.7,2,2.4
							c0.7,0.8,1.1,1.3,1.5,1.7c-0.4-0.1-0.8-0.1-1.2-0.1c-0.4,0-0.8,0-1.2,0c-0.3,0-0.8,0-1.2,0c-0.4,0-0.8,0-1.2,0.1
							c-0.4-0.6-1-1.4-1.9-2.5c-0.9-1.1-1.8-2.4-2.8-3.6c-1-1.3-2.1-2.7-3.1-3.9c-1.1-1.3-2-2.4-2.9-3.3h-1.5v3c0,1.8,0,3.5,0.1,5.3
							c0.1,1.8,0.1,3.4,0.2,5.2c-0.7-0.1-1.3-0.1-2-0.1s-1.4,0-2,0.1c0.1-1.7,0.1-3.4,0.2-5.2c0.1-1.8,0.1-3.5,0.1-5.3V165.5z
							 M441.6,167.8c0.3,0.1,0.8,0.1,1.2,0.1c0.4,0,1,0,1.5,0c0.9,0,1.8-0.1,2.7-0.3c0.9-0.2,1.8-0.6,2.5-1c0.8-0.4,1.4-1.1,1.9-1.9
							c0.6-0.8,0.8-1.9,0.8-3.1c0-1.1-0.2-2-0.6-2.7c-0.4-0.7-0.9-1.2-1.5-1.7c-0.7-0.4-1.3-0.7-2.1-0.9c-0.8-0.1-1.4-0.2-2.2-0.2
							c-1,0-1.8,0-2.4,0.1c-0.7,0-1.2,0.1-1.5,0.1c-0.1,1.5-0.1,3-0.2,4.4c0,1.4-0.1,3-0.1,4.4v2.5H441.6z"/>
						<path d="M463.3,179.3c0.3,0.6,0.8,1,1.3,1.3c0.6,0.4,1.1,0.8,1.9,1c0.7,0.2,1.5,0.4,2.4,0.4s1.8-0.1,2.4-0.4
							c0.8-0.3,1.3-0.8,1.9-1.3s0.9-1.2,1.2-1.9c0.2-0.8,0.4-1.5,0.4-2.3c0-1.2-0.3-2.2-1-3c-0.7-0.8-1.4-1.3-2.4-1.9
							c-1-0.4-2-1-3.1-1.3c-1.1-0.4-2.1-0.9-3.1-1.5c-1-0.7-1.8-1.4-2.4-2.3c-0.7-1-1-2.2-1-3.9c0-1.1,0.2-2.2,0.7-3.1
							c0.4-1,1-1.8,1.8-2.4c0.8-0.7,1.8-1.2,2.8-1.5c1.1-0.3,2.3-0.6,3.6-0.6c1.3,0,2.4,0.1,3.4,0.4c1,0.3,1.9,0.8,2.7,1.4
							c-0.2,0.4-0.4,1-0.7,1.4s-0.3,1.2-0.4,2h-0.4c-0.1-0.3-0.3-0.8-0.6-1.2c-0.2-0.4-0.6-0.9-1-1.2c-0.4-0.3-0.9-0.7-1.4-1
							c-0.6-0.2-1.2-0.4-2-0.4s-1.4,0.1-2.1,0.3c-0.7,0.2-1.2,0.6-1.7,1c-0.4,0.4-0.9,1-1.1,1.7c-0.2,0.7-0.4,1.3-0.4,2.1
							c0,1.3,0.3,2.3,1,3.1c0.7,0.8,1.4,1.3,2.4,1.9c1,0.6,2,1,3.1,1.3c1.1,0.4,2.1,0.9,3.1,1.4c1,0.6,1.8,1.3,2.4,2.2
							c0.7,0.9,1,2.1,1,3.6c0,1.2-0.2,2.4-0.7,3.5c-0.4,1.1-1.1,2.1-2,3s-1.9,1.4-3.2,1.9c-1.2,0.4-2.7,0.7-4.2,0.7
							c-1.7,0-3.1-0.2-4.1-0.7c-1.1-0.4-2-1-2.7-1.5c0.2-0.7,0.4-1.2,0.6-1.7c0.1-0.6,0.2-1.1,0.2-2h0.4
							C462.6,178.2,462.9,178.8,463.3,179.3z"/>
					</g>
					<g>
						<path d="M161.2,94.4c-1.1,0-2.1,0.9-2.1,2.1c0,0.8,0.4,1.4,1,1.8c-1.7,2.2-5.9,7.1-11.1,7.5v0.4c3.6-0.3,6.9-2.8,8.8-4.6
							c1.2-1.1,2.1-2.3,2.7-3.1c0.2,0,0.3,0.1,0.6,0.1c1.1,0,2.1-0.9,2.1-2.1C163.3,95.4,162.3,94.4,161.2,94.4z"/>
						<path fill="#E85858" d="M147.7,90.5c-3-9.7-9-15.1-14.8-18.1c-1.2,0.6-2.3,1-2.3,1c3.4,1.4,4.2,5.3,4.2,5.3
							c-7.6,1.5-13-1.5-13-1.5c1,2.8-0.8,5.7-0.8,5.7c-6.6-0.7-9.7-7.3-9.7-7.3c-3.6-0.2-7.7,5.6-7.7,5.6c-4.3-2.8-2.4-7.4-2.4-7.4
							c-3.4-0.2-5.3-1.5-6.2-2.3c-12.3,6.4-18.6,20.1-16.1,31.6c0.2,1,0.4,2,0.8,3c1.9,0.7,5.6,1.9,10.3,1.7l0.2,2
							c0,0-4.4,0.4-9.5-0.9c4.4,10.9,14.8,19.5,28.5,21.3c-0.1-1.3-0.9-3.1-3.4-5l1.3-1.8c0,0,4,2,4.8,7c3.3,0.2,7,0.1,10.6-0.3
							C145.2,126.7,154.7,113.3,147.7,90.5z"/>
						<circle cx="141.3" cy="96.9" r="3"/>
						<circle cx="103.9" cy="99.8" r="3"/>
						<path fill="#5C9F25" d="M129.1,74.4c-2-0.9-4.3-3.3-4.3-3.3s1.9,0.4,4.4,0c2.5-0.4,4.1-2.9,4.1-2.9s-2.1,0.6-4.9,0.6
							c-2.8,0-6.3-1.1-6.3-1.1c1.4-2.8,6-4.3,6-4.3s-2-0.8-5.4-0.2c-2.4,0.3-4.9,2-6.1,2.9c0.1-1.2,0.3-3,0.3-5.1c0-4-1-6.3-1-6.3
							c-2.8-0.4-4.8,2.1-4.8,2.1s1.2,0.9,2,3.1c0.6,1.3,0.9,4,1,5.7c-5.9-3.5-12.4-3.4-12.4-3.4c2.5,1.2,3.6,5.9,3.6,5.9
							c-3.4,1.2-11.7,0-11.7,0s0.1,0.8,3.1,3c3,2.3,7.9,0.6,7.9,0.6s-1.1,0.9-2,3.6c-0.9,2.8,0.6,4.1,0.6,4c0-0.1,1.2-2.3,3.3-4
							c2.2-1.7,5.5-2.2,5.5-2.2c1.4,6.9,7.9,8,7.9,8s0.2-1.4,0.1-2.8c-0.1-1.3-1.9-5.6-1.9-5.6s3,3,6.2,3.9c3.2,0.9,8.3,1.1,8.3,1.1
							S131.2,75.3,129.1,74.4z"/>
						<path d="M89,108.9v-0.4c-6,0.3-12.5-2.3-15.5-3.9c0-0.2,0.1-0.3,0.1-0.6c0-1.1-0.9-2.1-2.1-2.1c-1.1,0-2.1,0.9-2.1,2.1
							s0.9,2.1,2.1,2.1c0.8,0,1.4-0.4,1.8-1.1c2.9,1.3,8.8,3.9,14.5,3.9C88.3,109,88.7,108.9,89,108.9z"/>
						<path d="M109.6,133.7c2.5-5.7-2.5-8.8-2.5-8.8l-0.2,0.4c0,0,1.2,0.7,2.1,2.1c1.2,1.9,1.3,3.9,0.2,6.2c-2,4.5-4.9,6.3-5.7,6.7
							c-0.2,0-0.4,0-0.6,0.1c-0.4,0.2,0,1.9,2,3.3c2,1.4,3.9,0.9,4.3-1c0.4-1.9-4.1-2.3-4.1-2.3s-0.3,0-0.8-0.1
							C105.7,139.4,107.9,137.5,109.6,133.7z"/>
						<path d="M147.5,139c-1.4-0.7-2.9-0.2-3.8,0.1c-0.1-1.7-0.3-5.7-1.1-8.5c-1-3.5-4.9-7.2-5-7.4l-0.3,0.3c0,0,4,3.6,4.9,7.2
							c0.8,2.9,1,7.2,1.1,8.6c-0.2,0.1-0.2,0.1-0.2,0.1c-1.1,1.1,4,2.5,5.1,2.3C149.1,141.6,149.6,140,147.5,139z"/>
						<g>
							<path d="M126.3,105C126.1,105,126.1,105,126.3,105c-1.4,0-2.2-0.7-2.5-1.2c-0.4-0.6-0.6-1.1-0.6-1.1l0.4-0.1
								c0,0.1,0.4,1.9,2.7,2c0.9,0,1.5-0.3,2-1.1c0.3-0.6,0.4-1.2,0.4-1.2l0.4,0.1C129.1,102.4,128.7,105,126.3,105z"/>
						</g>
						<g>
							<path fill="#EEB43A" d="M121.5,109.4l11.3-0.3c0,0-3,4.7-3.1,4.7s-4.1,0.6-4.1,0.6L121.5,109.4z"/>
							<path fill="#ED9700" d="M131.9,109.1l-3.6,4.9c0.8-0.1,1.4-0.2,1.5-0.2c0.1,0,3.1-4.7,3.1-4.7H131.9z"/>
							<polygon fill="#ED9700" points="123.9,112.3 125.2,113.9 129.1,109.2 126.6,109.3 							"/>
							<path fill="#EEB43A" d="M124.7,113.3c0,0,4.8-0.7,5.3-0.7s1.9,3.1,2.6,5.8c0.7,2.7,1.5,9.7,1.4,10.3
								c-0.1,0.5-7.3,7.2-7.6,7.3c-0.3,0-7.4-5.5-7.4-5.8c0-0.3,3.9-7.5,5.1-10.8C125.2,116.1,124.7,113.3,124.7,113.3z"/>
							<path fill="#ED9700" d="M130.9,113.8c-0.4-0.8-0.7-1.2-0.9-1.2c-0.5,0-5.3,0.7-5.3,0.7s0.4,2.6-0.6,5.7
								C125.9,117.8,129,115.5,130.9,113.8z"/>
							<path fill="#ED9700" d="M122.6,122.6c-1,2.2-2.3,4.7-3.1,6.2c3.4-2.2,10.8-7.2,13.2-9.6c-0.1-0.3-0.1-0.5-0.2-0.8
								c-0.3-1-0.7-2.2-1-3.2C129.7,116.9,125.8,120.4,122.6,122.6z"/>
							<path fill="#ED9700" d="M123.9,134.3c2.1-1.3,7.5-4.8,9.9-8c-0.1-1.5-0.4-3.3-0.6-4.9c-2.7,2.6-9,8.4-12.9,10
								C121.2,132.2,122.7,133.3,123.9,134.3z"/>
						</g>
					</g>
				</g>
			</g>
			<path d="M454.3,51.8l-13.5-1c-0.7,0-1.1-0.7-1.1-1.2l0.4-5.2c0-0.7,0.7-1.1,1.2-1.1l13.5,1c0.7,0,1.1,0.7,1.1,1.2l-0.4,5.2
				C455.5,51.4,455,51.8,454.3,51.8z"/>
			<path d="M449.9,60.5l-6.2-0.4c-0.6,0-0.9-0.4-0.9-1l0.8-10.4c0-0.6,0.4-0.9,1-0.9l6.2,0.4c0.6,0,0.9,0.4,0.9,1l-0.8,10.4
				C450.9,60,450.5,60.5,449.9,60.5z"/>
			<g>
				<path d="M24.4,32.7c0.6-0.1,1.3-0.2,2-0.3c0.7-0.1,1.4-0.1,2.2-0.1c0.7,0,1.5,0.1,2.2,0.2c0.8,0.1,1.4,0.4,2,0.7
					c0.6,0.4,1.1,0.9,1.5,1.5c0.4,0.7,0.6,1.5,0.6,2.5c0,0.9-0.2,1.7-0.5,2.4c-0.3,0.7-0.8,1.2-1.3,1.6c-0.5,0.4-1.2,0.7-1.9,0.9
					c-0.7,0.2-1.4,0.3-2.2,0.3c-0.1,0-0.2,0-0.3,0c-0.2,0-0.3,0-0.5,0c-0.2,0-0.3,0-0.5,0c-0.2,0-0.3,0-0.4,0v5.2h-2.9V32.7z
					 M28.7,34.9c-0.3,0-0.6,0-0.8,0c-0.3,0-0.5,0-0.6,0.1v4.9c0.1,0,0.1,0,0.3,0c0.1,0,0.2,0,0.4,0c0.1,0,0.3,0,0.4,0
					c0.1,0,0.2,0,0.3,0c0.4,0,0.8,0,1.1-0.1c0.4-0.1,0.7-0.2,1-0.4c0.3-0.2,0.5-0.5,0.7-0.8c0.2-0.3,0.3-0.8,0.3-1.4
					c0-0.5-0.1-0.9-0.3-1.2c-0.2-0.3-0.4-0.6-0.7-0.7c-0.3-0.2-0.6-0.3-1-0.4C29.5,34.9,29.1,34.9,28.7,34.9z"/>
				<path d="M35.9,40.1c0-2.5,0.6-4.4,1.7-5.8c1.1-1.4,2.7-2,4.7-2c1.1,0,2,0.2,2.8,0.6c0.8,0.4,1.5,0.9,2,1.6
					c0.5,0.7,0.9,1.5,1.2,2.5c0.3,1,0.4,2,0.4,3.2c0,2.5-0.6,4.4-1.7,5.8c-1.1,1.4-2.7,2-4.7,2c-1.1,0-2-0.2-2.8-0.6s-1.5-0.9-2-1.6
					c-0.5-0.7-0.9-1.5-1.2-2.5C36,42.3,35.9,41.3,35.9,40.1z M39,40.1c0,0.8,0.1,1.5,0.2,2.1c0.1,0.6,0.3,1.2,0.6,1.6
					c0.3,0.5,0.6,0.8,1,1.1c0.4,0.3,0.9,0.4,1.5,0.4c1,0,1.9-0.4,2.4-1.2c0.6-0.8,0.9-2.1,0.9-4c0-0.7-0.1-1.4-0.2-2
					c-0.1-0.6-0.3-1.2-0.6-1.7c-0.3-0.5-0.6-0.8-1-1.1c-0.4-0.3-0.9-0.4-1.5-0.4c-1,0-1.9,0.4-2.4,1.3C39.3,37,39,38.3,39,40.1z"/>
				<path d="M60.9,47c-0.5,0.3-1,0.6-1.7,0.7c-0.7,0.1-1.4,0.2-2.2,0.2c-0.9,0-1.8-0.1-2.6-0.4c-0.8-0.3-1.5-0.7-2.1-1.4
					c-0.6-0.6-1.1-1.4-1.5-2.4c-0.4-1-0.5-2.2-0.5-3.6c0-1.5,0.2-2.7,0.6-3.7c0.4-1,0.9-1.8,1.6-2.4c0.7-0.6,1.4-1,2.2-1.3
					s1.6-0.4,2.4-0.4c0.9,0,1.6,0.1,2.2,0.2c0.6,0.1,1.1,0.3,1.5,0.4l-0.6,2.5c-0.3-0.2-0.7-0.3-1.2-0.3c-0.5-0.1-1-0.1-1.6-0.1
					c-1.2,0-2.1,0.4-2.9,1.3c-0.7,0.8-1.1,2.2-1.1,3.9c0,0.8,0.1,1.5,0.3,2.1c0.2,0.6,0.4,1.2,0.8,1.6c0.4,0.5,0.8,0.8,1.3,1.1
					c0.5,0.3,1.1,0.4,1.8,0.4c0.6,0,1.2-0.1,1.6-0.2c0.4-0.1,0.8-0.3,1.2-0.5L60.9,47z"/>
				<path d="M66.5,41.2h-0.8v6.4h-2.9v-15h2.9v6.6l0.7-0.3l4.1-6.3h3.3l-4.4,6.3l-1.2,0.8l1.2,0.8l5,7.1h-3.6L66.5,41.2z"/>
				<path d="M76,32.6h8.9v2.6h-6v3.5h5.4v2.6H79V45H85v2.6h-9V32.6z"/>
				<path d="M97.9,35.2h-4.4v12.4h-2.9V35.2h-4.4v-2.6h11.7V35.2z"/>
			</g>
		</g>
	</g>
	<g>
		<path fill="#FFFFFF" d="M712.3,10.1c-19.7,7.9-30,28.8-22.8,46.7c2.1,5.4,5.6,9.9,10,13.3l-3.1,17l16.5-10.4
			c7.9,2,16.8,1.6,25.3-1.8c19.7-7.9,30-28.8,22.8-46.7C753.9,10.3,732.1,2.2,712.3,10.1z"/>
		<g>
			<path fill="#603915" d="M496,271.7c0,0-2.8,16.8,1.8,21.4c4.4,4.4,227.8-0.7,229-2.8c3.1-6,0-20.1,0-20.1L509,271.7L496,271.7
				L496,271.7z"/>
			<g>
				<path fill="#7F5225" d="M660,259.2c0,0-89.9,0.8-93.8,0c-3.9-0.8-2.1-18.5-2.1-18.5l-1.3-4.2c-0.4,0.1-1,0.2-1.5,0.2
					c-3.6,0-6.6-2.7-7.1-6.1c-3.2-1.4-10.3-5.1-15.4-12.6c-4.2,0.1-6.5,0.2-6.5,0.2c-4.3,0-8.6,0.3-14.8,5
					c-6.2,4.7-27.3,48.4-19.8,54.5c6.1,7.6,226.7,6.8,229.2-6.1c1.5-5.8-21.5-57.1-28.1-57.8c-0.9-0.1-4.3-0.1-9.7-0.1
					c-4.1,5.8-11.1,14.1-19.2,16.8c-0.4,2.9-2.4,6.3-5.5,6.9C664.4,237.6,667.6,259.2,660,259.2z M550.2,270.3
					c-16.1,4.1-23.9-6.7-25.6-11c-1.7-4.4-5.7-14.1,3.3-21.3c0,0,9.9-7.8,22.5-1C561,242.7,566.2,266.2,550.2,270.3z"/>
				<path fill="#7F5225" d="M667.6,214.5c-0.2,2.3-0.6,5.3-0.9,8.5l0,0c0.4,0.3,0.7,0.6,1.1,1.1c2.3-1.1,7.3-4.1,11-9.9
					c-3.4,0.1-7.2,0.2-11.2,0.2V214.5z"/>
				<path fill="#7F5225" d="M556.8,217.6c-3.9,0.1-7.5,0.2-10.6,0.3c2.3,2.2,6.1,5.3,9.8,6.7c0.6-0.7,1.6-1.4,2.4-1.8l0,0
					L556.8,217.6z"/>
				<path fill="#7F5225" d="M538.8,218l7.4-0.1l10.6-0.3l110.8-3.2l11.2-0.2l10.2-0.3l8.1,9.2l-33.5,49.8l-123,3.8l-23.5-19.8
					c0,0,0-21.5,2.8-25.1C522.7,228.2,538.8,218,538.8,218z"/>
			</g>
			<g>
				<path fill="#E85858" d="M654.3,59.3c-4.2,1.2-5.5,3.2-5.5,3.2c9.2,7.3,6.1,20.4,6.1,20.4c-9.6-6.8-26.5-8.4-26.5-8.4
					c8,7.9,4.6,27.3,4.6,27.3c-15.9,0.9-36-20.6-36-20.6c-5.6,10.2-23,18.9-23,18.9c-6.8-9-5.7-28.5-5.7-28.5
					c-8.5-0.3-20.3,1.5-28.5,3c-18.1,16.7-29.4,39.9-29.4,65.6c0,18,5.5,34.9,15.1,49c-1.5-17.5,6.3-26.5,6.3-26.5l6.4,3.1
					c0,0-5.7,7.7-5.5,21.7c0.1,5.6,1.3,10.2,2.7,13.8c5.6,5.8,11.9,11,18.8,15.3l2.3-0.1c-3.7-13.6-9.9-38.6-5.3-45
					c6.3-8.9,112.3-6.9,118.6,0c3.3,3.6,1.9,22.7-0.2,39.9c8.1-6.2,15.1-13.5,20.8-21.7c0.2-5.7-0.4-14.8-4.8-22.8l6.3-3.3
					c0,0,3.6,3.8,5.5,14.2c5.5-11.5,8.6-24.3,8.6-37.7C705.9,105.1,685,74.8,654.3,59.3z"/>
				<path fill="#5C9F25" d="M601.5,44.5c0,0-2.9-13.7-11.6-17.4c0,0,11.1-4.9,15.9-3.8c4.8,1.1,7.1,19.9,7.1,19.9s24-9.8,40.2-1.1
					c0,0-18.6,7.5-23.6,15.9c0,0,9.3,3,14.2,6.8c4.9,3.7,7.6,10.9,7.6,10.9s-20.1-10.5-34.9-8.8c0,0,11.2,13.6,12.5,26.8
					c0,0-14.6-4-20.5-10.7c-5.9-6.7-7-11.3-10-12.7c0,0-16.4,18.8-21.6,19.8c0,0-4.2-9.8,3-24.4c0,0-21.2,0.2-28.5,2.3
					c0,0,5.2-13.6,30.1-16.9c0,0-12.2-9.2-20.5-8.6C560.7,42.4,575.1,30.8,601.5,44.5z"/>
				<circle cx="656.7" cy="139.6" r="6"/>
				<circle cx="557.1" cy="139.6" r="6"/>
				<g>
					<path d="M608.4,153.8c-0.1,0-0.1,0-0.2,0c-2.7-0.1-4.2-1.4-5-2.4c-0.9-1.1-1.2-2.3-1.2-2.3l1-0.2c0.1,0.2,1,3.8,5.3,4
						c1.8,0.1,3.2-0.7,4.1-2.3c0.7-1.2,0.9-2.4,0.9-2.5l1,0.1C614.2,148.3,613.4,153.8,608.4,153.8z"/>
				</g>
				<path d="M561.5,224.9c-1.9,0-3.6,1.1-4.4,2.8c-2.9-1.1-6.3-3.1-9.8-6c-4.8-4-11.3-11.1-14.9-22c-6.4-19.4,0.8-30.6,0.9-30.7
					l-1.5-1c-0.3,0.5-7.8,11.9-1.1,32.1c5.4,16.2,17.5,26,26,29.2c0,0.1,0,0.2,0,0.3c0,2.7,2.1,4.8,4.8,4.8c2.7,0,4.8-2.1,4.8-4.8
					C566.3,227.1,564.1,224.9,561.5,224.9z"/>
				<path d="M661.5,224.9c1.9,0,3.6,1.1,4.4,2.8c2.9-1.1,6.3-3.1,9.8-6c4.8-4,11.3-11.1,14.9-22c6.4-19.4-0.8-30.6-0.9-30.7l1.5-1
					c0.3,0.5,7.8,11.9,1.1,32.1c-5.4,16.2-17.5,26-26,29.2c0,0.1,0,0.2,0,0.3c0,2.7-2.1,4.8-4.8,4.8s-4.8-2.1-4.8-4.8
					C656.7,227.1,658.9,224.9,661.5,224.9z"/>
				<path fill="#E85858" d="M554.2,216.7c0,0,4.8,2.3,12.1,3.2c7.2,0.9,94.1-2.9,94.1-2.9s6.1-2.9,9.2-5.4s4.9-13.9,4.9-13.9
					l-4.6-35.5c0,0-111.1-3.5-117.1,2.6c-6.1,6.1-9.6,8.7-10.4,17.4C541.5,191,554.2,216.7,554.2,216.7z"/>
			</g>
			<g>
				<path fill="#F4F4F4" d="M659.2,255.6h-90.7c-1.2,0-2.1-1-2.1-2.1v-8.8c0-1.2,1-2.1,2.1-2.1h90.7c1.2,0,2.1,1,2.1,2.1v8.8
					C661.3,254.6,660.4,255.6,659.2,255.6z"/>
				<path fill="#F4F4F4" d="M659.9,239.7h-92.1c0,0-17.3-53.8-11-64.6c2.7-4.6,102-4.6,108.4-1C670,177,659.9,239.7,659.9,239.7z"/>
				<g>
					<path fill="#E85858" d="M615.9,201c-0.5-0.2-1.2-1-1.2-1s0.5,0.1,1.3,0c0.7-0.1,1.2-0.9,1.2-0.9s-0.6,0.2-1.4,0.2
						c-0.8,0-1.8-0.3-1.8-0.3c0.4-0.8,1.7-1.2,1.7-1.2s-0.5-0.2-1.6-0.1c-0.7,0.1-1.4,0.5-1.7,0.9c0.1-0.3,0.1-0.9,0.1-1.5
						c0-1.1-0.3-1.8-0.3-1.8c-0.8-0.1-1.4,0.6-1.4,0.6s0.3,0.3,0.5,0.9c0.2,0.4,0.2,1.2,0.3,1.7c-1.7-1-3.6-1-3.6-1
						c0.7,0.3,1.1,1.7,1.1,1.7c-1,0.3-3.4,0-3.4,0s0.1,0.2,0.9,0.9c0.9,0.6,2.3,0.2,2.3,0.2s-0.3,0.3-0.5,1.1
						c-0.2,0.8,0.2,1.2,0.2,1.1c0-0.1,0.3-0.6,1-1.2c0.6-0.5,1.6-0.6,1.6-0.6c0.4,1.9,2.2,2.3,2.2,2.3s0.1-0.4,0.1-0.8
						c0-0.4-0.5-1.6-0.5-1.6s0.9,0.9,1.8,1.1c1,0.3,2.3,0.3,2.3,0.3S616.6,201.2,615.9,201z"/>
					<path fill="#E85858" d="M621.3,205.6c-0.9-2.9-2.7-4.4-4.4-5.3c-0.3,0.2-0.5,0.3-0.5,0.3c1,0.5,1.1,1.8,1.1,1.8
						c-1.8,0.2-3.7-0.5-3.7-0.5c0.1,1.1-0.4,1.7-0.4,1.7c-1.6-0.3-2.9-2.1-2.9-2.1c-0.9,0.2-1.9,1.7-1.9,1.7c-1.1-1-0.5-2.3-0.5-2.3
						c-1,0.1-1.9-0.2-2.5-0.4c-3.2,1.9-4.8,5.6-4.2,8.8c1,4.9,6,8.7,12.6,7.8C620.5,216,623.3,212.1,621.3,205.6z"/>
				</g>
			</g>
			<path fill="#F4F4F4" d="M556.8,254c0,0-6.8-2.5-13.7-0.9c-6.9,1.7-13.2,7.6-13.2,7.6c1.7,2.2,5.4,9.5,17.8,6.5
				C560,264.3,556.8,254,556.8,254z M543.8,264.7l-3.4-8.8c0,0,2.8-2.3,6-2.3l4.1,8.4C550.4,262.1,546.9,265.2,543.8,264.7z"/>
			<path fill="#F4F4F4" d="M528.6,259.2c0,0,6.3-6,13.9-8c7.6-1.9,14.3,1.3,14.3,1.3s-3.5-17.4-19.2-15.2
				C521.9,239.6,526.1,255.7,528.6,259.2z"/>
			<path fill="#F4F4F4" d="M542.1,257.1c0,0,1.8-1.6,3.9-1.5l2.7,5.6c0,0-2.3,2.1-4.4,1.8L542.1,257.1z"/>
		</g>
		<g>
			<g>
				<g>
					<path fill="#F8C65B" d="M721.5,57.9c0,0,0-2.2-3.8-5.7c-3.8-3.5-8.2-8-4.9-15.8c3.2-7.9,13.6-12.2,21.5-6.2
						c7.9,6,5.1,14.6,3.7,17.2c-1.4,2.7-5.9,6-6.8,8.3C730.2,58,732.4,59,721.5,57.9z"/>
					<path fill="#8C8C8C" d="M729.7,61.9l-8.4-0.2c-0.3,0-0.6-0.3-0.5-0.6l0-1.1c0-0.3,0.3-0.6,0.6-0.5l8.4,0.2
						c0.3,0,0.6,0.3,0.5,0.6l0,1.1C730.3,61.7,730,61.9,729.7,61.9z"/>
					<g>
						<path fill="#FFA300" d="M729.9,58.9c-0.2,0-0.3,0.1-0.5,0.1l-7.3-0.2c-0.9,0-1.6-0.7-1.6-1.7c0-0.3-0.5-1.9-2.7-3.9
							c-0.4-0.3-0.8-0.6-1.2-1c-2.5-2-5.6-4.4-5.4-11.4c0.1-5,4.5-11.7,11-13.6c2.6-0.7,5.2-0.7,8,0.2c5,1.7,8.2,4.7,9.5,9.1
							c1.1,4,0.2,7.7-0.1,8.8c-0.7,2.4-2.5,4.3-4.3,6.1c-1.8,1.9-3.6,3.6-4,5.9C731.1,58.1,730.6,58.7,729.9,58.9z M722.4,28.5
							c-5.9,1.7-10,7.7-10.1,12.4c-0.1,6.4,2.6,8.5,4.9,10.4c0.4,0.4,0.9,0.7,1.3,1c2.7,2.4,3.1,4.6,3.1,4.6l0,0.1
							c0,0.2,0.2,0.4,0.4,0.4l7.3,0.2c0.2,0,0.4-0.2,0.4-0.4l0-0.1c0.5-2.6,2.4-4.6,4.3-6.5c1.7-1.7,3.4-3.5,4-5.6
							c0.3-1.3,3.2-12.6-8.5-16.4C727.2,27.9,724.8,27.8,722.4,28.5z"/>
					</g>
					<path fill="#8C8C8C" d="M729.6,64.6l-8.4-0.2c-0.3,0-0.6-0.3-0.5-0.6l0-1.1c0-0.3,0.3-0.6,0.6-0.5l8.4,0.2
						c0.3,0,0.6,0.3,0.5,0.6l0,1.1C730.2,64.3,729.9,64.6,729.6,64.6z"/>
					<path fill="#8C8C8C" d="M729.6,67.3l-8.4-0.2c-0.3,0-0.6-0.3-0.5-0.6l0-1.1c0-0.3,0.3-0.6,0.6-0.5l8.4,0.2
						c0.3,0,0.6,0.3,0.5,0.6l0,1.1C730.1,67.1,729.8,67.3,729.6,67.3z"/>
					<g>
						<path d="M725.5,56.5l-0.7-0.2c0.2-0.6,0.5-2,0.5-3.1c-0.8,0.5-1.9,0.8-2.7,0.6c-1-0.2-1.6-0.8-1.9-1.9
							c-0.3-1.2,0.3-1.7,0.7-1.9c1.2-0.6,3.4,0.1,4.2,1.1c0.1,0.2,0.2,0.4,0.3,0.6c0.9-1.2,0.9-2.5,0.3-3.8
							c-0.4,0.3-0.9,0.6-1.5,0.8c-1.2,0.2-2.8,0.1-3.6-1c-0.5-0.7-0.5-1.5,0.1-2.1c0.9-0.9,2.7-1,4.2,0.2c0.3,0.2,0.5,0.5,0.7,0.7
							c0.1-1.4-1.7-2.7-2.5-3.3c-1.3-0.9-0.3-4.5-0.1-5.3l0.7,0.2c-0.5,1.6-0.8,4-0.2,4.5c1,0.7,3.3,2.4,2.7,4.4
							c0,0.1-0.1,0.2-0.1,0.3c1,1.6,0.9,3.3-0.2,5c-0.1,0.1-0.2,0.3-0.4,0.4C726.2,54.2,725.6,56.2,725.5,56.5z M721.9,50.7
							c-0.1,0-0.1,0-0.2,0.1c-0.2,0.1-0.5,0.3-0.3,1c0.2,0.9,0.9,1.2,1.3,1.3c0.8,0.2,1.8-0.1,2.5-0.7c0-0.3-0.1-0.5-0.3-0.7
							C724.4,50.8,722.8,50.4,721.9,50.7z M722.4,45.8c-0.3,0.1-0.5,0.2-0.7,0.4c-0.2,0.2-0.4,0.6-0.1,1.1c0.7,0.7,1.9,1,2.9,0.8
							c0.5-0.1,1-0.4,1.2-0.6c-0.2-0.3-0.6-0.6-0.9-0.9C724,45.7,723,45.6,722.4,45.8z"/>
					</g>
				</g>
			</g>
			<path fill="#F8C65B" d="M703,55.4c0,0,6.8-5.2,7.8-4.8c1,0.4-3.6,7.6-4.6,7.9C705.2,58.6,701.8,56.9,703,55.4z"/>
			<path fill="#F8C65B" d="M699,38.2c0,0,8.7,1.2,9.1,2.1c0.5,1-8.1,3-9,2.4C698.3,42.2,697,38.5,699,38.2z"/>
			<path fill="#F8C65B" d="M706.2,23.4c0,0,4.7,6.6,4.3,7.5c-0.4,0.9-7.1-3.6-7.3-4.5C703,25.4,704.8,22.2,706.2,23.4z"/>
			<path fill="#F8C65B" d="M741.9,19.5c0,0-5,6.5-6,6.3c-1-0.1,1.4-7.9,2.2-8.3C739,17.1,742.7,17.8,741.9,19.5z"/>
			<path fill="#F8C65B" d="M752.4,36.5c0,0-8.1-0.2-8.6-1.1c-0.5-0.8,7.1-3.5,8.1-3.1C752.7,32.8,754.2,36.1,752.4,36.5z"/>
			<path fill="#F8C65B" d="M750.2,54.5c0,0-6.4-4.9-6.4-5.9c0.1-1,7.9,1.3,8.3,2.2C752.6,51.6,752,55.1,750.2,54.5z"/>
			<path fill="#F8C65B" d="M741.2,62.9c0,0-3.2-7.4-2.7-8.3c0.6-0.9,6.2,5,6.2,5.9C744.8,61.6,742.4,64.4,741.2,62.9z"/>
			<path fill="#F8C65B" d="M722.4,14.4c0,0,1.4,8,0.7,8.7c-0.8,0.7-4.9-6.3-4.7-7.2C718.7,14.9,721.6,12.7,722.4,14.4z"/>
		</g>
	</g>
</g>
</svg>
