<?xml version="1.0" encoding="utf-8"?>
<!-- Generator: Adobe Illustrator 22.0.0, SVG Export Plug-In . SVG Version: 6.00 Build 0)  -->
<svg version="1.1" id="Layer_1" xmlns="http://www.w3.org/2000/svg" xmlns:xlink="http://www.w3.org/1999/xlink" x="0px" y="0px"
	 viewBox="0 0 595.3 238" style="enable-background:new 0 0 595.3 238;" xml:space="preserve">
<style type="text/css">
	.st0{fill:#D6D6D6;}
	.st1{fill:#FFFFFF;}
	.st2{fill:#14B0BF;}
	.st3{fill:#F7B90D;}
	.st4{fill:#EA4949;}
	.st5{font-family:'BigNoodleTitling';}
	.st6{font-size:69.1502px;}
</style>
<g>
	<g>
		<path class="st0" d="M385.4,53.8v131c0,16.4,13.4,29.8,29.8,29.8h131c15.1,0,27.7-11.4,29.5-26V50.1c-1.9-14.6-14.4-26-29.5-26
			h-131C398.8,24,385.4,37.4,385.4,53.8z"/>
	</g>
	<g>
		<path class="st1" d="M383.2,51.5v131c0,16.4,13.4,29.8,29.8,29.8h131c15.1,0,27.7-11.4,29.5-26V47.8c-1.9-14.6-14.4-26-29.5-26
			h-131C396.5,21.7,383.2,35.2,383.2,51.5z"/>
	</g>
	<g>
		<g>
			<g>
				<g>
					<rect x="424.8" y="68.9" class="st2" width="107" height="26.5"/>
				</g>
			</g>
		</g>
		<g>
			<g>
				<rect x="424.8" y="103.8" class="st3" width="107" height="26.5"/>
			</g>
		</g>
		<g>
			<g>
				<rect x="424.8" y="138.7" class="st4" width="107" height="26.5"/>
			</g>
		</g>
	</g>
</g>
<text transform="matrix(0.7672 0 0 1 14.001 97.9964)" class="st5 st6">DAILY - Habit Tracker</text>
</svg>
