<?xml version="1.0" encoding="utf-8"?>
<!-- Generator: Adobe Illustrator 22.0.0, SVG Export Plug-In . SVG Version: 6.00 Build 0)  -->
<svg version="1.1" id="Layer_1" xmlns="http://www.w3.org/2000/svg" xmlns:xlink="http://www.w3.org/1999/xlink" x="0px" y="0px"
	 viewBox="0 0 595.3 238" style="enable-background:new 0 0 595.3 238;" xml:space="preserve">
<style type="text/css">
	.st0{fill:#E85858;}
	.st1{fill:#5C9F25;}
	.st2{fill:#EEB43A;}
	.st3{fill:#ED9700;}
	.st4{fill:#D6D6D6;}
	.st5{fill:url(#SVGID_1_);}
	.st6{fill:#E85757;}
	.st7{fill:#5C9F24;}
	.st8{fill:#680404;}
	.st9{fill:#890303;}
	.st10{fill:#FF0000;}
	.st11{fill:#EDB339;}
	.st12{fill:#EC9532;}
	.st13{font-family:'MyriadPro-BoldCond';}
	.st14{font-size:12px;}
</style>
<g>
	<g>
		<g>
			<g>
				<g>
					<g>
						<path d="M62.9,46.7c0,1-0.3,2-1,2.6c-0.7,0.7-1.6,1.1-2.6,1.1c-0.6,0-1.7-0.2-3.4-0.7c-1.6-0.5-3-0.7-4.1-0.7
							c-2.9,0-5.3,0-7,0c-1,0-1.5,0.1-1.7,0.2s-0.2,0.7-0.3,1.8c-0.2,1.5-0.7,3.8-1.3,6.8c-1.3,8.2-2,17.4-2,27.7
							c0,7,0.9,11.8,2.8,14.4v2.4c-1.3,0.6-2.3,0.9-3.1,0.9c-4.3,0-7.1-1.8-8.5-5.6c-0.6-1.8-0.9-5.3-0.9-10.5
							c0-6,0.1-10.6,0.4-13.9c0.1-1.5,0.4-4.9,1.1-10.5c0.6-4.3,0.8-7.7,0.8-10.5v-2.6c-1,0.1-2.8,0.2-5.5,0.7
							c-2.3,0.3-4,0.5-5.5,0.5c-4.7,0-7.1-1.3-7.1-3.7c0-1,0.3-1.6,1-1.8c1-1.3,6.3-2.4,16-3.4c7.5-0.7,13.5-1,18.2-1
							c3.2,0,6.1,0.3,8.5,1C61.2,43,62.9,44.6,62.9,46.7z"/>
						<path d="M188.4,43.3c0,0.8-0.3,1.5-0.9,2.1c-1,1-1.5,1.5-1.6,1.6c-0.4,0.6-0.8,2.2-1.3,4.7c-1.7,12.3-2.5,24.4-2.5,36.4
							c0,6.8,1.4,10.5,4,11.4v2.4c-0.8,1.5-2.1,2.3-3.8,2.3c-3.4,0-6.1-2.6-7.8-8c-1.3-3.8-2-7.7-2-11.8c0-9.1,0.2-16.7,0.8-22.8
							c-2.1,7.1-4,14.1-6.2,21.3c-3.8,11-7.4,16.4-11,16.4c-4,0-7.5-3.2-10.6-9.7c-2.9-5.9-6.3-15.6-10.5-29.4
							c-0.4,4-0.6,8.3-0.6,12.5c0,8.9,0.2,15.3,0.8,19.2c0.1,0.7,0.4,1.8,1.1,3.5c0.7,1.6,1,2.9,1,3.8c0,2-1.8,3-5.6,3
							c-4.4,0-6.6-5.3-6.6-15.8c0-4.3,0.2-10.7,0.8-19.1c0.6-8.5,0.8-14.8,0.8-19.1c0-0.5-0.2-1-0.8-1.5c-0.6-0.6-0.8-1-0.8-1.5
							c0-3.3,3.4-5.1,10.2-5.1c1.5,0,3.4,0.9,5.6,2.6c0.2,1.8,0.6,4.7,1,8.5c0.7,5.3,2.3,12.3,4.8,21c3.3,11.3,6.2,16.9,8.6,16.9
							c0.6,0,1.3-0.9,2.1-2.8c1.7-3.6,3.3-8.7,4.9-15.2c1.3-5.2,2.4-10.5,3.7-15.7c0.6-2.4,1.5-6,2.9-10.7c1.5-3.4,4.4-5.2,9-5.2
							c1.6,0,3.6,0.3,5.9,1C187,41,188.4,42.1,188.4,43.3z"/>
						<path d="M249,85.6c0,2.9-1.5,4.4-4.4,4.4c0.3,1.4,1,3.2,2.3,5.6c-0.1,1.3-0.7,2.4-1.8,3.2c-1.1,0.8-2.5,1.3-4,1.3
							c-1.3,0-2.6-0.3-4.3-1c-0.9-1.5-1.3-3.4-1.3-5.6c0-0.6,0-1.3,0.1-2.4c0.1-1,0.1-1.8,0.1-2.3c0,0.4-1.1,0.7-3.3,0.7
							c-3.8,0-8.3,0.1-13.5,0.5c-7.5,0.3-11.5,0.9-12.1,1.5c-0.7,0.7-1,3.9-1.3,9.7c-0.9,1.1-2.1,1.7-3.3,1.7
							c-1.5,0-2.9-0.6-4.4-1.5c-1.5-1-2.3-2.2-2.3-3.4c0-0.4,0.7-2.1,1.8-5.1c1.4-4.3,3.6-10.7,6.6-19.2
							c9.1-22.1,16.7-33.1,22.7-33.1c5.9,0,10.5,5.9,13.7,17.5c1.5,5.2,2.8,13.2,4,24.1c1.8,0.3,2.9,0.7,3.3,0.9
							C248.4,83.7,249,84.5,249,85.6z M234.7,82.2c-3-21-5.7-31.5-8-31.5c-1.8,0-5.2,4.9-10,14.8c-3.4,7.1-6.1,13.2-8,18.5
							c2.2-0.4,5.4-0.9,9.7-1.5C222.2,82,227.6,82,234.7,82.2z"/>
						<path d="M297.7,46.7c0,1-0.3,2-1,2.6c-0.7,0.7-1.6,1.1-2.6,1.1c-0.6,0-1.7-0.2-3.4-0.7c-1.6-0.5-3-0.7-4.1-0.7
							c-2.9,0-5.3,0-7,0c-1,0-1.5,0.1-1.7,0.2c-0.1,0.1-0.2,0.7-0.3,1.8c-0.2,1.5-0.7,3.8-1.3,6.8c-1.3,8.2-2,17.4-2,27.7
							c0,7,0.9,11.8,2.8,14.4v2.4c-1.3,0.6-2.3,0.9-3.1,0.9c-4.3,0-7.1-1.8-8.5-5.6c-0.6-1.8-0.9-5.3-0.9-10.5
							c0-6,0.1-10.6,0.4-13.9c0.1-1.5,0.4-4.9,1.1-10.5c0.6-4.3,0.8-7.7,0.8-10.5v-2.6c-1,0.1-2.8,0.2-5.5,0.7
							c-2.3,0.3-4,0.5-5.5,0.5c-4.7,0-7.1-1.3-7.1-3.7c0-1,0.3-1.6,1-1.8c1-1.3,6.3-2.4,16-3.4c7.5-0.7,13.5-1,18.2-1
							c3.2,0,6.1,0.3,8.5,1C295.9,43,297.7,44.6,297.7,46.7z"/>
						<path d="M352.3,71.1c0,8.7-2.4,16-7.2,22.1c-5.4,6.8-12.7,10.2-22.1,10.2c-2.6,0-5.4-0.5-8.5-1.4c-6.8-2-11.6-5.3-14.6-10
							c-2.5-4-3.8-9.6-3.8-16.4c0-8.9,2.4-16.8,7.2-23.6c5.5-7.9,13.1-12.1,22.6-12.1c8.3,0,14.9,3.5,19.9,10.5
							C350.2,56.4,352.3,63.3,352.3,71.1z M342.5,70.3c0-12.5-4.6-20-13.7-22.4c-1-0.2-2.1-0.3-3.2-0.3c-3.8,0-7.6,1.5-11.4,4.5
							c-6,4.8-9,13.5-9,26.1c0,1.1,0.2,2.8,0.8,4.8c1.1,4.6,2.9,7.9,5.2,10c2.6,2.4,6.5,3.6,11.6,3.6c6.9,0,12.1-3,15.7-9
							C341.1,82.8,342.5,77.1,342.5,70.3z"/>
					</g>
					<path d="M321.8,73L321.8,73c-1.8-0.2-3-1.8-2.8-3.7l1.3-9.4c0.2-1.8,1.8-3,3.7-2.8l0,0c1.8,0.2,3,1.8,2.8,3.7l-1.3,9.4
						C325.3,72,323.7,73.3,321.8,73z"/>
					<path d="M335,85.4L335,85.4c-1.4,1.1-3.4,0.9-4.6-0.5l-10.7-13.1c-1.1-1.4-0.9-3.4,0.5-4.6l0,0c1.4-1.1,3.4-0.9,4.6,0.5
						l10.7,13.1C336.5,82.3,336.4,84.4,335,85.4z"/>
					<g>
						<path d="M259.9,114.3c-0.5,0-1,0-1.6,0s-1.1,0-1.7,0.1c-0.6,0-1.1,0.1-1.6,0.1c-0.6,0.1-1,0.1-1.5,0.1c0.1-0.3,0.1-0.7,0.1-1
							c0-0.2-0.1-0.6-0.1-1c1.3,0,2.6,0.1,3.9,0.1s2.6,0.1,3.9,0.1s2.6,0,3.9-0.1c1.3,0,2.6-0.1,3.9-0.1c-0.1,0.4-0.1,0.7-0.1,1
							c0,0.2,0.1,0.6,0.1,1c-0.4-0.1-0.9-0.1-1.5-0.1s-1-0.1-1.6-0.1s-1.1-0.1-1.7-0.1s-1.1,0-1.6,0c-0.1,2.1-0.1,4.1-0.1,6.3v5.2
							c0,1.3,0,2.6,0.1,3.9s0.1,2.5,0.1,3.8c-0.5-0.1-1-0.1-1.5-0.1s-1,0-1.5,0.1c0.1-1.3,0.1-2.5,0.1-3.8c0.1-1.3,0.1-2.6,0.1-3.9
							v-5.2C260,118.5,260,116.4,259.9,114.3z"/>
						<path d="M272.5,116.6c-0.1-1.3-0.1-2.6-0.1-3.9c0.2,0,0.5,0.1,0.7,0.1s0.5,0.1,0.7,0.1s0.5,0,0.7-0.1c0.2,0,0.5-0.1,0.7-0.1
							c-0.1,1.3-0.1,2.6-0.1,3.9s-0.1,2.6-0.1,3.9v5.2c0,1.3,0,2.6,0.1,3.9s0.1,2.5,0.1,3.8c-0.5-0.1-1-0.1-1.5-0.1s-1,0-1.5,0.1
							c0.1-1.3,0.1-2.5,0.1-3.8c0.1-1.3,0.1-2.6,0.1-3.9v-5.2C272.6,119.2,272.6,118,272.5,116.6z"/>
						<path d="M287.2,120.7c1.4,2.6,2.9,5.4,4.5,8.3c0.1-0.4,0.5-0.9,0.9-1.6s0.8-1.5,1.3-2.4s1-2,1.6-3s1.1-2.2,1.8-3.2
							c0.6-1.1,1.3-2.2,1.8-3.2c0.6-1,1.1-2.1,1.6-3h0.4c0.2,2,0.4,3.8,0.7,5.6c0.1,1.8,0.4,3.6,0.6,5.3c0.1,1.7,0.4,3.5,0.6,5.2
							c0.2,1.7,0.4,3.4,0.7,5.1c-0.2-0.1-0.5-0.1-0.7-0.1s-0.5,0-0.7,0s-0.5,0-0.7,0s-0.5,0-0.7,0.1c-0.2-2.6-0.4-5.3-0.7-7.8
							c-0.2-2.5-0.5-5.2-0.8-7.7h-0.1c-1.4,2.5-2.8,5.1-4,7.6c-1.3,2.5-2.6,5.2-3.8,7.9H291c-1.3-2.5-2.4-5.1-3.8-7.7
							c-1.3-2.5-2.6-5.2-4-7.8l0,0c-0.1,1.3-0.3,2.6-0.5,4c-0.1,1.5-0.3,2.9-0.5,4.3c-0.1,1.4-0.2,2.8-0.3,4
							c-0.1,1.3-0.1,2.3-0.1,3.1c-0.3-0.1-0.7-0.1-1-0.1s-0.7,0-1,0.1c0.2-1.6,0.6-3.3,0.8-5.2c0.2-1.8,0.6-3.7,0.8-5.4
							c0.2-1.8,0.5-3.7,0.7-5.4c0.2-1.8,0.4-3.5,0.6-5.2h0.5C284.4,115.2,285.8,118,287.2,120.7z"/>
						<path d="M307.8,116.6c-0.1-1.3-0.1-2.6-0.1-3.9c0.9,0,1.8,0.1,2.6,0.1c0.9,0,1.8,0.1,2.6,0.1s1.8,0,2.6-0.1
							c0.9,0,1.8-0.1,2.6-0.1c-0.1,0.3-0.1,0.6-0.1,0.9s0,0.6,0.1,0.9c-0.7,0-1.3-0.1-1.8-0.1s-1.1-0.1-1.7-0.1
							c-0.6-0.1-1.3-0.1-2-0.1s-1.5-0.1-2.5-0.1c0,0.7-0.1,1.3-0.1,1.8s-0.1,1.3-0.1,2.1s0,1.5,0,2.3c0,0.7,0,1.3,0,1.7
							c0.9,0,1.7,0,2.4,0c0.7,0,1.4-0.1,2-0.1s1.1-0.1,1.6-0.1s1-0.1,1.4-0.1c-0.1,0.3-0.1,0.7-0.1,1s0,0.6,0.1,0.9
							c-0.5-0.1-1.1-0.1-1.8-0.1c-0.7,0-1.4-0.1-2.1-0.1s-1.4,0-2,0s-1.1,0-1.5,0c0,0.1,0,0.4,0,0.6s0,0.5,0,0.8v1.1v1.8
							c0,1.1,0,2.1,0,2.9c0,0.7,0,1.3,0.1,1.7c0.7,0,1.4,0,2.1,0s1.5,0,2.3-0.1c0.7,0,1.5-0.1,2.1-0.1c0.7-0.1,1.3-0.1,1.7-0.2
							c0,0.1-0.1,0.3-0.1,0.5c0,0.1,0,0.3,0,0.5c0,0.3,0,0.6,0.1,0.8c-0.9-0.1-1.8-0.1-2.6-0.1c-0.9,0-1.8,0-2.8,0s-1.8,0-2.8,0
							s-1.8,0-2.8,0.1c0.1-1.3,0.1-2.6,0.1-3.8c0.1-1.3,0.1-2.6,0.1-3.9v-5.2C307.9,119.2,307.8,117.9,307.8,116.6z"/>
						<path d="M323,120.5c0-1.3,0-2.6-0.1-3.9s-0.1-2.6-0.1-3.9c0.6,0,1.1,0.1,1.7,0.1s1.1,0.1,1.7,0.1s1.1,0,1.7-0.1
							s1.1-0.1,1.7-0.1c0.8,0,1.6,0.1,2.4,0.2c0.7,0.1,1.5,0.4,2.1,0.8s1,0.9,1.4,1.5c0.3,0.6,0.5,1.4,0.5,2.3c0,1-0.2,1.8-0.7,2.5
							c-0.4,0.7-1,1.3-1.5,1.7c-0.7,0.5-1.3,0.8-2.1,1c-0.7,0.2-1.4,0.4-2,0.5c0.2,0.3,0.6,0.7,1,1.3c0.4,0.6,0.9,1.1,1.4,1.8
							c0.5,0.7,1,1.3,1.6,2.1c0.6,0.7,1.1,1.4,1.6,2.1s1,1.3,1.5,1.8c0.5,0.6,0.8,1,1.1,1.3c-0.3-0.1-0.6-0.1-0.9-0.1s-0.6,0-0.9,0
							c-0.2,0-0.6,0-0.9,0s-0.6,0-0.9,0.1c-0.3-0.4-0.7-1-1.4-1.8c-0.7-0.8-1.3-1.8-2.1-2.6c-0.7-1-1.5-2-2.3-2.9
							c-0.8-1-1.5-1.8-2.1-2.4h-1.1v2.2c0,1.3,0,2.6,0.1,3.9s0.1,2.5,0.1,3.8c-0.5-0.1-1-0.1-1.5-0.1s-1,0-1.5,0.1
							c0.1-1.3,0.1-2.5,0.1-3.8c0.1-1.3,0.1-2.6,0.1-3.9v-5.4h0.3L323,120.5L323,120.5z M325.5,122.2c0.2,0.1,0.6,0.1,0.9,0.1
							s0.7,0,1.1,0c0.7,0,1.3-0.1,2-0.2s1.3-0.4,1.8-0.7c0.6-0.3,1-0.8,1.4-1.4s0.6-1.4,0.6-2.3c0-0.8-0.1-1.5-0.4-2
							s-0.7-0.9-1.1-1.3c-0.5-0.3-1-0.5-1.5-0.7c-0.6-0.1-1-0.1-1.6-0.1c-0.7,0-1.3,0-1.8,0.1c-0.5,0-0.9,0.1-1.1,0.1
							c-0.1,1.1-0.1,2.2-0.1,3.2s-0.1,2.2-0.1,3.2v1.8l0,0L325.5,122.2L325.5,122.2z"/>
						<path d="M341.5,130.7c0.2,0.4,0.6,0.7,1,1s0.8,0.6,1.4,0.7c0.5,0.1,1.1,0.3,1.8,0.3c0.7,0,1.3-0.1,1.8-0.3
							c0.6-0.2,1-0.6,1.4-1s0.7-0.9,0.9-1.4c0.1-0.6,0.3-1.1,0.3-1.7c0-0.9-0.2-1.6-0.7-2.2s-1-1-1.8-1.4c-0.7-0.3-1.5-0.7-2.3-1
							s-1.5-0.7-2.3-1.1c-0.7-0.5-1.3-1-1.8-1.7s-0.7-1.6-0.7-2.9c0-0.8,0.1-1.6,0.5-2.3c0.3-0.7,0.7-1.3,1.3-1.8
							c0.6-0.5,1.3-0.9,2.1-1.1c0.8-0.2,1.7-0.4,2.6-0.4c1,0,1.8,0.1,2.5,0.3c0.7,0.2,1.4,0.6,2,1c-0.1,0.3-0.3,0.7-0.5,1
							s-0.2,0.9-0.3,1.5h-0.3c-0.1-0.2-0.2-0.6-0.4-0.9c-0.1-0.3-0.4-0.7-0.7-0.9c-0.3-0.2-0.7-0.5-1-0.7c-0.4-0.1-0.9-0.3-1.5-0.3
							s-1,0.1-1.5,0.2s-0.9,0.4-1.3,0.7c-0.3,0.3-0.7,0.7-0.8,1.3c-0.1,0.5-0.3,1-0.3,1.5c0,1,0.2,1.7,0.7,2.3c0.5,0.6,1,1,1.8,1.4
							c0.7,0.4,1.5,0.7,2.3,1s1.5,0.7,2.3,1c0.7,0.4,1.3,1,1.8,1.6c0.5,0.7,0.7,1.5,0.7,2.6c0,0.9-0.1,1.8-0.5,2.6
							c-0.3,0.8-0.8,1.5-1.5,2.2s-1.4,1-2.4,1.4c-0.9,0.3-2,0.5-3.1,0.5c-1.3,0-2.3-0.1-3-0.5c-0.8-0.3-1.5-0.7-2-1.1
							c0.1-0.5,0.3-0.9,0.4-1.3s0.1-0.8,0.1-1.5h0.3C341,129.9,341.2,130.3,341.5,130.7z"/>
					</g>
					<g>
						<path d="M119.2,68.2c-0.8,0-1.5,0.7-1.5,1.5c0,0.6,0.3,1,0.7,1.3c-1.3,1.6-4.3,5.2-8.2,5.5v0.3c2.6-0.2,5.1-2.1,6.5-3.4
							c0.9-0.8,1.5-1.7,2-2.3c0.1,0,0.2,0.1,0.4,0.1c0.8,0,1.5-0.7,1.5-1.5C120.7,68.9,120,68.2,119.2,68.2z"/>
						<path class="st0" d="M109.2,65.3c-2.2-7.1-6.6-11.1-10.9-13.3c-0.9,0.4-1.7,0.7-1.7,0.7c2.5,1,3.1,3.9,3.1,3.9
							c-5.6,1.1-9.6-1.1-9.6-1.1c0.7,2.1-0.6,4.2-0.6,4.2c-4.9-0.5-7.1-5.4-7.1-5.4c-2.6-0.1-5.7,4.1-5.7,4.1
							c-3.2-2.1-1.8-5.4-1.8-5.4c-2.5-0.1-3.9-1.1-4.6-1.7C61.2,56,56.6,66.1,58.5,74.6c0.1,0.7,0.3,1.5,0.6,2.2
							c1.4,0.5,4.1,1.4,7.6,1.3l0.1,1.5c0,0-3.2,0.3-7-0.7c3.2,8,10.9,14.4,21,15.7c-0.1-1-0.7-2.3-2.5-3.7l1-1.3
							c0,0,2.9,1.5,3.5,5.2c2.4,0.1,5.2,0.1,7.8-0.2C107.4,92,114.4,82.1,109.2,65.3z"/>
						<circle cx="104.5" cy="70" r="2.2"/>
						<circle cx="77" cy="72.2" r="2.2"/>
						<path class="st1" d="M95.5,53.5c-1.5-0.7-3.2-2.4-3.2-2.4s1.4,0.3,3.2,0c1.8-0.3,3-2.1,3-2.1s-1.5,0.4-3.6,0.4
							s-4.6-0.8-4.6-0.8c1-2.1,4.4-3.2,4.4-3.2s-1.5-0.6-4-0.1c-1.8,0.2-3.6,1.5-4.5,2.1c0.1-0.9,0.2-2.2,0.2-3.8
							c0-2.9-0.7-4.6-0.7-4.6c-2.1-0.3-3.5,1.5-3.5,1.5s0.9,0.7,1.5,2.3c0.4,1,0.7,2.9,0.7,4.2c-4.3-2.6-9.1-2.5-9.1-2.5
							c1.8,0.9,2.6,4.3,2.6,4.3c-2.5,0.9-8.6,0-8.6,0s0.1,0.6,2.3,2.2c2.2,1.7,5.8,0.4,5.8,0.4s-0.8,0.7-1.5,2.6
							c-0.7,2.1,0.4,3,0.4,2.9s0.9-1.7,2.4-2.9c1.6-1.3,4-1.6,4-1.6c1,5.1,5.8,5.9,5.8,5.9s0.1-1,0.1-2.1c-0.1-1-1.4-4.1-1.4-4.1
							s2.2,2.2,4.6,2.9s6.1,0.8,6.1,0.8S97.1,54.1,95.5,53.5z"/>
						<path d="M66,78.9v-0.3c-4.4,0.2-9.2-1.7-11.4-2.9c0-0.1,0.1-0.2,0.1-0.4c0-0.8-0.7-1.5-1.5-1.5s-1.5,0.7-1.5,1.5
							c0,0.9,0.7,1.5,1.5,1.5c0.6,0,1-0.3,1.3-0.8c2.1,1,6.5,2.9,10.7,2.9C65.5,78.9,65.8,78.9,66,78.9z"/>
						<path d="M81.2,97.1c1.8-4.2-1.8-6.5-1.8-6.5l-0.1,0.3c0,0,0.9,0.5,1.5,1.5c0.9,1.4,1,2.9,0.1,4.6c-1.5,3.3-3.6,4.6-4.2,4.9
							c-0.1,0-0.3,0-0.4,0.1c-0.3,0.1,0,1.4,1.5,2.4s2.9,0.7,3.2-0.7s-3-1.7-3-1.7s-0.2,0-0.6-0.1C78.3,101.3,79.9,99.9,81.2,97.1z"
							/>
						<path d="M109.1,101c-1-0.5-2.1-0.1-2.8,0.1c-0.1-1.3-0.2-4.2-0.8-6.3c-0.7-2.6-3.6-5.3-3.7-5.4l-0.2,0.2c0,0,2.9,2.6,3.6,5.3
							c0.6,2.1,0.7,5.3,0.8,6.3c-0.1,0.1-0.1,0.1-0.1,0.1c-0.8,0.8,2.9,1.8,3.8,1.7C110.2,102.9,110.6,101.8,109.1,101z"/>
						<g>
							<path d="M93.5,76C93.3,76,93.3,76,93.5,76c-1,0-1.6-0.5-1.8-0.9c-0.3-0.4-0.4-0.8-0.4-0.8l0.3-0.1c0,0.1,0.3,1.4,2,1.5
								c0.7,0,1.1-0.2,1.5-0.8c0.2-0.4,0.3-0.9,0.3-0.9l0.3,0.1C95.5,74.1,95.2,76,93.5,76z"/>
						</g>
						<g>
							<path class="st2" d="M89.9,79.2l8.3-0.2c0,0-2.2,3.5-2.3,3.5s-3,0.4-3,0.4L89.9,79.2z"/>
							<path class="st3" d="M97.6,79L95,82.6c0.6-0.1,1-0.1,1.1-0.1s2.3-3.5,2.3-3.5H97.6z"/>
							<polygon class="st3" points="91.7,81.4 92.7,82.6 95.5,79.1 93.7,79.2 							"/>
							<path class="st2" d="M92.3,82.1c0,0,3.5-0.5,3.9-0.5s1.4,2.3,1.9,4.3s1.1,7.1,1,7.6c-0.1,0.4-5.4,5.3-5.6,5.4
								c-0.2,0-5.4-4-5.4-4.3c0-0.2,2.9-5.5,3.8-7.9C92.7,84.2,92.3,82.1,92.3,82.1z"/>
							<path class="st3" d="M96.9,82.5c-0.3-0.6-0.5-0.9-0.7-0.9c-0.4,0-3.9,0.5-3.9,0.5s0.3,1.9-0.4,4.2
								C93.2,85.4,95.5,83.7,96.9,82.5z"/>
							<path class="st3" d="M90.7,89c-0.7,1.6-1.7,3.5-2.3,4.6c2.5-1.6,7.9-5.3,9.7-7.1C98,86.3,98,86.1,98,85.9
								c-0.2-0.7-0.5-1.6-0.7-2.4C96,84.8,93.1,87.3,90.7,89z"/>
							<path class="st3" d="M91.7,97.6c1.5-1,5.5-3.5,7.3-5.9c-0.1-1.1-0.3-2.4-0.4-3.6c-2,1.9-6.6,6.2-9.5,7.4
								C89.7,96,90.8,96.8,91.7,97.6z"/>
						</g>
					</g>
				</g>
			</g>
			<path d="M334.9,36.9l-9.9-0.7c-0.5,0-0.8-0.5-0.8-0.9l0.3-3.8c0-0.5,0.5-0.8,0.9-0.8l9.9,0.7c0.5,0,0.8,0.5,0.8,0.9l-0.3,3.8
				C335.7,36.6,335.4,36.9,334.9,36.9z"/>
			<path d="M331.6,43.3L327,43c-0.4,0-0.7-0.3-0.7-0.7l0.6-7.7c0-0.4,0.3-0.7,0.7-0.7l4.6,0.3c0.4,0,0.7,0.3,0.7,0.7l-0.6,7.7
				C332.4,42.9,332.1,43.3,331.6,43.3z"/>
		</g>
	</g>
</g>
<g>
	<g>
		<path class="st4" d="M380.3,49.6v134.6c0,16.8,13.8,30.6,30.6,30.6h134.5c15.5,0,28.4-11.7,30.3-26.7V45.9
			c-1.9-15-14.8-26.7-30.3-26.7H410.9C394.1,19.1,380.3,32.9,380.3,49.6z"/>
	</g>
	<g>
		
			<linearGradient id="SVGID_1_" gradientUnits="userSpaceOnUse" x1="478" y1="813.6191" x2="478" y2="617.9186" gradientTransform="matrix(1 0 0 1 0 -604.0191)">
			<stop  offset="0" style="stop-color:#F7F7F7"/>
			<stop  offset="1" style="stop-color:#FFFFFF"/>
		</linearGradient>
		<path class="st5" d="M380.3,44.4V179c0,16.8,13.8,30.6,30.6,30.6h134.5c15.5,0,28.4-11.7,30.3-26.7V40.6
			c-1.9-15-14.8-26.7-30.3-26.7H410.9C394.1,13.8,380.3,27.6,380.3,44.4z"/>
	</g>
</g>
<g>
	<circle class="st6" cx="482.1" cy="109.7" r="67.2"/>
	<path class="st7" d="M516.8,66.9c-2.7-1.9-5.3-6.3-5.3-6.3s2.7,1.2,6.6,1.5c3.9,0.3,7.1-2.9,7.1-2.9s-3.4,0.2-7.4-0.9
		c-4-1-8.9-3.8-8.9-3.8c3.1-3.6,10.3-4.4,10.3-4.4s-2.7-1.8-8-2.2c-3.7-0.3-7.8,1.2-10,2.2c0.6-1.8,1.5-4.3,2.2-7.4
		c1.3-5.8,0.7-9.6,0.7-9.6c-3.9-1.6-7.7,1.5-7.7,1.5s1.4,1.7,1.9,5.2c0.3,2.2-0.1,6.2-0.4,8.9c-7.4-7.1-17.1-9.4-17.1-9.4
		c3.2,2.7,3.5,9.9,3.5,9.9c-5.5,0.6-17.4-4-17.4-4s-0.1,1.1,3.6,5.5s11.5,3.5,11.5,3.5s-1.9,1-4.2,4.7c-2.2,3.7-0.6,6.3-0.6,6
		s2.5-3.1,6.3-4.8c3.8-1.8,8.9-1.4,8.9-1.4c-0.2,10.6,8.8,14.4,8.8,14.4s0.8-2.1,1.1-4.1c0.4-2.1-0.8-9-0.8-9s3.5,5.5,7.9,7.9
		c4.4,2.5,11.8,4.5,11.8,4.5S519.5,68.9,516.8,66.9z"/>
	<g>
		<circle cx="514.6" cy="113.1" r="7.7"/>
		<circle cx="438.4" cy="97.7" r="7.7"/>
		<g>
			<path class="st8" d="M521.2,159.6c-21.6,0-39.1-17.6-39.1-39.1c0-21.6,17.6-39.1,39.1-39.1c21.6,0,39.1,17.6,39.1,39.1
				S542.8,159.6,521.2,159.6z M521.2,90.2c-16.7,0-30.3,13.6-30.3,30.3s13.6,30.3,30.3,30.3c16.7,0,30.3-13.6,30.3-30.3
				S537.9,90.2,521.2,90.2z"/>
		</g>
		<g>
			<path class="st8" d="M435.7,136.8c-21.6,0-39.1-17.6-39.1-39.1c0-21.6,17.6-39.1,39.1-39.1s39.1,17.6,39.1,39.1
				C474.8,119.3,457.3,136.8,435.7,136.8z M435.7,67.4c-16.7,0-30.3,13.6-30.3,30.3S419,128,435.7,128S466,114.4,466,97.7
				S452.4,67.4,435.7,67.4z"/>
		</g>
		<g>
			<path class="st8" d="M487,106.1c-4.4-9.6-14.1-5.7-14.5-5.6l-2.3-5.6c5.3-2.2,16.9-3.2,22.3,8.6L487,106.1z"/>
		</g>
		<circle class="st9" cx="474.4" cy="124.1" r="3.2"/>
		<path class="st10" d="M472.5,126.6c0.5,0.4,1.2,0.7,2,0.7c1.5,0,2.8-1.1,3.1-2.6c-0.5-0.4-1.2-0.7-2-0.7
			C474.1,124.1,472.8,125.2,472.5,126.6z"/>
	</g>
	<g>
		<path class="st11" d="M473.2,150.7c0,0,11.3,23.8,16.8,27.4l-7,13.3c0,0-17.8-3.5-25.6-10.2S462,150,462,150l8.2-2.2L473.2,150.7z
			"/>
		<path class="st12" d="M469,148.1l-7,1.8c0,0-0.9,1.7-2,4.3L469,148.1z"/>
		<g>
			<path class="st12" d="M481.5,166.6c-0.7-1.2-1.4-2.4-2-3.6c-6.2,6.9-13.4,15.7-17.7,21c1.1,0.6,2.3,1.2,3.6,1.8
				C471,178.9,476.8,172,481.5,166.6z"/>
			<path class="st12" d="M475.1,154.6c-0.9-1.7-1.5-3-1.8-3.6c-5.5,4.4-12.3,10-17.4,15.2c-0.6,2.4-1,4.7-1.1,6.9
				C459.2,167.8,467.7,160.5,475.1,154.6z"/>
		</g>
		<path class="st12" d="M474.3,189.1c1.4,0.4,2.8,0.8,4,1.1l9.8-13.9c-0.8-0.9-1.6-2-2.5-3.2L474.3,189.1z"/>
		<path class="st11" d="M456.5,138.6l21.9,6.4l-5.3,5.7L462,150C462,150,456.6,143.9,456.5,138.6z"/>
		<path class="st12" d="M461.1,148.8l10.7-5.7l-5.4-1.6l-7.6,4.1C459.7,146.9,460.5,148,461.1,148.8z"/>
	</g>
</g>
<text transform="matrix(1 0 0 1 14 34.1383)" class="st13 st14">Even more features available in App!</text>
</svg>
