<?xml version="1.0" encoding="utf-8"?>
<!-- Generator: Adobe Illustrator 18.0.0, SVG Export Plug-In . SVG Version: 6.00 Build 0)  -->
<!DOCTYPE svg PUBLIC "-//W3C//DTD SVG 1.1//EN" "http://www.w3.org/Graphics/SVG/1.1/DTD/svg11.dtd">
<svg version="1.1" id="Layer_1" xmlns="http://www.w3.org/2000/svg" xmlns:xlink="http://www.w3.org/1999/xlink" x="0px" y="0px"
	 viewBox="0 312 595.3 238" enable-background="new 0 312 595.3 238" xml:space="preserve">
<g>
	<g>
		<g>
			<g>
				<g>
					<g>
						<path d="M62.9,358.7c0,1-0.3,2-1,2.6c-0.7,0.7-1.6,1.1-2.6,1.1c-0.6,0-1.7-0.2-3.4-0.7c-1.6-0.5-3-0.7-4.1-0.7
							c-2.9,0-5.3,0-7,0c-1,0-1.5,0.1-1.7,0.2s-0.2,0.7-0.3,1.8c-0.2,1.5-0.7,3.8-1.3,6.8c-1.3,8.2-2,17.4-2,27.7
							c0,7,0.9,11.8,2.8,14.4v2.4c-1.3,0.6-2.3,0.9-3.1,0.9c-4.3,0-7.1-1.8-8.5-5.6c-0.6-1.8-0.9-5.3-0.9-10.5
							c0-6,0.1-10.6,0.4-13.9c0.1-1.5,0.4-4.9,1.1-10.5c0.6-4.3,0.8-7.7,0.8-10.5v-2.6c-1,0.1-2.8,0.2-5.5,0.7
							c-2.3,0.3-4,0.5-5.5,0.5c-4.7,0-7.1-1.3-7.1-3.7c0-1,0.3-1.6,1-1.8c1-1.3,6.3-2.4,16-3.4c7.5-0.7,13.5-1,18.2-1
							c3.2,0,6.1,0.3,8.5,1C61.2,355,62.9,356.6,62.9,358.7z"/>
						<path d="M188.4,355.3c0,0.8-0.3,1.5-0.9,2.1c-1,1-1.5,1.5-1.6,1.6c-0.4,0.6-0.8,2.2-1.3,4.7c-1.7,12.3-2.5,24.4-2.5,36.4
							c0,6.8,1.4,10.5,4,11.4v2.4c-0.8,1.5-2.1,2.3-3.8,2.3c-3.4,0-6.1-2.6-7.8-8c-1.3-3.8-2-7.7-2-11.8c0-9.1,0.2-16.7,0.8-22.8
							c-2.1,7.1-4,14.1-6.2,21.3c-3.8,11-7.4,16.4-11,16.4c-4,0-7.5-3.2-10.6-9.7c-2.9-5.9-6.3-15.6-10.5-29.4
							c-0.4,4-0.6,8.3-0.6,12.5c0,8.9,0.2,15.3,0.8,19.2c0.1,0.7,0.4,1.8,1.1,3.5c0.7,1.6,1,2.9,1,3.8c0,2-1.8,3-5.6,3
							c-4.4,0-6.6-5.3-6.6-15.8c0-4.3,0.2-10.7,0.8-19.1c0.6-8.5,0.8-14.8,0.8-19.1c0-0.5-0.2-1-0.8-1.5c-0.6-0.6-0.8-1-0.8-1.5
							c0-3.3,3.4-5.1,10.2-5.1c1.5,0,3.4,0.9,5.6,2.6c0.2,1.8,0.6,4.7,1,8.5c0.7,5.3,2.3,12.3,4.8,21c3.3,11.3,6.2,16.9,8.6,16.9
							c0.6,0,1.3-0.9,2.1-2.8c1.7-3.6,3.3-8.7,4.9-15.2c1.3-5.2,2.4-10.5,3.7-15.7c0.6-2.4,1.5-6,2.9-10.7c1.5-3.4,4.4-5.2,9-5.2
							c1.6,0,3.6,0.3,5.9,1C187,353,188.4,354.1,188.4,355.3z"/>
						<path d="M249,397.6c0,2.9-1.5,4.4-4.4,4.4c0.3,1.4,1,3.2,2.3,5.6c-0.1,1.3-0.7,2.4-1.8,3.2c-1.1,0.8-2.5,1.3-4,1.3
							c-1.3,0-2.6-0.3-4.3-1c-0.9-1.5-1.3-3.4-1.3-5.6c0-0.6,0-1.3,0.1-2.4c0.1-1,0.1-1.8,0.1-2.3c0,0.4-1.1,0.7-3.3,0.7
							c-3.8,0-8.3,0.1-13.5,0.5c-7.5,0.3-11.5,0.9-12.1,1.5c-0.7,0.7-1,3.9-1.3,9.7c-0.9,1.1-2.1,1.7-3.3,1.7
							c-1.5,0-2.9-0.6-4.4-1.5c-1.5-1-2.3-2.2-2.3-3.4c0-0.4,0.7-2.1,1.8-5.1c1.4-4.3,3.6-10.7,6.6-19.2
							c9.1-22.1,16.7-33.1,22.7-33.1c5.9,0,10.5,5.9,13.7,17.5c1.5,5.2,2.8,13.2,4,24.1c1.8,0.3,2.9,0.7,3.3,0.9
							C248.4,395.7,249,396.5,249,397.6z M234.7,394.2c-3-21-5.7-31.5-8-31.5c-1.8,0-5.2,4.9-10,14.8c-3.4,7.1-6.1,13.2-8,18.5
							c2.2-0.4,5.4-0.9,9.7-1.5C222.2,394,227.6,394,234.7,394.2z"/>
						<path d="M297.7,358.7c0,1-0.3,2-1,2.6c-0.7,0.7-1.6,1.1-2.6,1.1c-0.6,0-1.7-0.2-3.4-0.7c-1.6-0.5-3-0.7-4.1-0.7
							c-2.9,0-5.3,0-7,0c-1,0-1.5,0.1-1.7,0.2c-0.1,0.1-0.2,0.7-0.3,1.8c-0.2,1.5-0.7,3.8-1.3,6.8c-1.3,8.2-2,17.4-2,27.7
							c0,7,0.9,11.8,2.8,14.4v2.4c-1.3,0.6-2.3,0.9-3.1,0.9c-4.3,0-7.1-1.8-8.5-5.6c-0.6-1.8-0.9-5.3-0.9-10.5
							c0-6,0.1-10.6,0.4-13.9c0.1-1.5,0.4-4.9,1.1-10.5c0.6-4.3,0.8-7.7,0.8-10.5v-2.6c-1,0.1-2.8,0.2-5.5,0.7
							c-2.3,0.3-4,0.5-5.5,0.5c-4.7,0-7.1-1.3-7.1-3.7c0-1,0.3-1.6,1-1.8c1-1.3,6.3-2.4,16-3.4c7.5-0.7,13.5-1,18.2-1
							c3.2,0,6.1,0.3,8.5,1C295.9,355,297.7,356.6,297.7,358.7z"/>
						<path d="M352.3,383.1c0,8.7-2.4,16-7.2,22.1c-5.4,6.8-12.7,10.2-22.1,10.2c-2.6,0-5.4-0.5-8.5-1.4c-6.8-2-11.6-5.3-14.6-10
							c-2.5-4-3.8-9.6-3.8-16.4c0-8.9,2.4-16.8,7.2-23.6c5.5-7.9,13.1-12.1,22.6-12.1c8.3,0,14.9,3.5,19.9,10.5
							C350.2,368.4,352.3,375.3,352.3,383.1z M342.5,382.3c0-12.5-4.6-20-13.7-22.4c-1-0.2-2.1-0.3-3.2-0.3c-3.8,0-7.6,1.5-11.4,4.5
							c-6,4.8-9,13.5-9,26.1c0,1.1,0.2,2.8,0.8,4.8c1.1,4.6,2.9,7.9,5.2,10c2.6,2.4,6.5,3.6,11.6,3.6c6.9,0,12.1-3,15.7-9
							C341.1,394.8,342.5,389.1,342.5,382.3z"/>
					</g>
					<path d="M321.8,385L321.8,385c-1.8-0.2-3-1.8-2.8-3.7l1.3-9.4c0.2-1.8,1.8-3,3.7-2.8l0,0c1.8,0.2,3,1.8,2.8,3.7l-1.3,9.4
						C325.3,384,323.7,385.3,321.8,385z"/>
					<path d="M335,397.4L335,397.4c-1.4,1.1-3.4,0.9-4.6-0.5l-10.7-13.1c-1.1-1.4-0.9-3.4,0.5-4.6l0,0c1.4-1.1,3.4-0.9,4.6,0.5
						l10.7,13.1C336.5,394.3,336.4,396.4,335,397.4z"/>
					<g>
						<path d="M259.9,426.3c-0.5,0-1,0-1.6,0c-0.6,0-1.1,0-1.7,0.1c-0.6,0-1.1,0.1-1.6,0.1c-0.6,0.1-1,0.1-1.5,0.1
							c0.1-0.3,0.1-0.7,0.1-1c0-0.2-0.1-0.6-0.1-1c1.3,0,2.6,0.1,3.9,0.1s2.6,0.1,3.9,0.1s2.6,0,3.9-0.1c1.3,0,2.6-0.1,3.9-0.1
							c-0.1,0.4-0.1,0.7-0.1,1c0,0.2,0.1,0.6,0.1,1c-0.4-0.1-0.9-0.1-1.5-0.1c-0.6,0-1-0.1-1.6-0.1c-0.6,0-1.1-0.1-1.7-0.1
							s-1.1,0-1.6,0c-0.1,2.1-0.1,4.1-0.1,6.3v5.2c0,1.3,0,2.6,0.1,3.9c0.1,1.3,0.1,2.5,0.1,3.8c-0.5-0.1-1-0.1-1.5-0.1
							s-1,0-1.5,0.1c0.1-1.3,0.1-2.5,0.1-3.8c0.1-1.3,0.1-2.6,0.1-3.9v-5.2C260,430.5,260,428.4,259.9,426.3z"/>
						<path d="M272.5,428.6c-0.1-1.3-0.1-2.6-0.1-3.9c0.2,0,0.5,0.1,0.7,0.1c0.2,0,0.5,0.1,0.7,0.1c0.2,0,0.5,0,0.7-0.1
							c0.2,0,0.5-0.1,0.7-0.1c-0.1,1.3-0.1,2.6-0.1,3.9s-0.1,2.6-0.1,3.9v5.2c0,1.3,0,2.6,0.1,3.9c0.1,1.3,0.1,2.5,0.1,3.8
							c-0.5-0.1-1-0.1-1.5-0.1s-1,0-1.5,0.1c0.1-1.3,0.1-2.5,0.1-3.8c0.1-1.3,0.1-2.6,0.1-3.9v-5.2
							C272.6,431.2,272.6,430,272.5,428.6z"/>
						<path d="M287.2,432.7c1.4,2.6,2.9,5.4,4.5,8.3c0.1-0.4,0.5-0.9,0.9-1.6c0.4-0.7,0.8-1.5,1.3-2.4c0.5-0.9,1-2,1.6-3
							c0.6-1,1.1-2.2,1.8-3.2c0.6-1.1,1.3-2.2,1.8-3.2c0.6-1,1.1-2.1,1.6-3h0.4c0.2,2,0.4,3.8,0.7,5.6c0.1,1.8,0.4,3.6,0.6,5.3
							c0.1,1.7,0.4,3.5,0.6,5.2s0.4,3.4,0.7,5.1c-0.2-0.1-0.5-0.1-0.7-0.1c-0.2,0-0.5,0-0.7,0s-0.5,0-0.7,0c-0.2,0-0.5,0-0.7,0.1
							c-0.2-2.6-0.4-5.3-0.7-7.8c-0.2-2.5-0.5-5.2-0.8-7.7h-0.1c-1.4,2.5-2.8,5.1-4,7.6c-1.3,2.5-2.6,5.2-3.8,7.9H291
							c-1.3-2.5-2.4-5.1-3.8-7.7c-1.3-2.5-2.6-5.2-4-7.8l0,0c-0.1,1.3-0.3,2.6-0.5,4c-0.1,1.5-0.3,2.9-0.5,4.3
							c-0.1,1.4-0.2,2.8-0.3,4c-0.1,1.3-0.1,2.3-0.1,3.1c-0.3-0.1-0.7-0.1-1-0.1s-0.7,0-1,0.1c0.2-1.6,0.6-3.3,0.8-5.2
							c0.2-1.8,0.6-3.7,0.8-5.4c0.2-1.8,0.5-3.7,0.7-5.4c0.2-1.8,0.4-3.5,0.6-5.2h0.5C284.4,427.2,285.8,430,287.2,432.7z"/>
						<path d="M307.8,428.6c-0.1-1.3-0.1-2.6-0.1-3.9c0.9,0,1.8,0.1,2.6,0.1c0.9,0,1.8,0.1,2.6,0.1s1.8,0,2.6-0.1
							c0.9,0,1.8-0.1,2.6-0.1c-0.1,0.3-0.1,0.6-0.1,0.9s0,0.6,0.1,0.9c-0.7,0-1.3-0.1-1.8-0.1s-1.1-0.1-1.7-0.1
							c-0.6-0.1-1.3-0.1-2-0.1c-0.7,0-1.5-0.1-2.5-0.1c0,0.7-0.1,1.3-0.1,1.8s-0.1,1.3-0.1,2.1s0,1.5,0,2.3c0,0.7,0,1.3,0,1.7
							c0.9,0,1.7,0,2.4,0c0.7,0,1.4-0.1,2-0.1c0.6,0,1.1-0.1,1.6-0.1s1-0.1,1.4-0.1c-0.1,0.3-0.1,0.7-0.1,1c0,0.3,0,0.6,0.1,0.9
							c-0.5-0.1-1.1-0.1-1.8-0.1c-0.7,0-1.4-0.1-2.1-0.1s-1.4,0-2,0c-0.6,0-1.1,0-1.5,0c0,0.1,0,0.4,0,0.6c0,0.2,0,0.5,0,0.8v1.1
							v1.8c0,1.1,0,2.1,0,2.9c0,0.7,0,1.3,0.1,1.7c0.7,0,1.4,0,2.1,0c0.7,0,1.5,0,2.3-0.1c0.7,0,1.5-0.1,2.1-0.1
							c0.7-0.1,1.3-0.1,1.7-0.2c0,0.1-0.1,0.3-0.1,0.5c0,0.1,0,0.3,0,0.5c0,0.3,0,0.6,0.1,0.8c-0.9-0.1-1.8-0.1-2.6-0.1
							c-0.9,0-1.8,0-2.8,0c-1,0-1.8,0-2.8,0c-1,0-1.8,0-2.8,0.1c0.1-1.3,0.1-2.6,0.1-3.8c0.1-1.3,0.1-2.6,0.1-3.9v-5.2
							C307.9,431.2,307.8,429.9,307.8,428.6z"/>
						<path d="M323,432.5c0-1.3,0-2.6-0.1-3.9c-0.1-1.3-0.1-2.6-0.1-3.9c0.6,0,1.1,0.1,1.7,0.1s1.1,0.1,1.7,0.1s1.1,0,1.7-0.1
							c0.6-0.1,1.1-0.1,1.7-0.1c0.8,0,1.6,0.1,2.4,0.2c0.7,0.1,1.5,0.4,2.1,0.8c0.6,0.4,1,0.9,1.4,1.5c0.3,0.6,0.5,1.4,0.5,2.3
							c0,1-0.2,1.8-0.7,2.5c-0.4,0.7-1,1.3-1.5,1.7c-0.7,0.5-1.3,0.8-2.1,1c-0.7,0.2-1.4,0.4-2,0.5c0.2,0.3,0.6,0.7,1,1.3
							c0.4,0.6,0.9,1.1,1.4,1.8c0.5,0.7,1,1.3,1.6,2.1c0.6,0.7,1.1,1.4,1.6,2.1c0.5,0.7,1,1.3,1.5,1.8c0.5,0.6,0.8,1,1.1,1.3
							c-0.3-0.1-0.6-0.1-0.9-0.1s-0.6,0-0.9,0c-0.2,0-0.6,0-0.9,0c-0.3,0-0.6,0-0.9,0.1c-0.3-0.4-0.7-1-1.4-1.8
							c-0.7-0.8-1.3-1.8-2.1-2.6c-0.7-1-1.5-2-2.3-2.9c-0.8-1-1.5-1.8-2.1-2.4h-1.1v2.2c0,1.3,0,2.6,0.1,3.9
							c0.1,1.3,0.1,2.5,0.1,3.8c-0.5-0.1-1-0.1-1.5-0.1s-1,0-1.5,0.1c0.1-1.3,0.1-2.5,0.1-3.8c0.1-1.3,0.1-2.6,0.1-3.9v-5.4H323z
							 M325.5,434.2c0.2,0.1,0.6,0.1,0.9,0.1c0.3,0,0.7,0,1.1,0c0.7,0,1.3-0.1,2-0.2s1.3-0.4,1.8-0.7c0.6-0.3,1-0.8,1.4-1.4
							c0.4-0.6,0.6-1.4,0.6-2.3c0-0.8-0.1-1.5-0.4-2c-0.3-0.5-0.7-0.9-1.1-1.3c-0.5-0.3-1-0.5-1.5-0.7c-0.6-0.1-1-0.1-1.6-0.1
							c-0.7,0-1.3,0-1.8,0.1c-0.5,0-0.9,0.1-1.1,0.1c-0.1,1.1-0.1,2.2-0.1,3.2c0,1-0.1,2.2-0.1,3.2v1.8h0V434.2z"/>
						<path d="M341.5,442.7c0.2,0.4,0.6,0.7,1,1c0.4,0.3,0.8,0.6,1.4,0.7c0.5,0.1,1.1,0.3,1.8,0.3c0.7,0,1.3-0.1,1.8-0.3
							c0.6-0.2,1-0.6,1.4-1c0.4-0.4,0.7-0.9,0.9-1.4c0.1-0.6,0.3-1.1,0.3-1.7c0-0.9-0.2-1.6-0.7-2.2c-0.5-0.6-1-1-1.8-1.4
							c-0.7-0.3-1.5-0.7-2.3-1c-0.8-0.3-1.5-0.7-2.3-1.1c-0.7-0.5-1.3-1-1.8-1.7c-0.5-0.7-0.7-1.6-0.7-2.9c0-0.8,0.1-1.6,0.5-2.3
							c0.3-0.7,0.7-1.3,1.3-1.8c0.6-0.5,1.3-0.9,2.1-1.1c0.8-0.2,1.7-0.4,2.6-0.4c1,0,1.8,0.1,2.5,0.3c0.7,0.2,1.4,0.6,2,1
							c-0.1,0.3-0.3,0.7-0.5,1s-0.2,0.9-0.3,1.5h-0.3c-0.1-0.2-0.2-0.6-0.4-0.9c-0.1-0.3-0.4-0.7-0.7-0.9c-0.3-0.2-0.7-0.5-1-0.7
							c-0.4-0.1-0.9-0.3-1.5-0.3s-1,0.1-1.5,0.2s-0.9,0.4-1.3,0.7c-0.3,0.3-0.7,0.7-0.8,1.3c-0.1,0.5-0.3,1-0.3,1.5
							c0,1,0.2,1.7,0.7,2.3c0.5,0.6,1,1,1.8,1.4c0.7,0.4,1.5,0.7,2.3,1c0.8,0.3,1.5,0.7,2.3,1c0.7,0.4,1.3,1,1.8,1.6
							c0.5,0.7,0.7,1.5,0.7,2.6c0,0.9-0.1,1.8-0.5,2.6c-0.3,0.8-0.8,1.5-1.5,2.2c-0.7,0.7-1.4,1-2.4,1.4c-0.9,0.3-2,0.5-3.1,0.5
							c-1.3,0-2.3-0.1-3-0.5c-0.8-0.3-1.5-0.7-2-1.1c0.1-0.5,0.3-0.9,0.4-1.3c0.1-0.4,0.1-0.8,0.1-1.5h0.3
							C341,441.9,341.2,442.3,341.5,442.7z"/>
					</g>
					<g>
						<path d="M119.2,380.2c-0.8,0-1.5,0.7-1.5,1.5c0,0.6,0.3,1,0.7,1.3c-1.3,1.6-4.3,5.2-8.2,5.5v0.3c2.6-0.2,5.1-2.1,6.5-3.4
							c0.9-0.8,1.5-1.7,2-2.3c0.1,0,0.2,0.1,0.4,0.1c0.8,0,1.5-0.7,1.5-1.5C120.7,380.9,120,380.2,119.2,380.2z"/>
						<path fill="#E85858" d="M109.2,377.3c-2.2-7.1-6.6-11.1-10.9-13.3c-0.9,0.4-1.7,0.7-1.7,0.7c2.5,1,3.1,3.9,3.1,3.9
							c-5.6,1.1-9.6-1.1-9.6-1.1c0.7,2.1-0.6,4.2-0.6,4.2c-4.9-0.5-7.1-5.4-7.1-5.4c-2.6-0.1-5.7,4.1-5.7,4.1
							c-3.2-2.1-1.8-5.4-1.8-5.4c-2.5-0.1-3.9-1.1-4.6-1.7c-9.1,4.7-13.7,14.8-11.8,23.3c0.1,0.7,0.3,1.5,0.6,2.2
							c1.4,0.5,4.1,1.4,7.6,1.3l0.1,1.5c0,0-3.2,0.3-7-0.7c3.2,8,10.9,14.4,21,15.7c-0.1-1-0.7-2.3-2.5-3.7l1-1.3
							c0,0,2.9,1.5,3.5,5.2c2.4,0.1,5.2,0.1,7.8-0.2C107.4,404,114.4,394.1,109.2,377.3z"/>
						<circle cx="104.5" cy="382" r="2.2"/>
						<circle cx="77" cy="384.2" r="2.2"/>
						<path fill="#5C9F25" d="M95.5,365.5c-1.5-0.7-3.2-2.4-3.2-2.4s1.4,0.3,3.2,0c1.8-0.3,3-2.1,3-2.1s-1.5,0.4-3.6,0.4
							s-4.6-0.8-4.6-0.8c1-2.1,4.4-3.2,4.4-3.2s-1.5-0.6-4-0.1c-1.8,0.2-3.6,1.5-4.5,2.1c0.1-0.9,0.2-2.2,0.2-3.8
							c0-2.9-0.7-4.6-0.7-4.6c-2.1-0.3-3.5,1.5-3.5,1.5s0.9,0.7,1.5,2.3c0.4,1,0.7,2.9,0.7,4.2c-4.3-2.6-9.1-2.5-9.1-2.5
							c1.8,0.9,2.6,4.3,2.6,4.3c-2.5,0.9-8.6,0-8.6,0s0.1,0.6,2.3,2.2c2.2,1.7,5.8,0.4,5.8,0.4s-0.8,0.7-1.5,2.6
							c-0.7,2.1,0.4,3,0.4,2.9c0-0.1,0.9-1.7,2.4-2.9c1.6-1.3,4-1.6,4-1.6c1,5.1,5.8,5.9,5.8,5.9s0.1-1,0.1-2.1
							c-0.1-1-1.4-4.1-1.4-4.1s2.2,2.2,4.6,2.9s6.1,0.8,6.1,0.8S97.1,366.1,95.5,365.5z"/>
						<path d="M66,390.9v-0.3c-4.4,0.2-9.2-1.7-11.4-2.9c0-0.1,0.1-0.2,0.1-0.4c0-0.8-0.7-1.5-1.5-1.5c-0.8,0-1.5,0.7-1.5,1.5
							c0,0.9,0.7,1.5,1.5,1.5c0.6,0,1-0.3,1.3-0.8c2.1,1,6.5,2.9,10.7,2.9C65.5,390.9,65.8,390.9,66,390.9z"/>
						<path d="M81.2,409.1c1.8-4.2-1.8-6.5-1.8-6.5l-0.1,0.3c0,0,0.9,0.5,1.5,1.5c0.9,1.4,1,2.9,0.1,4.6c-1.5,3.3-3.6,4.6-4.2,4.9
							c-0.1,0-0.3,0-0.4,0.1c-0.3,0.1,0,1.4,1.5,2.4c1.5,1,2.9,0.7,3.2-0.7s-3-1.7-3-1.7s-0.2,0-0.6-0.1
							C78.3,413.3,79.9,411.9,81.2,409.1z"/>
						<path d="M109.1,413c-1-0.5-2.1-0.1-2.8,0.1c-0.1-1.3-0.2-4.2-0.8-6.3c-0.7-2.6-3.6-5.3-3.7-5.4l-0.2,0.2c0,0,2.9,2.6,3.6,5.3
							c0.6,2.1,0.7,5.3,0.8,6.3c-0.1,0.1-0.1,0.1-0.1,0.1c-0.8,0.8,2.9,1.8,3.8,1.7C110.2,414.9,110.6,413.8,109.1,413z"/>
						<g>
							<path d="M93.5,388C93.3,388,93.3,388,93.5,388c-1,0-1.6-0.5-1.8-0.9c-0.3-0.4-0.4-0.8-0.4-0.8l0.3-0.1c0,0.1,0.3,1.4,2,1.5
								c0.7,0,1.1-0.2,1.5-0.8c0.2-0.4,0.3-0.9,0.3-0.9l0.3,0.1C95.5,386.1,95.2,388,93.5,388z"/>
						</g>
						<g>
							<path fill="#EEB43A" d="M89.9,391.2l8.3-0.2c0,0-2.2,3.5-2.3,3.5s-3,0.4-3,0.4L89.9,391.2z"/>
							<path fill="#ED9700" d="M97.6,391l-2.6,3.6c0.6-0.1,1-0.1,1.1-0.1s2.3-3.5,2.3-3.5S97.6,391,97.6,391z"/>
							<polygon fill="#ED9700" points="91.7,393.4 92.7,394.6 95.5,391.1 93.7,391.2 							"/>
							<path fill="#EEB43A" d="M92.3,394.1c0,0,3.5-0.5,3.9-0.5c0.4,0,1.4,2.3,1.9,4.3c0.5,2,1.1,7.1,1,7.6
								c-0.1,0.4-5.4,5.3-5.6,5.4c-0.2,0-5.4-4-5.4-4.3c0-0.2,2.9-5.5,3.8-7.9C92.7,396.2,92.3,394.1,92.3,394.1z"/>
							<path fill="#ED9700" d="M96.9,394.5c-0.3-0.6-0.5-0.9-0.7-0.9c-0.4,0-3.9,0.5-3.9,0.5s0.3,1.9-0.4,4.2
								C93.2,397.4,95.5,395.7,96.9,394.5z"/>
							<path fill="#ED9700" d="M90.7,401c-0.7,1.6-1.7,3.5-2.3,4.6c2.5-1.6,7.9-5.3,9.7-7.1c-0.1-0.2-0.1-0.4-0.1-0.6
								c-0.2-0.7-0.5-1.6-0.7-2.4C96,396.8,93.1,399.3,90.7,401z"/>
							<path fill="#ED9700" d="M91.7,409.6c1.5-1,5.5-3.5,7.3-5.9c-0.1-1.1-0.3-2.4-0.4-3.6c-2,1.9-6.6,6.2-9.5,7.4
								C89.7,408,90.8,408.8,91.7,409.6z"/>
						</g>
					</g>
				</g>
			</g>
			<path d="M334.9,348.9l-9.9-0.7c-0.5,0-0.8-0.5-0.8-0.9l0.3-3.8c0-0.5,0.5-0.8,0.9-0.8l9.9,0.7c0.5,0,0.8,0.5,0.8,0.9l-0.3,3.8
				C335.7,348.6,335.4,348.9,334.9,348.9z"/>
			<path d="M331.6,355.3l-4.6-0.3c-0.4,0-0.7-0.3-0.7-0.7l0.6-7.7c0-0.4,0.3-0.7,0.7-0.7l4.6,0.3c0.4,0,0.7,0.3,0.7,0.7l-0.6,7.7
				C332.4,354.9,332.1,355.3,331.6,355.3z"/>
			<g>
				<path d="M18.5,334.8c0.4-0.1,1-0.1,1.5-0.2c0.5-0.1,1-0.1,1.6-0.1c0.5,0,1.1,0.1,1.6,0.1c0.6,0.1,1,0.3,1.5,0.5
					c0.4,0.3,0.8,0.7,1.1,1.1c0.3,0.5,0.4,1.1,0.4,1.8c0,0.7-0.1,1.3-0.4,1.8c-0.2,0.5-0.6,0.9-1,1.2c-0.4,0.3-0.9,0.5-1.4,0.7
					s-1,0.2-1.6,0.2c-0.1,0-0.1,0-0.2,0c-0.1,0-0.2,0-0.4,0s-0.2,0-0.4,0c-0.1,0-0.2,0-0.3,0v3.8h-2.1
					C18.5,345.8,18.5,334.8,18.5,334.8z M21.6,336.4c-0.2,0-0.4,0-0.6,0c-0.2,0-0.4,0-0.4,0.1v3.6c0.1,0,0.1,0,0.2,0
					c0.1,0,0.1,0,0.3,0c0.1,0,0.2,0,0.3,0c0.1,0,0.1,0,0.2,0c0.3,0,0.6,0,0.8-0.1c0.3-0.1,0.5-0.1,0.7-0.3s0.4-0.4,0.5-0.6
					c0.1-0.2,0.2-0.6,0.2-1c0-0.4-0.1-0.7-0.2-0.9c-0.1-0.2-0.3-0.4-0.5-0.5c-0.2-0.1-0.4-0.2-0.7-0.3
					C22.2,336.4,21.9,336.4,21.6,336.4z"/>
				<path d="M26.9,340.2c0-1.8,0.4-3.2,1.3-4.3c0.8-1,2-1.5,3.5-1.5c0.8,0,1.5,0.1,2.1,0.4s1.1,0.7,1.5,1.2c0.4,0.5,0.7,1.1,0.9,1.8
					c0.2,0.7,0.3,1.5,0.3,2.4c0,1.8-0.4,3.2-1.3,4.3s-2,1.5-3.5,1.5c-0.8,0-1.5-0.1-2.1-0.4c-0.6-0.3-1.1-0.7-1.5-1.2
					c-0.4-0.5-0.7-1.1-0.9-1.8C27,341.9,26.9,341.1,26.9,340.2z M29.2,340.2c0,0.6,0.1,1.1,0.1,1.5c0.1,0.4,0.2,0.9,0.4,1.2
					c0.2,0.4,0.4,0.6,0.7,0.8c0.3,0.2,0.7,0.3,1.1,0.3c0.7,0,1.4-0.3,1.8-0.9c0.4-0.6,0.7-1.5,0.7-2.9c0-0.5-0.1-1-0.1-1.5
					c-0.1-0.4-0.2-0.9-0.4-1.3c-0.2-0.4-0.4-0.6-0.7-0.8c-0.3-0.2-0.7-0.3-1.1-0.3c-0.7,0-1.4,0.3-1.8,1
					C29.4,338,29.2,338.9,29.2,340.2z"/>
				<path d="M45.3,345.3c-0.4,0.2-0.7,0.4-1.3,0.5c-0.5,0.1-1,0.1-1.6,0.1c-0.7,0-1.3-0.1-1.9-0.3s-1.1-0.5-1.5-1
					c-0.4-0.4-0.8-1-1.1-1.8c-0.3-0.7-0.4-1.6-0.4-2.6c0-1.1,0.1-2,0.4-2.7c0.3-0.7,0.7-1.3,1.2-1.8c0.5-0.4,1-0.7,1.6-1
					c0.6-0.2,1.2-0.3,1.8-0.3c0.7,0,1.2,0.1,1.6,0.1c0.4,0.1,0.8,0.2,1.1,0.3l-0.4,1.8c-0.2-0.1-0.5-0.2-0.9-0.2
					c-0.4-0.1-0.7-0.1-1.2-0.1c-0.9,0-1.5,0.3-2.1,1c-0.5,0.6-0.8,1.6-0.8,2.9c0,0.6,0.1,1.1,0.2,1.5c0.1,0.4,0.3,0.9,0.6,1.2
					c0.3,0.4,0.6,0.6,1,0.8c0.4,0.2,0.8,0.3,1.3,0.3c0.4,0,0.9-0.1,1.2-0.1c0.3-0.1,0.6-0.2,0.9-0.4L45.3,345.3z"/>
				<path d="M49.5,341.1h-0.6v4.7h-2.1v-11h2.1v4.9l0.5-0.2l3-4.6h2.4l-3.2,4.6l-0.9,0.6l0.9,0.6l3.7,5.2h-2.6L49.5,341.1z"/>
				<path d="M56.4,334.7H63v1.9h-4.4v2.6h4v1.9h-3.9v2.7h4.4v1.9h-6.6V334.7z"/>
				<path d="M72.6,336.6h-3.2v9.1h-2.1v-9.1H64v-1.9h8.6C72.6,334.7,72.6,336.6,72.6,336.6z"/>
			</g>
		</g>
	</g>
</g>
<g>
	<g>
		<path fill="#D6D6D6" d="M380.3,361.6v134.6c0,16.8,13.8,30.6,30.6,30.6h134.5c15.5,0,28.4-11.7,30.3-26.7V357.9
			c-1.9-15-14.8-26.7-30.3-26.7H410.9C394.1,331.1,380.3,344.9,380.3,361.6z"/>
	</g>
	<g>
		
			<linearGradient id="SVGID_1_" gradientUnits="userSpaceOnUse" x1="478.0746" y1="320.3171" x2="478.0746" y2="515.9854" gradientTransform="matrix(1 0 0 -1 0 841.8709)">
			<stop  offset="0" style="stop-color:#F7F7F7"/>
			<stop  offset="1" style="stop-color:#FFFFFF"/>
		</linearGradient>
		<path fill="url(#SVGID_1_)" d="M380.3,356.4V491c0,16.8,13.8,30.6,30.6,30.6h134.5c15.5,0,28.4-11.7,30.3-26.7V352.6
			c-1.9-15-14.8-26.7-30.3-26.7H410.9C394.1,325.8,380.3,339.6,380.3,356.4z"/>
	</g>
</g>
<g>
	<circle fill="#E85757" cx="482.1" cy="421.7" r="67.2"/>
	<path fill="#5C9F24" d="M516.8,378.9c-2.7-1.9-5.3-6.3-5.3-6.3s2.7,1.2,6.6,1.5c3.9,0.3,7.1-2.9,7.1-2.9s-3.4,0.2-7.4-0.9
		c-4-1-8.9-3.8-8.9-3.8c3.1-3.6,10.3-4.4,10.3-4.4s-2.7-1.8-8-2.2c-3.7-0.3-7.8,1.2-10,2.2c0.6-1.8,1.5-4.3,2.2-7.4
		c1.3-5.8,0.7-9.6,0.7-9.6c-3.9-1.6-7.7,1.5-7.7,1.5s1.4,1.7,1.9,5.2c0.3,2.2-0.1,6.2-0.4,8.9c-7.4-7.1-17.1-9.4-17.1-9.4
		c3.2,2.7,3.5,9.9,3.5,9.9c-5.5,0.6-17.4-4-17.4-4s-0.1,1.1,3.6,5.5c3.7,4.4,11.5,3.5,11.5,3.5s-1.9,1-4.2,4.7
		c-2.2,3.7-0.6,6.3-0.6,6s2.5-3.1,6.3-4.8c3.8-1.8,8.9-1.4,8.9-1.4c-0.2,10.6,8.8,14.4,8.8,14.4s0.8-2.1,1.1-4.1
		c0.4-2.1-0.8-9-0.8-9s3.5,5.5,7.9,7.9c4.4,2.5,11.8,4.5,11.8,4.5S519.5,380.9,516.8,378.9z"/>
	<g>
		<circle cx="514.6" cy="425.1" r="7.7"/>
		<circle cx="438.4" cy="409.7" r="7.7"/>
		<g>
			<path fill="#680404" d="M521.2,471.6c-21.6,0-39.1-17.6-39.1-39.1c0-21.6,17.6-39.1,39.1-39.1c21.6,0,39.1,17.6,39.1,39.1
				C560.3,454,542.8,471.6,521.2,471.6z M521.2,402.2c-16.7,0-30.3,13.6-30.3,30.3s13.6,30.3,30.3,30.3c16.7,0,30.3-13.6,30.3-30.3
				S537.9,402.2,521.2,402.2z"/>
		</g>
		<g>
			<path fill="#680404" d="M435.7,448.8c-21.6,0-39.1-17.6-39.1-39.1c0-21.6,17.6-39.1,39.1-39.1s39.1,17.6,39.1,39.1
				C474.8,431.3,457.3,448.8,435.7,448.8z M435.7,379.4c-16.7,0-30.3,13.6-30.3,30.3S419,440,435.7,440s30.3-13.6,30.3-30.3
				S452.4,379.4,435.7,379.4z"/>
		</g>
		<g>
			<path fill="#680404" d="M487,418.1c-4.4-9.6-14.1-5.7-14.5-5.6l-2.3-5.6c5.3-2.2,16.9-3.2,22.3,8.6L487,418.1z"/>
		</g>
		<circle fill="#890303" cx="474.4" cy="436.1" r="3.2"/>
		<path fill="#FF0000" d="M472.5,438.6c0.5,0.4,1.2,0.7,2,0.7c1.5,0,2.8-1.1,3.1-2.6c-0.5-0.4-1.2-0.7-2-0.7
			C474.1,436.1,472.8,437.2,472.5,438.6z"/>
	</g>
	<g>
		<path fill="#EDB339" d="M473.2,462.7c0,0,11.3,23.8,16.8,27.4l-7,13.3c0,0-17.8-3.5-25.6-10.2S462,462,462,462l8.2-2.2
			L473.2,462.7z"/>
		<path fill="#EC9532" d="M469,460.1l-7,1.8c0,0-0.9,1.7-2,4.3L469,460.1z"/>
		<g>
			<path fill="#EC9532" d="M481.5,478.6c-0.7-1.2-1.4-2.4-2-3.6c-6.2,6.9-13.4,15.7-17.7,21c1.1,0.6,2.3,1.2,3.6,1.8
				C471,490.9,476.8,484,481.5,478.6z"/>
			<path fill="#EC9532" d="M475.1,466.6c-0.9-1.7-1.5-3-1.8-3.6c-5.5,4.4-12.3,10-17.4,15.2c-0.6,2.4-1,4.7-1.1,6.9
				C459.2,479.8,467.7,472.5,475.1,466.6z"/>
		</g>
		<path fill="#EC9532" d="M474.3,501.1c1.4,0.4,2.8,0.8,4,1.1l9.8-13.9c-0.8-0.9-1.6-2-2.5-3.2L474.3,501.1z"/>
		<path fill="#EDB339" d="M456.5,450.6l21.9,6.4l-5.3,5.7L462,462C462,462,456.6,455.9,456.5,450.6z"/>
		<path fill="#EC9532" d="M461.1,460.8l10.7-5.7l-5.4-1.6l-7.6,4.1C459.7,458.9,460.5,460,461.1,460.8z"/>
	</g>
</g>
</svg>
