<?xml version="1.0" encoding="utf-8"?>
<!-- Generator: Adobe Illustrator 18.0.0, SVG Export Plug-In . SVG Version: 6.00 Build 0)  -->
<!DOCTYPE svg PUBLIC "-//W3C//DTD SVG 1.1//EN" "http://www.w3.org/Graphics/SVG/1.1/DTD/svg11.dtd">
<svg version="1.1" id="Layer_1" xmlns="http://www.w3.org/2000/svg" xmlns:xlink="http://www.w3.org/1999/xlink" x="0px" y="0px"
	 viewBox="0 299.6 595.3 238.8" enable-background="new 0 299.6 595.3 238.8" xml:space="preserve">
<g>
	<path fill="#FFEDE5" d="M556.4,538.4H38.8C17.5,538.4,0,520.9,0,499.6V338.4c0-21.4,17.5-38.8,38.8-38.8h517.6
		c21.4,0,38.8,17.5,38.8,38.8v161.1C595.3,520.9,577.8,538.4,556.4,538.4z"/>
	<g>
		<path fill="#C95B5E" d="M38.1,411.8c0-3.9,0-7.4-0.4-11.3c0-3.5-0.4-7.4-0.4-11.3c1.6,0,2.7,0.4,4.3,0.4c1.6,0,2.7,0,4.3,0
			c0.8,0,1.6,0,2.3,0c1.2,0,1.9,0,3.1,0s1.9,0,2.7,0s1.6,0,2.3,0c0.8,0,1.9,0,3.1,0s2.7,0.4,3.9,0.4c1.6,0.4,2.7,0.8,4.3,1.2
			c1.6,0.4,2.7,1.6,3.9,2.3c1.2,1.2,1.9,2.3,2.7,4.3c0.8,1.6,1.2,3.5,1.2,6.2c0,3.9-0.8,7-2.3,9.3s-3.5,4.3-6.2,5.4
			c-2.3,1.2-5,2.3-7.8,2.7c-2.7,0.4-5,0.8-7,0.8c-1.2,0-2.7,0-3.5,0c-1.2,0-2.3,0-3.5-0.4v4.7c0,3.9,0,7.4,0.4,11.3
			c0,3.5,0.4,7.4,0.4,10.9c-1.2,0-2.7,0-4.3,0s-2.7,0-4.3,0c0-3.5,0.4-7.4,0.4-10.9c0-3.5,0.4-7.4,0.4-11.3
			C38.1,426.6,38.1,411.8,38.1,411.8z M45,418c1.9,0.4,3.9,0.8,6.2,0.8c1.9,0,3.5-0.4,5.4-0.8c1.9-0.4,3.5-1.2,5-2.3
			c1.6-1.2,2.7-2.7,3.9-4.3c1.2-1.9,1.6-4.3,1.6-7.4c0-2.3-0.4-4.7-1.2-6.2c-0.8-1.6-1.6-2.7-2.7-3.5c-1.2-0.8-2.7-1.6-4.7-1.9
			s-3.9-0.4-6.2-0.4h-7.8v26H45z"/>
		<path fill="#C95B5E" d="M81.2,419.2c0-5,0.8-9.3,2.3-13.2c1.6-3.9,3.9-7,6.6-9.7c2.7-2.7,6.2-4.7,10.1-6.2
			c3.9-1.6,8.2-1.9,13.2-1.9c4.7,0,9.3,0.8,13.2,1.9c3.9,1.6,7.4,3.5,10.1,6.2c2.7,2.7,5,5.8,6.6,9.7c1.6,3.9,2.3,8.2,2.3,13.2
			s-0.8,9.3-2.3,13.2c-1.6,3.9-3.9,7-6.6,9.7c-2.7,2.7-6.2,4.7-10.1,5.8c-3.9,1.2-8.2,1.9-13.2,1.9c-4.7,0-8.9-0.8-13.2-1.9
			c-3.9-1.2-7.4-3.1-10.1-5.8c-2.7-2.7-5-5.8-6.6-9.7C81.9,428.5,81.2,423.9,81.2,419.2z M137.5,419.2c0-4.7-0.8-8.9-1.9-12.4
			c-1.2-3.5-2.7-6.2-5-8.5c-2.3-2.3-4.7-3.9-7.8-5c-2.7-1.2-6.2-1.6-9.3-1.6c-3.5,0-6.6,0.4-9.3,1.6c-2.7,1.2-5.4,2.7-7.8,5
			s-3.9,5-5,8.5c-1.2,3.5-1.9,7.8-1.9,12.4s0.8,8.9,1.9,12.4c1.2,3.5,2.7,6.2,5,8.5c2.3,2.3,4.7,3.9,7.8,5c2.7,1.2,6.2,1.6,9.3,1.6
			c3.5,0,6.6-0.4,9.3-1.6c2.7-1.2,5.4-2.7,7.8-5c2.3-2.3,3.9-5,5-8.5S137.5,423.9,137.5,419.2z"/>
		<path fill="#C95B5E" d="M175.5,412.2c3.9,7.8,8.2,15.5,12.8,23.7c0.4-1.2,1.6-2.7,2.3-4.7c1.2-1.9,2.3-4.3,3.9-7
			c1.6-2.7,3.1-5.4,4.7-8.5c1.6-3.1,3.5-6.2,5-9.3c1.6-3.1,3.5-6.2,5-9.3c1.6-3.1,3.1-5.8,4.7-8.5h1.2c0.8,5.4,1.2,10.9,1.9,15.9
			c0.4,5,1.2,10.1,1.6,15.1c0.4,5,1.2,9.7,1.6,14.8c0.4,5,1.2,9.7,1.9,14.4c-0.8,0-1.6,0-1.9,0s-1.2,0-1.9,0c-0.8,0-1.6,0-1.9,0
			s-1.2,0-1.9,0c-0.8-7.8-1.2-15.1-1.9-22.1c-0.8-7.4-1.6-14.4-2.3-22.1l0,0c-3.9,7.4-7.8,14.4-11.6,21.7c-3.9,7-7.4,14.8-10.9,22.5
			h-0.8c-3.5-7.4-7-14.4-10.9-21.7c-3.9-7.4-7.4-14.8-11.3-22.1l0,0c-0.4,3.5-0.8,7.4-1.2,11.6s-0.8,8.2-1.2,12.4
			c-0.4,3.9-0.8,7.8-1.2,11.6c-0.4,3.5-0.4,6.6-0.4,8.9c-0.8,0-1.9,0-3.1,0c-1.2,0-1.9,0-3.1,0c0.8-4.7,1.6-9.7,2.3-14.8
			s1.6-10.5,2.3-15.5c0.8-5,1.6-10.5,1.9-15.5c0.8-5,1.2-10.1,1.6-14.4h1.6C167.4,396.3,171.2,404.4,175.5,412.2z"/>
		<path fill="#C95B5E" d="M229.9,419.2c0-5,0.8-9.3,2.3-13.2c1.6-3.9,3.9-7,6.6-9.7c2.7-2.7,6.2-4.7,10.1-6.2
			c3.9-1.6,8.2-1.9,13.2-1.9c4.7,0,9.3,0.8,13.2,1.9c3.9,1.6,7.4,3.5,10.1,6.2c2.7,2.7,5,5.8,6.6,9.7c1.6,3.9,2.3,8.2,2.3,13.2
			s-0.8,9.3-2.3,13.2c-1.6,3.9-3.9,7-6.6,9.7c-2.7,2.7-6.2,4.7-10.1,5.8c-3.9,1.2-8.2,1.9-13.2,1.9c-4.7,0-8.9-0.8-13.2-1.9
			c-3.9-1.2-7.4-3.1-10.1-5.8c-2.7-2.7-5-5.8-6.6-9.7C230.7,428.5,229.9,423.9,229.9,419.2z M285.8,419.2c0-4.7-0.8-8.9-1.9-12.4
			c-1.2-3.5-2.7-6.2-5-8.5c-2.3-2.3-4.7-3.9-7.8-5c-2.7-1.2-6.2-1.6-9.3-1.6c-3.5,0-6.6,0.4-9.3,1.6c-2.7,1.2-5.4,2.7-7.8,5
			c-2.3,2.3-3.9,5-5,8.5c-1.2,3.5-1.9,7.8-1.9,12.4s0.8,8.9,1.9,12.4s2.7,6.2,5,8.5c2.3,2.3,4.7,3.9,7.8,5c2.7,1.2,6.2,1.6,9.3,1.6
			c3.5,0,6.6-0.4,9.3-1.6c2.7-1.2,5.4-2.7,7.8-5c2.3-2.3,3.9-5,5-8.5C285.4,428.1,285.8,423.9,285.8,419.2z"/>
		<path fill="#C95B5E" d="M306.4,411.8c0-3.9,0-7.4-0.4-11.3c0-3.5-0.4-7.4-0.4-11.3c2.3,0,4.3,0.4,6.6,0.4c2.3,0,4.3,0,6.6,0
			s4.3,0,6.6-0.4c2.3,0,4.3-0.4,6.6-0.4c5,0,9.3,0.8,12.8,1.9c3.5,1.2,6.6,3.1,8.9,5.8c2.3,2.3,3.9,5.4,5,8.9
			c1.2,3.5,1.6,7.4,1.6,12c0,5.8-1.2,10.5-3.1,14.4c-1.9,3.9-4.7,7-7.8,9.7c-3.1,2.3-6.6,4.3-10.1,5c-3.9,1.2-7.4,1.6-10.5,1.6
			c-1.9,0-3.9,0-5.8,0c-1.9,0-3.9,0-5.8,0s-3.9,0-5.8,0s-3.9,0-5.8,0c0-3.5,0.4-7.4,0.4-10.9s0.4-7.4,0.4-11.3V411.8z M313.4,426.6
			c0,6.2,0,12.4,0.4,18.3c1.2,0.4,2.7,0.4,5,0.8c1.9,0,4.3,0.4,6.2,0.4c3.1,0,6.2-0.4,9.3-1.2c3.1-0.8,5.8-2.3,8.5-4.3
			c2.3-1.9,4.7-5,6.2-8.5c1.6-3.5,2.3-8.2,2.3-14c0-5-0.8-8.9-1.9-12.4c-1.2-3.1-3.1-5.8-5-7.8c-2.3-1.9-4.7-3.1-7.8-3.9
			c-3.1-0.8-6.2-1.2-9.7-1.2c-2.7,0-5,0-7.4,0.4c-2.3,0.4-4.3,0.4-6.2,0.8c0,2.7-0.4,5.8-0.4,8.5c0,3.1,0,6.2,0,9.3v14.8H313.4z"/>
		<path fill="#C95B5E" d="M368.9,419.2c0-5,0.8-9.3,2.3-13.2c1.6-3.9,3.9-7,6.6-9.7c2.7-2.7,6.2-4.7,10.1-6.2
			c3.9-1.6,8.2-1.9,13.2-1.9c4.7,0,9.3,0.8,13.2,1.9c3.9,1.6,7.4,3.5,10.1,6.2c2.7,2.7,5,5.8,6.6,9.7c1.6,3.9,2.3,8.2,2.3,13.2
			s-0.8,9.3-2.3,13.2c-1.6,3.9-3.9,7-6.6,9.7c-2.7,2.7-6.2,4.7-10.1,5.8c-3.9,1.2-8.2,1.9-13.2,1.9c-4.7,0-8.9-0.8-13.2-1.9
			c-3.9-1.2-7.4-3.1-10.1-5.8c-2.7-2.7-5-5.8-6.6-9.7C369.7,428.5,368.9,423.9,368.9,419.2z M424.8,419.2c0-4.7-0.8-8.9-1.9-12.4
			c-1.2-3.5-2.7-6.2-5-8.5c-2.3-2.3-4.7-3.9-7.8-5c-2.7-1.2-6.2-1.6-9.3-1.6c-3.5,0-6.6,0.4-9.3,1.6c-2.7,1.2-5.4,2.7-7.8,5
			s-3.9,5-5,8.5c-1.2,3.5-1.9,7.8-1.9,12.4s0.8,8.9,1.9,12.4s2.7,6.2,5,8.5c2.3,2.3,4.7,3.9,7.8,5c2.7,1.2,6.2,1.6,9.3,1.6
			c3.5,0,6.6-0.4,9.3-1.6c2.7-1.2,5.4-2.7,7.8-5c2.3-2.3,3.9-5,5-8.5C424.4,428.1,424.8,423.9,424.8,419.2z"/>
		<path fill="#C95B5E" d="M445.4,411.8c0-3.9,0-7.4-0.4-11.3c0-3.5-0.4-7.4-0.4-11.3c1.6,0,3.5,0.4,5,0.4s3.1,0,5,0
			c1.6,0,3.5,0,5-0.4c1.6,0,3.1-0.4,5-0.4c2.3,0,4.7,0.4,7,0.8c2.3,0.4,4.3,1.2,5.8,2.3c1.6,1.2,3.1,2.3,3.9,4.3
			c0.8,1.6,1.6,3.9,1.6,6.6c0,2.7-0.8,5-1.9,7c-1.2,1.9-2.7,3.5-4.7,5c-1.9,1.2-3.9,2.3-5.8,3.1c-1.9,0.8-3.9,1.2-5.4,1.6
			c0.8,0.8,1.6,1.9,2.7,3.5c1.2,1.6,2.7,3.1,3.9,5c1.6,1.9,3.1,3.9,4.7,5.8c1.6,1.9,3.1,3.9,4.7,5.8s2.7,3.5,4.3,5
			c1.2,1.6,2.3,2.7,3.1,3.5c-0.8,0-1.6,0-2.7,0c-0.8,0-1.6,0-2.7,0c-0.8,0-1.6,0-2.3,0s-1.6,0-2.3,0c-0.8-1.2-2.3-3.1-3.9-5.4
			c-1.9-2.3-3.9-5-5.8-7.8s-4.3-5.4-6.6-8.2c-2.3-2.7-4.3-5-6.2-7h-3.1v6.2c0,3.9,0,7.4,0.4,11.3c0,3.5,0.4,7.4,0.4,10.9
			c-1.2,0-2.7,0-4.3,0s-2.7,0-4.3,0c0-3.5,0.4-7.4,0.4-10.9s0.4-7.4,0.4-11.3v-14.4H445.4z M452.4,416.5c0.8,0,1.6,0.4,2.7,0.4
			c0.8,0,1.9,0,3.1,0c1.9,0,3.5-0.4,5.4-0.8c1.9-0.4,3.9-1.2,5.4-1.9c1.6-1.2,3.1-2.3,3.9-3.9c1.2-1.6,1.6-3.9,1.6-6.6
			c0-2.3-0.4-4.3-1.2-5.4c-0.8-1.6-1.9-2.7-3.1-3.5c-1.2-0.8-2.7-1.6-4.3-1.9s-3.1-0.4-4.7-0.4c-1.9,0-3.5,0-5,0
			c-1.2,0-2.3,0-3.5,0.4c0,3.1-0.4,6.2-0.4,9.3s0,6.2,0,9.3V416.5z"/>
		<path fill="#C95B5E" d="M493.2,419.2c0-5,0.8-9.3,2.3-13.2c1.6-3.9,3.9-7,6.6-9.7c2.7-2.7,6.2-4.7,10.1-6.2
			c3.9-1.6,8.2-1.9,13.2-1.9c4.7,0,9.3,0.8,13.2,1.9c3.9,1.6,7.4,3.5,10.1,6.2c2.7,2.7,5,5.8,6.6,9.7c1.6,3.9,2.3,8.2,2.3,13.2
			s-0.8,9.3-2.3,13.2c-1.6,3.9-3.9,7-6.6,9.7c-2.7,2.7-6.2,4.7-10.1,5.8c-3.9,1.2-8.2,1.9-13.2,1.9c-4.7,0-8.9-0.8-13.2-1.9
			c-3.9-1.2-7.4-3.1-10.1-5.8c-2.7-2.7-5-5.8-6.6-9.7C494.3,428.5,493.2,423.9,493.2,419.2z M549.5,419.2c0-4.7-0.8-8.9-1.9-12.4
			c-1.2-3.5-2.7-6.2-5-8.5c-2.3-2.3-4.7-3.9-7.8-5c-2.7-1.2-6.2-1.6-9.3-1.6c-3.5,0-6.6,0.4-9.3,1.6s-5.4,2.7-7.8,5
			c-2.3,2.3-3.9,5-5,8.5c-1.2,3.5-1.9,7.8-1.9,12.4s0.8,8.9,1.9,12.4s2.7,6.2,5,8.5c2.3,2.3,4.7,3.9,7.8,5c2.7,1.2,6.2,1.6,9.3,1.6
			c3.5,0,6.6-0.4,9.3-1.6c2.7-1.2,5.4-2.7,7.8-5c2.3-2.3,3.9-5,5-8.5C549.1,428.1,549.5,423.9,549.5,419.2z"/>
	</g>
</g>
</svg>
