<?xml version="1.0" encoding="utf-8"?>
<!-- Generator: Adobe Illustrator 18.0.0, SVG Export Plug-In . SVG Version: 6.00 Build 0)  -->
<!DOCTYPE svg PUBLIC "-//W3C//DTD SVG 1.1//EN" "http://www.w3.org/Graphics/SVG/1.1/DTD/svg11.dtd">
<svg version="1.1" id="Layer_2" xmlns="http://www.w3.org/2000/svg" xmlns:xlink="http://www.w3.org/1999/xlink" x="0px" y="0px"
	 viewBox="0 0 153.3 62.5" enable-background="new 0 0 153.3 62.5" xml:space="preserve">
<g>
	<path fill="#FFEDE5" d="M143.3,61.5H10c-5.5,0-10-4.5-10-10V10C0,4.5,4.5,0,10,0h133.3c5.5,0,10,4.5,10,10v41.5
		C153.3,57,148.8,61.5,143.3,61.5z"/>
	<g>
		<path fill="#C95B5E" d="M23.1,26.5c0.2,0.3,0.4,0.5,0.7,0.7c0.3,0.2,0.6,0.4,1,0.5c0.4,0.1,0.8,0.2,1.3,0.2c0.5,0,0.9-0.1,1.3-0.3
			c0.4-0.2,0.7-0.4,1-0.7c0.3-0.3,0.5-0.6,0.6-1c0.1-0.4,0.2-0.8,0.2-1.3c0-0.7-0.2-1.2-0.5-1.6c-0.3-0.4-0.8-0.7-1.3-1
			c-0.5-0.3-1.1-0.5-1.7-0.7c-0.6-0.2-1.2-0.5-1.7-0.8c-0.5-0.3-1-0.8-1.3-1.3c-0.3-0.5-0.5-1.2-0.5-2.1c0-0.6,0.1-1.2,0.3-1.7
			c0.2-0.5,0.5-1,1-1.3c0.4-0.4,0.9-0.7,1.5-0.9c0.6-0.2,1.3-0.3,2-0.3c0.7,0,1.3,0.1,1.8,0.3c0.5,0.2,1,0.4,1.4,0.8
			c-0.1,0.3-0.2,0.5-0.3,0.8c-0.1,0.3-0.2,0.6-0.3,1.1h-0.3c-0.1-0.2-0.2-0.4-0.3-0.7c-0.1-0.2-0.3-0.5-0.5-0.7
			c-0.2-0.2-0.5-0.4-0.8-0.5c-0.3-0.1-0.7-0.2-1.1-0.2c-0.4,0-0.8,0.1-1.1,0.2s-0.7,0.3-0.9,0.6c-0.3,0.2-0.5,0.5-0.6,0.9
			s-0.2,0.7-0.2,1.1c0,0.7,0.2,1.2,0.5,1.6c0.3,0.4,0.8,0.7,1.3,1s1.1,0.5,1.7,0.7s1.2,0.5,1.7,0.8c0.5,0.3,1,0.7,1.3,1.2
			c0.3,0.5,0.5,1.1,0.5,2c0,0.7-0.1,1.3-0.4,1.9c-0.2,0.6-0.6,1.1-1.1,1.6c-0.5,0.5-1,0.8-1.7,1c-0.7,0.2-1.4,0.4-2.3,0.4
			c-0.9,0-1.7-0.1-2.2-0.4c-0.6-0.2-1-0.5-1.4-0.8c0.1-0.3,0.2-0.6,0.3-0.9c0.1-0.3,0.1-0.6,0.1-1.1h0.3
			C22.8,26,22.9,26.2,23.1,26.5z"/>
		<path fill="#C95B5E" d="M45.3,16.2c0-0.9-0.1-1.9-0.1-2.9c0.2,0,0.4,0.1,0.6,0.1c0.2,0,0.4,0,0.5,0c0.2,0,0.4,0,0.5,0
			c0.2,0,0.4,0,0.6-0.1c0,1-0.1,1.9-0.1,2.9c0,0.9-0.1,1.9-0.1,2.9v3.8c0,1,0,1.9,0.1,2.9c0,0.9,0.1,1.9,0.1,2.8c-0.3,0-0.7,0-1.1,0
			c-0.4,0-0.7,0-1.1,0c0-0.9,0.1-1.9,0.1-2.8c0-0.9,0.1-1.9,0.1-2.9v-2c-0.8,0-1.6,0-2.3,0c-0.7,0-1.5,0-2.3,0c-0.8,0-1.6,0-2.3,0
			c-0.7,0-1.5,0-2.3,0v2c0,1,0,1.9,0.1,2.9c0,0.9,0.1,1.9,0.1,2.8c-0.3,0-0.7,0-1.1,0c-0.4,0-0.7,0-1.1,0c0-0.9,0.1-1.9,0.1-2.8
			c0-0.9,0.1-1.9,0.1-2.9v-3.8c0-1,0-1.9-0.1-2.9c0-0.9-0.1-1.9-0.1-2.9c0.2,0,0.4,0.1,0.6,0.1c0.2,0,0.4,0,0.5,0c0.2,0,0.4,0,0.5,0
			c0.2,0,0.4,0,0.6-0.1c0,1-0.1,1.9-0.1,2.9c0,0.9-0.1,1.9-0.1,2.9v0.8c0.8,0,1.6,0,2.3,0c0.7,0,1.5,0,2.3,0c0.8,0,1.6,0,2.3,0
			c0.7,0,1.5,0,2.3,0v-0.8C45.3,18.1,45.3,17.1,45.3,16.2z"/>
		<path fill="#C95B5E" d="M50.3,21c0-1.3,0.2-2.4,0.6-3.4c0.4-1,1-1.8,1.7-2.5c0.7-0.7,1.6-1.2,2.6-1.6c1-0.4,2.1-0.5,3.4-0.5
			c1.2,0,2.4,0.2,3.4,0.5c1,0.4,1.9,0.9,2.6,1.6c0.7,0.7,1.3,1.5,1.7,2.5s0.6,2.1,0.6,3.4c0,1.3-0.2,2.4-0.6,3.4
			c-0.4,1-1,1.8-1.7,2.5C63.9,27.5,63,28,62,28.4c-1,0.3-2.1,0.5-3.4,0.5c-1.2,0-2.3-0.2-3.4-0.5c-1-0.3-1.9-0.8-2.6-1.5
			c-0.7-0.7-1.3-1.5-1.7-2.5C50.5,23.4,50.3,22.2,50.3,21z M64.7,21c0-1.2-0.2-2.3-0.5-3.2c-0.3-0.9-0.7-1.6-1.3-2.2
			c-0.6-0.6-1.2-1-2-1.3c-0.7-0.3-1.6-0.4-2.4-0.4c-0.9,0-1.7,0.1-2.4,0.4s-1.4,0.7-2,1.3c-0.6,0.6-1,1.3-1.3,2.2
			c-0.3,0.9-0.5,2-0.5,3.2c0,1.2,0.2,2.3,0.5,3.2c0.3,0.9,0.7,1.6,1.3,2.2c0.6,0.6,1.2,1,2,1.3c0.7,0.3,1.6,0.4,2.4,0.4
			c0.9,0,1.7-0.1,2.4-0.4c0.7-0.3,1.4-0.7,2-1.3c0.6-0.6,1-1.3,1.3-2.2C64.6,23.3,64.7,22.2,64.7,21z"/>
		<path fill="#C95B5E" d="M70,19.1c0-1,0-1.9-0.1-2.9c0-0.9-0.1-1.9-0.1-2.9c0.4,0,0.9,0.1,1.3,0.1c0.4,0,0.8,0,1.3,0
			c0.4,0,0.9,0,1.3-0.1c0.4,0,0.8-0.1,1.3-0.1c0.6,0,1.2,0.1,1.8,0.2c0.6,0.1,1.1,0.3,1.5,0.6c0.4,0.3,0.8,0.6,1,1.1
			c0.2,0.4,0.4,1,0.4,1.7c0,0.7-0.2,1.3-0.5,1.8c-0.3,0.5-0.7,0.9-1.2,1.3c-0.5,0.3-1,0.6-1.5,0.8c-0.5,0.2-1,0.3-1.4,0.4
			c0.2,0.2,0.4,0.5,0.7,0.9c0.3,0.4,0.7,0.8,1,1.3c0.4,0.5,0.8,1,1.2,1.5c0.4,0.5,0.8,1,1.2,1.5c0.4,0.5,0.7,0.9,1.1,1.3
			c0.3,0.4,0.6,0.7,0.8,0.9c-0.2,0-0.4,0-0.7,0c-0.2,0-0.4,0-0.7,0c-0.2,0-0.4,0-0.6,0c-0.2,0-0.4,0-0.6,0c-0.2-0.3-0.6-0.8-1-1.4
			c-0.5-0.6-1-1.3-1.5-2c-0.5-0.7-1.1-1.4-1.7-2.1c-0.6-0.7-1.1-1.3-1.6-1.8h-0.8v1.6c0,1,0,1.9,0.1,2.9c0,0.9,0.1,1.9,0.1,2.8
			c-0.3,0-0.7,0-1.1,0c-0.4,0-0.7,0-1.1,0c0-0.9,0.1-1.9,0.1-2.8c0-0.9,0.1-1.9,0.1-2.9V19.1z M71.9,20.3c0.2,0,0.4,0.1,0.7,0.1
			c0.2,0,0.5,0,0.8,0c0.5,0,0.9-0.1,1.4-0.2c0.5-0.1,1-0.3,1.4-0.5c0.4-0.3,0.8-0.6,1-1c0.3-0.4,0.4-1,0.4-1.7
			c0-0.6-0.1-1.1-0.3-1.4c-0.2-0.4-0.5-0.7-0.8-0.9c-0.3-0.2-0.7-0.4-1.1-0.5c-0.4-0.1-0.8-0.1-1.2-0.1c-0.5,0-0.9,0-1.3,0
			s-0.6,0-0.9,0.1c0,0.8-0.1,1.6-0.1,2.4c0,0.8,0,1.6,0,2.4V20.3z"/>
		<path fill="#C95B5E" d="M86.2,14.5c-0.4,0-0.8,0-1.2,0c-0.4,0-0.8,0-1.3,0c-0.4,0-0.8,0-1.2,0.1c-0.4,0-0.7,0.1-1.1,0.1
			c0.1-0.3,0.1-0.5,0.1-0.7c0-0.2,0-0.4-0.1-0.7c1,0,1.9,0.1,2.9,0.1c0.9,0,1.9,0,2.9,0c1,0,1.9,0,2.9,0c0.9,0,1.9,0,2.9-0.1
			c-0.1,0.3-0.1,0.5-0.1,0.7c0,0.2,0,0.4,0.1,0.7c-0.3,0-0.7-0.1-1.1-0.1c-0.4,0-0.8-0.1-1.2-0.1c-0.4,0-0.8,0-1.3,0
			c-0.4,0-0.8,0-1.2,0c0,1.5-0.1,3.1-0.1,4.6v3.8c0,1,0,1.9,0.1,2.9c0,0.9,0.1,1.9,0.1,2.8c-0.3,0-0.7,0-1.1,0c-0.4,0-0.7,0-1.1,0
			c0-0.9,0.1-1.9,0.1-2.8c0-0.9,0.1-1.9,0.1-2.9v-3.8C86.3,17.5,86.3,16,86.2,14.5z"/>
		<path fill="#C95B5E" d="M67.1,38.9c0-1,0-1.9-0.1-2.9s-0.1-1.9-0.1-2.8c0.4,0,0.8,0.1,1.2,0.1c0.4,0,0.8,0,1.2,0
			c0.4,0,0.8,0,1.2-0.1c0.4,0,0.8-0.1,1.2-0.1c0.6,0,1.2,0,1.8,0.1c0.6,0.1,1.1,0.3,1.5,0.5c0.4,0.2,0.8,0.6,1,1
			c0.3,0.4,0.4,0.9,0.4,1.6c0,1.1-0.3,2-1,2.6c-0.7,0.6-1.6,1.1-2.7,1.3v0c1.3,0.1,2.4,0.4,3.1,1c0.8,0.6,1.1,1.5,1.1,2.8
			c0,0.8-0.2,1.5-0.5,2.1c-0.3,0.6-0.8,1-1.3,1.4c-0.5,0.3-1.2,0.6-1.8,0.7c-0.7,0.1-1.3,0.2-2,0.2c-0.4,0-0.7,0-1.1,0
			c-0.4,0-0.7,0-1.1,0c-0.4,0-0.7,0-1.1,0c-0.4,0-0.7,0-1.1,0c0-0.9,0.1-1.9,0.1-2.8c0-0.9,0.1-1.9,0.1-2.9V38.9z M70.1,40
			c0.5,0,1-0.1,1.5-0.2s1-0.3,1.4-0.5c0.4-0.2,0.7-0.6,1-1c0.2-0.4,0.4-0.9,0.4-1.5c0-0.6-0.1-1.1-0.3-1.5s-0.5-0.6-0.8-0.8
			c-0.3-0.2-0.7-0.3-1.2-0.4S71.2,34,70.7,34c-0.4,0-0.7,0-1,0c-0.3,0-0.5,0-0.7,0.1c0,0.7-0.1,1.4-0.1,2.1c0,0.7,0,1.4,0,2.1V40
			H70.1z M68.9,43.1c0,0.8,0,1.5,0,2.2c0,0.7,0.1,1.5,0.1,2.2c0.3,0,0.6,0.1,1,0.1c0.4,0,0.8,0,1.2,0c0.5,0,0.9-0.1,1.4-0.2
			c0.4-0.2,0.8-0.4,1.1-0.7c0.3-0.3,0.6-0.7,0.8-1.2c0.2-0.5,0.3-1,0.3-1.6c0-0.6-0.1-1.2-0.3-1.6c-0.2-0.4-0.6-0.7-1-1
			c-0.4-0.2-0.9-0.4-1.5-0.5c-0.6-0.1-1.3-0.1-2-0.1h-1V43.1z"/>
		<path fill="#C95B5E" d="M80.7,39c0-1,0-1.9-0.1-2.9c0-0.9-0.1-1.9-0.1-2.9c0.4,0,0.9,0.1,1.3,0.1c0.4,0,0.8,0,1.3,0
			c0.4,0,0.9,0,1.3-0.1c0.4,0,0.8-0.1,1.3-0.1c0.6,0,1.2,0.1,1.8,0.2c0.6,0.1,1.1,0.3,1.5,0.6c0.4,0.3,0.8,0.6,1,1.1
			c0.2,0.4,0.4,1,0.4,1.7c0,0.7-0.2,1.3-0.5,1.8c-0.3,0.5-0.7,0.9-1.2,1.3c-0.5,0.3-1,0.6-1.5,0.8c-0.5,0.2-1,0.3-1.4,0.4
			c0.2,0.2,0.4,0.5,0.7,0.9c0.3,0.4,0.7,0.8,1,1.3c0.4,0.5,0.8,1,1.2,1.5c0.4,0.5,0.8,1,1.2,1.5c0.4,0.5,0.7,0.9,1.1,1.3
			c0.3,0.4,0.6,0.7,0.8,0.9c-0.2,0-0.4,0-0.7,0s-0.4,0-0.7,0c-0.2,0-0.4,0-0.6,0s-0.4,0-0.6,0c-0.2-0.3-0.6-0.8-1-1.4
			c-0.5-0.6-1-1.3-1.5-2c-0.5-0.7-1.1-1.4-1.7-2.1c-0.6-0.7-1.1-1.3-1.6-1.8h-0.8v1.6c0,1,0,1.9,0.1,2.9c0,0.9,0.1,1.9,0.1,2.8
			c-0.3,0-0.7,0-1.1,0c-0.4,0-0.7,0-1.1,0c0-0.9,0.1-1.9,0.1-2.8c0-0.9,0.1-1.9,0.1-2.9V39z M82.5,40.2c0.2,0,0.4,0.1,0.7,0.1
			c0.2,0,0.5,0,0.8,0c0.5,0,0.9-0.1,1.4-0.2c0.5-0.1,1-0.3,1.4-0.5c0.4-0.3,0.8-0.6,1-1c0.3-0.4,0.4-1,0.4-1.7
			c0-0.6-0.1-1.1-0.3-1.4c-0.2-0.4-0.5-0.7-0.8-0.9c-0.3-0.2-0.7-0.4-1.1-0.5c-0.4-0.1-0.8-0.1-1.2-0.1c-0.5,0-0.9,0-1.3,0
			c-0.3,0-0.6,0-0.9,0.1c0,0.8-0.1,1.6-0.1,2.4c0,0.8,0,1.6,0,2.4V40.2z"/>
		<path fill="#C95B5E" d="M94.2,36c0-0.9-0.1-1.9-0.1-2.8c0.7,0,1.3,0.1,2,0.1c0.7,0,1.3,0,2,0c0.7,0,1.3,0,2,0c0.7,0,1.3,0,2-0.1
			c0,0.2-0.1,0.4-0.1,0.7c0,0.2,0,0.4,0.1,0.7c-0.5,0-0.9-0.1-1.3-0.1c-0.4,0-0.8-0.1-1.2-0.1c-0.4,0-0.9-0.1-1.4-0.1
			c-0.5,0-1.1,0-1.9,0c0,0.5,0,0.9-0.1,1.4c0,0.4,0,0.9,0,1.5c0,0.6,0,1.1,0,1.7c0,0.5,0,1,0,1.2c0.7,0,1.2,0,1.8,0
			c0.5,0,1,0,1.4-0.1c0.4,0,0.8,0,1.2-0.1c0.4,0,0.7,0,1-0.1c0,0.2-0.1,0.5-0.1,0.7c0,0.2,0,0.4,0.1,0.7c-0.4,0-0.8-0.1-1.3-0.1
			c-0.5,0-1,0-1.5-0.1c-0.5,0-1,0-1.4,0c-0.5,0-0.8,0-1.1,0c0,0.1,0,0.3,0,0.4c0,0.2,0,0.4,0,0.6v0.9v1.3c0,0.8,0,1.5,0,2.1
			c0,0.5,0,1,0,1.2c0.5,0,1,0,1.6,0c0.6,0,1.1,0,1.7,0c0.5,0,1.1-0.1,1.5-0.1c0.5,0,0.9-0.1,1.3-0.2c0,0.1,0,0.2-0.1,0.3
			c0,0.1,0,0.2,0,0.3c0,0.2,0,0.4,0.1,0.6c-0.7,0-1.3,0-2,0c-0.7,0-1.3,0-2,0c-0.7,0-1.4,0-2,0c-0.7,0-1.3,0-2,0
			c0-0.9,0.1-1.9,0.1-2.8c0-0.9,0.1-1.9,0.1-2.9v-3.8C94.3,38,94.2,37,94.2,36z"/>
		<path fill="#C95B5E" d="M117.6,48.5c-0.2,0-0.4,0-0.6,0c-0.2,0-0.4,0-0.6,0c-0.2,0-0.4,0-0.6,0s-0.4,0-0.6,0
			c-0.1-0.3-0.2-0.8-0.4-1.2c-0.2-0.5-0.4-1-0.6-1.5c-0.2-0.5-0.4-1.1-0.7-1.6c-0.2-0.5-0.4-1.1-0.6-1.5c-0.5,0-1,0-1.4,0
			c-0.5,0-1,0-1.5,0c-0.5,0-0.9,0-1.4,0c-0.4,0-0.9,0-1.4,0c-0.5,1.2-0.9,2.3-1.3,3.3c-0.4,1-0.7,1.9-0.9,2.6c-0.3,0-0.5,0-0.8,0
			c-0.3,0-0.6,0-0.8,0c1.2-2.6,2.4-5.2,3.5-7.7c1.1-2.6,2.3-5.2,3.4-7.8h0.4c0.4,0.9,0.7,1.8,1.2,2.8c0.4,1,0.8,2,1.3,3
			c0.4,1,0.9,2,1.3,3c0.4,1,0.8,1.9,1.2,2.8c0.4,0.9,0.7,1.6,1,2.3C117.2,47.6,117.4,48.1,117.6,48.5z M107.8,41.6
			c0.4,0,0.8,0,1.2,0c0.4,0,0.8,0,1.2,0c0.4,0,0.8,0,1.2,0c0.4,0,0.8,0,1.2,0l-2.5-5.6L107.8,41.6z"/>
		<path fill="#C95B5E" d="M120,48.5c0-0.9,0.1-1.9,0.1-2.8c0-0.9,0.1-1.9,0.1-2.9V39c0-1,0-1.9-0.1-2.9c0-0.9-0.1-1.9-0.1-2.9
			c0.2,0,0.4,0.1,0.6,0.1c0.2,0,0.4,0,0.5,0c0.2,0,0.4,0,0.5,0c0.2,0,0.4,0,0.6-0.1c0,1-0.1,1.9-0.1,2.9C122,37,122,38,122,39v1.2
			c0,0.1,0,0.2,0.1,0.2c0.1,0,0.2-0.1,0.3-0.2c0.5-0.4,1.1-0.9,1.6-1.5c0.6-0.6,1.1-1.1,1.7-1.8c0.6-0.6,1.1-1.2,1.7-1.9
			c0.6-0.6,1.1-1.2,1.6-1.8c0.2,0,0.3,0.1,0.5,0.1c0.1,0,0.3,0,0.4,0c0.2,0,0.4,0,0.5,0c0.2,0,0.4,0,0.5-0.1c-0.5,0.4-1.1,1-1.8,1.6
			c-0.7,0.6-1.3,1.2-2,1.9c-0.7,0.6-1.3,1.3-1.9,1.9c-0.6,0.6-1.1,1.2-1.5,1.6c1.2,1.3,2.4,2.7,3.6,4.1c1.2,1.4,2.5,2.8,3.7,4.2
			c-0.2,0-0.4,0-0.7,0c-0.2,0-0.4,0-0.7,0c-0.2,0-0.4,0-0.6,0s-0.4,0-0.6,0c-0.5-0.6-1.1-1.3-1.8-2.1c-0.6-0.8-1.3-1.5-1.9-2.3
			c-0.6-0.7-1.2-1.4-1.7-2c-0.5-0.6-0.9-1-1.1-1.2c-0.1-0.1-0.2-0.2-0.3-0.2c-0.1,0-0.1,0-0.1,0.1v1.9c0,1,0,1.9,0.1,2.9
			c0,0.9,0.1,1.9,0.1,2.8c-0.3,0-0.7,0-1.1,0C120.7,48.4,120.4,48.4,120,48.5z"/>
	</g>
</g>
</svg>
