<?xml version="1.0" encoding="utf-8"?>
<!-- Generator: Adobe Illustrator 18.0.0, SVG Export Plug-In . SVG Version: 6.00 Build 0)  -->
<!DOCTYPE svg PUBLIC "-//W3C//DTD SVG 1.1//EN" "http://www.w3.org/Graphics/SVG/1.1/DTD/svg11.dtd">
<svg version="1.1" id="Layer_1" xmlns="http://www.w3.org/2000/svg" xmlns:xlink="http://www.w3.org/1999/xlink" x="0px" y="0px"
	 viewBox="0 508.6 595.3 503.7" enable-background="new 0 508.6 595.3 503.7" xml:space="preserve">
<g>
	<g>
		<g>
			<path fill="#F2D4C7" d="M509.7,818.1l-45.8-15c-6.2,30.1-29.5,58.2-29.5,58.2c36.8,6.9,65.9-11.4,65.9-11.4
				C496.4,834.4,501.2,821.1,509.7,818.1z"/>
			<path fill="#F2D4C7" d="M316.8,916.3c0,0-66.4,17.4-133.5-19.2c-35.2-19.2-55.1-38.2-66.1-51.9c-54.9,26.7-100.1,49-100.1,50.1
				l314.1,108l60.9-36.2C346,954.1,316.8,916.3,316.8,916.3z"/>
			<path fill="#F2D4C7" d="M208.9,834.3c4.8-11.4,38.2-47.1,38.2-47.1s90.6,11.7,90.8,10.8c0.1-0.5,23.8-10.9,46.9-20.9l-75.3-24.8
				c0,0-76,36.4-150.6,72.5C180.2,832.7,206.1,841,208.9,834.3z"/>
			<path fill="#F2D4C7" d="M418,927.2c8.8-1.3,13.1,6.3,14.3,15.9l163-96.8L523,822.5c4.8,6.5,5.4,18.3,1.8,28.7
				c-5,14.6-16.8,13.5-16.8,13.5c-40.4,23.6-87.8,7.1-87.8,7.1c-36.2,32-78,40.6-78,40.6c23.8,25.8,46.9,36.1,63.5,40.1
				C403.3,941.7,404,929.3,418,927.2z"/>
		</g>
		<g opacity="0.5">
			<g>
				<path fill="#EAC3B5" d="M501.8,825.7c-18.8,11.2-39.7,23.6-61.4,36.5c8,1,15.6,0.8,22.6-0.1c12.9-7.7,25.1-14.9,36.1-21.4
					C498.7,834.9,499.8,829.7,501.8,825.7z"/>
				<path fill="#EAC3B5" d="M422.7,872.7c-4.1,2.4-8.3,4.9-12.4,7.4c-12.4,9.4-24.9,16.3-35.8,21.2c-9.3,5.5-18.5,10.9-27.5,16.3
					c2.9,2.9,5.8,5.7,8.7,8.2c10.6-6.3,21.8-12.9,33.6-19.9c16.9-10,33.8-20,50-29.6C431.7,875.1,425.8,873.6,422.7,872.7z"/>
				<path fill="#EAC3B5" d="M328.2,928.6c-31.1,18.4-58.9,34.7-78.9,46.4l14.3,4.9c3.7-2.1,7.5-4.4,11.7-6.8
					c16.7-9.8,37.4-22,61.8-36.4C333.7,933.9,330.8,931.1,328.2,928.6z"/>
				<path fill="#EAC3B5" d="M523,822.5c0.6,0.9,1.2,1.8,1.7,2.9c0.9-0.5,1.7-1,2.5-1.5L523,822.5z"/>
			</g>
			<path fill="#EAC3B5" d="M208.4,908.4L156.2,943l13.7,4.7l52.5-34.8C217.8,911.6,213.1,910.1,208.4,908.4z"/>
			<g>
				<path fill="#EAC3B5" d="M149.1,875.2L83.4,918l13.8,4.7l62-40.4C155.6,879.9,152.2,877.5,149.1,875.2z"/>
				<path fill="#EAC3B5" d="M295.8,793.3l46.5-30.3l-14-4.6l-50.2,32.7C283.8,791.8,289.8,792.6,295.8,793.3z"/>
			</g>
		</g>
		<g opacity="0.5">
			<path fill="#EAC3B5" d="M358.8,986.7l12.3-7.3l-285-119.2c-4.7,2.3-9.3,4.6-13.7,6.7L358.8,986.7z"/>
			<g>
				<path fill="#EAC3B5" d="M430.6,935.8c0.8,2.2,1.4,4.7,1.7,7.3l6.4-3.8L430.6,935.8z"/>
				<path fill="#EAC3B5" d="M413.4,928.4l-51.3-22c-7.4,2.8-13.2,4.5-16.6,5.3l59.9,25.7C406.5,933.5,409,930.2,413.4,928.4z"/>
			</g>
			<g>
				<path fill="#EAC3B5" d="M239.7,795.3l-11.1-4.1c-4.7,2.2-9.4,4.5-14.3,6.9l17.2,6.4C234.4,801.2,237.2,798,239.7,795.3z"/>
				<path fill="#EAC3B5" d="M420.3,871.9c-0.9,0.8-1.8,1.5-2.6,2.3l80.2,30l12.6-7.5l-51.2-19.2
					C437.1,877.8,420.3,871.9,420.3,871.9z"/>
			</g>
			<g>
				<path fill="#EAC3B5" d="M499.3,834.2l-40.4-14.4c-1.4,3.6-3,7.2-4.7,10.5l45.5,16.2C498.8,842.1,498.8,837.9,499.3,834.2z"/>
				<path fill="#EAC3B5" d="M526.7,843.9c-0.4,2.5-1,4.9-1.8,7.3c-0.5,1.3-1,2.6-1.5,3.6l35.9,12.8l12.8-7.6L526.7,843.9z"/>
				<path fill="#EAC3B5" d="M364,786.1l-71.8-25.5c-4.2,2-9.1,4.4-14.6,7l71.1,25.3C353,791,358.2,788.7,364,786.1z"/>
			</g>
		</g>
	</g>
	<g>
		<path fill="#FFEDE5" d="M410.8,784.3c7.1,0,13,4.7,15,11.1c7.1-0.4,22.6-2.9,32.1-16.3c3.5-31.3-1.9-66.7-18.2-104.2
			c-24-54.8-60.9-78.1-93.4-87.3l-13.7,1c6.9,2.8,18.3,17.6,18.3,17.6l-53.5,1.7c9.7,17.3,2.4,31.1,2.4,31.1
			c-22.1-19.3-43.8-14.9-43.8-14.9c2.5,19-7.3,36.6-7.3,36.6c-15.5-6.2-41.1-36.1-41.1-36.1c-6.6,1.2-37.2,25-37.2,25
			c-5.1-13.2-5.9-23.9-5-32c-57.1,41.6-77.2,115.5-56.3,179.2c29.1,88.3,111.8,119.2,203,110.8c-7.8-10.1-14.5-24.4-14.5-24.4
			l10.4-3.7c4.8,10.3,14.4,21.1,19.4,26.3c2.5-0.3,4.9-0.7,7.4-1.1c60.9-9.8,105.5-49.5,119.5-105.6c-7,3.9-17.5,8.2-29.4,7.6
			c-2.5,5.2-7.9,8.9-14.1,8.9c-8.7,0-15.7-7-15.7-15.7C395.1,791.4,402.1,784.3,410.8,784.3z M364,836.4c-2,0-3.9-0.4-5.7-1
			c-6.8,3.5-25.4,11-54.2,5.3c-36.8-7.2-65.7-33-65.7-33l12-11.3c0,0,30.8,23.9,55.2,29.4c18.9,4.3,35.7,0.1,42.3-2
			c-0.3-1.2-0.5-2.5-0.5-3.9c0-9.1,7.4-16.4,16.4-16.4s16.4,7.4,16.4,16.4S373.1,836.4,364,836.4z"/>
		<path fill="#FFEDE5" d="M513.9,824.5c-14.9,0.3-8.2,23.9-6.2,30.3c-5.5,3.5-15.8,8.4-34.4,12.4c-33.7,7.3-62.2-8.8-62.5-9
			l-1.4,2.4c0.2,0.1,19.8,11.3,45.9,11.3c5.9,0,12.1-0.6,18.5-2c18.5-4,29-8.8,34.9-12.5C515.9,869.4,530.6,824.2,513.9,824.5z"/>
		<path fill="#FFEDE5" d="M229.9,575c0,0-5.4-20-31.2-40.7c0,0,8.6-25.8,26.6-24.3c0,0,18.8,15,25.5,50.6c0,0,23.3-20.6,48.7-19.9
			c0,0-16.7,9.1-25.2,30.8c0,0,41.3-13,67.5,0.6c0,0-20,15.1-39,14.9c0,0,20.8,3,29,11.4c0,0-44.4,0.1-55.5,1.8
			c0,0,13.8,5.7,16.4,24.7c0,0-22.9-20.1-48.9-12.5c0,0,7.2,23.2,1.5,34.2c0,0-23.5-12.2-28.3-40c0,0-32.5,14-44.2,31.5
			c0,0-2.7-28.8,29.6-46.9c0,0-17.5-5.7-31.9-0.3C170.4,590.9,201.8,559.2,229.9,575z"/>
		<circle fill="#C95B5E" cx="430.3" cy="717.9" r="12.8"/>
		<circle fill="#C95B5E" cx="263.4" cy="752.6" r="12.8"/>
		<g>
			<path fill="#C95B5E" d="M367.8,764.6c-0.1,0.1-0.3,0.1-0.4,0.2c-5.2,2.2-9.4,1.1-12-0.2c-2.8-1.4-4.3-3.4-4.4-3.5l1.6-1.3
				c0.2,0.3,5.3,6.7,13.9,3.1c3.5-1.5,5.5-4.2,6-8.1c0.3-3-0.4-5.7-0.4-5.7l2-0.6C374.1,748.6,377.5,760.1,367.8,764.6z"/>
		</g>
		<g>
			<path fill="#EAC3B5" d="M352.9,791.9l22.9,50.2c0,0,5.5,9.3,23.8,0c17.1-8.6,18.5-11.3,16.3-18.5c-1.9-5.9-20.6-46.5-20.6-46.5
				L352.9,791.9z"/>
			
				<ellipse transform="matrix(0.9448 -0.3277 0.3277 0.9448 -236.4586 165.9329)" fill="#FFEDE5" cx="374.1" cy="784.5" rx="22.5" ry="8"/>
			<path fill="#F2D4C7" d="M376,783c7.4-2.6,14.4-3.5,18.9-2.8c0.6-1.1,0.7-2.2,0.4-3.1c-1.4-4.2-12.1-4.2-23.8-0.2
				c-11.7,4.1-20.1,10.7-18.6,14.9c0.5,1.5,2.3,2.5,4.9,2.9C359.8,790.9,366.9,786.2,376,783z"/>
		</g>
		<path fill="#FFEDE5" d="M363.7,808.5c-6.1,0-11,4.9-11,11c0,3,1.2,5.8,3.2,7.8c-26.1,12.1-52.1,6.6-70-0.6
			c-21.7-8.7-36.8-21.9-36.9-22l-1.8,2.1c0.2,0.1,15.5,13.6,37.7,22.5c13.2,5.3,26,7.9,38.4,7.9c12.4,0,24.3-2.7,35.3-8
			c1.6,0.8,3.3,1.3,5.2,1.3c6.1,0,11-4.9,11-11C374.7,813.4,369.8,808.5,363.7,808.5z"/>
		<path fill="#FFEDE5" d="M470,751.8c-2.6-7.2-7.9-12.6-12.7-16l0.5,3.9c0,0,0,0,0,0c3.7,3.1,7.5,7.4,9.6,13
			c3.1,8.4,1.6,17.5-4.3,27.1c-10.7,17.3-29.6,20.2-41.4,20.1c-0.2-5.9-5-10.5-10.9-10.5c-6.1,0-11,4.9-11,11s4.9,11,11,11
			c5.3,0,9.7-3.7,10.7-8.6c0.2,0,0.4,0,0.6,0c12.5,0,32.2-3.2,43.4-21.4C471.9,771,473.4,761.1,470,751.8z"/>
		<path fill="#FFEDE5" d="M414.1,963.6c0,0-12.9-25.6,4.1-28.1C435.2,933,427,981.1,414.1,963.6z"/>
		<g>
			<path fill="#FFEDE5" d="M419.9,964.7c-40.7-4.9-70-25.5-87.3-41.9c-18.8-17.8-28.1-34.6-28.2-34.8l2.4-1.3
				c0.1,0.2,9.2,16.7,27.7,34.2c17,16.1,45.7,36.3,85.6,41.1L419.9,964.7z"/>
		</g>
	</g>
</g>
</svg>
