<?xml version="1.0" encoding="utf-8"?>
<!-- Generator: Adobe Illustrator 18.0.0, SVG Export Plug-In . SVG Version: 6.00 Build 0)  -->
<!DOCTYPE svg PUBLIC "-//W3C//DTD SVG 1.1//EN" "http://www.w3.org/Graphics/SVG/1.1/DTD/svg11.dtd">
<svg version="1.1" id="Layer_1" xmlns="http://www.w3.org/2000/svg" xmlns:xlink="http://www.w3.org/1999/xlink" x="0px" y="0px"
	 viewBox="0 0 595.3 841.9" enable-background="new 0 0 595.3 841.9" xml:space="preserve">
<g>
	<g>
		<path fill="#F2D4C7" d="M372.5,942.1l-63-20.7c0,0-76,36.4-150.6,72.5c21.3,7.9,47.2,16.2,50,9.5c4.8-11.4,38.2-47.1,38.2-47.1
			s66.7,8.6,85.8,10.5L372.5,942.1z"/>
		<g>
			<path fill="#F2D4C7" d="M418,1096.3c8.8-1.3,13.1,6.3,14.3,15.9l163-96.8L523,991.6c4.8,6.5,5.4,18.3,1.8,28.7
				c-5,14.6-16.8,13.5-16.8,13.5c-40.4,23.6-87.8,7.1-87.8,7.1c-36.2,32-78,40.6-78,40.6c23.8,25.8,46.9,36.1,63.5,40.1
				C403.3,1110.8,404,1098.4,418,1096.3z"/>
			<path fill="#F2D4C7" d="M509.7,987.2l-45.8-15c-6.2,30.1-29.5,58.2-29.5,58.2c36.8,6.9,65.9-11.4,65.9-11.4
				C496.4,1003.5,501.2,990.2,509.7,987.2z"/>
			<path fill="#F2D4C7" d="M316.8,1085.4c0,0-66.4,17.4-133.5-19.2c-35.2-19.2-55.1-38.2-66.1-51.9c-54.9,26.7-100.1,49-100.1,50.1
				l314.1,108l60.9-36.2C346,1123.2,316.8,1085.4,316.8,1085.4z"/>
		</g>
		<g opacity="0.5">
			<g>
				<path fill="#EAC3B5" d="M501.8,994.8c-18.8,11.2-39.7,23.6-61.4,36.5c8,1,15.6,0.8,22.6-0.1c12.9-7.7,25.1-14.9,36.1-21.4
					C498.7,1004,499.8,998.8,501.8,994.8z"/>
				<path fill="#EAC3B5" d="M422.7,1041.8c-4.1,2.4-8.3,4.9-12.4,7.4c-12.4,9.4-24.9,16.3-35.8,21.2c-9.3,5.5-18.5,10.9-27.5,16.3
					c2.9,2.9,5.8,5.7,8.7,8.2c10.6-6.3,21.8-12.9,33.6-19.9c16.9-10,33.8-20,50-29.6C431.7,1044.2,425.8,1042.7,422.7,1041.8z"/>
				<path fill="#EAC3B5" d="M328.2,1097.7c-31.1,18.4-58.9,34.7-78.9,46.4l14.3,4.9c3.7-2.1,7.5-4.4,11.7-6.8
					c16.7-9.8,37.4-22,61.8-36.4C333.7,1103,330.8,1100.2,328.2,1097.7z"/>
				<path fill="#EAC3B5" d="M523,991.6c0.6,0.9,1.2,1.8,1.7,2.9c0.9-0.5,1.7-1,2.5-1.5L523,991.6z"/>
			</g>
			<path fill="#EAC3B5" d="M208.4,1077.5l-52.2,34.6l13.7,4.7l52.5-34.8C217.8,1080.7,213.1,1079.2,208.4,1077.5z"/>
			<g>
				<path fill="#EAC3B5" d="M149.1,1044.3l-65.7,42.8l13.8,4.7l62-40.4C155.6,1049,152.2,1046.6,149.1,1044.3z"/>
				<path fill="#EAC3B5" d="M295.8,962.4l46.5-30.3l-14-4.6l-50.2,32.7C283.8,960.9,289.8,961.7,295.8,962.4z"/>
			</g>
		</g>
		<g opacity="0.5">
			<path fill="#EAC3B5" d="M358.8,1155.8l12.3-7.3l-285-119.2c-4.7,2.3-9.3,4.6-13.7,6.7L358.8,1155.8z"/>
			<g>
				<path fill="#EAC3B5" d="M239.7,964.4l-11.1-4.1c-4.7,2.2-9.4,4.5-14.3,6.9l17.2,6.4C234.4,970.3,237.2,967.1,239.7,964.4z"/>
				<path fill="#EAC3B5" d="M420.3,1041c-0.9,0.8-1.8,1.5-2.6,2.3l80.2,30l12.6-7.5l-51.2-19.2C437.1,1046.9,420.3,1041,420.3,1041z
					"/>
			</g>
			<g>
				<path fill="#EAC3B5" d="M499.3,1003.3l-40.4-14.4c-1.4,3.6-3,7.2-4.7,10.5l45.5,16.2C498.8,1011.2,498.8,1007,499.3,1003.3z"/>
				<path fill="#EAC3B5" d="M526.7,1013c-0.4,2.5-1,4.9-1.8,7.3c-0.5,1.3-1,2.6-1.5,3.6l35.9,12.8l12.8-7.6L526.7,1013z"/>
				<g>
					<path fill="#EAC3B5" d="M292.2,929.7c-4.2,2-9.1,4.4-14.6,7l65.9,23.5l12.5-7.8L292.2,929.7z"/>
				</g>
			</g>
			<g>
				<path fill="#EAC3B5" d="M430.6,1104.9c0.8,2.2,1.4,4.7,1.7,7.3l6.4-3.8L430.6,1104.9z"/>
				<path fill="#EAC3B5" d="M413.4,1097.5l-51.3-22c-7.4,2.8-13.2,4.5-16.6,5.3l59.9,25.7C406.5,1102.6,409,1099.3,413.4,1097.5z"/>
			</g>
		</g>
	</g>
	<g>
		<path fill="#FFEDE5" d="M410.8,953.4c7.1,0,13,4.7,15,11.1c7.1-0.4,22.6-2.9,32.1-16.3c3.5-31.3-1.9-66.7-18.2-104.2
			c-24-54.8-60.9-78.1-93.4-87.3l-13.7,1c6.9,2.8,18.3,17.6,18.3,17.6l-53.5,1.7c9.7,17.3,2.4,31.1,2.4,31.1
			c-22.1-19.3-43.8-14.9-43.8-14.9c2.5,19-7.3,36.6-7.3,36.6c-15.5-6.2-41.1-36.1-41.1-36.1c-6.6,1.2-37.2,25-37.2,25
			c-5.1-13.2-5.9-23.9-5-32c-57.1,41.6-77.2,115.5-56.3,179.2c29.1,88.3,111.8,119.2,203,110.8c-7.8-10.1-14.5-24.4-14.5-24.4
			l10.4-3.7c4.8,10.3,14.4,21.1,19.4,26.3c2.5-0.3,4.9-0.7,7.4-1.1c60.9-9.8,105.5-49.5,119.5-105.6c-7,3.9-17.5,8.2-29.4,7.6
			c-2.5,5.2-7.9,8.9-14.1,8.9c-8.7,0-15.7-7-15.7-15.7C395.1,960.5,402.1,953.4,410.8,953.4z M364,1005.5c-2,0-3.9-0.4-5.7-1
			c-6.8,3.5-25.4,11-54.2,5.3c-36.8-7.2-65.7-33-65.7-33l12-11.3c0,0,30.8,23.9,55.2,29.4c18.9,4.3,35.7,0.1,42.3-2
			c-0.3-1.2-0.5-2.5-0.5-3.9c0-9.1,7.4-16.4,16.4-16.4s16.4,7.4,16.4,16.4C380.2,998,373.1,1005.5,364,1005.5z"/>
		<path fill="#FFEDE5" d="M513.9,993.6c-14.9,0.3-8.2,23.9-6.2,30.3c-5.5,3.5-15.8,8.4-34.4,12.4c-33.7,7.3-62.2-8.8-62.5-9
			l-1.4,2.4c0.2,0.1,19.8,11.3,45.9,11.3c5.9,0,12.1-0.6,18.5-2c18.5-4,29-8.8,34.9-12.5C515.9,1038.5,530.6,993.3,513.9,993.6z"/>
		<path fill="#FFEDE5" d="M229.9,744.1c0,0-5.4-20-31.2-40.7c0,0,8.6-25.8,26.6-24.3c0,0,18.8,15,25.5,50.6c0,0,23.3-20.6,48.7-19.9
			c0,0-16.7,9.1-25.2,30.8c0,0,41.3-13,67.5,0.6c0,0-20,15.1-39,14.9c0,0,20.8,3,29,11.4c0,0-44.4,0.1-55.5,1.8
			c0,0,13.8,5.7,16.4,24.7c0,0-22.9-20.1-48.9-12.5c0,0,7.2,23.2,1.5,34.2c0,0-23.5-12.2-28.3-40c0,0-32.5,14-44.2,31.5
			c0,0-2.7-28.8,29.6-46.9c0,0-17.5-5.7-31.9-0.3C170.4,760,201.8,728.3,229.9,744.1z"/>
		<circle fill="#C95B5E" cx="430.3" cy="887" r="12.8"/>
		<circle fill="#C95B5E" cx="263.4" cy="921.7" r="12.8"/>
		<g>
			<path fill="#C95B5E" d="M367.8,933.7c-0.1,0.1-0.3,0.1-0.4,0.2c-5.2,2.2-9.4,1.1-12-0.2c-2.8-1.4-4.3-3.4-4.4-3.5l1.6-1.3
				c0.2,0.3,5.3,6.7,13.9,3.1c3.5-1.5,5.5-4.2,6-8.1c0.3-3-0.4-5.7-0.4-5.7l2-0.6C374.1,917.7,377.5,929.2,367.8,933.7z"/>
		</g>
		<g>
			<path fill="#EAC3B5" d="M352.9,961l22.9,50.2c0,0,5.5,9.3,23.8,0c17.1-8.6,18.5-11.3,16.3-18.5c-1.9-5.9-20.6-46.5-20.6-46.5
				L352.9,961z"/>
			
				<ellipse transform="matrix(-0.3277 -0.9448 0.9448 -0.3277 -404.338 1619.5344)" fill="#FFEDE5" cx="374.1" cy="953.6" rx="8" ry="22.5"/>
			<path fill="#F2D4C7" d="M376,952.1c7.4-2.6,14.4-3.5,18.9-2.8c0.6-1.1,0.7-2.2,0.4-3.1c-1.4-4.2-12.1-4.2-23.8-0.2
				c-11.7,4.1-20.1,10.7-18.6,14.9c0.5,1.5,2.3,2.5,4.9,2.9C359.8,960,366.9,955.3,376,952.1z"/>
		</g>
		<path fill="#FFEDE5" d="M363.7,977.6c-6.1,0-11,4.9-11,11c0,3,1.2,5.8,3.2,7.8c-26.1,12.1-52.1,6.6-70-0.6
			c-21.7-8.7-36.8-21.9-36.9-22l-1.8,2.1c0.2,0.1,15.5,13.6,37.7,22.5c13.2,5.3,26,7.9,38.4,7.9c12.4,0,24.3-2.7,35.3-8
			c1.6,0.8,3.3,1.3,5.2,1.3c6.1,0,11-4.9,11-11C374.7,982.5,369.8,977.6,363.7,977.6z"/>
		<path fill="#FFEDE5" d="M470,920.9c-2.6-7.2-7.9-12.6-12.7-16l0.5,3.9l0,0c3.7,3.1,7.5,7.4,9.6,13c3.1,8.4,1.6,17.5-4.3,27.1
			c-10.7,17.3-29.6,20.2-41.4,20.1c-0.2-5.9-5-10.5-10.9-10.5c-6.1,0-11,4.9-11,11c0,6.1,4.9,11,11,11c5.3,0,9.7-3.7,10.7-8.6
			c0.2,0,0.4,0,0.6,0c12.5,0,32.2-3.2,43.4-21.4C471.9,940.1,473.4,930.2,470,920.9z"/>
		<path fill="#FFEDE5" d="M414.1,1132.7c0,0-12.9-25.6,4.1-28.1S427,1150.2,414.1,1132.7z"/>
		<g>
			<path fill="#FFEDE5" d="M419.9,1133.8c-40.7-4.9-70-25.5-87.3-41.9c-18.8-17.8-28.1-34.6-28.2-34.8l2.4-1.3
				c0.1,0.2,9.2,16.7,27.7,34.2c17,16.1,45.7,36.3,85.6,41.1L419.9,1133.8z"/>
		</g>
	</g>
</g>
</svg>
