<?xml version="1.0" encoding="utf-8"?>
<!-- Generator: Adobe Illustrator 18.0.0, SVG Export Plug-In . SVG Version: 6.00 Build 0)  -->
<!DOCTYPE svg PUBLIC "-//W3C//DTD SVG 1.1//EN" "http://www.w3.org/Graphics/SVG/1.1/DTD/svg11.dtd">
<svg version="1.1" id="Layer_1" xmlns="http://www.w3.org/2000/svg" xmlns:xlink="http://www.w3.org/1999/xlink" x="0px" y="0px"
	 viewBox="0 0 317.1 53.1" enable-background="new 0 0 317.1 53.1" xml:space="preserve">
<g>
	<path fill="#FFEDE5" d="M303.2,49H15.8c-5.5,0-10-4.5-10-10V14.7c0-5.5,4.5-10,10-10h287.4c5.5,0,10,4.5,10,10V39
		C313.2,44.5,308.7,49,303.2,49z"/>
	<g>
		<path fill="#C95B5E" d="M25.4,34.9c-0.1-0.4-0.3-1-0.6-1.8c-0.3-0.8-0.5-1.8-0.9-2.8c-0.3-1.1-0.7-2.2-1-3.3
			c-0.4-1.2-0.7-2.3-1-3.3c-0.3-1-0.6-2-0.9-2.8c-0.3-0.8-0.5-1.5-0.6-1.9c0.2,0,0.4,0.1,0.6,0.1c0.2,0,0.4,0,0.6,0
			c0.2,0,0.4,0,0.6,0c0.2,0,0.4-0.1,0.6-0.1c0.3,1.2,0.6,2.3,0.9,3.3c0.3,1,0.6,2.1,0.9,3.1c0.3,1.1,0.7,2.2,1,3.4
			c0.4,1.2,0.8,2.5,1.2,4h0c0.1-0.4,0.3-1,0.6-1.7c0.2-0.7,0.5-1.6,0.8-2.4c0.3-0.9,0.6-1.8,0.9-2.8c0.3-1,0.6-1.9,0.9-2.8
			c0.3-0.9,0.5-1.7,0.7-2.4c0.2-0.7,0.4-1.3,0.5-1.7C31.5,19,31.8,19,32,19c0.2,0,0.5,0,0.8-0.1c0.1,0.4,0.3,1,0.5,1.7
			s0.5,1.5,0.8,2.4c0.3,0.9,0.6,1.8,0.9,2.8c0.3,1,0.6,1.9,0.9,2.8c0.3,0.9,0.6,1.7,0.8,2.4c0.2,0.7,0.4,1.3,0.6,1.7h0
			c0.1-0.3,0.3-0.9,0.5-1.6c0.2-0.7,0.5-1.5,0.8-2.4c0.3-0.9,0.6-1.9,0.9-2.9c0.3-1,0.6-2,0.9-2.9c0.3-0.9,0.5-1.7,0.7-2.4
			c0.2-0.7,0.4-1.2,0.4-1.6c0.1,0,0.3,0.1,0.4,0.1c0.1,0,0.3,0,0.4,0s0.3,0,0.4,0c0.1,0,0.3-0.1,0.4-0.1c-0.2,0.4-0.4,0.9-0.7,1.8
			c-0.3,0.8-0.6,1.8-1,2.8c-0.4,1.1-0.7,2.2-1.1,3.4c-0.4,1.2-0.8,2.3-1.1,3.4c-0.4,1.1-0.7,2-1,2.9c-0.3,0.8-0.5,1.5-0.6,1.8
			c-0.2,0-0.5,0-0.8,0c-0.3,0-0.5,0-0.8,0c-0.7-2.2-1.4-4.3-2.1-6.5c-0.7-2.2-1.4-4.4-2.2-6.8h0c-0.1,0.4-0.3,0.8-0.5,1.4
			c-0.2,0.6-0.4,1.3-0.7,2c-0.3,0.7-0.5,1.5-0.8,2.4c-0.3,0.9-0.6,1.7-0.9,2.6c-0.3,0.9-0.6,1.7-0.9,2.6c-0.3,0.8-0.5,1.6-0.8,2.3
			c-0.2,0-0.5,0-0.8,0C25.9,34.9,25.6,34.9,25.4,34.9z"/>
		<path fill="#C95B5E" d="M57.2,21.9c0-1-0.1-2-0.1-3c0.2,0,0.4,0.1,0.6,0.1c0.2,0,0.4,0,0.6,0s0.4,0,0.6,0c0.2,0,0.4-0.1,0.6-0.1
			c0,1-0.1,2-0.1,3c0,1-0.1,2-0.1,3v4c0,1,0,2,0.1,3c0,1,0.1,2,0.1,2.9c-0.4,0-0.7,0-1.1,0c-0.4,0-0.8,0-1.1,0c0-1,0.1-1.9,0.1-2.9
			c0-1,0.1-2,0.1-3v-2.1c-0.8,0-1.7,0-2.4,0c-0.8,0-1.6,0-2.4,0s-1.7,0-2.4,0c-0.8,0-1.6,0-2.4,0v2.1c0,1,0,2,0.1,3
			c0,1,0.1,2,0.1,2.9c-0.4,0-0.7,0-1.1,0s-0.8,0-1.1,0c0-1,0.1-1.9,0.1-2.9c0-1,0.1-2,0.1-3v-4c0-1,0-2-0.1-3c0-1-0.1-2-0.1-3
			c0.2,0,0.4,0.1,0.6,0.1c0.2,0,0.4,0,0.6,0s0.4,0,0.6,0c0.2,0,0.4-0.1,0.6-0.1c0,1-0.1,2-0.1,3c0,1-0.1,2-0.1,3v0.8
			c0.8,0,1.7,0,2.4,0c0.8,0,1.6,0,2.4,0s1.7,0,2.4,0c0.8,0,1.6,0,2.4,0v-0.8C57.3,23.9,57.3,22.9,57.2,21.9z"/>
		<path fill="#C95B5E" d="M76.7,34.9c-0.2,0-0.4,0-0.6,0c-0.2,0-0.4,0-0.6,0s-0.4,0-0.6,0c-0.2,0-0.4,0-0.6,0
			c-0.1-0.4-0.3-0.8-0.4-1.3c-0.2-0.5-0.4-1-0.6-1.6c-0.2-0.6-0.5-1.1-0.7-1.7c-0.2-0.6-0.5-1.1-0.7-1.6c-0.5,0-1,0-1.5,0
			c-0.5,0-1,0-1.5,0c-0.5,0-1,0-1.4,0c-0.5,0-0.9,0-1.4,0c-0.5,1.2-0.9,2.4-1.4,3.5c-0.4,1.1-0.7,2-0.9,2.7c-0.3,0-0.6,0-0.9,0
			c-0.3,0-0.6,0-0.9,0c1.3-2.7,2.5-5.4,3.7-8.1c1.2-2.7,2.4-5.4,3.6-8.2h0.4c0.4,0.9,0.8,1.9,1.2,2.9c0.4,1,0.9,2.1,1.3,3.2
			c0.4,1.1,0.9,2.1,1.4,3.2c0.4,1.1,0.9,2,1.3,3c0.4,0.9,0.8,1.7,1.1,2.4C76.2,34,76.5,34.5,76.7,34.9z M66.3,27.6
			c0.4,0,0.8,0,1.3,0c0.4,0,0.9,0,1.3,0c0.4,0,0.9,0,1.3,0c0.4,0,0.9,0,1.3,0l-2.6-5.9L66.3,27.6z"/>
		<path fill="#C95B5E" d="M80.8,20.1c-0.4,0-0.8,0-1.3,0c-0.4,0-0.9,0-1.3,0c-0.4,0-0.9,0.1-1.3,0.1c-0.4,0-0.8,0.1-1.1,0.1
			c0.1-0.3,0.1-0.5,0.1-0.7c0-0.2,0-0.4-0.1-0.7c1,0,2,0.1,3,0.1c1,0,2,0,3,0c1,0,2,0,3,0c1,0,2-0.1,3-0.1c-0.1,0.3-0.1,0.6-0.1,0.7
			c0,0.2,0,0.4,0.1,0.7c-0.3,0-0.7-0.1-1.1-0.1c-0.4,0-0.8-0.1-1.3-0.1c-0.4,0-0.9,0-1.3,0c-0.4,0-0.9,0-1.3,0
			c0,1.6-0.1,3.2-0.1,4.8v4c0,1,0,2,0.1,3c0,1,0.1,2,0.1,2.9c-0.4,0-0.7,0-1.1,0c-0.4,0-0.8,0-1.1,0c0-1,0.1-1.9,0.1-2.9
			c0-1,0.1-2,0.1-3v-4C80.9,23.3,80.8,21.7,80.8,20.1z"/>
		<path fill="#C95B5E" d="M97,21.9c0-1-0.1-2-0.1-3c0.2,0,0.4,0.1,0.6,0.1c0.2,0,0.4,0,0.6,0s0.4,0,0.6,0c0.2,0,0.4-0.1,0.6-0.1
			c0,1-0.1,2-0.1,3c0,1-0.1,2-0.1,3v4c0,1,0,2,0.1,3c0,1,0.1,2,0.1,2.9c-0.4,0-0.7,0-1.1,0s-0.8,0-1.1,0c0-1,0.1-1.9,0.1-2.9
			c0-1,0.1-2,0.1-3v-4C97.1,23.9,97,22.9,97,21.9z"/>
		<path fill="#C95B5E" d="M103.5,32.7c0.2,0.3,0.5,0.5,0.8,0.8c0.3,0.2,0.7,0.4,1.1,0.6c0.4,0.1,0.9,0.2,1.4,0.2
			c0.5,0,1-0.1,1.4-0.3c0.4-0.2,0.8-0.4,1-0.7c0.3-0.3,0.5-0.7,0.7-1.1c0.2-0.4,0.2-0.9,0.2-1.3c0-0.7-0.2-1.3-0.5-1.7
			c-0.4-0.4-0.8-0.8-1.4-1c-0.5-0.3-1.1-0.5-1.8-0.8c-0.6-0.2-1.2-0.5-1.8-0.9c-0.5-0.4-1-0.8-1.4-1.3c-0.4-0.5-0.5-1.3-0.5-2.2
			c0-0.7,0.1-1.2,0.3-1.8c0.2-0.5,0.6-1,1-1.4c0.4-0.4,1-0.7,1.6-0.9c0.6-0.2,1.3-0.3,2.1-0.3c0.7,0,1.4,0.1,1.9,0.3
			c0.5,0.2,1,0.5,1.5,0.8c-0.1,0.3-0.3,0.5-0.3,0.8c-0.1,0.3-0.2,0.7-0.3,1.1h-0.3c-0.1-0.2-0.2-0.5-0.3-0.7
			c-0.1-0.3-0.3-0.5-0.5-0.7c-0.2-0.2-0.5-0.4-0.8-0.5s-0.7-0.2-1.1-0.2c-0.4,0-0.8,0.1-1.2,0.2c-0.4,0.1-0.7,0.3-1,0.6
			c-0.3,0.3-0.5,0.6-0.6,0.9s-0.2,0.7-0.2,1.2c0,0.7,0.2,1.3,0.5,1.7c0.4,0.4,0.8,0.8,1.4,1.1c0.5,0.3,1.1,0.5,1.8,0.8
			c0.6,0.2,1.2,0.5,1.8,0.8c0.5,0.3,1,0.7,1.4,1.3c0.4,0.5,0.5,1.2,0.5,2.1c0,0.7-0.1,1.4-0.4,2c-0.3,0.6-0.6,1.2-1.1,1.7
			c-0.5,0.5-1.1,0.8-1.8,1.1s-1.5,0.4-2.4,0.4c-1,0-1.7-0.1-2.3-0.4c-0.6-0.3-1.1-0.5-1.5-0.9c0.1-0.4,0.2-0.7,0.3-1
			c0.1-0.3,0.1-0.7,0.1-1.1h0.3C103.2,32.1,103.3,32.4,103.5,32.7z"/>
		<path fill="#C95B5E" d="M123.1,20.1c-0.4,0-0.8,0-1.3,0c-0.4,0-0.9,0-1.3,0c-0.4,0-0.9,0.1-1.3,0.1c-0.4,0-0.8,0.1-1.1,0.1
			c0.1-0.3,0.1-0.5,0.1-0.7c0-0.2,0-0.4-0.1-0.7c1,0,2,0.1,3,0.1c1,0,2,0,3,0c1,0,2,0,3,0c1,0,2-0.1,3-0.1c-0.1,0.3-0.1,0.6-0.1,0.7
			c0,0.2,0,0.4,0.1,0.7c-0.3,0-0.7-0.1-1.1-0.1s-0.8-0.1-1.3-0.1c-0.4,0-0.9,0-1.3,0c-0.4,0-0.9,0-1.3,0c0,1.6-0.1,3.2-0.1,4.8v4
			c0,1,0,2,0.1,3c0,1,0.1,2,0.1,2.9c-0.4,0-0.7,0-1.1,0c-0.4,0-0.8,0-1.1,0c0-1,0.1-1.9,0.1-2.9c0-1,0.1-2,0.1-3v-4
			C123.2,23.3,123.2,21.7,123.1,20.1z"/>
		<path fill="#C95B5E" d="M130.8,26.9c0-1.3,0.2-2.5,0.6-3.5c0.4-1,1-1.9,1.8-2.6c0.8-0.7,1.7-1.3,2.8-1.6c1.1-0.4,2.2-0.6,3.5-0.6
			c1.3,0,2.5,0.2,3.5,0.6c1.1,0.4,2,0.9,2.8,1.6c0.8,0.7,1.4,1.6,1.8,2.6c0.4,1,0.6,2.2,0.6,3.5c0,1.3-0.2,2.5-0.6,3.5
			c-0.4,1-1,1.9-1.8,2.6c-0.8,0.7-1.7,1.2-2.8,1.6c-1.1,0.3-2.3,0.5-3.5,0.5c-1.3,0-2.4-0.2-3.5-0.5c-1.1-0.4-2-0.9-2.8-1.6
			c-0.8-0.7-1.4-1.6-1.8-2.6C131,29.4,130.8,28.2,130.8,26.9z M146,26.9c0-1.3-0.2-2.4-0.5-3.3c-0.3-0.9-0.8-1.7-1.4-2.3
			c-0.6-0.6-1.3-1.1-2.1-1.4c-0.8-0.3-1.6-0.4-2.6-0.4c-0.9,0-1.7,0.1-2.5,0.4c-0.8,0.3-1.5,0.8-2.1,1.4c-0.6,0.6-1,1.4-1.4,2.3
			c-0.3,0.9-0.5,2.1-0.5,3.3s0.2,2.4,0.5,3.3c0.3,0.9,0.8,1.7,1.4,2.3c0.6,0.6,1.3,1.1,2.1,1.4c0.8,0.3,1.6,0.4,2.5,0.4
			c0.9,0,1.8-0.1,2.6-0.4c0.8-0.3,1.5-0.7,2.1-1.4c0.6-0.6,1-1.4,1.4-2.3C145.8,29.3,146,28.2,146,26.9z"/>
		<path fill="#C95B5E" d="M156.3,25c1.1,2.1,2.2,4.2,3.4,6.4c0.2-0.3,0.4-0.7,0.7-1.3c0.3-0.6,0.6-1.2,1-1.9
			c0.4-0.7,0.8-1.5,1.2-2.3c0.4-0.8,0.9-1.7,1.4-2.5c0.5-0.9,0.9-1.7,1.4-2.5c0.5-0.8,0.9-1.6,1.3-2.3h0.3c0.2,1.5,0.3,2.9,0.5,4.3
			c0.1,1.4,0.3,2.8,0.5,4.1c0.2,1.3,0.3,2.7,0.5,4c0.2,1.3,0.3,2.6,0.5,3.9c-0.2,0-0.4,0-0.5,0c-0.2,0-0.4,0-0.5,0
			c-0.2,0-0.4,0-0.5,0c-0.2,0-0.4,0-0.5,0c-0.2-2.1-0.3-4.1-0.5-6s-0.4-3.9-0.6-5.9h0c-1.1,2-2.1,3.9-3.2,5.8c-1,1.9-2,4-2.9,6.1
			h-0.2c-0.9-2-1.9-3.9-2.9-5.9c-1-2-2-4-3.1-6h0c-0.1,1-0.2,2-0.4,3.1c-0.1,1.1-0.3,2.2-0.4,3.3c-0.1,1.1-0.2,2.1-0.3,3.1
			c-0.1,1-0.1,1.8-0.1,2.4c-0.2,0-0.5,0-0.8,0c-0.3,0-0.6,0-0.8,0c0.2-1.3,0.4-2.6,0.6-4c0.2-1.4,0.4-2.8,0.6-4.2
			c0.2-1.4,0.4-2.8,0.6-4.2c0.2-1.4,0.3-2.7,0.4-3.9h0.4C154.1,20.8,155.2,22.9,156.3,25z"/>
		<path fill="#C95B5E" d="M185.1,34.9c-0.2,0-0.4,0-0.6,0c-0.2,0-0.4,0-0.6,0s-0.4,0-0.6,0c-0.2,0-0.4,0-0.6,0
			c-0.1-0.4-0.3-0.8-0.4-1.3c-0.2-0.5-0.4-1-0.6-1.6c-0.2-0.6-0.5-1.1-0.7-1.7c-0.2-0.6-0.5-1.1-0.7-1.6c-0.5,0-1,0-1.5,0
			c-0.5,0-1,0-1.5,0c-0.5,0-1,0-1.4,0c-0.5,0-0.9,0-1.4,0c-0.5,1.2-0.9,2.4-1.4,3.5c-0.4,1.1-0.7,2-0.9,2.7c-0.3,0-0.6,0-0.9,0
			c-0.3,0-0.6,0-0.9,0c1.3-2.7,2.5-5.4,3.7-8.1c1.2-2.7,2.4-5.4,3.6-8.2h0.4c0.4,0.9,0.8,1.9,1.2,2.9c0.4,1,0.9,2.1,1.3,3.2
			c0.4,1.1,0.9,2.1,1.4,3.2c0.4,1.1,0.9,2,1.3,3c0.4,0.9,0.8,1.7,1.1,2.4C184.7,34,184.9,34.5,185.1,34.9z M174.8,27.6
			c0.4,0,0.8,0,1.3,0c0.4,0,0.9,0,1.3,0c0.4,0,0.9,0,1.3,0c0.4,0,0.9,0,1.3,0l-2.6-5.9L174.8,27.6z"/>
		<path fill="#C95B5E" d="M189.2,20.1c-0.4,0-0.8,0-1.3,0c-0.4,0-0.9,0-1.3,0c-0.4,0-0.9,0.1-1.3,0.1s-0.8,0.1-1.1,0.1
			c0.1-0.3,0.1-0.5,0.1-0.7c0-0.2,0-0.4-0.1-0.7c1,0,2,0.1,3,0.1c1,0,2,0,3,0c1,0,2,0,3,0c1,0,2-0.1,3-0.1c-0.1,0.3-0.1,0.6-0.1,0.7
			c0,0.2,0,0.4,0.1,0.7c-0.3,0-0.7-0.1-1.1-0.1s-0.8-0.1-1.3-0.1c-0.4,0-0.9,0-1.3,0c-0.4,0-0.9,0-1.3,0c0,1.6-0.1,3.2-0.1,4.8v4
			c0,1,0,2,0.1,3c0,1,0.1,2,0.1,2.9c-0.4,0-0.7,0-1.1,0c-0.4,0-0.8,0-1.1,0c0-1,0.1-1.9,0.1-2.9c0-1,0.1-2,0.1-3v-4
			C189.3,23.3,189.3,21.7,189.2,20.1z"/>
		<path fill="#C95B5E" d="M196.9,26.9c0-1.3,0.2-2.5,0.6-3.5c0.4-1,1-1.9,1.8-2.6c0.8-0.7,1.7-1.3,2.8-1.6c1.1-0.4,2.2-0.6,3.5-0.6
			c1.3,0,2.5,0.2,3.5,0.6c1.1,0.4,2,0.9,2.8,1.6c0.8,0.7,1.4,1.6,1.8,2.6c0.4,1,0.6,2.2,0.6,3.5c0,1.3-0.2,2.5-0.6,3.5
			c-0.4,1-1,1.9-1.8,2.6c-0.8,0.7-1.7,1.2-2.8,1.6c-1.1,0.3-2.3,0.5-3.5,0.5c-1.3,0-2.4-0.2-3.5-0.5c-1.1-0.4-2-0.9-2.8-1.6
			c-0.8-0.7-1.4-1.6-1.8-2.6C197.1,29.4,196.9,28.2,196.9,26.9z M212.1,26.9c0-1.3-0.2-2.4-0.5-3.3c-0.3-0.9-0.8-1.7-1.4-2.3
			c-0.6-0.6-1.3-1.1-2.1-1.4c-0.8-0.3-1.6-0.4-2.6-0.4c-0.9,0-1.7,0.1-2.5,0.4c-0.8,0.3-1.5,0.8-2.1,1.4c-0.6,0.6-1,1.4-1.4,2.3
			c-0.3,0.9-0.5,2.1-0.5,3.3s0.2,2.4,0.5,3.3c0.3,0.9,0.8,1.7,1.4,2.3c0.6,0.6,1.3,1.1,2.1,1.4c0.8,0.3,1.6,0.4,2.5,0.4
			c0.9,0,1.8-0.1,2.6-0.4c0.8-0.3,1.5-0.7,2.1-1.4c0.6-0.6,1-1.4,1.4-2.3C211.9,29.3,212.1,28.2,212.1,26.9z"/>
		<path fill="#C95B5E" d="M225.5,20.1c-0.4,0-0.8,0-1.3,0c-0.4,0-0.9,0-1.3,0c-0.4,0-0.9,0.1-1.3,0.1c-0.4,0-0.8,0.1-1.1,0.1
			c0.1-0.3,0.1-0.5,0.1-0.7c0-0.2,0-0.4-0.1-0.7c1,0,2,0.1,3,0.1c1,0,2,0,3,0s2,0,3,0c1,0,2-0.1,3-0.1c-0.1,0.3-0.1,0.6-0.1,0.7
			c0,0.2,0,0.4,0.1,0.7c-0.3,0-0.7-0.1-1.1-0.1c-0.4,0-0.8-0.1-1.3-0.1c-0.4,0-0.9,0-1.3,0c-0.4,0-0.9,0-1.3,0
			c0,1.6-0.1,3.2-0.1,4.8v4c0,1,0,2,0.1,3c0,1,0.1,2,0.1,2.9c-0.4,0-0.7,0-1.1,0s-0.8,0-1.1,0c0-1,0.1-1.9,0.1-2.9c0-1,0.1-2,0.1-3
			v-4C225.6,23.3,225.6,21.7,225.5,20.1z"/>
		<path fill="#C95B5E" d="M235.3,21.9c0-1-0.1-2-0.1-3c0.2,0,0.4,0.1,0.6,0.1c0.2,0,0.4,0,0.6,0c0.2,0,0.4,0,0.6,0
			c0.2,0,0.4-0.1,0.6-0.1c0,1-0.1,2-0.1,3c0,1-0.1,2-0.1,3v4c0,1,0,2,0.1,3c0,1,0.1,2,0.1,2.9c-0.4,0-0.7,0-1.1,0
			c-0.4,0-0.8,0-1.1,0c0-1,0.1-1.9,0.1-2.9c0-1,0.1-2,0.1-3v-4C235.3,23.9,235.3,22.9,235.3,21.9z"/>
		<path fill="#C95B5E" d="M246.6,25c1.1,2.1,2.2,4.2,3.4,6.4c0.2-0.3,0.4-0.7,0.7-1.3c0.3-0.6,0.6-1.2,1-1.9
			c0.4-0.7,0.8-1.5,1.2-2.3c0.4-0.8,0.9-1.7,1.4-2.5c0.5-0.9,0.9-1.7,1.4-2.5c0.5-0.8,0.9-1.6,1.3-2.3h0.3c0.2,1.5,0.3,2.9,0.5,4.3
			c0.1,1.4,0.3,2.8,0.5,4.1c0.2,1.3,0.3,2.7,0.5,4c0.2,1.3,0.3,2.6,0.5,3.9c-0.2,0-0.4,0-0.5,0c-0.2,0-0.4,0-0.5,0
			c-0.2,0-0.4,0-0.5,0c-0.2,0-0.4,0-0.5,0c-0.2-2.1-0.3-4.1-0.5-6s-0.4-3.9-0.6-5.9h0c-1.1,2-2.1,3.9-3.2,5.8c-1,1.9-2,4-2.9,6.1
			h-0.2c-0.9-2-1.9-3.9-2.9-5.9c-1-2-2-4-3.1-6h0c-0.1,1-0.2,2-0.4,3.1c-0.1,1.1-0.3,2.2-0.4,3.3c-0.1,1.1-0.2,2.1-0.3,3.1
			c-0.1,1-0.1,1.8-0.1,2.4c-0.2,0-0.5,0-0.8,0c-0.3,0-0.6,0-0.8,0c0.2-1.3,0.4-2.6,0.6-4c0.2-1.4,0.4-2.8,0.6-4.2
			c0.2-1.4,0.4-2.8,0.6-4.2c0.2-1.4,0.3-2.7,0.4-3.9h0.4C244.4,20.8,245.5,22.9,246.6,25z"/>
		<path fill="#C95B5E" d="M262.5,21.9c0-1-0.1-2-0.1-3c0.7,0,1.4,0.1,2.1,0.1c0.7,0,1.4,0,2.1,0c0.7,0,1.4,0,2.1,0
			c0.7,0,1.4-0.1,2.1-0.1c0,0.2-0.1,0.5-0.1,0.7c0,0.2,0,0.5,0.1,0.7c-0.5,0-1-0.1-1.4-0.1c-0.4,0-0.8-0.1-1.3-0.1
			c-0.5,0-1-0.1-1.5-0.1c-0.5,0-1.2,0-2,0c0,0.5,0,1-0.1,1.4c0,0.5,0,1,0,1.5c0,0.6,0,1.2,0,1.8c0,0.6,0,1,0,1.3c0.7,0,1.3,0,1.8,0
			c0.5,0,1,0,1.5-0.1c0.5,0,0.9,0,1.2-0.1c0.4,0,0.7-0.1,1.1-0.1c0,0.2-0.1,0.5-0.1,0.7c0,0.2,0,0.5,0.1,0.7c-0.4,0-0.9-0.1-1.4-0.1
			c-0.5,0-1.1-0.1-1.6-0.1c-0.5,0-1,0-1.5,0c-0.5,0-0.9,0-1.1,0c0,0.1,0,0.3,0,0.5s0,0.4,0,0.6V29v1.4c0,0.9,0,1.6,0,2.2
			c0,0.6,0,1,0,1.3c0.5,0,1.1,0,1.6,0c0.6,0,1.2,0,1.7,0c0.6,0,1.1-0.1,1.6-0.1c0.5,0,0.9-0.1,1.3-0.2c0,0.1-0.1,0.2-0.1,0.4
			c0,0.1,0,0.3,0,0.4c0,0.2,0,0.5,0.1,0.6c-0.7,0-1.4,0-2.1,0c-0.7,0-1.4,0-2.1,0s-1.4,0-2.1,0s-1.4,0-2.1,0c0-1,0.1-2,0.1-3
			c0-1,0.1-2,0.1-3v-4C262.6,23.9,262.5,22.9,262.5,21.9z"/>
		<path fill="#C95B5E" d="M274.2,24.9c0-1,0-2-0.1-3c0-1-0.1-2-0.1-3c0.4,0,0.9,0.1,1.3,0.1c0.4,0,0.9,0,1.3,0c0.4,0,0.9,0,1.3-0.1
			c0.4,0,0.9-0.1,1.3-0.1c0.7,0,1.3,0.1,1.9,0.2c0.6,0.1,1.1,0.3,1.6,0.6c0.4,0.3,0.8,0.7,1,1.1c0.3,0.5,0.4,1,0.4,1.7
			c0,0.7-0.2,1.4-0.5,1.9s-0.7,1-1.2,1.3c-0.5,0.3-1,0.6-1.6,0.8s-1.1,0.3-1.5,0.4c0.2,0.2,0.4,0.6,0.8,1c0.3,0.4,0.7,0.9,1.1,1.4
			c0.4,0.5,0.8,1,1.3,1.6c0.4,0.6,0.9,1.1,1.3,1.6c0.4,0.5,0.8,1,1.1,1.4c0.4,0.4,0.6,0.7,0.9,1c-0.2,0-0.5,0-0.7,0s-0.5,0-0.7,0
			c-0.2,0-0.4,0-0.7,0s-0.5,0-0.7,0c-0.2-0.3-0.6-0.8-1.1-1.5s-1-1.4-1.6-2.1c-0.6-0.7-1.2-1.5-1.8-2.2c-0.6-0.7-1.1-1.4-1.6-1.9
			h-0.9v1.7c0,1,0,2,0.1,3c0,1,0.1,2,0.1,2.9c-0.4,0-0.7,0-1.1,0c-0.4,0-0.8,0-1.1,0c0-1,0.1-1.9,0.1-2.9c0-1,0.1-2,0.1-3V24.9z
			 M276.1,26.2c0.2,0,0.5,0.1,0.7,0.1c0.3,0,0.5,0,0.9,0c0.5,0,1-0.1,1.5-0.2c0.5-0.1,1-0.3,1.4-0.6c0.4-0.3,0.8-0.6,1.1-1.1
			c0.3-0.5,0.4-1,0.4-1.7c0-0.6-0.1-1.1-0.3-1.5c-0.2-0.4-0.5-0.7-0.9-0.9c-0.4-0.2-0.7-0.4-1.2-0.5c-0.4-0.1-0.8-0.1-1.2-0.1
			c-0.5,0-1,0-1.4,0c-0.4,0-0.7,0.1-0.9,0.1c0,0.9-0.1,1.7-0.1,2.5c0,0.8,0,1.7,0,2.5V26.2z"/>
		<g>
			<path fill="#C95B5E" d="M290.8,21.4c0.7-0.9,1.4-1.6,2-1.9s1.3-0.5,2-0.5c1.3,0,2.3,0.5,3,1.4c0.6,0.7,0.8,1.5,0.8,2.3
				c0,1.4-0.7,2.7-2.2,3.9c-0.5,0.5-0.9,0.9-1.1,1.3c-0.2,0.4-0.3,0.9-0.3,1.6h-2.4c0.1-1.3,0.2-2.2,0.4-2.8s0.7-1.2,1.4-1.9
				c0.8-0.8,1.1-1.4,1.1-2c0-0.3-0.1-0.6-0.3-0.8c-0.2-0.2-0.5-0.3-0.8-0.3c-0.5,0-1,0.3-1.7,0.9c-0.1,0.1-0.2,0.2-0.3,0.2
				L290.8,21.4z M292.4,31.5h3v3.4h-3V31.5z"/>
		</g>
	</g>
</g>
</svg>
