<?xml version="1.0" encoding="utf-8"?>
<!-- Generator: Adobe Illustrator 22.0.0, SVG Export Plug-In . SVG Version: 6.00 Build 0)  -->
<svg version="1.1" id="Layer_1" xmlns="http://www.w3.org/2000/svg" xmlns:xlink="http://www.w3.org/1999/xlink" x="0px" y="0px"
	 viewBox="0 0 595.3 503.3" style="enable-background:new 0 0 595.3 503.3;" xml:space="preserve">
<style type="text/css">
	.st0{fill:#EAC3B5;}
	.st1{fill:#F2D4C7;}
	.st2{fill:#FFEDE5;}
	.st3{fill:#C95B5E;}
</style>
<g>
	<g>
		<g>
			<path class="st0" d="M83.6,461.4c0,0-5.2,31.2,3.4,39.8c8.3,8.3,423.4-1.4,425.5-5.2c5.8-11.2,0-37.4,0-37.4l-404.8,2.8
				L83.6,461.4L83.6,461.4z"/>
			<g>
				<path class="st1" d="M249.9,359C250.1,359,250.1,359,249.9,359C250.1,359,250.1,359,249.9,359z"/>
				<path class="st1" d="M244.4,359.2c1.9-0.1,3.6-0.1,5.5-0.2C248.1,359,246.2,359.2,244.4,359.2z"/>
				<path class="st1" d="M242.6,359.3c0.6,0,1.4,0,2-0.1C243.8,359.2,243.2,359.3,242.6,359.3z"/>
				<path class="st1" d="M269.6,358.4c0.2,0,0.5,0,0.7,0C270.1,358.4,269.8,358.4,269.6,358.4z"/>
				<path class="st1" d="M270.4,358.4c2.2-0.1,4.2-0.1,6.5-0.2C274.5,358.3,272.3,358.3,270.4,358.4z"/>
				<path class="st1" d="M237.3,359.4c1.9-0.1,3.4-0.1,5.2-0.2C240.8,359.3,238.9,359.4,237.3,359.4z"/>
				<path class="st1" d="M250.1,359c6.3-0.2,12.9-0.4,19.5-0.6C262.9,358.7,256.4,358.9,250.1,359z"/>
				<path class="st1" d="M207.7,395.9c0.2-0.1,0.5-0.1,0.6-0.2C208.2,395.8,208,395.9,207.7,395.9z"/>
				<path class="st1" d="M276.8,358.3c0.1,0,0.3,0,0.4,0C277,358.3,276.9,358.3,276.8,358.3z"/>
				<path class="st1" d="M207.6,395.9L207.6,395.9L207.6,395.9C207.7,395.9,207.6,395.9,207.6,395.9z"/>
				<path class="st1" d="M207.4,360.3c6.9-0.2,14.5-0.4,22.2-0.6C221.9,359.9,214.3,360.1,207.4,360.3z"/>
				<path class="st1" d="M229.6,359.7c0.9,0,2-0.1,3-0.1C231.5,359.5,230.7,359.5,229.6,359.7z"/>
				<path class="st1" d="M232.3,359.5c1.1,0,2.3-0.1,3.5-0.1C234.8,359.5,233.7,359.5,232.3,359.5z"/>
				<path class="st1" d="M235.9,359.5c0.4,0,0.9,0,1.2,0C236.9,359.4,236.4,359.5,235.9,359.5z"/>
				<path class="st1" d="M388.4,438.2c0,0-167.1,1.5-174.3,0s-3.9-34.4-3.9-34.4l-2.5-7.8c-0.9,0.2-1.9,0.3-2.7,0.3
					c-6.7,0-12.3-4.9-13.3-11.3c-6-2.6-19.1-9.6-28.6-23.4c-7.8,0.2-12.2,0.4-12.2,0.4c-7.9,0-16,0.6-27.6,9.4
					s-50.9,90.1-36.8,101.3c11.3,14.1,421.2,12.7,426-11.2c2.8-10.8-40-106-52.3-107.4c-1.6-0.2-8.1-0.2-18-0.1
					c-7.6,10.8-20.6,26.2-35.7,31.3c-0.7,5.5-4.4,11.7-10.1,12.8C396.5,398.1,402.5,438.2,388.4,438.2z M184.3,458.6
					c-29.9,7.6-44.3-12.4-47.6-20.5c-3.2-8.2-10.6-26.2,6.1-39.6c0,0,18.3-14.5,41.8-1.9C204.3,407.4,214.1,451.1,184.3,458.6z"/>
				<path class="st1" d="M390.8,355.1c0.1,0,0.1,0,0.2,0C391,355.1,391,355.1,390.8,355.1z"/>
				<path class="st1" d="M311.5,357.2c0.1,0,0.1,0,0.2,0H311.5z"/>
				<path class="st1" d="M311.8,357.2c4.5-0.1,9.1-0.2,13.5-0.4C320.8,357,316.4,357.1,311.8,357.2z"/>
				<path class="st1" d="M325.3,356.8c0.1,0,0.3,0,0.4,0C325.6,356.8,325.4,356.8,325.3,356.8z"/>
				<path class="st1" d="M277.2,358.3c11.3-0.3,22.8-0.6,34.4-1C300,357.6,288.6,357.9,277.2,358.3z"/>
				<path class="st1" d="M359.6,355.9c10.9-0.3,21.5-0.6,31.3-0.9C380.9,355.4,370.5,355.6,359.6,355.9z"/>
				<path class="st1" d="M359.4,355.9C359.4,355.9,359.6,355.9,359.4,355.9C359.6,355.9,359.4,355.9,359.4,355.9z"/>
				<path class="st1" d="M325.7,356.8c11.4-0.3,22.8-0.6,33.7-0.9C348.5,356.2,337.2,356.5,325.7,356.8z"/>
			</g>
			<g>
				<path class="st2" d="M377.9,66.7c-7.8,2.3-10.2,6-10.2,6c17,13.5,11.2,37.9,11.2,37.9C361,98.1,329.6,95,329.6,95
					c14.8,14.7,8.6,50.7,8.6,50.7c-29.7,1.6-66.9-38.2-66.9-38.2c-10.4,18.9-42.8,35.1-42.8,35.1c-12.5-16.8-10.6-53-10.6-53
					c-15.9-0.5-37.7,2.7-52.9,5.5c-33.7,30.9-54.7,74.1-54.7,121.9c0,33.5,10.2,64.7,28.1,91.1c-2.8-32.5,11.7-49.3,11.7-49.3
					l11.9,5.8c0,0-10.6,14.3-10.1,40.3c0.2,10.3,2.5,19,4.9,25.6c10.3,10.8,22.2,20.4,35,28.4l4.2-0.1c-6.9-25.3-18.3-71.7-9.9-83.7
					c11.7-16.5,208.7-12.9,220.4,0c6.1,6.7,3.5,42.2-0.4,74.2c15-11.4,28.1-25,38.6-40.3c0.4-10.6-0.7-27.4-9-42.5l11.7-6.1
					c0,0,6.7,7.1,10.1,26.3c10.2-21.3,16-45.1,16-70C473.6,151.7,434.8,95.5,377.9,66.7z"/>
				<path class="st2" d="M279.6,39.1c0,0-5.5-25.4-21.6-32.3c0,0,20.6-9.2,29.7-7.2c9,2,13.2,36.9,13.2,36.9s44.6-18.1,74.7-2
					c0,0-34.5,14-43.8,29.7c0,0,17.3,5.6,26.4,12.5c9.2,6.9,14.2,20.2,14.2,20.2S335,77.4,307.6,80.4c0,0,20.8,25.2,23.2,49.9
					c0,0-27.1-7.4-38-19.9c-10.9-12.4-12.9-21-18.6-23.6c0,0-30.4,35-40.1,36.7c0,0-7.8-18.1,5.6-45.2c0,0-39.4,0.4-53,4.2
					c0,0,9.7-25.2,56-31.4c0,0-22.7-17-38-15.9C204,35.3,230.7,13.7,279.6,39.1z"/>
				<circle class="st3" cx="382.2" cy="215.8" r="11.2"/>
				<circle class="st3" cx="197.3" cy="215.8" r="11.2"/>
				<g>
					<path class="st3" d="M292.4,242.3c-0.1,0-0.2,0-0.4,0c-4.9-0.1-7.8-2.6-9.4-4.4c-1.7-2.1-2.2-4.2-2.2-4.2l1.9-0.4
						c0.1,0.3,1.9,7.2,9.8,7.3c3.3,0.1,6-1.4,7.6-4.2c1.4-2.3,1.7-4.5,1.7-4.7l1.9,0.2C303.2,232,301.7,242.3,292.4,242.3z"/>
				</g>
				<path class="st2" d="M205.3,374.4c-3.5,0-6.6,2.1-8.2,5.2c-5.3-2.1-11.7-5.7-18.1-11.2c-9-7.3-21-20.6-27.8-41
					c-11.9-36,1.5-56.9,1.6-57.1l-2.7-1.9c-0.6,0.9-14.5,22.2-2,59.6c10,30.1,32.5,48.3,48.3,54.2c0,0.2,0,0.4,0,0.5
					c0,4.9,3.9,8.9,8.9,8.9c4.9,0,8.9-3.9,8.9-8.9C214.2,378.4,210.2,374.4,205.3,374.4z"/>
				<path class="st2" d="M391.2,374.4c3.5,0,6.6,2.1,8.2,5.2c5.3-2.1,11.7-5.7,18.1-11.2c9-7.3,21-20.6,27.8-41
					c11.9-36-1.5-56.9-1.6-57.1l2.7-1.9c0.6,0.9,14.5,22.2,2,59.6c-10,30.1-32.5,48.3-48.3,54.2c0,0.2,0,0.4,0,0.5
					c0,4.9-3.9,8.9-8.9,8.9s-8.9-3.9-8.9-8.9C382.2,378.4,386.3,374.4,391.2,374.4z"/>
			</g>
			<g>
				<path class="st2" d="M386.9,431.4H218.3c-2.2,0-3.9-1.9-3.9-3.9v-16.4c0-2.2,1.9-3.9,3.9-3.9h168.6c2.2,0,3.9,1.9,3.9,3.9v16.4
					C390.8,429.5,389,431.4,386.9,431.4z"/>
				<path class="st2" d="M388.1,401.8H216.9c0,0-32-99.9-20.4-120c5-8.6,189.7-8.6,201.4-1.9C407,285.3,388.1,401.8,388.1,401.8z"/>
				<g>
					<path class="st3" d="M306.4,330c-1-0.4-2.3-1.9-2.3-1.9s1,0.2,2.5,0c1.4-0.2,2.2-1.6,2.2-1.6s-1.1,0.3-2.6,0.3
						s-3.4-0.6-3.4-0.6c0.9-1.5,3.2-2.3,3.2-2.3s-1-0.4-3-0.1c-1.4,0.2-2.6,1-3.2,1.6c0.1-0.6,0.2-1.7,0.2-2.7
						c0-2.1-0.5-3.3-0.5-3.3c-1.5-0.2-2.6,1.1-2.6,1.1s0.6,0.5,1,1.7c0.3,0.7,0.4,2.2,0.5,3.2c-3.2-2-6.6-2-6.6-2
						c1.4,0.6,2,3.2,2,3.2c-2,0.6-6.3,0-6.3,0s0.1,0.4,1.7,1.7c1.6,1.2,4.2,0.3,4.2,0.3s-0.6,0.5-1,2s0.3,2.2,0.3,2.1
						c0-0.1,0.6-1.2,1.9-2.2c1.1-0.9,3-1.1,3-1.1c0.7,3.6,4.1,4.2,4.1,4.2s0.1-0.7,0.1-1.5c0-0.7-1-3.1-1-3.1s1.7,1.6,3.3,2.1
						c1.9,0.5,4.3,0.6,4.3,0.6S307.7,330.3,306.4,330z"/>
					<path class="st3" d="M316.5,338.4c-1.7-5.3-5-8.3-8.3-9.9c-0.5,0.4-0.9,0.5-0.9,0.5c1.9,0.9,2.1,3.3,2.1,3.3
						c-3.4,0.4-6.9-1-6.9-1c0.1,2-0.9,3.2-0.9,3.2c-3-0.6-5.3-3.9-5.3-3.9c-1.6,0.4-3.5,3.2-3.5,3.2c-2-1.9-0.9-4.3-0.9-4.3
						c-1.9,0.2-3.5-0.3-4.7-0.7c-6,3.6-9,10.4-7.8,16.4c2,9.2,11.1,16.2,23.4,14.5C315,357.9,320.2,350.7,316.5,338.4z"/>
				</g>
			</g>
			<path class="st2" d="M196.7,428.4c0,0-12.7-4.7-25.6-1.7c-12.9,3.2-24.4,14.1-24.4,14.1c3.2,4,10.1,17.5,33.1,12.2
				C202.7,447.6,196.7,428.4,196.7,428.4z M172.5,448.3l-6.2-16.5c0,0,5.2-4.3,11.1-4.2l7.6,15.8
				C184.7,443.5,178.2,449.3,172.5,448.3z"/>
			<path class="st2" d="M144.2,438.2c0,0,11.8-11.2,25.7-14.8c14.1-3.5,26.6,2.5,26.6,2.5s-6.6-32.3-35.7-28.2
				C131.7,401.6,139.6,431.6,144.2,438.2z"/>
			<path class="st2" d="M169.4,434.1c0,0,3.4-3,7.2-2.8l5.1,10.3c0,0-4.3,3.7-8.2,3.3L169.4,434.1z"/>
		</g>
		<path class="st1" d="M402.5,354.9c-0.4,4.3-1.1,9.9-1.7,15.9l0,0c0.7,0.6,1.4,1.2,2,2c4.2-2.1,13.5-7.6,20.5-18.4
			C417,354.5,409.9,354.7,402.5,354.9L402.5,354.9z"/>
		<path class="st1" d="M196.7,360.7c-7.2,0.2-14,0.4-19.7,0.6c4.2,4,11.3,9.9,18.1,12.4c1.2-1.4,3-2.6,4.5-3.3l0,0L196.7,360.7z"/>
	</g>
	<g>
		<g>
			<path class="st2" d="M488.7,96.6l16.6,13.3c0,0,10.1-5.7,15-6c4.8-0.3,21-3.8,27.5-10.1s11.2-21,9.5-30.6s-11.5-29-35.8-29
				c-24.3,0-34.3,25-34.3,29c0,4.1,3,19.8,3.6,22.3C491.5,88,488.7,96.6,488.7,96.6z"/>
			<path class="st2" d="M499.3,117l-16.6-13.1c-0.6-0.5-0.7-1.4-0.2-2l1.6-2c0.5-0.6,1.4-0.7,2-0.2l16.6,13.2c0.6,0.5,0.7,1.4,0.2,2
				l-1.6,2C500.9,117.5,499.9,117.5,499.3,117z"/>
			<g>
				<path class="st2" d="M504.4,111.2c-0.4-0.2-0.7-0.3-1.1-0.6l-14.5-11.4c-1.7-1.4-2.1-3.9-0.9-5.8c0.3-0.6,1.9-4.7,0.4-11.8
					c-0.2-1.2-0.6-2.6-0.9-3.8c-2-7.8-4.7-17.4,6.2-31.4c7.9-10.1,26.9-17,42.8-10.9c6.3,2.5,11.6,6.5,15.9,12.6
					c7.8,10.9,9.6,21.9,5.4,32.8c-3.8,9.7-11.1,15.9-13.4,17.6c-5,3.8-11.5,4.9-18,5.9s-12.7,2-16.9,5.9
					C507.9,111.3,506.1,111.8,504.4,111.2z M535,38.3c-14.5-5.5-32,0.6-39.1,9.9c-9.9,12.8-7.6,21.2-5.7,28.6c0.3,1.4,0.7,2.7,1,3.9
					c1.9,9-0.6,13.9-0.7,14l-0.1,0.2c-0.3,0.5-0.3,1.1,0.2,1.5l14.5,11.4c0.5,0.3,1.1,0.3,1.5-0.2l0.1-0.2
					c4.9-4.6,11.8-5.7,18.6-6.7c5.9-0.9,12.2-2,16.5-5.3c2.7-2,25.5-20.7,7.4-46.2C545.7,44.3,540.8,40.6,535,38.3z"/>
			</g>
			<path class="st2" d="M495.2,122.3l-16.5-13.1c-0.6-0.5-0.7-1.4-0.2-2l1.6-2c0.5-0.6,1.4-0.7,2-0.2l16.6,13.2
				c0.6,0.5,0.7,1.4,0.2,2l-1.6,2C496.7,122.6,495.7,122.8,495.2,122.3z"/>
			<path class="st2" d="M491,127.7l-16.6-13.2c-0.6-0.5-0.7-1.4-0.2-2l1.6-2c0.5-0.6,1.4-0.7,2-0.2l16.6,13.2c0.6,0.5,0.7,1.4,0.2,2
				l-1.6,2C492.4,128.2,491.6,128.2,491,127.7z"/>
			<g>
				<path class="st3" d="M499,99.7l-1-1.4c1.4-0.9,4.1-3.3,5.8-5.5c-2.6-0.2-5-1.2-6.4-2.9c-1.6-1.9-2-4.2-1-6.7
					c1.1-2.8,3.2-2.9,4.3-2.8c3.3,0.6,6.7,5.3,6.8,8.5c0,0.5-0.1,1-0.2,1.6c3.7-1.1,5.7-3.8,6.3-7.3c-1.2,0.1-2.7-0.1-4.2-0.7
					c-2.7-1.2-5.7-4.1-5.8-7.5c-0.1-2.1,1.1-3.8,3.3-4.1c3.2-0.4,7,2,8.2,6.7c0.2,0.9,0.3,1.6,0.4,2.5c2.2-2.7,0.6-8.1-0.1-10.5
					c-1.2-3.8,6.2-9.7,7.9-10.8l1.1,1.5c-3.3,2.6-7.8,6.8-7.3,8.7c0.9,2.9,3.1,9.7-1.1,13c-0.2,0.1-0.4,0.2-0.6,0.4
					c-0.3,4.8-3.2,8.2-8,9.7c-0.4,0.1-0.9,0.2-1.4,0.3C503.9,96.1,499.6,99.2,499,99.7z M500.5,82.5c-0.2,0-0.3-0.1-0.5-0.1
					c-0.6-0.1-1.4-0.1-2.1,1.5c-0.9,2.1-0.1,3.8,0.7,4.7c1.4,1.5,3.9,2.6,6.2,2.5c0.3-0.6,0.5-1.2,0.5-1.9
					C505.1,86.5,502.8,83.3,500.5,82.5z M508.8,73.2c-0.7-0.2-1.4-0.3-2-0.3c-0.7,0.1-1.7,0.5-1.7,2c0.2,2.6,2.6,4.9,4.7,5.9
					c1.2,0.5,2.6,0.7,3.4,0.5c0-1-0.2-2-0.4-3.2C512.3,75.6,510.5,73.8,508.8,73.2z"/>
			</g>
		</g>
	</g>
	<g>
		<path class="st2" d="M449.7,63.1c0,0,21.8-0.2,23.2,2c1.5,2.3-18.8,10.1-21.2,9.1C449.4,73.1,444.9,64.5,449.7,63.1z"/>
		<path class="st2" d="M467.6,22.2c0,0,15.9,15.5,15.4,18.2s-21-6-21.9-8.7C460,29.3,462.9,19.7,467.6,22.2z"/>
		<path class="st2" d="M504.8,2.9c0,0-0.4,20.5-2.7,21.8c-2.2,1.4-9.1-18.1-8.1-20.3C495.2,2.3,503.5-1.8,504.8,2.9z"/>
		<path class="st2" d="M586.8,49c0,0-19.9,5.7-21.8,3.9c-2-1.7,14.8-13.9,17.1-13.5C584.7,39.7,591.1,46.7,586.8,49z"/>
		<path class="st2" d="M578.9,99.7c0,0-16.1-12.8-15.9-15.4s19.9,3.7,21.2,5.9C585.2,92.4,583.4,101.5,578.9,99.7z"/>
		<path class="st2" d="M547.2,132.9c0,0-5.7-19.8-3.9-21.8c1.7-2,14,14.6,13.5,17.1C556.6,130.7,549.9,137,547.2,132.9z"/>
		<path class="st2" d="M516.2,136.5c0,0,4.7-20,7.1-20.9c2.6-0.9,5.2,19.6,3.7,21.5C525.5,139.3,516.4,141.3,516.2,136.5z"/>
		<path class="st2" d="M552.7,6.2c0,0-9.2,18.3-11.8,18.7s-0.5-20.2,1.4-21.8C544.4,1.5,553.7,1.5,552.7,6.2z"/>
	</g>
</g>
</svg>
