<?xml version="1.0" encoding="utf-8"?>
<!-- Generator: Adobe Illustrator 18.0.0, SVG Export Plug-In . SVG Version: 6.00 Build 0)  -->
<!DOCTYPE svg PUBLIC "-//W3C//DTD SVG 1.1//EN" "http://www.w3.org/Graphics/SVG/1.1/DTD/svg11.dtd">
<svg version="1.1" id="Layer_1" xmlns="http://www.w3.org/2000/svg" xmlns:xlink="http://www.w3.org/1999/xlink" x="0px" y="0px"
	 viewBox="90.6 358.7 595.3 599.6" enable-background="new 90.6 358.7 595.3 599.6" xml:space="preserve">
<g>
	<path fill="#EAC3B5" d="M92.4,907.8c0,0-6.2,37.1,4.1,47.3c9.8,9.8,503.2-1.6,505.7-6.2c6.9-13.3,0-44.5,0-44.5l-481.1,3.3
		L92.4,907.8L92.4,907.8z"/>
	<g>
		<path fill="#F2D4C7" d="M290,786.2C290.2,786.2,290.2,786.2,290,786.2C290.2,786.2,290.2,786.2,290,786.2z"/>
		<path fill="#F2D4C7" d="M283.6,786.4c2.2-0.1,4.3-0.1,6.6-0.2C287.9,786.2,285.7,786.4,283.6,786.4z"/>
		<path fill="#F2D4C7" d="M281.3,786.5c0.7,0,1.6,0,2.4-0.1C282.7,786.4,282,786.5,281.3,786.5z"/>
		<path fill="#F2D4C7" d="M313.4,785.5c0.2,0,0.6,0,0.8,0C314,785.5,313.7,785.5,313.4,785.5z"/>
		<path fill="#F2D4C7" d="M314.3,785.5c2.6-0.1,5-0.1,7.7-0.2C319.3,785.4,316.7,785.4,314.3,785.5z"/>
		<path fill="#F2D4C7" d="M275,786.6c2.2-0.1,4.1-0.1,6.2-0.2C279.2,786.5,277,786.6,275,786.6z"/>
		<path fill="#F2D4C7" d="M290.2,786.2c7.5-0.2,15.3-0.5,23.2-0.7C305.5,785.8,297.7,786,290.2,786.2z"/>
		<path fill="#F2D4C7" d="M239.9,830c0.2-0.1,0.6-0.1,0.7-0.2C240.4,829.9,240.2,830,239.9,830z"/>
		<path fill="#F2D4C7" d="M322,785.3c0.1,0,0.4,0,0.5,0C322.2,785.3,322.1,785.3,322,785.3z"/>
		<path fill="#F2D4C7" d="M239.8,830L239.8,830L239.8,830C239.9,830,239.8,830,239.8,830z"/>
		<path fill="#F2D4C7" d="M239.5,787.7c8.2-0.2,17.2-0.5,26.4-0.7C256.7,787.2,247.7,787.4,239.5,787.7z"/>
		<path fill="#F2D4C7" d="M265.9,787c1.1,0,2.3-0.1,3.5-0.1C268.2,786.8,267.1,786.8,265.9,787z"/>
		<path fill="#F2D4C7" d="M269.2,786.8c1.3,0,2.7-0.1,4.2-0.1C272.1,786.7,270.8,786.7,269.2,786.8z"/>
		<path fill="#F2D4C7" d="M273.4,786.7c0.5,0,1,0,1.4,0C274.5,786.6,274,786.7,273.4,786.7z"/>
		<path fill="#F2D4C7" d="M454.6,880.2c0,0-198.6,1.7-207.2,0c-8.6-1.7-4.7-40.9-4.7-40.9l-2.9-9.3c-1,0.2-2.2,0.4-3.2,0.4
			c-8,0-14.6-5.9-15.8-13.5c-7.1-3-22.7-11.4-34-27.7c-9.2,0.2-14.5,0.5-14.5,0.5c-9.4,0-19,0.7-32.8,11.1
			c-13.7,10.4-60.4,107-43.6,120.4c13.5,16.7,500.7,15.1,506.3-13.4c3.3-12.9-47.6-126-62.2-127.7c-1.9-0.2-9.6-0.2-21.4-0.1
			c-9,12.9-24.5,31.2-42.4,37.2c-0.8,6.5-5.3,13.9-12.1,15.2C464.2,832.5,471.4,880.2,454.6,880.2z M212.1,904.6
			c-35.5,9-52.7-14.7-56.6-24.4c-3.7-9.7-12.7-31.1,7.3-47.1c0,0,21.8-17.2,49.6-2.2C235.9,843.7,247.5,895.5,212.1,904.6z"/>
		<path fill="#F2D4C7" d="M457.5,781.5c0.1,0,0.1,0,0.2,0C457.7,781.5,457.7,781.5,457.5,781.5z"/>
		<path fill="#F2D4C7" d="M363.3,784c0.1,0,0.1,0,0.2,0C363.5,784,363.3,784,363.3,784z"/>
		<path fill="#F2D4C7" d="M363.6,784c5.4-0.1,10.8-0.2,16-0.5C374.3,783.7,369,783.8,363.6,784z"/>
		<path fill="#F2D4C7" d="M379.7,783.5c0.1,0,0.4,0,0.5,0C380.1,783.5,379.8,783.5,379.7,783.5z"/>
		<path fill="#F2D4C7" d="M322.4,785.3c13.5-0.4,27.1-0.7,40.9-1.2C349.6,784.4,336,784.9,322.4,785.3z"/>
		<path fill="#F2D4C7" d="M420.4,782.4c13-0.4,25.5-0.7,37.2-1C445.8,781.8,433.3,782.1,420.4,782.4z"/>
		<path fill="#F2D4C7" d="M420.2,782.4C420.2,782.4,420.4,782.4,420.2,782.4C420.4,782.4,420.2,782.4,420.2,782.4z"/>
		<path fill="#F2D4C7" d="M380.2,783.5c13.6-0.4,27-0.7,40.1-1.1C407.2,782.8,393.7,783.1,380.2,783.5z"/>
	</g>
	<g>
		<path fill="#FFEDE5" d="M442.1,438.7c-9.3,2.7-12.2,7.1-12.2,7.1c20.3,16.1,13.4,45.1,13.4,45.1c-21.3-14.9-58.6-18.5-58.6-18.5
			c17.6,17.5,10.2,60.3,10.2,60.3c-35.2,1.9-79.5-45.4-79.5-45.4c-12.4,22.5-50.8,41.7-50.8,41.7c-14.9-20-12.6-63-12.6-63
			c-18.8-0.6-44.8,3.2-62.9,6.6c-40.1,36.8-65,88.1-65,144.9c0,39.8,12.2,77,33.4,108.3c-3.3-38.6,13.9-58.5,13.9-58.5l14.2,6.9
			c0,0-12.6,17-12.1,47.9c0.2,12.3,2.9,22.6,5.9,30.5c12.3,12.9,26.3,24.3,41.6,33.7l5-0.1c-8.2-30.1-21.8-85.2-11.7-99.4
			c13.9-19.6,248-15.3,262,0c7.3,8,4.2,50.1-0.5,88.2c17.8-13.6,33.4-29.8,45.9-47.9c0.5-12.6-0.8-32.6-10.6-50.5l13.9-7.3
			c0,0,8,8.4,12.1,31.3c12.2-25.3,19-53.6,19-83.2C555.9,539.8,509.8,472.9,442.1,438.7z"/>
		<path fill="#FFEDE5" d="M325.3,405.9c0,0-6.5-30.2-25.6-38.4c0,0,24.5-10.9,35.2-8.5c10.6,2.4,15.7,43.9,15.7,43.9
			s53.1-21.6,88.8-2.4c0,0-41,16.6-52.1,35.2c0,0,20.6,6.7,31.4,14.9c10.9,8.2,16.9,24,16.9,24s-44.5-23.2-77.1-19.5
			c0,0,24.7,30,27.5,59.2c0,0-32.2-8.8-45.2-23.6c-13-14.7-15.4-25-22.1-28.1c0,0-36.2,41.6-47.7,43.6c0,0-9.3-21.6,6.7-53.8
			c0,0-46.9,0.5-63,5c0,0,11.5-30,66.5-37.3c0,0-26.9-20.3-45.2-18.9C235.4,401.3,267.1,375.7,325.3,405.9z"/>
		<circle fill="#C95B5E" cx="447.3" cy="615.9" r="13.3"/>
		<circle fill="#C95B5E" cx="227.4" cy="615.9" r="13.3"/>
		<g>
			<path fill="#C95B5E" d="M340.6,647.4c-0.1,0-0.2,0-0.5,0c-5.9-0.1-9.3-3-11.1-5.3c-2-2.5-2.6-5-2.6-5l2.2-0.5
				c0.1,0.4,2.2,8.5,11.6,8.7c3.9,0.1,7.1-1.6,9-5c1.6-2.7,2-5.4,2-5.6l2.2,0.2C353.4,635.2,351.6,647.4,340.6,647.4z"/>
		</g>
		<path fill="#FFEDE5" d="M237,804.4c-4.2,0-7.9,2.5-9.7,6.2c-6.3-2.5-13.9-6.8-21.6-13.3c-10.6-8.7-25-24.5-33-48.7
			c-14.2-42.8,1.7-67.6,1.9-67.8l-3.2-2.2c-0.7,1.1-17.2,26.3-2.4,70.9c11.8,35.7,38.7,57.4,57.4,64.4c0,0.2,0,0.5,0,0.6
			c0,5.9,4.7,10.5,10.5,10.5c5.9,0,10.5-4.7,10.5-10.5C247.6,809.2,242.8,804.4,237,804.4z"/>
		<path fill="#FFEDE5" d="M457.9,804.4c4.2,0,7.9,2.5,9.7,6.2c6.3-2.5,13.9-6.8,21.6-13.3c10.6-8.7,25-24.5,33-48.7
			c14.2-42.8-1.7-67.6-1.9-67.8l3.2-2.2c0.7,1.1,17.2,26.3,2.4,70.9c-11.8,35.7-38.7,57.4-57.4,64.4c0,0.2,0,0.5,0,0.6
			c0,5.9-4.7,10.5-10.5,10.5s-10.5-4.7-10.5-10.5C447.3,809.2,452.2,804.4,457.9,804.4z"/>
	</g>
	<g>
		<path fill="#FFEDE5" d="M452.9,872.1H252.5c-2.6,0-4.7-2.2-4.7-4.7V848c0-2.6,2.2-4.7,4.7-4.7h200.4c2.6,0,4.7,2.2,4.7,4.7v19.4
			C457.5,869.9,455.4,872.1,452.9,872.1z"/>
		<path fill="#FFEDE5" d="M454.3,837H250.8c0,0-38.1-118.7-24.3-142.6c6-10.2,225.4-10.2,239.4-2.2C476.8,698.6,454.3,837,454.3,837
			z"/>
		<g>
			<path fill="#C95B5E" d="M357.2,751.6c-1.2-0.5-2.7-2.2-2.7-2.2s1.2,0.2,2.9,0c1.6-0.2,2.6-1.9,2.6-1.9s-1.3,0.4-3.1,0.4
				c-1.8,0-4.1-0.7-4.1-0.7c1-1.7,3.8-2.7,3.8-2.7s-1.2-0.5-3.5-0.1c-1.6,0.2-3.1,1.2-3.8,1.9c0.1-0.7,0.2-2,0.2-3.2
				c0-2.5-0.6-3.9-0.6-3.9c-1.7-0.2-3,1.3-3,1.3s0.7,0.6,1.2,2c0.4,0.8,0.5,2.6,0.6,3.7c-3.7-2.3-7.9-2.3-7.9-2.3
				c1.6,0.7,2.4,3.7,2.4,3.7c-2.3,0.7-7.5,0-7.5,0s0.1,0.5,2,2c1.9,1.4,5,0.4,5,0.4s-0.7,0.6-1.2,2.4c-0.5,1.7,0.4,2.6,0.4,2.5
				c0-0.1,0.7-1.4,2.2-2.6c1.3-1.1,3.5-1.3,3.5-1.3c0.8,4.3,4.9,5,4.9,5s0.1-0.8,0.1-1.7c0-0.8-1.2-3.6-1.2-3.6s2,1.9,3.9,2.5
				c2.2,0.6,5.1,0.7,5.1,0.7S358.7,752,357.2,751.6z"/>
			<path fill="#C95B5E" d="M369.1,761.7c-2-6.3-6-9.8-9.8-11.7c-0.6,0.5-1.1,0.6-1.1,0.6c2.2,1.1,2.5,3.9,2.5,3.9
				c-4.1,0.5-8.2-1.2-8.2-1.2c0.1,2.4-1,3.7-1,3.7c-3.5-0.7-6.3-4.7-6.3-4.7c-1.9,0.5-4.2,3.7-4.2,3.7c-2.4-2.2-1.1-5.1-1.1-5.1
				c-2.2,0.2-4.2-0.4-5.6-0.8c-7.1,4.3-10.6,12.4-9.2,19.4c2.3,10.9,13.2,19.2,27.7,17.2C367.4,784.8,373.6,776.2,369.1,761.7z"/>
		</g>
	</g>
	<path fill="#FFEDE5" d="M226.7,868.6c0,0-15.1-5.6-30.4-2c-15.3,3.7-29.1,16.7-29.1,16.7c3.8,4.8,12,20.9,39.3,14.5
		C233.9,891.4,226.7,868.6,226.7,868.6z M198,892.3l-7.4-19.5c0,0,6.2-5.1,13.2-5l9,18.7C212.6,886.5,204.8,893.4,198,892.3z"/>
	<path fill="#FFEDE5" d="M164.5,880.2c0,0,14-13.3,30.6-17.6c16.7-4.2,31.6,2.9,31.6,2.9s-7.8-38.4-42.4-33.5
		C149.6,836.8,158.9,872.4,164.5,880.2z"/>
	<path fill="#FFEDE5" d="M194.3,875.4c0,0,4.1-3.5,8.6-3.3l6,12.3c0,0-5.1,4.5-9.7,3.9L194.3,875.4z"/>
</g>
<g>
	<g>
		<path fill="#FFEDE5" d="M566,491.8c0,0,3.9-5.1,1-20c-3-14.7-5.4-32.8,15.9-45.3c21.2-12.7,52.8-4.9,60.9,22.8
			c8,27.7-13.4,42.7-21.3,46.5c-8,3.9-24.2,3.7-30.1,7.5C586.3,507.2,589.5,513.3,566,491.8z"/>
		<path fill="#FFEDE5" d="M578.2,515.3L559,500.3c-0.7-0.6-0.8-1.6-0.2-2.3l1.9-2.4c0.6-0.7,1.6-0.8,2.3-0.2l19.1,15.1
			c0.7,0.6,0.8,1.6,0.2,2.3l-1.9,2.4C580,515.8,578.9,515.9,578.2,515.3z"/>
		<g>
			<path fill="#FFEDE5" d="M584,508.6c-0.5-0.2-0.8-0.4-1.3-0.7L566,494.8c-2-1.6-2.5-4.5-1-6.7c0.4-0.7,2.2-5.4,0.5-13.6
				c-0.2-1.4-0.7-2.9-1.1-4.3c-2.4-8.8-5.4-19.8,7.2-36c9-11.6,30.8-19.5,49.1-12.6c7.3,2.7,13.4,7.5,18.3,14.3
				c8.8,12.6,11,25.1,6.2,37.7c-4.3,11.1-12.8,18.3-15.4,20.2c-5.7,4.4-13.3,5.6-20.7,6.8c-7.5,1.2-14.6,2.3-19.4,6.8
				C588.1,508.7,585.9,509.3,584,508.6z M619.2,424.8c-16.7-6.3-36.7,0.7-45,11.4c-11.4,14.7-8.7,24.4-6.6,32.9
				c0.4,1.6,0.8,3.1,1.2,4.5c2.2,10.3-0.7,16-0.8,16.1l-0.1,0.2c-0.4,0.6-0.4,1.3,0.2,1.8l16.7,13.2c0.6,0.4,1.3,0.4,1.8-0.2
				l0.1-0.2c5.6-5.3,13.6-6.6,21.4-7.8c6.8-1.1,14-2.3,19-6.1c3-2.4,29.3-23.8,8.5-53C631.5,431.7,625.9,427.4,619.2,424.8z"/>
		</g>
		<path fill="#FFEDE5" d="M573.5,521.4l-19.1-15.1c-0.7-0.6-0.8-1.6-0.2-2.3l1.9-2.4c0.6-0.7,1.6-0.8,2.3-0.2l19.1,15.1
			c0.7,0.6,0.8,1.6,0.2,2.3l-1.9,2.4C575.2,521.8,574.1,521.9,573.5,521.4z"/>
		<path fill="#FFEDE5" d="M568.6,527.6l-19.1-15.1c-0.7-0.6-0.8-1.6-0.2-2.3l1.9-2.4c0.6-0.7,1.6-0.8,2.3-0.2l19.1,15.1
			c0.7,0.6,0.8,1.6,0.2,2.3l-1.9,2.4C570.3,528.1,569.2,528.1,568.6,527.6z"/>
		<g>
			<path fill="#C95B5E" d="M577.8,495.4l-1.2-1.7c1.6-1.1,4.7-3.7,6.7-6.3c-2.9-0.2-5.7-1.4-7.4-3.3c-1.9-2.2-2.4-4.8-1.2-7.7
				c1.3-3.2,3.6-3.3,4.9-3.2c3.8,0.7,7.7,6.1,7.9,9.7c0,0.6-0.1,1.2-0.2,1.9c4.2-1.3,6.6-4.3,7.3-8.2c-1.4,0.1-3-0.1-4.8-0.8
				c-3.1-1.4-6.6-4.7-6.7-8.6c-0.1-2.5,1.3-4.4,3.8-4.7c3.6-0.5,8.1,2.3,9.4,7.8c0.2,1,0.4,1.9,0.5,2.7c2.6-3.1,0.7-9.3-0.1-12.1
				c-1.4-4.4,7.2-11.1,9-12.4l1.3,1.8c-3.8,2.9-8.8,7.9-8.2,10c1.1,3.3,3.5,11.2-1.3,14.9c-0.2,0.1-0.5,0.2-0.7,0.5
				c-0.4,5.5-3.6,9.4-9.1,11.2c-0.5,0.1-1,0.2-1.6,0.4C583.4,491.3,578.5,494.9,577.8,495.4z M579.6,475.6c-0.2,0-0.4-0.1-0.6-0.1
				c-0.7-0.1-1.7-0.1-2.5,1.8c-1.1,2.5-0.1,4.3,0.8,5.4c1.6,1.8,4.5,2.9,7.2,2.7c0.4-0.7,0.6-1.4,0.6-2.2
				C585,480.3,582.1,476.6,579.6,475.6z M589.2,465c-0.8-0.2-1.7-0.4-2.3-0.4c-0.8,0.1-2,0.6-2,2.4c0.2,2.9,2.9,5.6,5.4,6.8
				c1.4,0.6,2.9,0.8,3.9,0.6c0-1.2-0.2-2.4-0.5-3.6C593.1,467.6,591.1,465.7,589.2,465z"/>
		</g>
	</g>
</g>
<path fill="#FFEDE5" d="M527.4,453.7c0,0,24.9-0.2,26.5,2.4c1.7,2.6-21.5,11.6-24.3,10.4C527,465.2,521.9,455.3,527.4,453.7z"/>
<path fill="#FFEDE5" d="M547.9,407c0,0,18.2,17.7,17.6,20.8s-24-6.9-25.1-9.9C539.2,415,542.5,404.1,547.9,407z"/>
<path fill="#FFEDE5" d="M590.4,384.9c0,0-0.5,23.4-3,25c-2.5,1.6-10.4-20.7-9.3-23.2C579.4,384.2,588.9,379.6,590.4,384.9z"/>
<path fill="#FFEDE5" d="M684.2,437.6c0,0-22.7,6.5-24.9,4.4c-2.3-2,16.9-15.9,19.5-15.5C681.7,427,689.1,434.9,684.2,437.6z"/>
<path fill="#FFEDE5" d="M675.1,495.6c0,0-18.4-14.6-18.2-17.6c0.2-2.9,22.7,4.2,24.2,6.8C682.3,487.2,680.2,497.6,675.1,495.6z"/>
<path fill="#FFEDE5" d="M638.9,533.5c0,0-6.5-22.6-4.5-24.9c2-2.3,16,16.7,15.5,19.5C649.6,531,641.9,538.2,638.9,533.5z"/>
<path fill="#FFEDE5" d="M603.4,537.6c0,0,5.4-22.8,8.1-23.9c2.9-1,6,22.4,4.2,24.6C614,540.8,603.6,543.2,603.4,537.6z"/>
<path fill="#FFEDE5" d="M645.2,388.7c0,0-10.5,21-13.5,21.4c-3,0.4-0.6-23.1,1.6-25C635.7,383.3,646.3,383.3,645.2,388.7z"/>
<path fill="#F2D4C7" d="M471.4,781.3c-0.5,5.1-1.3,11.7-2,18.8l0,0c0.8,0.7,1.6,1.4,2.4,2.4c5-2.5,16.1-9,24.4-21.9
	c-7.5,0.1-15.9,0.4-24.7,0.5L471.4,781.3z"/>
<path fill="#F2D4C7" d="M226.7,788.1c-8.6,0.2-16.6,0.5-23.4,0.7c5,4.8,13.5,11.7,21.6,14.7c1.4-1.6,3.5-3,5.4-3.9l0,0L226.7,788.1z
	"/>
</svg>
