<?xml version="1.0" encoding="utf-8"?>
<!-- Generator: Adobe Illustrator 18.0.0, SVG Export Plug-In . SVG Version: 6.00 Build 0)  -->
<!DOCTYPE svg PUBLIC "-//W3C//DTD SVG 1.1//EN" "http://www.w3.org/Graphics/SVG/1.1/DTD/svg11.dtd">
<svg version="1.1" id="Layer_1" xmlns="http://www.w3.org/2000/svg" xmlns:xlink="http://www.w3.org/1999/xlink" x="0px" y="0px"
	 viewBox="0 509 595.3 503.3" enable-background="new 0 509 595.3 503.3" xml:space="preserve">
<g>
	<g>
		<g>
			<path fill="#EAC3B5" d="M83.6,970.4c0,0-5.2,31.2,3.4,39.8c8.3,8.3,423.4-1.4,425.5-5.2c5.8-11.2,0-37.4,0-37.4l-404.8,2.8
				L83.6,970.4L83.6,970.4z"/>
			<g>
				<path fill="#F2D4C7" d="M249.9,868C250.1,868,250.1,868,249.9,868C250.1,868,250.1,868,249.9,868z"/>
				<path fill="#F2D4C7" d="M244.4,868.2c1.9-0.1,3.6-0.1,5.5-0.2C248.1,868,246.2,868.2,244.4,868.2z"/>
				<path fill="#F2D4C7" d="M242.6,868.3c0.6,0,1.4,0,2-0.1C243.8,868.2,243.2,868.3,242.6,868.3z"/>
				<path fill="#F2D4C7" d="M269.6,867.4c0.2,0,0.5,0,0.7,0C270.1,867.4,269.8,867.4,269.6,867.4z"/>
				<path fill="#F2D4C7" d="M270.4,867.4c2.2-0.1,4.2-0.1,6.5-0.2C274.5,867.3,272.3,867.3,270.4,867.4z"/>
				<path fill="#F2D4C7" d="M237.3,868.4c1.9-0.1,3.4-0.1,5.2-0.2C240.8,868.3,238.9,868.4,237.3,868.4z"/>
				<path fill="#F2D4C7" d="M250.1,868c6.3-0.2,12.9-0.4,19.5-0.6C262.9,867.7,256.4,867.9,250.1,868z"/>
				<path fill="#F2D4C7" d="M207.7,904.9c0.2-0.1,0.5-0.1,0.6-0.2C208.2,904.8,208,904.9,207.7,904.9z"/>
				<path fill="#F2D4C7" d="M276.8,867.3c0.1,0,0.3,0,0.4,0C277,867.3,276.9,867.3,276.8,867.3z"/>
				<path fill="#F2D4C7" d="M207.6,904.9L207.6,904.9L207.6,904.9C207.7,904.9,207.6,904.9,207.6,904.9z"/>
				<path fill="#F2D4C7" d="M207.4,869.3c6.9-0.2,14.5-0.4,22.2-0.6C221.9,868.9,214.3,869.1,207.4,869.3z"/>
				<path fill="#F2D4C7" d="M229.6,868.7c0.9,0,2-0.1,3-0.1C231.5,868.5,230.7,868.5,229.6,868.7z"/>
				<path fill="#F2D4C7" d="M232.3,868.5c1.1,0,2.3-0.1,3.5-0.1C234.8,868.5,233.7,868.5,232.3,868.5z"/>
				<path fill="#F2D4C7" d="M235.9,868.5c0.4,0,0.9,0,1.2,0C236.9,868.4,236.4,868.5,235.9,868.5z"/>
				<path fill="#F2D4C7" d="M388.4,947.2c0,0-167.1,1.5-174.3,0c-7.2-1.5-3.9-34.4-3.9-34.4l-2.5-7.8c-0.9,0.2-1.9,0.3-2.7,0.3
					c-6.7,0-12.3-4.9-13.3-11.3c-6-2.6-19.1-9.6-28.6-23.4c-7.8,0.2-12.2,0.4-12.2,0.4c-7.9,0-16,0.6-27.6,9.4
					s-50.9,90.1-36.8,101.3c11.3,14.1,421.2,12.7,426-11.2c2.8-10.8-40-106-52.3-107.4c-1.6-0.2-8.1-0.2-18-0.1
					c-7.6,10.8-20.6,26.2-35.7,31.3c-0.7,5.5-4.4,11.7-10.1,12.8C396.5,907.1,402.5,947.2,388.4,947.2z M184.3,967.6
					c-29.9,7.6-44.3-12.4-47.6-20.5c-3.2-8.2-10.6-26.2,6.1-39.6c0,0,18.3-14.5,41.8-1.9C204.3,916.4,214.1,960.1,184.3,967.6z"/>
				<path fill="#F2D4C7" d="M390.8,864.1c0.1,0,0.1,0,0.2,0C391,864.1,391,864.1,390.8,864.1z"/>
				<path fill="#F2D4C7" d="M311.5,866.2c0.1,0,0.1,0,0.2,0H311.5z"/>
				<path fill="#F2D4C7" d="M311.8,866.2c4.5-0.1,9.1-0.2,13.5-0.4C320.8,866,316.4,866.1,311.8,866.2z"/>
				<path fill="#F2D4C7" d="M325.3,865.8c0.1,0,0.3,0,0.4,0C325.6,865.8,325.4,865.8,325.3,865.8z"/>
				<path fill="#F2D4C7" d="M277.2,867.3c11.3-0.3,22.8-0.6,34.4-1C300,866.6,288.6,866.9,277.2,867.3z"/>
				<path fill="#F2D4C7" d="M359.6,864.9c10.9-0.3,21.5-0.6,31.3-0.9C380.9,864.4,370.5,864.6,359.6,864.9z"/>
				<path fill="#F2D4C7" d="M359.4,864.9C359.4,864.9,359.6,864.9,359.4,864.9C359.6,864.9,359.4,864.9,359.4,864.9z"/>
				<path fill="#F2D4C7" d="M325.7,865.8c11.4-0.3,22.8-0.6,33.7-0.9C348.5,865.2,337.2,865.5,325.7,865.8z"/>
			</g>
			<g>
				<path fill="#FFEDE5" d="M377.9,575.7c-7.8,2.3-10.2,6-10.2,6c17,13.5,11.2,37.9,11.2,37.9c-17.9-12.5-49.3-15.6-49.3-15.6
					c14.8,14.7,8.6,50.7,8.6,50.7c-29.7,1.6-66.9-38.2-66.9-38.2c-10.4,18.9-42.8,35.1-42.8,35.1c-12.5-16.8-10.6-53-10.6-53
					c-15.9-0.5-37.7,2.7-52.9,5.5c-33.7,30.9-54.7,74.1-54.7,121.9c0,33.5,10.2,64.7,28.1,91.1c-2.8-32.5,11.7-49.3,11.7-49.3
					l11.9,5.8c0,0-10.6,14.3-10.1,40.3c0.2,10.3,2.5,19,4.9,25.6c10.3,10.8,22.2,20.4,35,28.4l4.2-0.1c-6.9-25.3-18.3-71.7-9.9-83.7
					c11.7-16.5,208.7-12.9,220.4,0c6.1,6.7,3.5,42.2-0.4,74.2c15-11.4,28.1-25,38.6-40.3c0.4-10.6-0.7-27.4-9-42.5l11.7-6.1
					c0,0,6.7,7.1,10.1,26.3c10.2-21.3,16-45.1,16-70C473.6,660.7,434.8,604.5,377.9,575.7z"/>
				<path fill="#FFEDE5" d="M279.6,548.1c0,0-5.5-25.4-21.6-32.3c0,0,20.6-9.2,29.7-7.2c9,2,13.2,36.9,13.2,36.9s44.6-18.1,74.7-2
					c0,0-34.5,14-43.8,29.7c0,0,17.3,5.6,26.4,12.5c9.2,6.9,14.2,20.2,14.2,20.2s-37.4-19.5-64.8-16.5c0,0,20.8,25.2,23.2,49.9
					c0,0-27.1-7.4-38-19.9c-10.9-12.4-12.9-21-18.6-23.6c0,0-30.4,35-40.1,36.7c0,0-7.8-18.1,5.6-45.2c0,0-39.4,0.4-53,4.2
					c0,0,9.7-25.2,56-31.4c0,0-22.7-17-38-15.9C204,544.3,230.7,522.7,279.6,548.1z"/>
				<circle fill="#C95B5E" cx="382.2" cy="724.8" r="11.2"/>
				<circle fill="#C95B5E" cx="197.3" cy="724.8" r="11.2"/>
				<g>
					<path fill="#C95B5E" d="M292.4,751.3c-0.1,0-0.2,0-0.4,0c-4.9-0.1-7.8-2.6-9.4-4.4c-1.7-2.1-2.2-4.2-2.2-4.2l1.9-0.4
						c0.1,0.3,1.9,7.2,9.8,7.3c3.3,0.1,6-1.4,7.6-4.2c1.4-2.3,1.7-4.5,1.7-4.7l1.9,0.2C303.2,741,301.7,751.3,292.4,751.3z"/>
				</g>
				<path fill="#FFEDE5" d="M205.3,883.4c-3.5,0-6.6,2.1-8.2,5.2c-5.3-2.1-11.7-5.7-18.1-11.2c-9-7.3-21-20.6-27.8-41
					c-11.9-36,1.5-56.9,1.6-57.1l-2.7-1.9c-0.6,0.9-14.5,22.2-2,59.6c10,30.1,32.5,48.3,48.3,54.2c0,0.2,0,0.4,0,0.5
					c0,4.9,3.9,8.9,8.9,8.9c4.9,0,8.9-3.9,8.9-8.9C214.2,887.4,210.2,883.4,205.3,883.4z"/>
				<path fill="#FFEDE5" d="M391.2,883.4c3.5,0,6.6,2.1,8.2,5.2c5.3-2.1,11.7-5.7,18.1-11.2c9-7.3,21-20.6,27.8-41
					c11.9-36-1.5-56.9-1.6-57.1l2.7-1.9c0.6,0.9,14.5,22.2,2,59.6c-10,30.1-32.5,48.3-48.3,54.2c0,0.2,0,0.4,0,0.5
					c0,4.9-3.9,8.9-8.9,8.9s-8.9-3.9-8.9-8.9C382.2,887.4,386.3,883.4,391.2,883.4z"/>
			</g>
			<g>
				<path fill="#FFEDE5" d="M386.9,940.4H218.3c-2.2,0-3.9-1.9-3.9-3.9v-16.4c0-2.2,1.9-3.9,3.9-3.9h168.6c2.2,0,3.9,1.9,3.9,3.9
					v16.4C390.8,938.5,389,940.4,386.9,940.4z"/>
				<path fill="#FFEDE5" d="M388.1,910.8H216.9c0,0-32-99.9-20.4-120c5-8.6,189.7-8.6,201.4-1.9C407,794.3,388.1,910.8,388.1,910.8z
					"/>
				<g>
					<path fill="#C95B5E" d="M306.4,839c-1-0.4-2.3-1.9-2.3-1.9s1,0.2,2.5,0c1.4-0.2,2.2-1.6,2.2-1.6s-1.1,0.3-2.6,0.3
						s-3.4-0.6-3.4-0.6c0.9-1.5,3.2-2.3,3.2-2.3s-1-0.4-3-0.1c-1.4,0.2-2.6,1-3.2,1.6c0.1-0.6,0.2-1.7,0.2-2.7
						c0-2.1-0.5-3.3-0.5-3.3c-1.5-0.2-2.6,1.1-2.6,1.1s0.6,0.5,1,1.7c0.3,0.7,0.4,2.2,0.5,3.2c-3.2-2-6.6-2-6.6-2
						c1.4,0.6,2,3.2,2,3.2c-2,0.6-6.3,0-6.3,0s0.1,0.4,1.7,1.7c1.6,1.2,4.2,0.3,4.2,0.3s-0.6,0.5-1,2c-0.4,1.5,0.3,2.2,0.3,2.1
						c0-0.1,0.6-1.2,1.9-2.2c1.1-0.9,3-1.1,3-1.1c0.7,3.6,4.1,4.2,4.1,4.2s0.1-0.7,0.1-1.5c0-0.7-1-3.1-1-3.1s1.7,1.6,3.3,2.1
						c1.9,0.5,4.3,0.6,4.3,0.6S307.7,839.3,306.4,839z"/>
					<path fill="#C95B5E" d="M316.5,847.4c-1.7-5.3-5-8.3-8.3-9.9c-0.5,0.4-0.9,0.5-0.9,0.5c1.9,0.9,2.1,3.3,2.1,3.3
						c-3.4,0.4-6.9-1-6.9-1c0.1,2-0.9,3.2-0.9,3.2c-3-0.6-5.3-3.9-5.3-3.9c-1.6,0.4-3.5,3.2-3.5,3.2c-2-1.9-0.9-4.3-0.9-4.3
						c-1.9,0.2-3.5-0.3-4.7-0.7c-6,3.6-9,10.4-7.8,16.4c2,9.2,11.1,16.2,23.4,14.5C315,866.9,320.2,859.7,316.5,847.4z"/>
				</g>
			</g>
			<path fill="#FFEDE5" d="M196.7,937.4c0,0-12.7-4.7-25.6-1.7c-12.9,3.2-24.4,14.1-24.4,14.1c3.2,4,10.1,17.5,33.1,12.2
				C202.7,956.6,196.7,937.4,196.7,937.4z M172.5,957.3l-6.2-16.5c0,0,5.2-4.3,11.1-4.2l7.6,15.8
				C184.7,952.5,178.2,958.3,172.5,957.3z"/>
			<path fill="#FFEDE5" d="M144.2,947.2c0,0,11.8-11.2,25.7-14.8c14.1-3.5,26.6,2.5,26.6,2.5s-6.6-32.3-35.7-28.2
				C131.7,910.6,139.6,940.6,144.2,947.2z"/>
			<path fill="#FFEDE5" d="M169.4,943.1c0,0,3.4-3,7.2-2.8l5.1,10.3c0,0-4.3,3.7-8.2,3.3L169.4,943.1z"/>
		</g>
		<path fill="#F2D4C7" d="M402.5,863.9c-0.4,4.3-1.1,9.9-1.7,15.9l0,0c0.7,0.6,1.4,1.2,2,2c4.2-2.1,13.5-7.6,20.5-18.4
			c-6.3,0.1-13.4,0.3-20.8,0.4L402.5,863.9z"/>
		<path fill="#F2D4C7" d="M196.7,869.7c-7.2,0.2-14,0.4-19.7,0.6c4.2,4,11.3,9.9,18.1,12.4c1.2-1.4,3-2.6,4.5-3.3l0,0L196.7,869.7z"
			/>
	</g>
	<g>
		<g>
			<path fill="#FFEDE5" d="M488.7,605.6l16.6,13.3c0,0,10.1-5.7,15-6c4.8-0.3,21-3.8,27.5-10.1c6.5-6.3,11.2-21,9.5-30.6
				c-1.7-9.6-11.5-29-35.8-29c-24.3,0-34.3,25-34.3,29c0,4.1,3,19.8,3.6,22.3C491.5,597,488.7,605.6,488.7,605.6z"/>
			<path fill="#FFEDE5" d="M499.3,626l-16.6-13.1c-0.6-0.5-0.7-1.4-0.2-2l1.6-2c0.5-0.6,1.4-0.7,2-0.2l16.6,13.2
				c0.6,0.5,0.7,1.4,0.2,2l-1.6,2C500.9,626.5,499.9,626.5,499.3,626z"/>
			<g>
				<path fill="#FFEDE5" d="M504.4,620.2c-0.4-0.2-0.7-0.3-1.1-0.6l-14.5-11.4c-1.7-1.4-2.1-3.9-0.9-5.8c0.3-0.6,1.9-4.7,0.4-11.8
					c-0.2-1.2-0.6-2.6-0.9-3.8c-2-7.8-4.7-17.4,6.2-31.4c7.9-10.1,26.9-17,42.8-10.9c6.3,2.5,11.6,6.5,15.9,12.6
					c7.8,10.9,9.6,21.9,5.4,32.8c-3.8,9.7-11.1,15.9-13.4,17.6c-5,3.8-11.5,4.9-18,5.9c-6.5,1-12.7,2-16.9,5.9
					C507.9,620.3,506.1,620.8,504.4,620.2z M535,547.3c-14.5-5.5-32,0.6-39.1,9.9c-9.9,12.8-7.6,21.2-5.7,28.6
					c0.3,1.4,0.7,2.7,1,3.9c1.9,9-0.6,13.9-0.7,14l-0.1,0.2c-0.3,0.5-0.3,1.1,0.2,1.5l14.5,11.4c0.5,0.3,1.1,0.3,1.5-0.2l0.1-0.2
					c4.9-4.6,11.8-5.7,18.6-6.7c5.9-0.9,12.2-2,16.5-5.3c2.7-2,25.5-20.7,7.4-46.2C545.7,553.3,540.8,549.6,535,547.3z"/>
			</g>
			<path fill="#FFEDE5" d="M495.2,631.3l-16.5-13.1c-0.6-0.5-0.7-1.4-0.2-2l1.6-2c0.5-0.6,1.4-0.7,2-0.2l16.6,13.2
				c0.6,0.5,0.7,1.4,0.2,2l-1.6,2C496.7,631.6,495.7,631.8,495.2,631.3z"/>
			<path fill="#FFEDE5" d="M491,636.7l-16.6-13.2c-0.6-0.5-0.7-1.4-0.2-2l1.6-2c0.5-0.6,1.4-0.7,2-0.2l16.6,13.2
				c0.6,0.5,0.7,1.4,0.2,2l-1.6,2C492.4,637.2,491.6,637.2,491,636.7z"/>
			<g>
				<path fill="#C95B5E" d="M499,608.7l-1-1.4c1.4-0.9,4.1-3.3,5.8-5.5c-2.6-0.2-5-1.2-6.4-2.9c-1.6-1.9-2-4.2-1-6.7
					c1.1-2.8,3.2-2.9,4.3-2.8c3.3,0.6,6.7,5.3,6.8,8.5c0,0.5-0.1,1-0.2,1.6c3.7-1.1,5.7-3.8,6.3-7.3c-1.2,0.1-2.7-0.1-4.2-0.7
					c-2.7-1.2-5.7-4.1-5.8-7.5c-0.1-2.1,1.1-3.8,3.3-4.1c3.2-0.4,7,2,8.2,6.7c0.2,0.9,0.3,1.6,0.4,2.5c2.2-2.7,0.6-8.1-0.1-10.5
					c-1.2-3.8,6.2-9.7,7.9-10.8l1.1,1.5c-3.3,2.6-7.8,6.8-7.3,8.7c0.9,2.9,3.1,9.7-1.1,13c-0.2,0.1-0.4,0.2-0.6,0.4
					c-0.3,4.8-3.2,8.2-8,9.7c-0.4,0.1-0.9,0.2-1.4,0.3C503.9,605.1,499.6,608.2,499,608.7z M500.5,591.5c-0.2,0-0.3-0.1-0.5-0.1
					c-0.6-0.1-1.4-0.1-2.1,1.5c-0.9,2.1-0.1,3.8,0.7,4.7c1.4,1.5,3.9,2.6,6.2,2.5c0.3-0.6,0.5-1.2,0.5-1.9
					C505.1,595.5,502.8,592.3,500.5,591.5z M508.8,582.2c-0.7-0.2-1.4-0.3-2-0.3c-0.7,0.1-1.7,0.5-1.7,2c0.2,2.6,2.6,4.9,4.7,5.9
					c1.2,0.5,2.6,0.7,3.4,0.5c0-1-0.2-2-0.4-3.2C512.3,584.6,510.5,582.8,508.8,582.2z"/>
			</g>
		</g>
	</g>
	<g>
		<path fill="#FFEDE5" d="M449.7,572.1c0,0,21.8-0.2,23.2,2c1.5,2.3-18.8,10.1-21.2,9.1C449.4,582.1,444.9,573.5,449.7,572.1z"/>
		<path fill="#FFEDE5" d="M467.6,531.2c0,0,15.9,15.5,15.4,18.2c-0.5,2.7-21-6-21.9-8.7C460,538.3,462.9,528.7,467.6,531.2z"/>
		<path fill="#FFEDE5" d="M504.8,511.9c0,0-0.4,20.5-2.7,21.8c-2.2,1.4-9.1-18.1-8.1-20.3C495.2,511.3,503.5,507.2,504.8,511.9z"/>
		<path fill="#FFEDE5" d="M586.8,558c0,0-19.9,5.7-21.8,3.9c-2-1.7,14.8-13.9,17.1-13.5C584.7,548.7,591.1,555.7,586.8,558z"/>
		<path fill="#FFEDE5" d="M578.9,608.7c0,0-16.1-12.8-15.9-15.4s19.9,3.7,21.2,5.9C585.2,601.4,583.4,610.5,578.9,608.7z"/>
		<path fill="#FFEDE5" d="M547.2,641.9c0,0-5.7-19.8-3.9-21.8c1.7-2,14,14.6,13.5,17.1C556.6,639.7,549.9,646,547.2,641.9z"/>
		<path fill="#FFEDE5" d="M516.2,645.5c0,0,4.7-20,7.1-20.9c2.6-0.9,5.2,19.6,3.7,21.5C525.5,648.3,516.4,650.3,516.2,645.5z"/>
		<path fill="#FFEDE5" d="M552.7,515.2c0,0-9.2,18.3-11.8,18.7c-2.6,0.4-0.5-20.2,1.4-21.8C544.4,510.5,553.7,510.5,552.7,515.2z"/>
	</g>
</g>
</svg>
