<?xml version="1.0" encoding="utf-8"?>
<!-- Generator: Adobe Illustrator 18.0.0, SVG Export Plug-In . SVG Version: 6.00 Build 0)  -->
<!DOCTYPE svg PUBLIC "-//W3C//DTD SVG 1.1//EN" "http://www.w3.org/Graphics/SVG/1.1/DTD/svg11.dtd">
<svg version="1.1" id="Layer_1" xmlns="http://www.w3.org/2000/svg" xmlns:xlink="http://www.w3.org/1999/xlink" x="0px" y="0px"
	 viewBox="90.5 238.5 497.9 502.1" enable-background="new 90.5 238.5 497.9 502.1" xml:space="preserve">
<g>
	<path fill="#EAC3B5" d="M92.1,697.3c0,0-5.2,31,3.4,39.6c8.2,8.2,420.9-1.3,423-5.2c5.8-11.1,0-37.2,0-37.2l-402.4,2.8L92.1,697.3
		L92.1,697.3z"/>
	<g>
		<path fill="#F2D4C7" d="M257.4,595.6C257.5,595.6,257.5,595.6,257.4,595.6C257.5,595.6,257.5,595.6,257.4,595.6z"/>
		<path fill="#F2D4C7" d="M252,595.7c1.8-0.1,3.6-0.1,5.5-0.2C255.6,595.6,253.8,595.7,252,595.7z"/>
		<path fill="#F2D4C7" d="M250.1,595.8c0.6,0,1.3,0,2-0.1C251.3,595.7,250.7,595.8,250.1,595.8z"/>
		<path fill="#F2D4C7" d="M276.9,595c0.2,0,0.5,0,0.7,0C277.4,595,277.2,595,276.9,595z"/>
		<path fill="#F2D4C7" d="M277.7,595c2.2-0.1,4.2-0.1,6.4-0.2C281.9,594.9,279.7,594.9,277.7,595z"/>
		<path fill="#F2D4C7" d="M244.8,595.9c1.8-0.1,3.4-0.1,5.2-0.2C248.3,595.8,246.5,595.9,244.8,595.9z"/>
		<path fill="#F2D4C7" d="M257.5,595.6c6.3-0.2,12.8-0.4,19.4-0.6C270.3,595.2,263.8,595.4,257.5,595.6z"/>
		<path fill="#F2D4C7" d="M215.5,632.2c0.2-0.1,0.5-0.1,0.6-0.2C215.9,632.1,215.7,632.2,215.5,632.2z"/>
		<path fill="#F2D4C7" d="M284.1,594.8c0.1,0,0.3,0,0.4,0C284.3,594.8,284.2,594.8,284.1,594.8z"/>
		<path fill="#F2D4C7" d="M215.4,632.2L215.4,632.2L215.4,632.2C215.5,632.2,215.4,632.2,215.4,632.2z"/>
		<path fill="#F2D4C7" d="M215.1,596.8c6.9-0.2,14.4-0.4,22.1-0.6C229.5,596.4,222,596.6,215.1,596.8z"/>
		<path fill="#F2D4C7" d="M237.2,596.2c0.9,0,1.9-0.1,2.9-0.1C239.1,596.1,238.2,596.1,237.2,596.2z"/>
		<path fill="#F2D4C7" d="M240,596.1c1.1,0,2.3-0.1,3.5-0.1C242.4,596,241.3,596,240,596.1z"/>
		<path fill="#F2D4C7" d="M243.5,596c0.4,0,0.8,0,1.2,0C244.4,595.9,244,596,243.5,596z"/>
		<path fill="#F2D4C7" d="M395,674.2c0,0-166.1,1.4-173.3,0c-7.2-1.4-3.9-34.2-3.9-34.2l-2.4-7.8c-0.8,0.2-1.8,0.3-2.7,0.3
			c-6.7,0-12.2-4.9-13.2-11.3c-5.9-2.5-19-9.5-28.4-23.2c-7.7,0.2-12.1,0.4-12.1,0.4c-7.9,0-15.9,0.6-27.4,9.3
			c-11.5,8.7-50.5,89.5-36.5,100.7c11.3,14,418.8,12.6,423.5-11.2c2.8-10.8-39.8-105.4-52-106.8c-1.6-0.2-8-0.2-17.9-0.1
			c-7.5,10.8-20.5,26.1-35.5,31.1c-0.7,5.4-4.4,11.6-10.1,12.7C403.1,634.3,409.1,674.2,395,674.2z M192.2,694.6
			c-29.7,7.5-44.1-12.3-47.3-20.4c-3.1-8.1-10.6-26,6.1-39.4c0,0,18.2-14.4,41.5-1.8C212.1,643.7,221.8,687,192.2,694.6z"/>
		<path fill="#F2D4C7" d="M397.5,591.6c0.1,0,0.1,0,0.2,0C397.6,591.6,397.6,591.6,397.5,591.6z"/>
		<path fill="#F2D4C7" d="M318.7,593.7c0.1,0,0.1,0,0.2,0C318.8,593.7,318.7,593.7,318.7,593.7z"/>
		<path fill="#F2D4C7" d="M318.9,593.7c4.5-0.1,9-0.2,13.4-0.4C327.9,593.5,323.4,593.6,318.9,593.7z"/>
		<path fill="#F2D4C7" d="M332.4,593.3c0.1,0,0.3,0,0.4,0C332.7,593.3,332.5,593.3,332.4,593.3z"/>
		<path fill="#F2D4C7" d="M284.5,594.8c11.3-0.3,22.7-0.6,34.2-1C307.2,594.1,295.8,594.5,284.5,594.8z"/>
		<path fill="#F2D4C7" d="M366.4,592.4c10.9-0.3,21.3-0.6,31.1-0.8C387.7,591.9,377.2,592.1,366.4,592.4z"/>
		<path fill="#F2D4C7" d="M366.3,592.4C366.3,592.4,366.4,592.4,366.3,592.4C366.4,592.4,366.3,592.4,366.3,592.4z"/>
		<path fill="#F2D4C7" d="M332.8,593.3c11.4-0.3,22.6-0.6,33.5-0.9C355.4,592.7,344.1,593,332.8,593.3z"/>
	</g>
	<g>
		<path fill="#FFEDE5" d="M384.6,304.9c-7.8,2.3-10.2,5.9-10.2,5.9c17,13.5,11.2,37.7,11.2,37.7c-17.8-12.5-49-15.5-49-15.5
			c14.7,14.6,8.5,50.4,8.5,50.4c-29.4,1.6-66.5-38-66.5-38c-10.4,18.8-42.5,34.9-42.5,34.9c-12.5-16.7-10.5-52.7-10.5-52.7
			c-15.7-0.5-37.5,2.7-52.6,5.5c-33.5,30.8-54.4,73.7-54.4,121.2c0,33.3,10.2,64.4,27.9,90.6c-2.8-32.3,11.6-48.9,11.6-48.9
			l11.9,5.8c0,0-10.5,14.2-10.1,40.1c0.2,10.3,2.4,18.9,4.9,25.5c10.3,10.8,22,20.3,34.8,28.2l4.2-0.1c-6.9-25.2-18.2-71.3-9.8-83.1
			c11.6-16.4,207.4-12.8,219.1,0c6.1,6.7,3.5,41.9-0.4,73.8c14.9-11.4,27.9-24.9,38.4-40.1c0.4-10.5-0.7-27.3-8.9-42.2l11.6-6.1
			c0,0,6.7,7,10.1,26.2c10.2-21.2,15.9-44.8,15.9-69.6C479.8,389.5,441.2,333.5,384.6,304.9z"/>
		<path fill="#FFEDE5" d="M286.9,277.5c0,0-5.4-25.3-21.4-32.1c0,0,20.5-9.1,29.4-7.1c8.9,2,13.1,36.7,13.1,36.7s44.4-18.1,74.3-2
			c0,0-34.3,13.9-43.6,29.4c0,0,17.2,5.6,26.3,12.5c9.1,6.9,14.1,20.1,14.1,20.1s-37.2-19.4-64.5-16.3c0,0,20.7,25.1,23,49.5
			c0,0-26.9-7.4-37.8-19.7c-10.9-12.3-12.9-20.9-18.5-23.5c0,0-30.3,34.8-39.9,36.5c0,0-7.8-18.1,5.6-45c0,0-39.2,0.4-52.7,4.2
			c0,0,9.6-25.1,55.6-31.2c0,0-22.5-17-37.8-15.8C211.7,273.6,238.2,252.2,286.9,277.5z"/>
		<circle fill="#C95B5E" cx="388.9" cy="453.1" r="11.1"/>
		<circle fill="#C95B5E" cx="205" cy="453.1" r="11.1"/>
		<g>
			<path fill="#C95B5E" d="M299.7,479.5c-0.1,0-0.2,0-0.4,0c-4.9-0.1-7.8-2.5-9.3-4.4c-1.7-2.1-2.2-4.2-2.2-4.2l1.8-0.4
				c0.1,0.3,1.8,7.1,9.7,7.3c3.3,0.1,5.9-1.3,7.5-4.2c1.3-2.3,1.7-4.5,1.7-4.7l1.8,0.2C310.4,469.3,308.9,479.5,299.7,479.5z"/>
		</g>
		<path fill="#FFEDE5" d="M213,610.8c-3.5,0-6.6,2.1-8.1,5.2c-5.3-2.1-11.6-5.7-18.1-11.1c-8.9-7.3-20.9-20.5-27.6-40.7
			c-11.9-35.8,1.4-56.5,1.6-56.7l-2.7-1.8c-0.6,0.9-14.4,22-2,59.3c9.9,29.9,32.4,48,48,53.9c0,0.2,0,0.4,0,0.5
			c0,4.9,3.9,8.8,8.8,8.8c4.9,0,8.8-3.9,8.8-8.8C221.9,614.8,217.9,610.8,213,610.8z"/>
		<path fill="#FFEDE5" d="M397.8,610.8c3.5,0,6.6,2.1,8.1,5.2c5.3-2.1,11.6-5.7,18.1-11.1c8.9-7.3,20.9-20.5,27.6-40.7
			c11.9-35.8-1.4-56.5-1.6-56.7l2.7-1.8c0.6,0.9,14.4,22,2,59.3c-9.9,29.9-32.4,48-48,53.9c0,0.2,0,0.4,0,0.5c0,4.9-3.9,8.8-8.8,8.8
			c-4.9,0-8.8-3.9-8.8-8.8C388.9,614.8,393,610.8,397.8,610.8z"/>
	</g>
	<g>
		<path fill="#FFEDE5" d="M393.6,667.4H226c-2.2,0-3.9-1.8-3.9-3.9v-16.2c0-2.2,1.8-3.9,3.9-3.9h167.6c2.2,0,3.9,1.8,3.9,3.9v16.2
			C397.5,665.6,395.7,667.4,393.6,667.4z"/>
		<path fill="#FFEDE5" d="M394.8,638.1H224.6c0,0-31.9-99.3-20.3-119.3c5-8.5,188.5-8.5,200.2-1.8
			C413.6,522.3,394.8,638.1,394.8,638.1z"/>
		<g>
			<path fill="#C95B5E" d="M313.6,566.6c-1-0.4-2.3-1.8-2.3-1.8s1,0.2,2.4,0c1.3-0.2,2.2-1.6,2.2-1.6s-1.1,0.3-2.6,0.3
				c-1.5,0-3.4-0.6-3.4-0.6c0.8-1.4,3.2-2.3,3.2-2.3s-1-0.4-2.9-0.1c-1.3,0.2-2.6,1-3.2,1.6c0.1-0.6,0.2-1.7,0.2-2.7
				c0-2.1-0.5-3.3-0.5-3.3c-1.4-0.2-2.5,1.1-2.5,1.1s0.6,0.5,1,1.7c0.3,0.7,0.4,2.2,0.5,3.1c-3.1-1.9-6.6-1.9-6.6-1.9
				c1.3,0.6,2,3.1,2,3.1c-1.9,0.6-6.3,0-6.3,0s0.1,0.4,1.7,1.7c1.6,1.2,4.2,0.3,4.2,0.3s-0.6,0.5-1,2c-0.4,1.4,0.3,2.2,0.3,2.1
				s0.6-1.2,1.8-2.2c1.1-0.9,2.9-1.1,2.9-1.1c0.7,3.6,4.1,4.2,4.1,4.2s0.1-0.7,0.1-1.4c0-0.7-1-3-1-3s1.7,1.6,3.3,2.1
				c1.8,0.5,4.3,0.6,4.3,0.6S314.8,567,313.6,566.6z"/>
			<path fill="#C95B5E" d="M323.5,575.1c-1.7-5.3-5-8.2-8.2-9.8c-0.5,0.4-0.9,0.5-0.9,0.5c1.8,0.9,2.1,3.3,2.1,3.3
				c-3.4,0.4-6.9-1-6.9-1c0.1,2-0.8,3.1-0.8,3.1c-2.9-0.6-5.3-3.9-5.3-3.9c-1.6,0.4-3.5,3.1-3.5,3.1c-2-1.8-0.9-4.3-0.9-4.3
				c-1.8,0.2-3.5-0.3-4.7-0.7c-5.9,3.6-8.9,10.4-7.7,16.2c1.9,9.1,11,16.1,23.2,14.4C322.1,594.4,327.3,587.2,323.5,575.1z"/>
		</g>
	</g>
	<path fill="#FFEDE5" d="M204.4,664.5c0,0-12.6-4.7-25.4-1.7c-12.8,3.1-24.3,14-24.3,14c3.2,4,10,17.5,32.9,12.1
		C210.4,683.6,204.4,664.5,204.4,664.5z M180.4,684.3l-6.2-16.3c0,0,5.2-4.3,11-4.2l7.5,15.6C192.6,679.5,186.1,685.2,180.4,684.3z"
		/>
	<path fill="#FFEDE5" d="M152.4,674.2c0,0,11.7-11.1,25.6-14.7c14-3.5,26.4,2.4,26.4,2.4s-6.5-32.1-35.5-28
		C139.9,637.9,147.7,667.7,152.4,674.2z"/>
	<path fill="#FFEDE5" d="M177.3,670.2c0,0,3.4-2.9,7.2-2.8l5,10.3c0,0-4.3,3.8-8.1,3.3L177.3,670.2z"/>
</g>
<g>
	<g>
		<path fill="#FFEDE5" d="M488.2,349.3c0,0,3.3-4.3,0.8-16.7c-2.5-12.3-4.5-27.4,13.3-37.9c17.7-10.6,44.2-4.1,50.9,19.1
			c6.7,23.2-11.2,35.7-17.8,38.9c-6.7,3.3-20.2,3.1-25.2,6.3C505.2,362.2,507.9,367.3,488.2,349.3z"/>
		<path fill="#FFEDE5" d="M498.4,369l-16-12.6c-0.6-0.5-0.7-1.3-0.2-1.9l1.6-2c0.5-0.6,1.3-0.7,1.9-0.2l16,12.6
			c0.6,0.5,0.7,1.3,0.2,1.9l-1.6,2C499.9,369.4,499,369.5,498.4,369z"/>
		<g>
			<path fill="#FFEDE5" d="M503.3,363.4c-0.4-0.2-0.7-0.3-1.1-0.6l-14-11c-1.7-1.3-2.1-3.8-0.8-5.6c0.3-0.6,1.8-4.5,0.4-11.4
				c-0.2-1.2-0.6-2.4-0.9-3.6c-2-7.4-4.5-16.6,6-30.1c7.5-9.7,25.8-16.3,41.1-10.5c6.1,2.3,11.2,6.3,15.3,12
				c7.4,10.5,9.2,21,5.2,31.5c-3.6,9.3-10.7,15.3-12.9,16.9c-4.8,3.7-11.1,4.7-17.3,5.7c-6.3,1-12.2,1.9-16.2,5.7
				C506.7,363.5,504.9,364,503.3,363.4z M532.7,293.3c-14-5.3-30.7,0.6-37.6,9.5c-9.5,12.3-7.3,20.4-5.5,27.5c0.3,1.3,0.7,2.6,1,3.8
				c1.8,8.6-0.6,13.4-0.7,13.5l-0.1,0.2c-0.3,0.5-0.3,1.1,0.2,1.5l14,11c0.5,0.3,1.1,0.3,1.5-0.2l0.1-0.2c4.7-4.4,11.4-5.5,17.9-6.5
				c5.7-0.9,11.7-1.9,15.9-5.1c2.5-2,24.5-19.9,7.1-44.3C543,299.1,538.3,295.5,532.7,293.3z"/>
		</g>
		<path fill="#FFEDE5" d="M494.5,374.1l-16-12.6c-0.6-0.5-0.7-1.3-0.2-1.9l1.6-2c0.5-0.6,1.3-0.7,1.9-0.2l16,12.6
			c0.6,0.5,0.7,1.3,0.2,1.9l-1.6,2C495.9,374.4,495,374.5,494.5,374.1z"/>
		<path fill="#FFEDE5" d="M490.4,379.3l-16-12.6c-0.6-0.5-0.7-1.3-0.2-1.9l1.6-2c0.5-0.6,1.3-0.7,1.9-0.2l16,12.6
			c0.6,0.5,0.7,1.3,0.2,1.9l-1.6,2C491.8,379.7,490.9,379.7,490.4,379.3z"/>
		<g>
			<path fill="#C95B5E" d="M498.1,352.3l-1-1.4c1.3-0.9,3.9-3.1,5.6-5.3c-2.4-0.2-4.8-1.2-6.2-2.8c-1.6-1.8-2-4-1-6.4
				c1.1-2.7,3-2.8,4.1-2.7c3.2,0.6,6.4,5.1,6.6,8.1c0,0.5-0.1,1-0.2,1.6c3.5-1.1,5.5-3.6,6.1-6.9c-1.2,0.1-2.5-0.1-4-0.7
				c-2.6-1.2-5.5-3.9-5.6-7.2c-0.1-2.1,1.1-3.7,3.2-3.9c3-0.4,6.8,1.9,7.9,6.5c0.2,0.8,0.3,1.6,0.4,2.3c2.2-2.6,0.6-7.8-0.1-10.1
				c-1.2-3.7,6-9.3,7.5-10.4l1.1,1.5c-3.2,2.4-7.4,6.6-6.9,8.4c0.9,2.8,2.9,9.4-1.1,12.5c-0.2,0.1-0.4,0.2-0.6,0.4
				c-0.3,4.6-3,7.9-7.6,9.4c-0.4,0.1-0.8,0.2-1.3,0.3C502.8,348.9,498.7,351.9,498.1,352.3z M499.6,335.8c-0.2,0-0.3-0.1-0.5-0.1
				c-0.6-0.1-1.4-0.1-2.1,1.5c-0.9,2.1-0.1,3.6,0.7,4.5c1.3,1.5,3.8,2.4,6,2.3c0.3-0.6,0.5-1.2,0.5-1.8
				C504.1,339.7,501.7,336.6,499.6,335.8z M507.6,326.9c-0.7-0.2-1.4-0.3-1.9-0.3c-0.7,0.1-1.7,0.5-1.7,2c0.2,2.4,2.4,4.7,4.5,5.7
				c1.2,0.5,2.4,0.7,3.3,0.5c0-1-0.2-2-0.4-3C510.9,329.1,509.2,327.5,507.6,326.9z"/>
		</g>
	</g>
</g>
<path fill="#FFEDE5" d="M455.9,317.5c0,0,20.8-0.2,22.2,2c1.4,2.2-18,9.7-20.3,8.7C455.6,327.1,451.3,318.8,455.9,317.5z"/>
<path fill="#FFEDE5" d="M473.1,278.4c0,0,15.2,14.8,14.7,17.4c-0.5,2.6-20.1-5.8-21-8.3C465.8,285.1,468.6,276,473.1,278.4z"/>
<path fill="#FFEDE5" d="M508.6,259.9c0,0-0.4,19.6-2.5,20.9c-2.1,1.3-8.7-17.3-7.8-19.4C499.4,259.3,507.4,255.5,508.6,259.9z"/>
<path fill="#FFEDE5" d="M587.1,304c0,0-19,5.4-20.8,3.7c-1.9-1.7,14.1-13.3,16.3-13C585,295.1,591.2,301.7,587.1,304z"/>
<path fill="#FFEDE5" d="M579.5,352.5c0,0-15.4-12.2-15.2-14.7c0.2-2.4,19,3.5,20.2,5.7C585.5,345.5,583.7,354.2,579.5,352.5z"/>
<path fill="#FFEDE5" d="M549.2,384.2c0,0-5.4-18.9-3.8-20.8c1.7-1.9,13.4,14,13,16.3C558.1,382.1,551.7,388.1,549.2,384.2z"/>
<path fill="#FFEDE5" d="M519.5,387.6c0,0,4.5-19.1,6.8-20c2.4-0.8,5,18.7,3.5,20.6C528.4,390.3,519.7,392.3,519.5,387.6z"/>
<path fill="#FFEDE5" d="M554.5,263.1c0,0-8.8,17.6-11.3,17.9c-2.5,0.3-0.5-19.3,1.3-20.9C546.5,258.6,555.4,258.6,554.5,263.1z"/>
<path fill="#F2D4C7" d="M409.1,591.5c-0.4,4.3-1.1,9.8-1.7,15.7l0,0c0.7,0.6,1.3,1.2,2,2c4.2-2.1,13.5-7.5,20.4-18.3
	c-6.3,0.1-13.3,0.3-20.7,0.4L409.1,591.5z"/>
<path fill="#F2D4C7" d="M204.4,597.2c-7.2,0.2-13.9,0.4-19.6,0.6c4.2,4,11.3,9.8,18.1,12.3c1.2-1.3,2.9-2.5,4.5-3.3l0,0L204.4,597.2
	z"/>
</svg>
