<?xml version="1.0" encoding="utf-8"?>
<!-- Generator: Adobe Illustrator 22.0.0, SVG Export Plug-In . SVG Version: 6.00 Build 0)  -->
<svg version="1.1" id="Layer_1" xmlns="http://www.w3.org/2000/svg" xmlns:xlink="http://www.w3.org/1999/xlink" x="0px" y="0px"
	 viewBox="0 0 595.3 502.1" style="enable-background:new 0 0 595.3 502.1;" xml:space="preserve">
<style type="text/css">
	.st0{fill:#EAC3B5;}
	.st1{fill:#F2D4C7;}
	.st2{fill:#FFEDE5;}
	.st3{fill:#C95B5E;}
</style>
<g>
	<g>
		<g>
			<path class="st0" d="M95.3,446.6c0,0-4.9,29.3,3.2,37.4c7.8,7.8,397.6-1.3,399.5-4.9c5.4-10.5,0-35.1,0-35.1L118,446.6
				L95.3,446.6L95.3,446.6z"/>
			<g>
				<path class="st1" d="M251.5,350.5C251.7,350.5,251.7,350.5,251.5,350.5C251.7,350.5,251.7,350.5,251.5,350.5z"/>
				<path class="st1" d="M246.3,350.7c1.8-0.1,3.4-0.1,5.2-0.2C249.8,350.5,248,350.7,246.3,350.7z"/>
				<path class="st1" d="M244.6,350.7c0.6,0,1.3,0,1.9-0.1C245.8,350.7,245.2,350.7,244.6,350.7z"/>
				<path class="st1" d="M270,349.9c0.2,0,0.5,0,0.7,0C270.5,349.9,270.2,349.9,270,349.9z"/>
				<path class="st1" d="M270.7,349.9c2.1-0.1,3.9-0.1,6.1-0.2C274.6,349.8,272.5,349.8,270.7,349.9z"/>
				<path class="st1" d="M239.7,350.8c1.8-0.1,3.2-0.1,4.9-0.2C243,350.7,241.2,350.8,239.7,350.8z"/>
				<path class="st1" d="M251.7,350.5c5.9-0.2,12.1-0.4,18.3-0.6C263.7,350.2,257.6,350.4,251.7,350.5z"/>
				<path class="st1" d="M211.9,385.1c0.2-0.1,0.5-0.1,0.6-0.2C212.3,385,212.2,385.1,211.9,385.1z"/>
				<path class="st1" d="M276.8,349.8c0.1,0,0.3,0,0.4,0C276.9,349.8,276.8,349.8,276.8,349.8z"/>
				<path class="st1" d="M211.8,385.1L211.8,385.1L211.8,385.1C211.9,385.1,211.8,385.1,211.8,385.1z"/>
				<path class="st1" d="M211.6,351.7c6.5-0.2,13.6-0.4,20.8-0.6C225.2,351.3,218.1,351.5,211.6,351.7z"/>
				<path class="st1" d="M232.4,351.1c0.8,0,1.9-0.1,2.8-0.1C234.2,350.9,233.5,350.9,232.4,351.1z"/>
				<path class="st1" d="M235,350.9c1,0,2.2-0.1,3.3-0.1C237.3,350.9,236.3,350.9,235,350.9z"/>
				<path class="st1" d="M238.4,350.9c0.4,0,0.8,0,1.1,0C239.3,350.8,238.8,350.9,238.4,350.9z"/>
				<path class="st1" d="M381.5,424.8c0,0-156.9,1.4-163.7,0c-6.8-1.4-3.7-32.3-3.7-32.3l-2.3-7.3c-0.8,0.2-1.8,0.3-2.5,0.3
					c-6.3,0-11.5-4.6-12.5-10.6c-5.6-2.4-17.9-9-26.9-22c-7.3,0.2-11.5,0.4-11.5,0.4c-7.4,0-15,0.6-25.9,8.8s-47.8,84.6-34.6,95.1
					c10.6,13.2,395.5,11.9,400-10.5c2.6-10.1-37.6-99.5-49.1-100.8c-1.5-0.2-7.6-0.2-16.9-0.1c-7.1,10.1-19.3,24.6-33.5,29.4
					c-0.7,5.2-4.1,11-9.5,12C389.2,387.2,394.8,424.8,381.5,424.8z M189.9,444c-28.1,7.1-41.6-11.6-44.7-19.2
					c-3-7.7-10-24.6,5.7-37.2c0,0,17.2-13.6,39.2-1.8C208.7,395.9,217.9,436.9,189.9,444z"/>
				<path class="st1" d="M383.8,346.8c0.1,0,0.1,0,0.2,0C384,346.8,384,346.8,383.8,346.8z"/>
				<path class="st1" d="M309.3,348.8c0.1,0,0.1,0,0.2,0H309.3z"/>
				<path class="st1" d="M309.6,348.8c4.2-0.1,8.5-0.2,12.7-0.4C318.1,348.6,313.9,348.7,309.6,348.8z"/>
				<path class="st1" d="M322.3,348.4c0.1,0,0.3,0,0.4,0C322.6,348.4,322.4,348.4,322.3,348.4z"/>
				<path class="st1" d="M277.1,349.8c10.6-0.3,21.4-0.6,32.3-0.9C298.5,349.1,287.8,349.4,277.1,349.8z"/>
				<path class="st1" d="M354.5,347.6c10.2-0.3,20.2-0.6,29.4-0.8C374.5,347.1,364.7,347.3,354.5,347.6z"/>
				<path class="st1" d="M354.3,347.6C354.3,347.6,354.5,347.6,354.3,347.6C354.5,347.6,354.3,347.6,354.3,347.6z"/>
				<path class="st1" d="M322.7,348.4c10.7-0.3,21.4-0.6,31.6-0.8C344.1,347.8,333.5,348.1,322.7,348.4z"/>
			</g>
			<g>
				<path class="st2" d="M371.7,76c-7.3,2.2-9.6,5.6-9.6,5.6c16,12.7,10.5,35.6,10.5,35.6c-16.8-11.7-46.3-14.6-46.3-14.6
					c13.9,13.8,8.1,47.6,8.1,47.6c-27.9,1.5-62.8-35.9-62.8-35.9c-9.8,17.7-40.2,33-40.2,33c-11.7-15.8-10-49.8-10-49.8
					c-14.9-0.5-35.4,2.5-49.7,5.2c-31.6,29-51.4,69.6-51.4,114.5c0,31.5,9.6,60.8,26.4,85.5c-2.6-30.5,11-46.3,11-46.3l11.2,5.4
					c0,0-10,13.4-9.5,37.8c0.2,9.7,2.3,17.8,4.6,24c9.7,10.1,20.8,19.2,32.9,26.7l3.9-0.1c-6.5-23.8-17.2-67.3-9.3-78.6
					c11-15.5,196-12.1,207,0c5.7,6.3,3.3,39.6-0.4,69.7c14.1-10.7,26.4-23.5,36.2-37.8c0.4-10-0.7-25.7-8.5-39.9l11-5.7
					c0,0,6.3,6.7,9.5,24.7c9.6-20,15-42.3,15-65.7C461.5,155.8,425.1,103,371.7,76z"/>
				<path class="st2" d="M279.4,50.1c0,0-5.2-23.9-20.3-30.3c0,0,19.3-8.6,27.9-6.8c8.5,1.9,12.4,34.6,12.4,34.6s41.9-17,70.1-1.9
					c0,0-32.4,13.1-41.1,27.9c0,0,16.2,5.3,24.8,11.7c8.6,6.5,13.3,19,13.3,19S331.4,86,305.7,88.9c0,0,19.5,23.7,21.8,46.9
					c0,0-25.4-6.9-35.7-18.7c-10.2-11.6-12.1-19.7-17.5-22.2c0,0-28.5,32.9-37.7,34.5c0,0-7.3-17,5.3-42.4c0,0-37,0.4-49.8,3.9
					c0,0,9.1-23.7,52.6-29.5c0,0-21.3-16-35.7-14.9C208.4,46.5,233.5,26.2,279.4,50.1z"/>
				<circle class="st3" cx="375.7" cy="216" r="10.5"/>
				<circle class="st3" cx="202.1" cy="216" r="10.5"/>
				<g>
					<path class="st3" d="M291.4,240.9c-0.1,0-0.2,0-0.4,0c-4.6-0.1-7.3-2.4-8.8-4.1c-1.6-2-2.1-3.9-2.1-3.9l1.8-0.4
						c0.1,0.3,1.8,6.8,9.2,6.9c3.1,0.1,5.6-1.3,7.1-3.9c1.3-2.2,1.6-4.2,1.6-4.4l1.8,0.2C301.5,231.2,300.1,240.9,291.4,240.9z"/>
				</g>
				<path class="st2" d="M209.6,364.9c-3.3,0-6.2,2-7.7,4.9c-5-2-11-5.4-17-10.5c-8.5-6.9-19.7-19.3-26.1-38.5
					c-11.2-33.8,1.4-53.4,1.5-53.6l-2.5-1.8c-0.6,0.8-13.6,20.8-1.9,56c9.4,28.3,30.5,45.4,45.4,50.9c0,0.2,0,0.4,0,0.5
					c0,4.6,3.7,8.4,8.4,8.4c4.6,0,8.4-3.7,8.4-8.4C218,368.7,214.2,364.9,209.6,364.9z"/>
				<path class="st2" d="M384.2,364.9c3.3,0,6.2,2,7.7,4.9c5-2,11-5.4,17-10.5c8.5-6.9,19.7-19.3,26.1-38.5
					c11.2-33.8-1.4-53.4-1.5-53.6l2.5-1.8c0.6,0.8,13.6,20.8,1.9,56c-9.4,28.3-30.5,45.4-45.4,50.9c0,0.2,0,0.4,0,0.5
					c0,4.6-3.7,8.4-8.4,8.4c-4.7,0-8.4-3.7-8.4-8.4C375.7,368.7,379.6,364.9,384.2,364.9z"/>
			</g>
			<g>
				<path class="st2" d="M380.1,418.4H221.8c-2.1,0-3.7-1.8-3.7-3.7v-15.4c0-2.1,1.8-3.7,3.7-3.7h158.3c2.1,0,3.7,1.8,3.7,3.7v15.4
					C383.8,416.7,382.1,418.4,380.1,418.4z"/>
				<path class="st2" d="M381.3,390.7H220.5c0,0-30-93.8-19.2-112.7c4.7-8.1,178.1-8.1,189.1-1.8C399,281.3,381.3,390.7,381.3,390.7
					z"/>
				<g>
					<path class="st3" d="M304.5,323.2c-0.9-0.4-2.2-1.8-2.2-1.8s0.9,0.2,2.3,0c1.3-0.2,2.1-1.5,2.1-1.5s-1,0.3-2.4,0.3
						c-1.4,0-3.2-0.6-3.2-0.6c0.8-1.4,3-2.2,3-2.2s-0.9-0.4-2.8-0.1c-1.3,0.2-2.4,0.9-3,1.5c0.1-0.6,0.2-1.6,0.2-2.5
						c0-2-0.5-3.1-0.5-3.1c-1.4-0.2-2.4,1-2.4,1s0.6,0.5,0.9,1.6c0.3,0.7,0.4,2.1,0.5,3c-3-1.9-6.2-1.9-6.2-1.9c1.3,0.6,1.9,3,1.9,3
						c-1.9,0.6-5.9,0-5.9,0s0.1,0.4,1.6,1.6c1.5,1.1,3.9,0.3,3.9,0.3s-0.6,0.5-0.9,1.9c-0.4,1.4,0.3,2.1,0.3,2
						c0-0.1,0.6-1.1,1.8-2.1c1-0.8,2.8-1,2.8-1c0.7,3.4,3.8,3.9,3.8,3.9s0.1-0.7,0.1-1.4c0-0.7-0.9-2.9-0.9-2.9s1.6,1.5,3.1,2
						c1.8,0.5,4,0.6,4,0.6S305.8,323.5,304.5,323.2z"/>
					<path class="st3" d="M314,331.1c-1.6-5-4.7-7.8-7.8-9.3c-0.5,0.4-0.8,0.5-0.8,0.5c1.8,0.8,2,3.1,2,3.1
						c-3.2,0.4-6.5-0.9-6.5-0.9c0.1,1.9-0.8,3-0.8,3c-2.8-0.6-5-3.7-5-3.7c-1.5,0.4-3.3,3-3.3,3c-1.9-1.8-0.8-4-0.8-4
						c-1.8,0.2-3.3-0.3-4.4-0.7c-5.6,3.4-8.5,9.8-7.3,15.4c1.9,8.6,10.4,15.2,22,13.6C312.6,349.4,317.5,342.7,314,331.1z"/>
				</g>
			</g>
			<path class="st2" d="M201.5,415.6c0,0-11.9-4.4-24-1.6c-12.1,3-22.9,13.2-22.9,13.2c3,3.8,9.5,16.4,31.1,11.5
				C207.2,433.7,201.5,415.6,201.5,415.6z M178.8,434.3l-5.8-15.5c0,0,4.9-4,10.4-3.9l7.1,14.8C190.3,429.8,184.2,435.3,178.8,434.3
				z"/>
			<path class="st2" d="M152.2,424.8c0,0,11.1-10.5,24.1-13.9c13.2-3.3,25,2.3,25,2.3s-6.2-30.3-33.5-26.5
				C140.5,390.5,147.9,418.6,152.2,424.8z"/>
			<path class="st2" d="M175.9,421c0,0,3.2-2.8,6.8-2.6l4.8,9.7c0,0-4,3.5-7.7,3.1L175.9,421z"/>
		</g>
		<path class="st1" d="M394.8,346.6c-0.4,4-1,9.3-1.6,14.9l0,0c0.7,0.6,1.3,1.1,1.9,1.9c3.9-2,12.7-7.1,19.2-17.3
			C408.4,346.2,401.7,346.4,394.8,346.6L394.8,346.6z"/>
		<path class="st1" d="M201.5,352.1c-6.8,0.2-13.1,0.4-18.5,0.6c3.9,3.8,10.6,9.3,17,11.6c1.1-1.3,2.8-2.4,4.2-3.1l0,0L201.5,352.1z
			"/>
	</g>
	<g>
		<g>
			<path class="st2" d="M485.7,123.2l-15.6-12.3c-0.6-0.5-0.7-1.3-0.2-1.9l1.5-1.9c0.5-0.6,1.3-0.7,1.9-0.2l15.6,12.4
				c0.6,0.5,0.7,1.3,0.2,1.9l-1.5,1.9C487.2,123.7,486.2,123.7,485.7,123.2z"/>
			<g>
				<path class="st2" d="M490.5,117.8c-0.4-0.2-0.7-0.3-1-0.6l-13.6-10.7c-1.6-1.3-2-3.7-0.8-5.4c0.3-0.6,1.8-4.4,0.4-11.1
					c-0.2-1.1-0.6-2.4-0.8-3.6c-1.9-7.3-4.4-16.3,5.8-29.5c7.4-9.5,25.3-16,40.2-10.2c5.9,2.3,10.9,6.1,14.9,11.8
					c7.3,10.2,9,20.6,5.1,30.8c-3.6,9.1-10.4,14.9-12.6,16.5c-4.7,3.6-10.8,4.6-16.9,5.5c-6.1,0.9-11.9,1.9-15.9,5.5
					C493.8,117.9,492.1,118.3,490.5,117.8z M519.2,49.3c-13.6-5.2-30,0.6-36.7,9.3c-9.3,12-7.1,19.9-5.4,26.9
					c0.3,1.3,0.7,2.5,0.9,3.7c1.8,8.5-0.6,13.1-0.7,13.1l-0.1,0.2c-0.3,0.5-0.3,1,0.2,1.4l13.6,10.7c0.5,0.3,1,0.3,1.4-0.2l0.1-0.2
					c4.6-4.3,11.1-5.4,17.5-6.3c5.5-0.8,11.5-1.9,15.5-5c2.5-1.9,23.9-19.4,6.9-43.4C529.2,55,524.6,51.5,519.2,49.3z"/>
			</g>
			<path class="st2" d="M481.8,128.2l-15.5-12.3c-0.6-0.5-0.7-1.3-0.2-1.9l1.5-1.9c0.5-0.6,1.3-0.7,1.9-0.2l15.6,12.4
				c0.6,0.5,0.7,1.3,0.2,1.9l-1.5,1.9C483.2,128.5,482.3,128.7,481.8,128.2z"/>
			<path class="st2" d="M477.9,133.3l-15.6-12.4c-0.6-0.5-0.7-1.3-0.2-1.9l1.5-1.9c0.5-0.6,1.3-0.7,1.9-0.2l15.6,12.4
				c0.6,0.5,0.7,1.3,0.2,1.9l-1.5,1.9C479.2,133.7,478.4,133.7,477.9,133.3z"/>
			<g>
				<path class="st2" d="M485.4,107l-0.9-1.3c1.3-0.8,3.8-3.1,5.4-5.2c-2.4-0.2-4.7-1.1-6-2.7c-1.5-1.8-1.9-3.9-0.9-6.3
					c1-2.6,3-2.7,4-2.6c3.1,0.6,6.3,5,6.4,8c0,0.5-0.1,0.9-0.2,1.5c3.5-1,5.4-3.6,5.9-6.9c-1.1,0.1-2.5-0.1-3.9-0.7
					c-2.5-1.1-5.4-3.8-5.4-7c-0.1-2,1-3.6,3.1-3.8c3-0.4,6.6,1.9,7.7,6.3c0.2,0.8,0.3,1.5,0.4,2.3c2.1-2.5,0.6-7.6-0.1-9.9
					c-1.1-3.6,5.8-9.1,7.4-10.1l1,1.4c-3.1,2.4-7.3,6.4-6.9,8.2c0.8,2.7,2.9,9.1-1,12.2c-0.2,0.1-0.4,0.2-0.6,0.4
					c-0.3,4.5-3,7.7-7.5,9.1c-0.4,0.1-0.8,0.2-1.3,0.3C490,103.6,486,106.5,485.4,107z M486.8,90.8c-0.2,0-0.3-0.1-0.5-0.1
					c-0.6-0.1-1.3-0.1-2,1.4c-0.8,2-0.1,3.6,0.7,4.4c1.3,1.4,3.7,2.4,5.8,2.3c0.3-0.6,0.5-1.1,0.5-1.8
					C491.1,94.6,489,91.6,486.8,90.8z M494.6,82.1c-0.7-0.2-1.3-0.3-1.9-0.3c-0.7,0.1-1.6,0.5-1.6,1.9c0.2,2.4,2.4,4.6,4.4,5.5
					c1.1,0.5,2.4,0.7,3.2,0.5c0-0.9-0.2-1.9-0.4-3C497.9,84.4,496.2,82.7,494.6,82.1z"/>
			</g>
		</g>
	</g>
</g>
</svg>
