<?xml version="1.0" encoding="utf-8"?>
<!-- Generator: Adobe Illustrator 18.0.0, SVG Export Plug-In . SVG Version: 6.00 Build 0)  -->
<!DOCTYPE svg PUBLIC "-//W3C//DTD SVG 1.1//EN" "http://www.w3.org/Graphics/SVG/1.1/DTD/svg11.dtd">
<svg version="1.1" id="Layer_1" xmlns="http://www.w3.org/2000/svg" xmlns:xlink="http://www.w3.org/1999/xlink" x="0px" y="0px"
	 viewBox="-7.5 204.1 578.7 512.6" enable-background="new -7.5 204.1 578.7 512.6" xml:space="preserve">
<g>
	<g>
		<path fill="#EAC3B5" d="M64.5,673c0,0-5.3,31.7,3.5,40.4c8.4,8.4,429.7-1.4,431.8-5.3c5.9-11.4,0-38,0-38L89,672.9L64.5,673
			L64.5,673z"/>
		<g>
			<path fill="#F2D4C7" d="M233.2,569.1C233.4,569.1,233.4,569.1,233.2,569.1C233.4,569.1,233.4,569.1,233.2,569.1z"/>
			<path fill="#F2D4C7" d="M227.7,569.3c1.9-0.1,3.7-0.1,5.6-0.2C231.4,569.1,229.5,569.3,227.7,569.3z"/>
			<path fill="#F2D4C7" d="M225.8,569.4c0.6,0,1.4,0,2-0.1C227,569.3,226.4,569.4,225.8,569.4z"/>
			<path fill="#F2D4C7" d="M253.2,568.5c0.2,0,0.5,0,0.7,0C253.7,568.5,253.4,568.5,253.2,568.5z"/>
			<path fill="#F2D4C7" d="M254,568.5c2.2-0.1,4.3-0.1,6.6-0.2C258.2,568.4,256,568.4,254,568.5z"/>
			<path fill="#F2D4C7" d="M220.4,569.5c1.9-0.1,3.5-0.1,5.3-0.2C224,569.4,222.1,569.5,220.4,569.5z"/>
			<path fill="#F2D4C7" d="M233.4,569.1c6.4-0.2,13.1-0.4,19.8-0.6C246.4,568.8,239.8,569,233.4,569.1z"/>
			<path fill="#F2D4C7" d="M190.4,606.5c0.2-0.1,0.5-0.1,0.6-0.2C190.9,606.4,190.7,606.5,190.4,606.5z"/>
			<path fill="#F2D4C7" d="M260.5,568.4c0.1,0,0.3,0,0.4,0C260.7,568.4,260.6,568.4,260.5,568.4z"/>
			<path fill="#F2D4C7" d="M190.3,606.5L190.3,606.5L190.3,606.5C190.4,606.5,190.3,606.5,190.3,606.5z"/>
			<path fill="#F2D4C7" d="M190.1,570.4c7-0.2,14.7-0.4,22.5-0.6C204.8,570,197.1,570.2,190.1,570.4z"/>
			<path fill="#F2D4C7" d="M212.6,569.8c0.9,0,2-0.1,3-0.1C214.6,569.6,213.7,569.6,212.6,569.8z"/>
			<path fill="#F2D4C7" d="M215.4,569.6c1.1,0,2.3-0.1,3.6-0.1C217.9,569.6,216.8,569.6,215.4,569.6z"/>
			<path fill="#F2D4C7" d="M219,569.6c0.4,0,0.9,0,1.2,0C220,569.5,219.5,569.6,219,569.6z"/>
			<path fill="#F2D4C7" d="M373.8,649.4c0,0-169.6,1.5-176.9,0c-7.3-1.5-4-34.9-4-34.9l-2.5-7.9c-0.9,0.2-1.9,0.3-2.7,0.3
				c-6.8,0-12.5-5-13.5-11.5c-6.1-2.6-19.4-9.7-29-23.7c-7.9,0.2-12.4,0.4-12.4,0.4c-8,0-16.2,0.6-28,9.5
				C93,590.5,53.1,673,67.5,684.4C79,698.7,495,697.3,499.8,673c2.8-11-40.6-107.6-53.1-109c-1.6-0.2-8.2-0.2-18.3-0.1
				c-7.7,11-20.9,26.6-36.2,31.8c-0.7,5.6-4.5,11.9-10.3,13C382,608.7,388.1,649.4,373.8,649.4z M166.7,670.2
				c-30.3,7.7-45-12.6-48.3-20.8c-3.2-8.3-10.8-26.6,6.2-40.2c0,0,18.6-14.7,42.4-1.9C187,618.2,196.9,662.5,166.7,670.2z"/>
			<path fill="#F2D4C7" d="M376.2,565.1c0.1,0,0.1,0,0.2,0C376.4,565.1,376.4,565.1,376.2,565.1z"/>
			<path fill="#F2D4C7" d="M295.8,567.2c0.1,0,0.1,0,0.2,0H295.8z"/>
			<path fill="#F2D4C7" d="M296.1,567.2c4.6-0.1,9.2-0.2,13.7-0.4C305.2,567,300.7,567.1,296.1,567.2z"/>
			<path fill="#F2D4C7" d="M309.8,566.8c0.1,0,0.3,0,0.4,0C310.1,566.8,309.9,566.8,309.8,566.8z"/>
			<path fill="#F2D4C7" d="M260.9,568.4c11.5-0.3,23.1-0.6,34.9-1C284.1,567.6,272.5,568,260.9,568.4z"/>
			<path fill="#F2D4C7" d="M344.6,565.9c11.1-0.3,21.8-0.6,31.8-0.9C366.2,565.4,355.6,565.6,344.6,565.9z"/>
			<path fill="#F2D4C7" d="M344.4,565.9C344.4,565.9,344.6,565.9,344.4,565.9C344.6,565.9,344.4,565.9,344.4,565.9z"/>
			<path fill="#F2D4C7" d="M310.2,566.8c11.6-0.3,23.1-0.6,34.2-0.9C333.3,566.2,321.8,566.5,310.2,566.8z"/>
		</g>
		<g>
			<path fill="#FFEDE5" d="M363.1,272.4c-7.9,2.3-10.4,6.1-10.4,6.1c17.3,13.7,11.4,38.5,11.4,38.5c-18.2-12.7-50-15.8-50-15.8
				c15,14.9,8.7,51.5,8.7,51.5c-30.1,1.6-67.9-38.8-67.9-38.8c-10.6,19.2-43.4,35.6-43.4,35.6c-12.7-17.1-10.8-53.8-10.8-53.8
				c-16.1-0.5-38.3,2.7-53.7,5.6c-34.2,31.4-55.5,75.2-55.5,123.7c0,34,10.4,65.7,28.5,92.5c-2.8-33,11.9-50,11.9-50l12.1,5.9
				c0,0-10.8,14.5-10.3,40.9c0.2,10.5,2.5,19.3,5,26c10.5,11,22.5,20.7,35.5,28.8l4.3-0.1c-7-25.7-18.6-72.8-10-84.9
				c11.9-16.7,211.8-13.1,223.7,0c6.2,6.8,3.6,42.8-0.4,75.3c15.2-11.6,28.5-25.4,39.2-40.9c0.4-10.8-0.7-27.8-9.1-43.1l11.9-6.2
				c0,0,6.8,7.2,10.3,26.7c10.4-21.6,16.2-45.8,16.2-71C460.3,358.7,420.9,301.6,363.1,272.4z"/>
			<path fill="#FFEDE5" d="M263.4,244.4c0,0-5.6-25.8-21.9-32.8c0,0,20.9-9.3,30.1-7.3c9.1,2,13.4,37.5,13.4,37.5s45.3-18.4,75.8-2
				c0,0-35,14.2-44.5,30.1c0,0,17.6,5.7,26.8,12.7c9.3,7,14.4,20.5,14.4,20.5s-38-19.8-65.8-16.7c0,0,21.1,25.6,23.5,50.6
				c0,0-27.5-7.5-38.6-20.2c-11.1-12.6-13.1-21.3-18.9-24c0,0-30.9,35.5-40.7,37.2c0,0-7.9-18.4,5.7-45.9c0,0-40,0.4-53.8,4.3
				c0,0,9.8-25.6,56.8-31.9c0,0-23-17.3-38.6-16.1C186.6,240.5,213.7,218.6,263.4,244.4z"/>
			<circle fill="#C95B5E" cx="367.5" cy="423.7" r="11.4"/>
			<circle fill="#C95B5E" cx="179.8" cy="423.7" r="11.4"/>
			<g>
				<path fill="#C95B5E" d="M276.4,450.6c-0.1,0-0.2,0-0.4,0c-5-0.1-7.9-2.6-9.5-4.5c-1.7-2.1-2.2-4.3-2.2-4.3l1.9-0.4
					c0.1,0.3,1.9,7.3,9.9,7.4c3.3,0.1,6.1-1.4,7.7-4.3c1.4-2.3,1.7-4.6,1.7-4.8l1.9,0.2C287.3,440.2,285.8,450.6,276.4,450.6z"/>
			</g>
			<path fill="#FFEDE5" d="M188,584.7c-3.6,0-6.7,2.1-8.3,5.3c-5.4-2.1-11.9-5.8-18.4-11.4c-9.1-7.4-21.3-20.9-28.2-41.6
				c-12.1-36.5,1.5-57.7,1.6-57.9l-2.7-1.9c-0.6,0.9-14.7,22.5-2,60.5c10.1,30.5,33,49,49,55c0,0.2,0,0.4,0,0.5c0,5,4,9,9,9
				c5,0,9-4,9-9C197,588.8,192.9,584.7,188,584.7z"/>
			<path fill="#FFEDE5" d="M376.6,584.7c3.6,0,6.7,2.1,8.3,5.3c5.4-2.1,11.9-5.8,18.4-11.4c9.1-7.4,21.3-20.9,28.2-41.6
				c12.1-36.5-1.5-57.7-1.6-57.9l2.7-1.9c0.6,0.9,14.7,22.5,2,60.5c-10.1,30.5-33,49-49,55c0,0.2,0,0.4,0,0.5c0,5-4,9-9,9s-9-4-9-9
				C367.5,588.8,371.7,584.7,376.6,584.7z"/>
		</g>
		<g>
			<path fill="#FFEDE5" d="M372.3,642.5H201.2c-2.2,0-4-1.9-4-4v-16.6c0-2.2,1.9-4,4-4h171.1c2.2,0,4,1.9,4,4v16.6
				C376.2,640.6,374.4,642.5,372.3,642.5z"/>
			<path fill="#FFEDE5" d="M373.5,612.5H199.7c0,0-32.5-101.4-20.7-121.8c5.1-8.7,192.5-8.7,204.4-1.9
				C392.7,494.3,373.5,612.5,373.5,612.5z"/>
			<g>
				<path fill="#C95B5E" d="M290.6,539.6c-1-0.4-2.3-1.9-2.3-1.9s1,0.2,2.5,0c1.4-0.2,2.2-1.6,2.2-1.6s-1.1,0.3-2.6,0.3
					c-1.5,0-3.5-0.6-3.5-0.6c0.9-1.5,3.2-2.3,3.2-2.3s-1-0.4-3-0.1c-1.4,0.2-2.6,1-3.2,1.6c0.1-0.6,0.2-1.7,0.2-2.7
					c0-2.1-0.5-3.3-0.5-3.3c-1.5-0.2-2.6,1.1-2.6,1.1s0.6,0.5,1,1.7c0.3,0.7,0.4,2.2,0.5,3.2c-3.2-2-6.7-2-6.7-2
					c1.4,0.6,2,3.2,2,3.2c-2,0.6-6.4,0-6.4,0s0.1,0.4,1.7,1.7c1.6,1.2,4.3,0.3,4.3,0.3s-0.6,0.5-1,2c-0.4,1.5,0.3,2.2,0.3,2.1
					c0-0.1,0.6-1.2,1.9-2.2c1.1-0.9,3-1.1,3-1.1c0.7,3.7,4.2,4.3,4.2,4.3s0.1-0.7,0.1-1.5c0-0.7-1-3.1-1-3.1s1.7,1.6,3.3,2.1
					c1.9,0.5,4.4,0.6,4.4,0.6S291.9,539.9,290.6,539.6z"/>
				<path fill="#C95B5E" d="M300.8,548.2c-1.7-5.4-5.1-8.4-8.4-10c-0.5,0.4-0.9,0.5-0.9,0.5c1.9,0.9,2.1,3.3,2.1,3.3
					c-3.5,0.4-7-1-7-1c0.1,2-0.9,3.2-0.9,3.2c-3-0.6-5.4-4-5.4-4c-1.6,0.4-3.6,3.2-3.6,3.2c-2-1.9-0.9-4.4-0.9-4.4
					c-1.9,0.2-3.6-0.3-4.8-0.7c-6.1,3.7-9.1,10.6-7.9,16.6c2,9.3,11.3,16.4,23.7,14.7C299.3,567.9,304.6,560.6,300.8,548.2z"/>
			</g>
		</g>
		<path fill="#FFEDE5" d="M179.2,639.5c0,0-12.9-4.8-26-1.7c-13.1,3.2-24.8,14.3-24.8,14.3c3.2,4.1,10.2,17.8,33.6,12.4
			C185.3,659,179.2,639.5,179.2,639.5z M154.7,659.7l-6.3-16.7c0,0,5.3-4.4,11.3-4.3l7.7,16C167.1,654.8,160.5,660.7,154.7,659.7z"
			/>
		<path fill="#FFEDE5" d="M126,649.4c0,0,12-11.4,26.1-15c14.3-3.6,27,2.5,27,2.5s-6.7-32.8-36.2-28.6
			C113.3,612.3,121.3,642.7,126,649.4z"/>
		<path fill="#FFEDE5" d="M151.5,645.3c0,0,3.5-3,7.3-2.8L164,653c0,0-4.4,3.8-8.3,3.3L151.5,645.3z"/>
	</g>
	<g>
		<g>
			<path fill="#FFEDE5" d="M468.9,317.7c0,0,3.3-4.4,0.9-17.1c-2.6-12.6-4.6-28,13.6-38.7c18.1-10.8,45.1-4.2,52,19.5
				c6.8,23.7-11.4,36.5-18.2,39.7c-6.8,3.3-20.7,3.2-25.7,6.4C486.2,330.9,488.9,336.1,468.9,317.7z"/>
			<path fill="#FFEDE5" d="M479.3,337.8L462.9,325c-0.6-0.5-0.7-1.4-0.2-2l1.6-2c0.5-0.6,1.4-0.7,2-0.2l16.3,12.9
				c0.6,0.5,0.7,1.4,0.2,2l-1.6,2C480.8,338.2,479.9,338.3,479.3,337.8z"/>
			<g>
				<path fill="#FFEDE5" d="M484.3,332.1c-0.4-0.2-0.7-0.3-1.1-0.6l-14.3-11.2c-1.7-1.4-2.1-3.8-0.9-5.7c0.3-0.6,1.9-4.6,0.4-11.6
					c-0.2-1.2-0.6-2.5-0.9-3.7c-2-7.5-4.6-16.9,6.1-30.7c7.7-9.9,26.3-16.7,41.9-10.8c6.2,2.3,11.4,6.4,15.6,12.2
					c7.5,10.8,9.4,21.4,5.3,32.2c-3.7,9.5-10.9,15.6-13.1,17.2c-4.9,3.8-11.4,4.8-17.7,5.8c-6.4,1-12.5,2-16.6,5.8
					C487.8,332.2,485.9,332.7,484.3,332.1z M514.3,260.5c-14.3-5.4-31.3,0.6-38.4,9.7c-9.7,12.6-7.4,20.8-5.6,28.1
					c0.3,1.4,0.7,2.6,1,3.8c1.9,8.8-0.6,13.7-0.7,13.7l-0.1,0.2c-0.3,0.5-0.3,1.1,0.2,1.5l14.3,11.3c0.5,0.3,1.1,0.3,1.5-0.2
					l0.1-0.2c4.8-4.5,11.6-5.6,18.3-6.7c5.8-0.9,12-2,16.2-5.2c2.6-2,25-20.3,7.3-45.3C524.8,266.4,520,262.8,514.3,260.5z"/>
			</g>
			<path fill="#FFEDE5" d="M475.3,343L459,330.1c-0.6-0.5-0.7-1.4-0.2-2l1.6-2c0.5-0.6,1.4-0.7,2-0.2l16.3,12.9
				c0.6,0.5,0.7,1.4,0.2,2l-1.6,2C476.7,343.4,475.8,343.4,475.3,343z"/>
			<path fill="#FFEDE5" d="M471.1,348.3l-16.3-12.9c-0.6-0.5-0.7-1.4-0.2-2l1.6-2c0.5-0.6,1.4-0.7,2-0.2l16.3,12.9
				c0.6,0.5,0.7,1.4,0.2,2l-1.6,2C472.6,348.7,471.6,348.7,471.1,348.3z"/>
			<g>
				<path fill="#C95B5E" d="M479,320.8l-1-1.5c1.4-0.9,4-3.2,5.7-5.4c-2.5-0.2-4.9-1.2-6.3-2.8c-1.6-1.9-2-4.1-1-6.6
					c1.1-2.7,3.1-2.8,4.2-2.7c3.2,0.6,6.6,5.2,6.7,8.3c0,0.5-0.1,1-0.2,1.6c3.6-1.1,5.6-3.7,6.2-7c-1.2,0.1-2.6-0.1-4.1-0.7
					c-2.6-1.2-5.6-4-5.7-7.3c-0.1-2.1,1.1-3.8,3.2-4c3.1-0.4,6.9,2,8,6.7c0.2,0.9,0.3,1.6,0.4,2.3c2.2-2.6,0.6-7.9-0.1-10.3
					c-1.2-3.8,6.1-9.5,7.7-10.6l1.1,1.5c-3.2,2.5-7.5,6.7-7,8.5c0.9,2.8,3,9.6-1.1,12.7c-0.2,0.1-0.4,0.2-0.6,0.4
					c-0.3,4.7-3.1,8-7.8,9.6c-0.4,0.1-0.9,0.2-1.4,0.3C483.7,317.3,479.6,320.4,479,320.8z M480.5,303.9c-0.2,0-0.3-0.1-0.5-0.1
					c-0.6-0.1-1.5-0.1-2.1,1.5c-0.9,2.1-0.1,3.7,0.7,4.6c1.4,1.5,3.8,2.5,6.1,2.3c0.3-0.6,0.5-1.2,0.5-1.9
					C485.1,307.9,482.6,304.8,480.5,303.9z M488.7,294.9c-0.7-0.2-1.5-0.3-2-0.3c-0.7,0.1-1.7,0.5-1.7,2c0.2,2.5,2.5,4.8,4.6,5.8
					c1.2,0.5,2.5,0.7,3.3,0.5c0-1-0.2-2-0.4-3.1C492,297.1,490.3,295.5,488.7,294.9z"/>
			</g>
		</g>
	</g>
	<path fill="#FFEDE5" d="M435.9,285.2c0,0,21.3-0.2,22.6,2c1.5,2.2-18.4,9.9-20.7,8.9C435.6,295,431.2,286.6,435.9,285.2z"/>
	<path fill="#FFEDE5" d="M453.4,245.3c0,0,15.5,15.1,15,17.8c-0.5,2.6-20.5-5.9-21.4-8.5C446,252.2,448.8,242.9,453.4,245.3z"/>
	<path fill="#FFEDE5" d="M489.7,226.5c0,0-0.4,20-2.6,21.3c-2.1,1.4-8.9-17.7-7.9-19.8C480.3,225.9,488.4,221.9,489.7,226.5z"/>
	<path fill="#FFEDE5" d="M569.8,271.5c0,0-19.4,5.6-21.3,3.8c-2-1.7,14.4-13.6,16.7-13.2C567.7,262.4,574,269.2,569.8,271.5z"/>
	<path fill="#FFEDE5" d="M562,321c0,0-15.7-12.5-15.5-15c0.2-2.5,19.4,3.6,20.7,5.8C568.2,313.8,566.4,322.7,562,321z"/>
	<path fill="#FFEDE5" d="M531.1,353.4c0,0-5.6-19.3-3.8-21.3c1.7-2,13.7,14.3,13.2,16.7C540.3,351.2,533.7,357.4,531.1,353.4z"/>
	<path fill="#FFEDE5" d="M500.8,356.9c0,0,4.6-19.5,6.9-20.4c2.5-0.9,5.1,19.1,3.6,21C509.9,359.6,501,361.6,500.8,356.9z"/>
	<path fill="#FFEDE5" d="M536.5,229.7c0,0-9,17.9-11.5,18.3s-0.5-19.7,1.4-21.3C528.4,225.1,537.4,225.1,536.5,229.7z"/>
	<path fill="#F2D4C7" d="M388.1,564.9c-0.4,4.4-1.1,10-1.7,16.1l0,0c0.7,0.6,1.4,1.2,2,2c4.3-2.1,13.7-7.7,20.8-18.7
		c-6.4,0.1-13.6,0.3-21.1,0.4L388.1,564.9z"/>
	<path fill="#F2D4C7" d="M179.2,570.8c-7.3,0.2-14.2,0.4-20,0.6c4.3,4.1,11.5,10,18.4,12.6c1.2-1.4,3-2.6,4.6-3.3l0,0L179.2,570.8z"
		/>
</g>
</svg>
