<?xml version="1.0" encoding="utf-8"?>
<!-- Generator: Adobe Illustrator 18.0.0, SVG Export Plug-In . SVG Version: 6.00 Build 0)  -->
<!DOCTYPE svg PUBLIC "-//W3C//DTD SVG 1.1//EN" "http://www.w3.org/Graphics/SVG/1.1/DTD/svg11.dtd">
<svg version="1.1" id="Layer_1" xmlns="http://www.w3.org/2000/svg" xmlns:xlink="http://www.w3.org/1999/xlink" x="0px" y="0px"
	 viewBox="90.6 358.7 595.3 599.6" enable-background="new 90.6 358.7 595.3 599.6" xml:space="preserve">
<g>
	<path fill="#EAC3B5" d="M92.4,907.8c0,0-6.2,37.1,4.1,47.4c9.8,9.8,503.4-1.6,505.9-6.2c6.9-13.3,0-44.5,0-44.5l-481.3,3.3
		L92.4,907.8L92.4,907.8z"/>
	<g>
		<path fill="#F2D4C7" d="M290.1,786.2C290.2,786.2,290.2,786.2,290.1,786.2C290.2,786.2,290.2,786.2,290.1,786.2z"/>
		<path fill="#F2D4C7" d="M283.6,786.3c2.2-0.1,4.3-0.1,6.6-0.2C287.9,786.2,285.8,786.3,283.6,786.3z"/>
		<path fill="#F2D4C7" d="M281.4,786.4c0.7,0,1.6,0,2.4-0.1C282.8,786.3,282.1,786.4,281.4,786.4z"/>
		<path fill="#F2D4C7" d="M313.4,785.5c0.2,0,0.6,0,0.8,0C314,785.5,313.8,785.5,313.4,785.5z"/>
		<path fill="#F2D4C7" d="M314.4,785.5c2.6-0.1,5-0.1,7.7-0.2C319.4,785.3,316.8,785.3,314.4,785.5z"/>
		<path fill="#F2D4C7" d="M275,786.5c2.2-0.1,4.1-0.1,6.2-0.2C279.2,786.4,277.1,786.5,275,786.5z"/>
		<path fill="#F2D4C7" d="M290.2,786.2c7.5-0.2,15.3-0.5,23.2-0.7C305.5,785.7,297.8,785.9,290.2,786.2z"/>
		<path fill="#F2D4C7" d="M240,830c0.2-0.1,0.6-0.1,0.7-0.2C240.5,829.8,240.2,830,240,830z"/>
		<path fill="#F2D4C7" d="M322,785.2c0.1,0,0.4,0,0.5,0C322.3,785.2,322.1,785.2,322,785.2z"/>
		<path fill="#F2D4C7" d="M239.9,830L239.9,830L239.9,830C240,830,239.9,830,239.9,830z"/>
		<path fill="#F2D4C7" d="M239.5,787.6c8.3-0.2,17.2-0.5,26.4-0.7C256.7,787.1,247.8,787.4,239.5,787.6z"/>
		<path fill="#F2D4C7" d="M265.9,786.9c1.1,0,2.3-0.1,3.5-0.1C268.2,786.8,267.1,786.8,265.9,786.9z"/>
		<path fill="#F2D4C7" d="M269.3,786.8c1.3,0,2.8-0.1,4.2-0.1C272.2,786.7,270.8,786.7,269.3,786.8z"/>
		<path fill="#F2D4C7" d="M273.5,786.7c0.5,0,1,0,1.4,0C274.5,786.5,274.1,786.7,273.5,786.7z"/>
		<path fill="#F2D4C7" d="M471.5,781.3c-0.5,5.1-1.3,11.7-2,18.8l0,0c0.8,0.7,1.6,1.4,2.4,2.4c5-2.5,16.1-9,24.4-21.9
			c-7.5,0.1-15.9,0.4-24.8,0.5L471.5,781.3z"/>
		<path fill="#F2D4C7" d="M226.7,788.1c-8.6,0.2-16.6,0.5-23.4,0.7c5,4.8,13.5,11.7,21.6,14.7c1.4-1.6,3.5-3,5.4-3.9l0,0
			L226.7,788.1z"/>
		<path fill="#F2D4C7" d="M454.7,880.2c0,0-198.6,1.7-207.3,0c-8.6-1.7-4.7-40.9-4.7-40.9l-2.9-9.3c-1,0.2-2.2,0.4-3.2,0.4
			c-8,0-14.6-5.9-15.8-13.5c-7.1-3-22.7-11.4-34-27.7c-9.2,0.2-14.5,0.5-14.5,0.5c-9.4,0-19,0.7-32.8,11.1S79.3,907.7,96,921.1
			c13.5,16.7,500.9,15.1,506.5-13.4c3.3-12.9-47.6-126.1-62.2-127.7c-1.9-0.2-9.6-0.2-21.4-0.1c-9,12.9-24.5,31.2-42.5,37.2
			c-0.8,6.5-5.3,13.9-12.1,15.2C464.3,832.5,471.5,880.2,454.7,880.2z M212.1,904.6c-35.5,9-52.7-14.7-56.6-24.4
			c-3.7-9.7-12.7-31.1,7.3-47.1c0,0,21.8-17.2,49.6-2.2C235.9,843.7,247.5,895.5,212.1,904.6z"/>
		<path fill="#F2D4C7" d="M457.6,781.4c0.1,0,0.1,0,0.2,0C457.8,781.4,457.8,781.4,457.6,781.4z"/>
		<path fill="#F2D4C7" d="M363.4,783.9c0.1,0,0.1,0,0.2,0C363.5,783.9,363.4,783.9,363.4,783.9z"/>
		<path fill="#F2D4C7" d="M363.6,783.9c5.4-0.1,10.8-0.2,16-0.5C374.4,783.7,369,783.8,363.6,783.9z"/>
		<path fill="#F2D4C7" d="M379.8,783.4c0.1,0,0.4,0,0.5,0C380.2,783.4,379.9,783.4,379.8,783.4z"/>
		<path fill="#F2D4C7" d="M322.5,785.2c13.5-0.4,27.1-0.7,40.9-1.2C349.7,784.4,336,784.9,322.5,785.2z"/>
		<path fill="#F2D4C7" d="M420.5,782.4c13-0.4,25.5-0.7,37.2-1C445.9,781.8,433.4,782,420.5,782.4z"/>
		<path fill="#F2D4C7" d="M420.3,782.4C420.3,782.4,420.5,782.4,420.3,782.4C420.5,782.4,420.3,782.4,420.3,782.4z"/>
		<path fill="#F2D4C7" d="M380.3,783.4c13.6-0.4,27-0.7,40.1-1.1C407.3,782.7,393.8,783.1,380.3,783.4z"/>
	</g>
	<g>
		<path fill="#FFEDE5" d="M442.2,438.5c-9.3,2.8-12.2,7.1-12.2,7.1c20.3,16.1,13.4,45.1,13.4,45.1c-21.3-14.9-58.6-18.5-58.6-18.5
			c17.6,17.5,10.2,60.3,10.2,60.3c-35.2,1.9-79.5-45.4-79.5-45.4c-12.4,22.5-50.8,41.7-50.8,41.7c-14.9-20-12.6-63-12.6-63
			c-18.8-0.6-44.8,3.2-62.9,6.6c-40.1,36.8-65.1,88.1-65.1,144.9c0,39.8,12.2,77,33.4,108.4c-3.3-38.6,13.9-58.5,13.9-58.5l14.2,6.9
			c0,0-12.6,17-12.1,48c0.2,12.3,2.9,22.6,5.9,30.5c12.3,12.9,26.3,24.3,41.6,33.7l5-0.1c-8.3-30.1-21.8-85.3-11.7-99.4
			c13.9-19.6,248-15.3,262,0c7.3,8,4.2,50.1-0.5,88.3c17.8-13.6,33.4-29.8,45.9-48c0.5-12.6-0.8-32.6-10.6-50.5l13.9-7.3
			c0,0,8,8.4,12.1,31.3c12.2-25.4,19-53.6,19-83.2C556.1,539.7,509.9,472.7,442.2,438.5z"/>
		<path fill="#FFEDE5" d="M325.4,405.8c0,0-6.5-30.3-25.6-38.4c0,0,24.5-10.9,35.2-8.5s15.7,43.9,15.7,43.9s53.1-21.6,88.9-2.4
			c0,0-41,16.6-52.1,35.2c0,0,20.6,6.7,31.5,14.9c10.9,8.3,16.9,24,16.9,24s-44.5-23.2-77.1-19.5c0,0,24.8,30,27.5,59.2
			c0,0-32.2-8.9-45.2-23.6c-13-14.7-15.4-25-22.1-28.1c0,0-36.2,41.6-47.7,43.7c0,0-9.3-21.6,6.7-53.8c0,0-46.9,0.5-63,5
			c0,0,11.5-30,66.5-37.3c0,0-26.9-20.3-45.2-18.9C235.4,401.1,267.1,375.5,325.4,405.8z"/>
		<circle fill="#C95B5E" cx="447.4" cy="615.8" r="13.3"/>
		<circle fill="#C95B5E" cx="227.4" cy="615.8" r="13.3"/>
		<g>
			<path fill="#C95B5E" d="M340.7,647.3c-0.1,0-0.2,0-0.5,0c-5.9-0.1-9.3-3-11.1-5.3c-2-2.5-2.6-5-2.6-5l2.2-0.5
				c0.1,0.4,2.2,8.5,11.6,8.7c3.9,0.1,7.1-1.6,9-5c1.6-2.8,2-5.4,2-5.6l2.2,0.2C353.5,635.1,351.7,647.3,340.7,647.3z"/>
		</g>
		<path fill="#FFEDE5" d="M237,804.4c-4.2,0-7.9,2.5-9.7,6.2c-6.3-2.5-13.9-6.8-21.6-13.3c-10.6-8.7-25-24.5-33-48.7
			c-14.2-42.8,1.7-67.6,1.9-67.8l-3.2-2.2c-0.7,1.1-17.2,26.3-2.4,70.9c11.8,35.8,38.7,57.4,57.4,64.5c0,0.2,0,0.5,0,0.6
			c0,5.9,4.7,10.5,10.5,10.5c5.9,0,10.5-4.7,10.5-10.5C247.6,809.1,242.9,804.4,237,804.4z"/>
		<path fill="#FFEDE5" d="M458,804.4c4.2,0,7.9,2.5,9.7,6.2c6.3-2.5,13.9-6.8,21.6-13.3c10.6-8.7,25-24.5,33-48.7
			c14.2-42.8-1.7-67.6-1.9-67.8l3.2-2.2c0.7,1.1,17.2,26.3,2.4,70.9c-11.8,35.8-38.7,57.4-57.4,64.5c0,0.2,0,0.5,0,0.6
			c0,5.9-4.7,10.5-10.5,10.5c-5.9,0-10.5-4.7-10.5-10.5C447.4,809.1,452.3,804.4,458,804.4z"/>
	</g>
	<g>
		<path fill="#FFEDE5" d="M453,872.1H252.5c-2.6,0-4.7-2.2-4.7-4.7V848c0-2.6,2.2-4.7,4.7-4.7H453c2.6,0,4.7,2.2,4.7,4.7v19.4
			C457.6,869.9,455.5,872.1,453,872.1z"/>
		<path fill="#FFEDE5" d="M454.4,837H250.9c0,0-38.2-118.8-24.3-142.7c6-10.2,225.4-10.2,239.4-2.2C476.9,698.5,454.4,837,454.4,837
			z"/>
		<g>
			<path fill="#C95B5E" d="M357.3,751.5c-1.2-0.5-2.8-2.2-2.8-2.2s1.2,0.2,2.9,0c1.6-0.2,2.6-1.9,2.6-1.9s-1.3,0.4-3.1,0.4
				s-4.1-0.7-4.1-0.7c1-1.7,3.8-2.8,3.8-2.8s-1.2-0.5-3.5-0.1c-1.6,0.2-3.1,1.2-3.8,1.9c0.1-0.7,0.2-2,0.2-3.2
				c0-2.5-0.6-3.9-0.6-3.9c-1.7-0.2-3,1.3-3,1.3s0.7,0.6,1.2,2c0.4,0.8,0.5,2.6,0.6,3.7c-3.7-2.3-7.9-2.3-7.9-2.3
				c1.6,0.7,2.4,3.7,2.4,3.7c-2.3,0.7-7.5,0-7.5,0s0.1,0.5,2,2c1.9,1.4,5,0.4,5,0.4s-0.7,0.6-1.2,2.4c-0.5,1.7,0.4,2.6,0.4,2.5
				c0-0.1,0.7-1.4,2.2-2.6c1.3-1.1,3.5-1.3,3.5-1.3c0.8,4.3,4.9,5,4.9,5s0.1-0.8,0.1-1.7c0-0.8-1.2-3.6-1.2-3.6s2,1.9,3.9,2.5
				c2.2,0.6,5.1,0.7,5.1,0.7S358.7,752,357.3,751.5z"/>
			<path fill="#C95B5E" d="M369.1,761.7c-2-6.3-6-9.8-9.8-11.7c-0.6,0.5-1.1,0.6-1.1,0.6c2.2,1.1,2.5,3.9,2.5,3.9
				c-4.1,0.5-8.3-1.2-8.3-1.2c0.1,2.4-1,3.7-1,3.7c-3.5-0.7-6.3-4.7-6.3-4.7c-1.9,0.5-4.2,3.7-4.2,3.7c-2.4-2.2-1.1-5.1-1.1-5.1
				c-2.2,0.2-4.2-0.4-5.6-0.8c-7.1,4.3-10.6,12.4-9.2,19.4c2.3,10.9,13.2,19.3,27.7,17.2C367.5,784.7,373.7,776.1,369.1,761.7z"/>
		</g>
	</g>
	<path fill="#FFEDE5" d="M226.7,868.6c0,0-15.1-5.6-30.4-2c-15.3,3.7-29.1,16.7-29.1,16.7c3.8,4.8,12,20.9,39.3,14.5
		C233.9,891.4,226.7,868.6,226.7,868.6z M198,892.3l-7.4-19.5c0,0,6.2-5.1,13.2-5l9,18.7C212.6,886.5,204.8,893.3,198,892.3z"/>
	<path fill="#FFEDE5" d="M164.5,880.2c0,0,14-13.3,30.6-17.6c16.7-4.2,31.6,2.9,31.6,2.9s-7.8-38.4-42.5-33.5
		C149.6,836.8,158.9,872.4,164.5,880.2z"/>
	<path fill="#FFEDE5" d="M194.3,875.4c0,0,4.1-3.5,8.6-3.3l6,12.3c0,0-5.1,4.5-9.7,3.9L194.3,875.4z"/>
</g>
<g>
	<g>
		<path fill="#FFEDE5" d="M578.3,515.2l-19.1-15.1c-0.7-0.6-0.8-1.6-0.2-2.3l1.9-2.4c0.6-0.7,1.6-0.8,2.3-0.2l19.1,15.1
			c0.7,0.6,0.8,1.6,0.2,2.3l-1.9,2.4C580.1,515.7,579,515.8,578.3,515.2z"/>
		<g>
			<path fill="#FFEDE5" d="M584.2,508.5c-0.5-0.2-0.8-0.4-1.3-0.7l-16.7-13.2c-2-1.6-2.5-4.5-1-6.7c0.4-0.7,2.2-5.4,0.5-13.6
				c-0.2-1.4-0.7-2.9-1.1-4.3c-2.4-8.9-5.4-19.9,7.2-36c9-11.6,30.9-19.5,49.2-12.6c7.3,2.8,13.4,7.5,18.3,14.4
				c8.9,12.6,11,25.1,6.2,37.7c-4.3,11.1-12.8,18.3-15.4,20.2c-5.7,4.4-13.3,5.6-20.7,6.8c-7.5,1.2-14.6,2.3-19.4,6.8
				C588.2,508.6,586.1,509.2,584.2,508.5z M619.3,424.6c-16.7-6.3-36.7,0.7-45,11.4c-11.4,14.7-8.7,24.4-6.6,32.9
				c0.4,1.6,0.8,3.1,1.2,4.5c2.2,10.3-0.7,16-0.8,16.1l-0.1,0.2c-0.4,0.6-0.4,1.3,0.2,1.8l16.7,13.2c0.6,0.4,1.3,0.4,1.8-0.2
				l0.1-0.2c5.6-5.3,13.6-6.6,21.4-7.8c6.8-1.1,14-2.3,19-6.1c3-2.4,29.3-23.8,8.5-53C631.7,431.6,626,427.3,619.3,424.6z"/>
		</g>
		<path fill="#FFEDE5" d="M573.7,521.3l-19.1-15.1c-0.7-0.6-0.8-1.6-0.2-2.3l1.9-2.4c0.6-0.7,1.6-0.8,2.3-0.2l19.1,15.1
			c0.7,0.6,0.8,1.6,0.2,2.3l-1.9,2.4C575.3,521.6,574.3,521.8,573.7,521.3z"/>
		<path fill="#FFEDE5" d="M568.8,527.5l-19.1-15.1c-0.7-0.6-0.8-1.6-0.2-2.3l1.9-2.4c0.6-0.7,1.6-0.8,2.3-0.2l19.1,15.1
			c0.7,0.6,0.8,1.6,0.2,2.3l-1.9,2.4C570.4,528,569.4,528,568.8,527.5z"/>
		<g>
			<path fill="#FFEDE5" d="M578,495.2l-1.2-1.7c1.6-1.1,4.7-3.7,6.7-6.3c-2.9-0.2-5.7-1.4-7.4-3.3c-1.9-2.2-2.4-4.8-1.2-7.7
				c1.3-3.2,3.6-3.3,4.9-3.2c3.8,0.7,7.7,6.1,7.9,9.7c0,0.6-0.1,1.2-0.2,1.9c4.2-1.3,6.6-4.3,7.3-8.3c-1.4,0.1-3-0.1-4.8-0.8
				c-3.1-1.4-6.6-4.7-6.7-8.6c-0.1-2.5,1.3-4.4,3.8-4.7c3.6-0.5,8.1,2.3,9.4,7.8c0.2,1,0.4,1.9,0.5,2.8c2.6-3.1,0.7-9.3-0.1-12.1
				c-1.4-4.4,7.2-11.1,9-12.4l1.3,1.8c-3.8,2.9-8.9,7.9-8.3,10c1.1,3.3,3.5,11.2-1.3,14.9c-0.2,0.1-0.5,0.2-0.7,0.5
				c-0.4,5.5-3.6,9.4-9.1,11.2c-0.5,0.1-1,0.2-1.6,0.4C583.6,491.1,578.7,494.7,578,495.2z M579.8,475.5c-0.2,0-0.4-0.1-0.6-0.1
				c-0.7-0.1-1.7-0.1-2.5,1.8c-1.1,2.5-0.1,4.3,0.8,5.4c1.6,1.8,4.5,2.9,7.2,2.8c0.4-0.7,0.6-1.4,0.6-2.2
				C585.1,480.1,582.3,476.4,579.8,475.5z M589.3,464.8c-0.8-0.2-1.7-0.4-2.3-0.4c-0.8,0.1-2,0.6-2,2.4c0.2,2.9,2.9,5.6,5.4,6.8
				c1.4,0.6,2.9,0.8,3.9,0.6c0-1.2-0.2-2.4-0.5-3.6C593.3,467.5,591.2,465.5,589.3,464.8z"/>
		</g>
	</g>
</g>
</svg>
