<?xml version="1.0" encoding="UTF-8"?>
<svg id="Layer_1" xmlns="http://www.w3.org/2000/svg" version="1.1" viewBox="0 0 482.2 482.2">
  <!-- Generator: Adobe Illustrator 29.5.0, SVG Export Plug-In . SVG Version: 2.1.0 Build 137)  -->
  <defs>
    <style>
      .st0 {
        fill: #8e552b;
      }

      .st1 {
        fill: #bc7f55;
      }
    </style>
  </defs>
  <path class="st0" d="M271.79,63.96v33.42c0,7.35,5.68,13.33,12.96,14.05,67.87,6.7,120.29,65.17,117.24,135.51-2.69,63.06-51.77,116.22-114.47,123.64-63.06,7.5-118.47-30.8-138.06-85.34-2.62-7.28,2.55-14.93,10.27-14.93h31.09c13.47,0,21.63-15,14.2-26.29l-76.53-116.87c-6.63-10.12-21.48-10.12-28.11,0L19.62,249.93c-5.53,8.45.51,19.66,10.63,19.66h37.5c8.3,0,15.44,5.75,17.26,13.76,19.37,85.63,96.19,149.35,187.43,149.35,105.59,0,192.24-85.92,192.24-192.24S386.33,57.33,287.15,49.54c-8.3-.66-15.44,6.04-15.44,14.42h.08Z"/>
  <path class="st1" d="M117.56,136.14h0c4.49-2.59,10.24-1.05,12.83,3.44l26.32,45.59c2.59,4.49,1.05,10.24-3.44,12.83h0c-4.49,2.59-10.24,1.05-12.83-3.44l-26.32-45.59c-2.59-4.49-1.05-10.24,3.44-12.83Z"/>
</svg>