<?xml version="1.0" encoding="utf-8"?>
<!-- Generator: Adobe Illustrator 18.0.0, SVG Export Plug-In . SVG Version: 6.00 Build 0)  -->
<!DOCTYPE svg PUBLIC "-//W3C//DTD SVG 1.1//EN" "http://www.w3.org/Graphics/SVG/1.1/DTD/svg11.dtd">
<svg version="1.1" id="Layer_1" xmlns="http://www.w3.org/2000/svg" xmlns:xlink="http://www.w3.org/1999/xlink" x="0px" y="0px"
	 viewBox="0 849 595.3 502.1" enable-background="new 0 849 595.3 502.1" xml:space="preserve">
<g>
	<g>
		<path fill="#F2D4C7" d="M365.3,1116.9l-64.1-21.1c0,0-77.4,37.1-153.3,73.8c21.7,8,48.1,16.5,50.9,9.7c4.9-11.6,38.9-48,38.9-48
			s67.9,8.8,87.4,10.7L365.3,1116.9z"/>
		<g>
			<path fill="#F2D4C7" d="M411.6,1273.9c9-1.3,13.3,6.4,14.6,16.2l166-98.6l-73.6-24.2c4.9,6.6,5.5,18.6,1.8,29.2
				c-5.1,14.9-17.1,13.7-17.1,13.7c-41.1,24-89.4,7.2-89.4,7.2c-36.9,32.6-79.4,41.3-79.4,41.3c24.2,26.3,47.8,36.8,64.7,40.8
				C396.6,1288.6,397.3,1276,411.6,1273.9z"/>
			<path fill="#F2D4C7" d="M505,1162.8l-46.6-15.3c-6.3,30.6-30,59.3-30,59.3c37.5,7,67.1-11.6,67.1-11.6
				C491.4,1179.4,496.3,1165.8,505,1162.8z"/>
			<path fill="#F2D4C7" d="M308.6,1262.8c0,0-67.6,17.7-135.9-19.5c-35.8-19.5-56.1-38.9-67.3-52.8c-55.9,27.2-101.9,49.9-101.9,51
				l319.8,110l62-36.9C338.3,1301.3,308.6,1262.8,308.6,1262.8z"/>
		</g>
		<g opacity="0.5">
			<g>
				<path fill="#EAC3B5" d="M496.9,1170.5c-19.1,11.4-40.4,24-62.5,37.2c8.1,1,15.9,0.8,23-0.1c13.1-7.8,25.6-15.2,36.8-21.8
					C493.8,1179.9,494.9,1174.6,496.9,1170.5z"/>
				<path fill="#EAC3B5" d="M416.4,1218.4c-4.2,2.4-8.5,5-12.6,7.5c-12.6,9.6-25.4,16.6-36.5,21.6c-9.5,5.6-18.8,11.1-28,16.6
					c3,3,5.9,5.8,8.9,8.3c10.8-6.4,22.2-13.1,34.2-20.3c17.2-10.2,34.4-20.4,50.9-30.1C425.5,1220.8,419.5,1219.3,416.4,1218.4z"/>
				<path fill="#EAC3B5" d="M320.2,1275.3c-31.7,18.7-60,35.3-80.3,47.2l14.6,5c3.8-2.1,7.6-4.5,11.9-6.9c17-10,38.1-22.4,62.9-37.1
					C325.8,1280.7,322.8,1277.8,320.2,1275.3z"/>
				<path fill="#EAC3B5" d="M518.5,1167.3c0.6,0.9,1.2,1.8,1.7,3c0.9-0.5,1.7-1,2.5-1.5L518.5,1167.3z"/>
			</g>
			<path fill="#EAC3B5" d="M198.2,1254.7L145,1290l13.9,4.8l53.5-35.4C207.7,1258,203,1256.5,198.2,1254.7z"/>
			<g>
				<path fill="#EAC3B5" d="M137.8,1220.9l-66.9,43.6l14.1,4.8l63.1-41.1C144.4,1225.7,141,1223.3,137.8,1220.9z"/>
				<path fill="#EAC3B5" d="M287.2,1137.5l47.3-30.9l-14.3-4.7l-51.1,33.3C274.9,1136,281.1,1136.8,287.2,1137.5z"/>
			</g>
		</g>
		<g opacity="0.5">
			<path fill="#EAC3B5" d="M351.3,1334.5l12.5-7.4L73.7,1205.7c-4.8,2.3-9.5,4.7-13.9,6.8L351.3,1334.5z"/>
			<g>
				<path fill="#EAC3B5" d="M230,1139.6l-11.3-4.2c-4.8,2.2-9.6,4.6-14.6,7l17.5,6.5C224.7,1145.6,227.5,1142.3,230,1139.6z"/>
				<path fill="#EAC3B5" d="M413.9,1217.6c-0.9,0.8-1.8,1.5-2.6,2.3l81.7,30.5l12.8-7.6l-52.1-19.5
					C431,1223.6,413.9,1217.6,413.9,1217.6z"/>
			</g>
			<g>
				<path fill="#EAC3B5" d="M494.4,1179.2l-41.1-14.7c-1.4,3.7-3.1,7.3-4.8,10.7l46.3,16.5C493.9,1187.2,493.9,1182.9,494.4,1179.2z
					"/>
				<path fill="#EAC3B5" d="M522.3,1189.1c-0.4,2.5-1,5-1.8,7.4c-0.5,1.3-1,2.6-1.5,3.7l36.6,13l13-7.7L522.3,1189.1z"/>
				<g>
					<path fill="#EAC3B5" d="M283.5,1104.2c-4.3,2-9.3,4.5-14.9,7.1l67.1,23.9l12.7-7.9L283.5,1104.2z"/>
				</g>
			</g>
			<g>
				<path fill="#EAC3B5" d="M424.4,1282.6c0.8,2.2,1.4,4.8,1.7,7.4l6.5-3.9L424.4,1282.6z"/>
				<path fill="#EAC3B5" d="M406.9,1275.1l-52.2-22.4c-7.5,2.9-13.4,4.6-16.9,5.4l61,26.2C399.9,1280.3,402.4,1276.9,406.9,1275.1z"
					/>
			</g>
		</g>
	</g>
	<g>
		<path fill="#FFEDE5" d="M404.3,1128.4c7.2,0,13.2,4.8,15.3,11.3c7.2-0.4,23-3,32.7-16.6c3.6-31.9-1.9-67.9-18.5-106.1
			c-24.4-55.8-62-79.5-95.1-88.9l-13.9,1c7,2.9,18.6,17.9,18.6,17.9l-54.5,1.7c9.9,17.6,2.4,31.7,2.4,31.7
			c-22.5-19.7-44.6-15.2-44.6-15.2c2.5,19.3-7.4,37.3-7.4,37.3c-15.8-6.3-41.8-36.8-41.8-36.8c-6.7,1.2-37.9,25.5-37.9,25.5
			c-5.2-13.4-6-24.3-5.1-32.6c-58.1,42.4-78.6,117.6-57.3,182.5c29.6,89.9,113.8,121.4,206.7,112.8c-7.9-10.3-14.8-24.8-14.8-24.8
			l10.6-3.8c4.9,10.5,14.7,21.5,19.8,26.8c2.5-0.3,5-0.7,7.5-1.1c62-10,107.4-50.4,121.7-107.5c-7.1,4-17.8,8.3-29.9,7.7
			c-2.5,5.3-8,9.1-14.4,9.1c-8.9,0-16-7.1-16-16C388.3,1135.6,395.4,1128.4,404.3,1128.4z M356.6,1181.4c-2,0-4-0.4-5.8-1
			c-6.9,3.6-25.9,11.2-55.2,5.4c-37.5-7.3-66.9-33.6-66.9-33.6l12.2-11.5c0,0,31.4,24.3,56.2,29.9c19.2,4.4,36.3,0.1,43.1-2
			c-0.3-1.2-0.5-2.5-0.5-4c0-9.3,7.5-16.7,16.7-16.7c9.2,0,16.7,7.5,16.7,16.7C373.1,1173.8,365.9,1181.4,356.6,1181.4z"/>
		<path fill="#FFEDE5" d="M509.2,1169.3c-15.2,0.3-8.3,24.3-6.3,30.9c-5.6,3.6-16.1,8.6-35,12.6c-34.3,7.4-63.3-9-63.6-9.2l-1.4,2.4
			c0.2,0.1,20.2,11.5,46.7,11.5c6,0,12.3-0.6,18.8-2c18.8-4.1,29.5-9,35.5-12.7C511.3,1215,526.2,1169,509.2,1169.3z"/>
		<path fill="#FFEDE5" d="M220.1,915.3c0,0-5.5-20.4-31.8-41.4c0,0,8.8-26.3,27.1-24.7c0,0,19.1,15.3,26,51.5c0,0,23.7-21,49.6-20.3
			c0,0-17,9.3-25.7,31.4c0,0,42.1-13.2,68.7,0.6c0,0-20.4,15.4-39.7,15.2c0,0,21.2,3.1,29.5,11.6c0,0-45.2,0.1-56.5,1.8
			c0,0,14.1,5.8,16.7,25.1c0,0-23.3-20.5-49.8-12.7c0,0,7.3,23.6,1.5,34.8c0,0-23.9-12.4-28.8-40.7c0,0-33.1,14.3-45,32.1
			c0,0-2.7-29.3,30.1-47.8c0,0-17.8-5.8-32.5-0.3C159.5,931.5,191.5,899.2,220.1,915.3z"/>
		<circle fill="#C95B5E" cx="424.1" cy="1060.8" r="13"/>
		<circle fill="#C95B5E" cx="254.2" cy="1096.1" r="13"/>
		<g>
			<path fill="#C95B5E" d="M360.5,1108.3c-0.1,0.1-0.3,0.1-0.4,0.2c-5.3,2.2-9.6,1.1-12.2-0.2c-2.9-1.4-4.4-3.5-4.5-3.6l1.6-1.3
				c0.2,0.3,5.4,6.8,14.2,3.2c3.6-1.5,5.6-4.3,6.1-8.2c0.3-3.1-0.4-5.8-0.4-5.8l2-0.6C366.9,1092,370.4,1103.7,360.5,1108.3z"/>
		</g>
		<g>
			<path fill="#EAC3B5" d="M345.3,1136.1l23.3,51.1c0,0,5.6,9.5,24.2,0c17.4-8.8,18.8-11.5,16.6-18.8c-1.9-6-21-47.3-21-47.3
				L345.3,1136.1z"/>
			
				<ellipse transform="matrix(0.3277 0.9448 -0.9448 0.3277 1312.7864 412.1409)" fill="#FFEDE5" cx="366.8" cy="1128.5" rx="8.1" ry="22.9"/>
			<path fill="#F2D4C7" d="M368.8,1127c7.5-2.6,14.7-3.6,19.2-2.9c0.6-1.1,0.7-2.2,0.4-3.2c-1.4-4.3-12.3-4.3-24.2-0.2
				c-11.9,4.2-20.5,10.9-18.9,15.2c0.5,1.5,2.3,2.5,5,3C352.3,1135.1,359.6,1130.3,368.8,1127z"/>
		</g>
		<path fill="#FFEDE5" d="M356.3,1153c-6.2,0-11.2,5-11.2,11.2c0,3.1,1.2,5.9,3.3,7.9c-26.6,12.3-53,6.7-71.3-0.6
			c-22.1-8.9-37.5-22.3-37.6-22.4l-1.8,2.1c0.2,0.1,15.8,13.8,38.4,22.9c13.4,5.4,26.5,8,39.1,8c12.6,0,24.7-2.7,35.9-8.1
			c1.6,0.8,3.4,1.3,5.3,1.3c6.2,0,11.2-5,11.2-11.2C367.5,1158,362.5,1153,356.3,1153z"/>
		<path fill="#FFEDE5" d="M464.5,1095.3c-2.6-7.3-8-12.8-12.9-16.3l0.5,4l0,0c3.8,3.2,7.6,7.5,9.8,13.2c3.2,8.6,1.6,17.8-4.4,27.6
			c-10.9,17.6-30.1,20.6-42.2,20.5c-0.2-6-5.1-10.7-11.1-10.7c-6.2,0-11.2,5-11.2,11.2s5,11.2,11.2,11.2c5.4,0,9.9-3.8,10.9-8.8
			c0.2,0,0.4,0,0.6,0c12.7,0,32.8-3.3,44.2-21.8C466.5,1114.8,468,1104.8,464.5,1095.3z"/>
		<path fill="#FFEDE5" d="M407.6,1310.9c0,0-13.1-26.1,4.2-28.6C429.1,1279.8,420.8,1328.8,407.6,1310.9z"/>
		<g>
			<path fill="#FFEDE5" d="M413.5,1312.1c-41.4-5-71.3-26-88.9-42.7c-19.1-18.1-28.6-35.2-28.7-35.4l2.4-1.3
				c0.1,0.2,9.4,17,28.2,34.8c17.3,16.4,46.5,37,87.2,41.8L413.5,1312.1z"/>
		</g>
	</g>
</g>
</svg>
